<?xml version="1.0" encoding="utf-8" standalone="no"?>
<!DOCTYPE svg PUBLIC "-//W3C//DTD SVG 1.1//EN"
  "http://www.w3.org/Graphics/SVG/1.1/DTD/svg11.dtd">
<!-- Created with matplotlib (http://matplotlib.org/) -->
<svg height="394pt" version="1.1" viewBox="0 0 677 394" width="677pt" xmlns="http://www.w3.org/2000/svg" xmlns:xlink="http://www.w3.org/1999/xlink">
 <defs>
  <style type="text/css">
*{stroke-linecap:butt;stroke-linejoin:round;}
  </style>
 </defs>
 <g id="figure_1">
  <g id="patch_1">
   <path d="
M0 394.56
L677.5 394.56
L677.5 0
L0 0
z
" style="fill:#ffffff;"/>
  </g>
  <g id="axes_1">
   <g id="patch_2">
    <path d="
M497.032 53.6817
C455.588 53.6817 415.696 69.6498 385.699 98.2468
C355.701 126.844 337.846 165.927 335.866 207.324
C333.886 248.721 347.931 289.33 375.062 320.659
C402.194 351.988 440.379 371.69 481.635 375.645
L497.032 215.032
L497.032 53.6817
z
" style="fill:#4b4c0d;opacity:0.5;stroke:#4b4c0d;stroke-linejoin:miter;"/>
   </g>
   <g id="patch_3">
    <path d="
M489.693 376.031
C517.174 378.665 544.876 374.203 570.14 363.073
C595.404 351.943 617.394 334.513 633.997 312.458
C650.601 290.402 661.269 264.449 664.978 237.093
C668.686 209.736 665.313 181.88 655.181 156.2
L505.09 215.417
L489.693 376.031
z
" style="fill:#174013;opacity:0.5;stroke:#174013;stroke-linejoin:miter;"/>
   </g>
   <g id="patch_4">
    <path d="
M655.181 156.2
C654.623 154.785 654.044 153.378 653.446 151.979
C652.848 150.58 652.23 149.19 651.593 147.809
L505.09 215.417
L655.181 156.2
z
" style="fill:#34372d;opacity:0.5;stroke:#34372d;stroke-linejoin:miter;"/>
   </g>
   <g id="patch_5">
    <path d="
M651.593 147.809
C645.326 134.23 637.202 121.588 627.454 110.246
C617.706 98.9046 606.428 88.9731 593.945 80.7373
L505.09 215.417
L651.593 147.809
z
" style="fill:#4c0004;opacity:0.5;stroke:#4c0004;stroke-linejoin:miter;"/>
   </g>
   <g id="patch_6">
    <path d="
M593.945 80.7373
C584.289 74.3668 573.976 69.0532 563.184 64.8882
C552.392 60.7231 541.183 57.7308 529.751 55.9627
L505.09 215.417
L593.945 80.7373
z
" style="fill:#00044c;opacity:0.5;stroke:#00044c;stroke-linejoin:miter;"/>
   </g>
   <g id="patch_7">
    <path d="
M529.751 55.9627
C528.507 55.7703 527.26 55.5925 526.012 55.4293
C524.764 55.266 523.514 55.1174 522.262 54.9835
L505.09 215.417
L529.751 55.9627
z
" style="fill:#34372d;opacity:0.5;stroke:#34372d;stroke-linejoin:miter;"/>
   </g>
   <g id="patch_8">
    <path d="
M522.262 54.9835
C521.914 54.9462 521.567 54.9102 521.219 54.8752
C520.871 54.8402 520.523 54.8064 520.174 54.7737
L505.09 215.417
L522.262 54.9835
z
" style="fill:#34372d;opacity:0.5;stroke:#34372d;stroke-linejoin:miter;"/>
   </g>
   <g id="patch_9">
    <path d="
M520.174 54.7737
C518.364 54.6037 516.551 54.4644 514.736 54.3557
C512.921 54.247 511.104 54.1689 509.286 54.1217
L505.09 215.417
L520.174 54.7737
z
" style="fill:#004c4c;opacity:0.5;stroke:#004c4c;stroke-linejoin:miter;"/>
   </g>
   <g id="patch_10">
    <path d="
M509.286 54.1217
C508.884 54.1112 508.482 54.1023 508.08 54.0948
C507.678 54.0873 507.276 54.0814 506.874 54.077
L505.09 215.417
L509.286 54.1217
z
" style="fill:#34372d;opacity:0.5;stroke:#34372d;stroke-linejoin:miter;"/>
   </g>
   <g id="patch_11">
    <path d="
M506.874 54.077
C506.856 54.0768 506.839 54.0766 506.821 54.0764
C506.804 54.0762 506.786 54.076 506.769 54.0758
L505.09 215.417
L506.874 54.077
z
" style="fill:#34372d;opacity:0.5;stroke:#34372d;stroke-linejoin:miter;"/>
   </g>
   <g id="patch_12">
    <path d="
M506.769 54.0758
C506.646 54.0746 506.524 54.0734 506.402 54.0724
C506.279 54.0714 506.157 54.0706 506.035 54.0699
L505.09 215.417
L506.769 54.0758
z
" style="fill:#34372d;opacity:0.5;stroke:#34372d;stroke-linejoin:miter;"/>
   </g>
   <g id="patch_13">
    <path d="
M506.035 54.0699
C506 54.0697 505.965 54.0695 505.93 54.0693
C505.895 54.0691 505.86 54.0689 505.825 54.0688
L505.09 215.417
L506.035 54.0699
z
" style="fill:#34372d;opacity:0.5;stroke:#34372d;stroke-linejoin:miter;"/>
   </g>
   <g id="patch_14">
    <path d="
M505.825 54.0688
C505.72 54.0683 505.615 54.0679 505.51 54.0676
C505.405 54.0674 505.3 54.0672 505.195 54.0671
L505.09 215.417
L505.825 54.0688
z
" style="fill:#34372d;opacity:0.5;stroke:#34372d;stroke-linejoin:miter;"/>
   </g>
   <g id="patch_15">
    <path d="
M505.195 54.0671
C505.178 54.0671 505.16 54.0671 505.143 54.0671
C505.125 54.0671 505.108 54.0671 505.09 54.0671
L505.09 215.417
L505.195 54.0671
z
" style="fill:#34372d;opacity:0.5;stroke:#34372d;stroke-linejoin:miter;"/>
   </g>
   <g id="patch_16">
    <path d="
M498.646 52.0682
C457.201 52.0682 417.31 68.0363 387.312 96.6333
C357.315 125.23 339.459 164.314 337.48 205.711
C335.5 247.108 349.544 287.717 376.676 319.046
C403.807 350.375 441.993 370.077 483.248 374.032
L498.646 213.418
L498.646 52.0682
z
" style="fill:#fbfd2b;stroke:#000000;stroke-linejoin:miter;"/>
   </g>
   <g id="patch_17">
    <path d="
M491.306 374.417
C518.787 377.052 546.49 372.59 571.754 361.46
C597.018 350.33 619.007 332.9 635.611 310.844
C652.214 288.788 662.883 262.836 666.591 235.479
C670.3 208.123 666.926 180.267 656.794 154.586
L506.704 213.804
L491.306 374.417
z
" style="fill:#4ed53f;stroke:#000000;stroke-linejoin:miter;"/>
   </g>
   <g id="patch_18">
    <path d="
M656.794 154.586
C656.236 153.171 655.658 151.764 655.06 150.366
C654.462 148.967 653.844 147.577 653.206 146.196
L506.704 213.804
L656.794 154.586
z
" style="fill:#adb696;stroke:#000000;stroke-linejoin:miter;"/>
   </g>
   <g id="patch_19">
    <path d="
M653.206 146.196
C646.94 132.617 638.816 119.974 629.068 108.633
C619.32 97.2911 608.042 87.3596 595.559 79.1238
L506.704 213.804
L653.206 146.196
z
" style="fill:#ff000f;stroke:#000000;stroke-linejoin:miter;"/>
   </g>
   <g id="patch_20">
    <path d="
M595.559 79.1238
C585.903 72.7533 575.59 67.4397 564.797 63.2747
C554.005 59.1096 542.796 56.1173 531.364 54.3492
L506.704 213.804
L595.559 79.1238
z
" style="fill:#000fff;stroke:#000000;stroke-linejoin:miter;"/>
   </g>
   <g id="patch_21">
    <path d="
M531.364 54.3492
C530.12 54.1568 528.874 53.979 527.626 53.8158
C526.377 53.6525 525.127 53.5039 523.876 53.37
L506.704 213.804
L531.364 54.3492
z
" style="fill:#adb696;stroke:#000000;stroke-linejoin:miter;"/>
   </g>
   <g id="patch_22">
    <path d="
M523.876 53.37
C523.528 53.3327 523.18 53.2967 522.832 53.2617
C522.484 53.2267 522.136 53.1929 521.788 53.1602
L506.704 213.804
L523.876 53.37
z
" style="fill:#adb696;stroke:#000000;stroke-linejoin:miter;"/>
   </g>
   <g id="patch_23">
    <path d="
M521.788 53.1602
C519.978 52.9902 518.164 52.8509 516.349 52.7422
C514.534 52.6335 512.717 52.5554 510.9 52.5082
L506.704 213.804
L521.788 53.1602
z
" style="fill:#00ffff;stroke:#000000;stroke-linejoin:miter;"/>
   </g>
   <g id="patch_24">
    <path d="
M510.9 52.5082
C510.498 52.4977 510.096 52.4888 509.693 52.4813
C509.291 52.4738 508.889 52.4679 508.487 52.4635
L506.704 213.804
L510.9 52.5082
z
" style="fill:#adb696;stroke:#000000;stroke-linejoin:miter;"/>
   </g>
   <g id="patch_25">
    <path d="
M508.487 52.4635
C508.47 52.4633 508.452 52.4631 508.435 52.4629
C508.417 52.4627 508.4 52.4625 508.382 52.4623
L506.704 213.804
L508.487 52.4635
z
" style="fill:#adb696;stroke:#000000;stroke-linejoin:miter;"/>
   </g>
   <g id="patch_26">
    <path d="
M508.382 52.4623
C508.26 52.4611 508.138 52.4599 508.015 52.4589
C507.893 52.4579 507.77 52.4571 507.648 52.4564
L506.704 213.804
L508.382 52.4623
z
" style="fill:#adb696;stroke:#000000;stroke-linejoin:miter;"/>
   </g>
   <g id="patch_27">
    <path d="
M507.648 52.4564
C507.613 52.4562 507.578 52.456 507.543 52.4558
C507.508 52.4556 507.473 52.4554 507.438 52.4553
L506.704 213.804
L507.648 52.4564
z
" style="fill:#adb696;stroke:#000000;stroke-linejoin:miter;"/>
   </g>
   <g id="patch_28">
    <path d="
M507.438 52.4553
C507.333 52.4548 507.228 52.4544 507.123 52.4541
C507.019 52.4539 506.914 52.4537 506.809 52.4536
L506.704 213.804
L507.438 52.4553
z
" style="fill:#adb696;stroke:#000000;stroke-linejoin:miter;"/>
   </g>
   <g id="patch_29">
    <path d="
M506.809 52.4536
C506.791 52.4536 506.774 52.4536 506.756 52.4536
C506.739 52.4536 506.721 52.4536 506.704 52.4536
L506.704 213.804
L506.809 52.4536
z
" style="fill:#adb696;stroke:#000000;stroke-linejoin:miter;"/>
   </g>
   <g id="matplotlib.axis_1"/>
   <g id="matplotlib.axis_2"/>
   <g id="text_1">
    <!-- 48.5% -->
    <defs>
     <path d="
M72.7031 32.0781
Q68.4531 32.0781 66.0312 28.4688
Q63.625 24.8594 63.625 18.4062
Q63.625 12.0625 66.0312 8.42188
Q68.4531 4.78125 72.7031 4.78125
Q76.8594 4.78125 79.2656 8.42188
Q81.6875 12.0625 81.6875 18.4062
Q81.6875 24.8125 79.2656 28.4375
Q76.8594 32.0781 72.7031 32.0781
M72.7031 38.2812
Q80.4219 38.2812 84.9531 32.9062
Q89.5 27.5469 89.5 18.4062
Q89.5 9.28125 84.9375 3.92188
Q80.375 -1.42188 72.7031 -1.42188
Q64.8906 -1.42188 60.3438 3.92188
Q55.8125 9.28125 55.8125 18.4062
Q55.8125 27.5938 60.375 32.9375
Q64.9375 38.2812 72.7031 38.2812
M22.3125 68.0156
Q18.1094 68.0156 15.6875 64.375
Q13.2812 60.75 13.2812 54.3906
Q13.2812 47.9531 15.6719 44.3281
Q18.0625 40.7188 22.3125 40.7188
Q26.5625 40.7188 28.9688 44.3281
Q31.3906 47.9531 31.3906 54.3906
Q31.3906 60.6875 28.9531 64.3438
Q26.5156 68.0156 22.3125 68.0156
M66.4062 74.2188
L74.2188 74.2188
L28.6094 -1.42188
L20.7969 -1.42188
z

M22.3125 74.2188
Q30.0312 74.2188 34.6094 68.875
Q39.2031 63.5312 39.2031 54.3906
Q39.2031 45.1719 34.6406 39.8438
Q30.0781 34.5156 22.3125 34.5156
Q14.5469 34.5156 10.0312 39.8594
Q5.51562 45.2188 5.51562 54.3906
Q5.51562 63.4844 10.0469 68.8438
Q14.5938 74.2188 22.3125 74.2188" id="BitstreamVeraSans-Roman-25"/>
     <path d="
M31.7812 34.625
Q24.75 34.625 20.7188 30.8594
Q16.7031 27.0938 16.7031 20.5156
Q16.7031 13.9219 20.7188 10.1562
Q24.75 6.39062 31.7812 6.39062
Q38.8125 6.39062 42.8594 10.1719
Q46.9219 13.9688 46.9219 20.5156
Q46.9219 27.0938 42.8906 30.8594
Q38.875 34.625 31.7812 34.625
M21.9219 38.8125
Q15.5781 40.375 12.0312 44.7188
Q8.5 49.0781 8.5 55.3281
Q8.5 64.0625 14.7188 69.1406
Q20.9531 74.2188 31.7812 74.2188
Q42.6719 74.2188 48.875 69.1406
Q55.0781 64.0625 55.0781 55.3281
Q55.0781 49.0781 51.5312 44.7188
Q48 40.375 41.7031 38.8125
Q48.8281 37.1562 52.7969 32.3125
Q56.7812 27.4844 56.7812 20.5156
Q56.7812 9.90625 50.3125 4.23438
Q43.8438 -1.42188 31.7812 -1.42188
Q19.7344 -1.42188 13.25 4.23438
Q6.78125 9.90625 6.78125 20.5156
Q6.78125 27.4844 10.7812 32.3125
Q14.7969 37.1562 21.9219 38.8125
M18.3125 54.3906
Q18.3125 48.7344 21.8438 45.5625
Q25.3906 42.3906 31.7812 42.3906
Q38.1406 42.3906 41.7188 45.5625
Q45.3125 48.7344 45.3125 54.3906
Q45.3125 60.0625 41.7188 63.2344
Q38.1406 66.4062 31.7812 66.4062
Q25.3906 66.4062 21.8438 63.2344
Q18.3125 60.0625 18.3125 54.3906" id="BitstreamVeraSans-Roman-38"/>
     <path d="
M10.6875 12.4062
L21 12.4062
L21 0
L10.6875 0
z
" id="BitstreamVeraSans-Roman-2e"/>
     <path d="
M37.7969 64.3125
L12.8906 25.3906
L37.7969 25.3906
z

M35.2031 72.9062
L47.6094 72.9062
L47.6094 25.3906
L58.0156 25.3906
L58.0156 17.1875
L47.6094 17.1875
L47.6094 0
L37.7969 0
L37.7969 17.1875
L4.89062 17.1875
L4.89062 26.7031
z
" id="BitstreamVeraSans-Roman-34"/>
     <path d="
M10.7969 72.9062
L49.5156 72.9062
L49.5156 64.5938
L19.8281 64.5938
L19.8281 46.7344
Q21.9688 47.4688 24.1094 47.8281
Q26.2656 48.1875 28.4219 48.1875
Q40.625 48.1875 47.75 41.5
Q54.8906 34.8125 54.8906 23.3906
Q54.8906 11.625 47.5625 5.09375
Q40.2344 -1.42188 26.9062 -1.42188
Q22.3125 -1.42188 17.5469 -0.640625
Q12.7969 0.140625 7.71875 1.70312
L7.71875 11.625
Q12.1094 9.23438 16.7969 8.0625
Q21.4844 6.89062 26.7031 6.89062
Q35.1562 6.89062 40.0781 11.3281
Q45.0156 15.7656 45.0156 23.3906
Q45.0156 31 40.0781 35.4375
Q35.1562 39.8906 26.7031 39.8906
Q22.75 39.8906 18.8125 39.0156
Q14.8906 38.1406 10.7969 36.2812
z
" id="BitstreamVeraSans-Roman-35"/>
    </defs>
    <g transform="translate(383.510143072 212.104989252)scale(0.12 -0.12)">
     <use xlink:href="#BitstreamVeraSans-Roman-34"/>
     <use x="63.623046875" xlink:href="#BitstreamVeraSans-Roman-38"/>
     <use x="127.24609375" xlink:href="#BitstreamVeraSans-Roman-2e"/>
     <use x="159.033203125" xlink:href="#BitstreamVeraSans-Roman-35"/>
     <use x="222.65625" xlink:href="#BitstreamVeraSans-Roman-25"/>
    </g>
   </g>
   <g id="text_2">
    <!-- 32.5% -->
    <defs>
     <path d="
M19.1875 8.29688
L53.6094 8.29688
L53.6094 0
L7.32812 0
L7.32812 8.29688
Q12.9375 14.1094 22.625 23.8906
Q32.3281 33.6875 34.8125 36.5312
Q39.5469 41.8438 41.4219 45.5312
Q43.3125 49.2188 43.3125 52.7812
Q43.3125 58.5938 39.2344 62.25
Q35.1562 65.9219 28.6094 65.9219
Q23.9688 65.9219 18.8125 64.3125
Q13.6719 62.7031 7.8125 59.4219
L7.8125 69.3906
Q13.7656 71.7812 18.9375 73
Q24.125 74.2188 28.4219 74.2188
Q39.75 74.2188 46.4844 68.5469
Q53.2188 62.8906 53.2188 53.4219
Q53.2188 48.9219 51.5312 44.8906
Q49.8594 40.875 45.4062 35.4062
Q44.1875 33.9844 37.6406 27.2188
Q31.1094 20.4531 19.1875 8.29688" id="BitstreamVeraSans-Roman-32"/>
     <path d="
M40.5781 39.3125
Q47.6562 37.7969 51.625 33
Q55.6094 28.2188 55.6094 21.1875
Q55.6094 10.4062 48.1875 4.48438
Q40.7656 -1.42188 27.0938 -1.42188
Q22.5156 -1.42188 17.6562 -0.515625
Q12.7969 0.390625 7.625 2.20312
L7.625 11.7188
Q11.7188 9.32812 16.5938 8.10938
Q21.4844 6.89062 26.8125 6.89062
Q36.0781 6.89062 40.9375 10.5469
Q45.7969 14.2031 45.7969 21.1875
Q45.7969 27.6406 41.2812 31.2656
Q36.7656 34.9062 28.7188 34.9062
L20.2188 34.9062
L20.2188 43.0156
L29.1094 43.0156
Q36.375 43.0156 40.2344 45.9219
Q44.0938 48.8281 44.0938 54.2969
Q44.0938 59.9062 40.1094 62.9062
Q36.1406 65.9219 28.7188 65.9219
Q24.6562 65.9219 20.0156 65.0312
Q15.375 64.1562 9.8125 62.3125
L9.8125 71.0938
Q15.4375 72.6562 20.3438 73.4375
Q25.25 74.2188 29.5938 74.2188
Q40.8281 74.2188 47.3594 69.1094
Q53.9062 64.0156 53.9062 55.3281
Q53.9062 49.2656 50.4375 45.0938
Q46.9688 40.9219 40.5781 39.3125" id="BitstreamVeraSans-Roman-33"/>
    </defs>
    <g transform="translate(565.776094543 275.33917068)scale(0.12 -0.12)">
     <use xlink:href="#BitstreamVeraSans-Roman-33"/>
     <use x="63.623046875" xlink:href="#BitstreamVeraSans-Roman-32"/>
     <use x="127.24609375" xlink:href="#BitstreamVeraSans-Roman-2e"/>
     <use x="159.033203125" xlink:href="#BitstreamVeraSans-Roman-35"/>
     <use x="222.65625" xlink:href="#BitstreamVeraSans-Roman-25"/>
    </g>
   </g>
   <g id="text_3">
    <!-- 0.9% -->
    <defs>
     <path d="
M31.7812 66.4062
Q24.1719 66.4062 20.3281 58.9062
Q16.5 51.4219 16.5 36.375
Q16.5 21.3906 20.3281 13.8906
Q24.1719 6.39062 31.7812 6.39062
Q39.4531 6.39062 43.2812 13.8906
Q47.125 21.3906 47.125 36.375
Q47.125 51.4219 43.2812 58.9062
Q39.4531 66.4062 31.7812 66.4062
M31.7812 74.2188
Q44.0469 74.2188 50.5156 64.5156
Q56.9844 54.8281 56.9844 36.375
Q56.9844 17.9688 50.5156 8.26562
Q44.0469 -1.42188 31.7812 -1.42188
Q19.5312 -1.42188 13.0625 8.26562
Q6.59375 17.9688 6.59375 36.375
Q6.59375 54.8281 13.0625 64.5156
Q19.5312 74.2188 31.7812 74.2188" id="BitstreamVeraSans-Roman-30"/>
     <path d="
M10.9844 1.51562
L10.9844 10.5
Q14.7031 8.73438 18.5 7.8125
Q22.3125 6.89062 25.9844 6.89062
Q35.75 6.89062 40.8906 13.4531
Q46.0469 20.0156 46.7812 33.4062
Q43.9531 29.2031 39.5938 26.9531
Q35.25 24.7031 29.9844 24.7031
Q19.0469 24.7031 12.6719 31.3125
Q6.29688 37.9375 6.29688 49.4219
Q6.29688 60.6406 12.9375 67.4219
Q19.5781 74.2188 30.6094 74.2188
Q43.2656 74.2188 49.9219 64.5156
Q56.5938 54.8281 56.5938 36.375
Q56.5938 19.1406 48.4062 8.85938
Q40.2344 -1.42188 26.4219 -1.42188
Q22.7031 -1.42188 18.8906 -0.6875
Q15.0938 0.046875 10.9844 1.51562
M30.6094 32.4219
Q37.25 32.4219 41.125 36.9531
Q45.0156 41.5 45.0156 49.4219
Q45.0156 57.2812 41.125 61.8438
Q37.25 66.4062 30.6094 66.4062
Q23.9688 66.4062 20.0938 61.8438
Q16.2188 57.2812 16.2188 49.4219
Q16.2188 41.5 20.0938 36.9531
Q23.9688 32.4219 30.6094 32.4219" id="BitstreamVeraSans-Roman-39"/>
    </defs>
    <g transform="translate(581.201107345 179.05206396)scale(0.12 -0.12)">
     <use xlink:href="#BitstreamVeraSans-Roman-30"/>
     <use x="63.623046875" xlink:href="#BitstreamVeraSans-Roman-2e"/>
     <use x="95.41015625" xlink:href="#BitstreamVeraSans-Roman-39"/>
     <use x="159.033203125" xlink:href="#BitstreamVeraSans-Roman-25"/>
    </g>
   </g>
   <g id="text_4">
    <!-- 8.8% -->
    <g transform="translate(565.617211395 154.012372967)scale(0.12 -0.12)">
     <use xlink:href="#BitstreamVeraSans-Roman-38"/>
     <use x="63.623046875" xlink:href="#BitstreamVeraSans-Roman-2e"/>
     <use x="95.41015625" xlink:href="#BitstreamVeraSans-Roman-38"/>
     <use x="159.033203125" xlink:href="#BitstreamVeraSans-Roman-25"/>
    </g>
   </g>
   <g id="text_5">
    <!-- 6.8% -->
    <defs>
     <path d="
M33.0156 40.375
Q26.375 40.375 22.4844 35.8281
Q18.6094 31.2969 18.6094 23.3906
Q18.6094 15.5312 22.4844 10.9531
Q26.375 6.39062 33.0156 6.39062
Q39.6562 6.39062 43.5312 10.9531
Q47.4062 15.5312 47.4062 23.3906
Q47.4062 31.2969 43.5312 35.8281
Q39.6562 40.375 33.0156 40.375
M52.5938 71.2969
L52.5938 62.3125
Q48.875 64.0625 45.0938 64.9844
Q41.3125 65.9219 37.5938 65.9219
Q27.8281 65.9219 22.6719 59.3281
Q17.5312 52.7344 16.7969 39.4062
Q19.6719 43.6562 24.0156 45.9219
Q28.375 48.1875 33.5938 48.1875
Q44.5781 48.1875 50.9531 41.5156
Q57.3281 34.8594 57.3281 23.3906
Q57.3281 12.1562 50.6875 5.35938
Q44.0469 -1.42188 33.0156 -1.42188
Q20.3594 -1.42188 13.6719 8.26562
Q6.98438 17.9688 6.98438 36.375
Q6.98438 53.6562 15.1875 63.9375
Q23.3906 74.2188 37.2031 74.2188
Q40.9219 74.2188 44.7031 73.4844
Q48.4844 72.75 52.5938 71.2969" id="BitstreamVeraSans-Roman-36"/>
    </defs>
    <g transform="translate(527.067184331 126.797494521)scale(0.12 -0.12)">
     <use xlink:href="#BitstreamVeraSans-Roman-36"/>
     <use x="63.623046875" xlink:href="#BitstreamVeraSans-Roman-2e"/>
     <use x="95.41015625" xlink:href="#BitstreamVeraSans-Roman-38"/>
     <use x="159.033203125" xlink:href="#BitstreamVeraSans-Roman-25"/>
    </g>
   </g>
   <g id="text_6">
    <!-- 0.7% -->
    <defs>
     <path d="
M8.20312 72.9062
L55.0781 72.9062
L55.0781 68.7031
L28.6094 0
L18.3125 0
L43.2188 64.5938
L8.20312 64.5938
z
" id="BitstreamVeraSans-Roman-37"/>
    </defs>
    <g transform="translate(504.740655902 121.122166083)scale(0.12 -0.12)">
     <use xlink:href="#BitstreamVeraSans-Roman-30"/>
     <use x="63.623046875" xlink:href="#BitstreamVeraSans-Roman-2e"/>
     <use x="95.41015625" xlink:href="#BitstreamVeraSans-Roman-37"/>
     <use x="159.033203125" xlink:href="#BitstreamVeraSans-Roman-25"/>
    </g>
   </g>
   <g id="text_7">
    <!-- 0.2% -->
    <g transform="translate(501.864563918 120.789719191)scale(0.12 -0.12)">
     <use xlink:href="#BitstreamVeraSans-Roman-30"/>
     <use x="63.623046875" xlink:href="#BitstreamVeraSans-Roman-2e"/>
     <use x="95.41015625" xlink:href="#BitstreamVeraSans-Roman-32"/>
     <use x="159.033203125" xlink:href="#BitstreamVeraSans-Roman-25"/>
    </g>
   </g>
   <g id="text_8">
    <!-- 1.1% -->
    <defs>
     <path d="
M12.4062 8.29688
L28.5156 8.29688
L28.5156 63.9219
L10.9844 60.4062
L10.9844 69.3906
L28.4219 72.9062
L38.2812 72.9062
L38.2812 8.29688
L54.3906 8.29688
L54.3906 0
L12.4062 0
z
" id="BitstreamVeraSans-Roman-31"/>
    </defs>
    <g transform="translate(498.238308363 120.477994745)scale(0.12 -0.12)">
     <use xlink:href="#BitstreamVeraSans-Roman-31"/>
     <use x="63.623046875" xlink:href="#BitstreamVeraSans-Roman-2e"/>
     <use x="95.41015625" xlink:href="#BitstreamVeraSans-Roman-31"/>
     <use x="159.033203125" xlink:href="#BitstreamVeraSans-Roman-25"/>
    </g>
   </g>
   <g id="text_9">
    <!-- 0.2% -->
    <g transform="translate(493.981378786 120.321479874)scale(0.12 -0.12)">
     <use xlink:href="#BitstreamVeraSans-Roman-30"/>
     <use x="63.623046875" xlink:href="#BitstreamVeraSans-Roman-2e"/>
     <use x="95.41015625" xlink:href="#BitstreamVeraSans-Roman-32"/>
     <use x="159.033203125" xlink:href="#BitstreamVeraSans-Roman-25"/>
    </g>
   </g>
   <g id="text_10">
    <!-- 0.0% -->
    <g transform="translate(493.226152838 120.310431081)scale(0.12 -0.12)">
     <use xlink:href="#BitstreamVeraSans-Roman-30"/>
     <use x="63.623046875" xlink:href="#BitstreamVeraSans-Roman-2e"/>
     <use x="95.41015625" xlink:href="#BitstreamVeraSans-Roman-30"/>
     <use x="159.033203125" xlink:href="#BitstreamVeraSans-Roman-25"/>
    </g>
   </g>
   <g id="text_11">
    <!-- 0.1% -->
    <g transform="translate(492.974394534 120.308057577)scale(0.12 -0.12)">
     <use xlink:href="#BitstreamVeraSans-Roman-30"/>
     <use x="63.623046875" xlink:href="#BitstreamVeraSans-Roman-2e"/>
     <use x="95.41015625" xlink:href="#BitstreamVeraSans-Roman-31"/>
     <use x="159.033203125" xlink:href="#BitstreamVeraSans-Roman-25"/>
    </g>
   </g>
   <g id="text_12">
    <!-- 0.0% -->
    <g transform="translate(492.691160167 120.30617001)scale(0.12 -0.12)">
     <use xlink:href="#BitstreamVeraSans-Roman-30"/>
     <use x="63.623046875" xlink:href="#BitstreamVeraSans-Roman-2e"/>
     <use x="95.41015625" xlink:href="#BitstreamVeraSans-Roman-30"/>
     <use x="159.033203125" xlink:href="#BitstreamVeraSans-Roman-25"/>
    </g>
   </g>
   <g id="text_13">
    <!-- 0.1% -->
    <g transform="translate(492.439392586 120.305187851)scale(0.12 -0.12)">
     <use xlink:href="#BitstreamVeraSans-Roman-30"/>
     <use x="63.623046875" xlink:href="#BitstreamVeraSans-Roman-2e"/>
     <use x="95.41015625" xlink:href="#BitstreamVeraSans-Roman-31"/>
     <use x="159.033203125" xlink:href="#BitstreamVeraSans-Roman-25"/>
    </g>
   </g>
   <g id="text_14">
    <!-- 0.0% -->
    <g transform="translate(492.219094496 120.304865572)scale(0.12 -0.12)">
     <use xlink:href="#BitstreamVeraSans-Roman-30"/>
     <use x="63.623046875" xlink:href="#BitstreamVeraSans-Roman-2e"/>
     <use x="95.41015625" xlink:href="#BitstreamVeraSans-Roman-30"/>
     <use x="159.033203125" xlink:href="#BitstreamVeraSans-Roman-25"/>
    </g>
   </g>
   <g id="text_15">
    <!-- Full genome -->
    <defs>
     <path id="BitstreamVeraSans-Roman-20"/>
     <path d="
M54.8906 33.0156
L54.8906 0
L45.9062 0
L45.9062 32.7188
Q45.9062 40.4844 42.875 44.3281
Q39.8438 48.1875 33.7969 48.1875
Q26.5156 48.1875 22.3125 43.5469
Q18.1094 38.9219 18.1094 30.9062
L18.1094 0
L9.07812 0
L9.07812 54.6875
L18.1094 54.6875
L18.1094 46.1875
Q21.3438 51.125 25.7031 53.5625
Q30.0781 56 35.7969 56
Q45.2188 56 50.0469 50.1719
Q54.8906 44.3438 54.8906 33.0156" id="BitstreamVeraSans-Roman-6e"/>
     <path d="
M52 44.1875
Q55.375 50.25 60.0625 53.125
Q64.75 56 71.0938 56
Q79.6406 56 84.2812 50.0156
Q88.9219 44.0469 88.9219 33.0156
L88.9219 0
L79.8906 0
L79.8906 32.7188
Q79.8906 40.5781 77.0938 44.375
Q74.3125 48.1875 68.6094 48.1875
Q61.625 48.1875 57.5625 43.5469
Q53.5156 38.9219 53.5156 30.9062
L53.5156 0
L44.4844 0
L44.4844 32.7188
Q44.4844 40.625 41.7031 44.4062
Q38.9219 48.1875 33.1094 48.1875
Q26.2188 48.1875 22.1562 43.5312
Q18.1094 38.875 18.1094 30.9062
L18.1094 0
L9.07812 0
L9.07812 54.6875
L18.1094 54.6875
L18.1094 46.1875
Q21.1875 51.2188 25.4844 53.6094
Q29.7812 56 35.6875 56
Q41.6562 56 45.8281 52.9688
Q50 49.9531 52 44.1875" id="BitstreamVeraSans-Roman-6d"/>
     <path d="
M30.6094 48.3906
Q23.3906 48.3906 19.1875 42.75
Q14.9844 37.1094 14.9844 27.2969
Q14.9844 17.4844 19.1562 11.8438
Q23.3438 6.20312 30.6094 6.20312
Q37.7969 6.20312 41.9844 11.8594
Q46.1875 17.5312 46.1875 27.2969
Q46.1875 37.0156 41.9844 42.7031
Q37.7969 48.3906 30.6094 48.3906
M30.6094 56
Q42.3281 56 49.0156 48.375
Q55.7188 40.7656 55.7188 27.2969
Q55.7188 13.875 49.0156 6.21875
Q42.3281 -1.42188 30.6094 -1.42188
Q18.8438 -1.42188 12.1719 6.21875
Q5.51562 13.875 5.51562 27.2969
Q5.51562 40.7656 12.1719 48.375
Q18.8438 56 30.6094 56" id="BitstreamVeraSans-Roman-6f"/>
     <path d="
M9.42188 75.9844
L18.4062 75.9844
L18.4062 0
L9.42188 0
z
" id="BitstreamVeraSans-Roman-6c"/>
     <path d="
M9.8125 72.9062
L51.7031 72.9062
L51.7031 64.5938
L19.6719 64.5938
L19.6719 43.1094
L48.5781 43.1094
L48.5781 34.8125
L19.6719 34.8125
L19.6719 0
L9.8125 0
z
" id="BitstreamVeraSans-Roman-46"/>
     <path d="
M56.2031 29.5938
L56.2031 25.2031
L14.8906 25.2031
Q15.4844 15.9219 20.4844 11.0625
Q25.4844 6.20312 34.4219 6.20312
Q39.5938 6.20312 44.4531 7.46875
Q49.3125 8.73438 54.1094 11.2812
L54.1094 2.78125
Q49.2656 0.734375 44.1875 -0.34375
Q39.1094 -1.42188 33.8906 -1.42188
Q20.7969 -1.42188 13.1562 6.1875
Q5.51562 13.8125 5.51562 26.8125
Q5.51562 40.2344 12.7656 48.1094
Q20.0156 56 32.3281 56
Q43.3594 56 49.7812 48.8906
Q56.2031 41.7969 56.2031 29.5938
M47.2188 32.2344
Q47.125 39.5938 43.0938 43.9844
Q39.0625 48.3906 32.4219 48.3906
Q24.9062 48.3906 20.3906 44.1406
Q15.875 39.8906 15.1875 32.1719
z
" id="BitstreamVeraSans-Roman-65"/>
     <path d="
M45.4062 27.9844
Q45.4062 37.75 41.375 43.1094
Q37.3594 48.4844 30.0781 48.4844
Q22.8594 48.4844 18.8281 43.1094
Q14.7969 37.75 14.7969 27.9844
Q14.7969 18.2656 18.8281 12.8906
Q22.8594 7.51562 30.0781 7.51562
Q37.3594 7.51562 41.375 12.8906
Q45.4062 18.2656 45.4062 27.9844
M54.3906 6.78125
Q54.3906 -7.17188 48.1875 -13.9844
Q42 -20.7969 29.2031 -20.7969
Q24.4688 -20.7969 20.2656 -20.0938
Q16.0625 -19.3906 12.1094 -17.9219
L12.1094 -9.1875
Q16.0625 -11.3281 19.9219 -12.3438
Q23.7812 -13.375 27.7812 -13.375
Q36.625 -13.375 41.0156 -8.76562
Q45.4062 -4.15625 45.4062 5.17188
L45.4062 9.625
Q42.625 4.78125 38.2812 2.39062
Q33.9375 0 27.875 0
Q17.8281 0 11.6719 7.65625
Q5.51562 15.3281 5.51562 27.9844
Q5.51562 40.6719 11.6719 48.3281
Q17.8281 56 27.875 56
Q33.9375 56 38.2812 53.6094
Q42.625 51.2188 45.4062 46.3906
L45.4062 54.6875
L54.3906 54.6875
z
" id="BitstreamVeraSans-Roman-67"/>
     <path d="
M8.5 21.5781
L8.5 54.6875
L17.4844 54.6875
L17.4844 21.9219
Q17.4844 14.1562 20.5 10.2656
Q23.5312 6.39062 29.5938 6.39062
Q36.8594 6.39062 41.0781 11.0312
Q45.3125 15.6719 45.3125 23.6875
L45.3125 54.6875
L54.2969 54.6875
L54.2969 0
L45.3125 0
L45.3125 8.40625
Q42.0469 3.42188 37.7188 1
Q33.4062 -1.42188 27.6875 -1.42188
Q18.2656 -1.42188 13.375 4.4375
Q8.5 10.2969 8.5 21.5781" id="BitstreamVeraSans-Roman-75"/>
    </defs>
    <g transform="translate(459.273625 36.76)scale(0.144 -0.144)">
     <use xlink:href="#BitstreamVeraSans-Roman-46"/>
     <use x="52.01953125" xlink:href="#BitstreamVeraSans-Roman-75"/>
     <use x="115.3984375" xlink:href="#BitstreamVeraSans-Roman-6c"/>
     <use x="143.181640625" xlink:href="#BitstreamVeraSans-Roman-6c"/>
     <use x="170.96484375" xlink:href="#BitstreamVeraSans-Roman-20"/>
     <use x="202.751953125" xlink:href="#BitstreamVeraSans-Roman-67"/>
     <use x="266.228515625" xlink:href="#BitstreamVeraSans-Roman-65"/>
     <use x="327.751953125" xlink:href="#BitstreamVeraSans-Roman-6e"/>
     <use x="391.130859375" xlink:href="#BitstreamVeraSans-Roman-6f"/>
     <use x="452.3125" xlink:href="#BitstreamVeraSans-Roman-6d"/>
     <use x="549.724609375" xlink:href="#BitstreamVeraSans-Roman-65"/>
    </g>
   </g>
   <g id="legend_1">
    <g id="patch_30">
     <path d="
M7.2 351.346
L283.011 351.346
L283.011 77.7736
L7.2 77.7736
z
" style="fill:#ffffff;stroke:#000000;stroke-linejoin:miter;"/>
    </g>
    <g id="patch_31">
     <path d="
M12.4 92.8516
L38.4 92.8516
L38.4 83.7516
L12.4 83.7516
z
" style="fill:#fbfd2b;stroke:#000000;stroke-linejoin:miter;"/>
    </g>
    <g id="text_16">
     <!-- CDS                  -  4685 (48.48%) -->
     <defs>
      <path d="
M8.01562 75.875
L15.8281 75.875
Q23.1406 64.3594 26.7812 53.3125
Q30.4219 42.2812 30.4219 31.3906
Q30.4219 20.4531 26.7812 9.375
Q23.1406 -1.70312 15.8281 -13.1875
L8.01562 -13.1875
Q14.5 -2 17.7031 9.0625
Q20.9062 20.125 20.9062 31.3906
Q20.9062 42.6719 17.7031 53.6562
Q14.5 64.6562 8.01562 75.875" id="BitstreamVeraSans-Roman-29"/>
      <path d="
M31 75.875
Q24.4688 64.6562 21.2812 53.6562
Q18.1094 42.6719 18.1094 31.3906
Q18.1094 20.125 21.3125 9.0625
Q24.5156 -2 31 -13.1875
L23.1875 -13.1875
Q15.875 -1.70312 12.2344 9.375
Q8.59375 20.4531 8.59375 31.3906
Q8.59375 42.2812 12.2031 53.3125
Q15.8281 64.3594 23.1875 75.875
z
" id="BitstreamVeraSans-Roman-28"/>
      <path d="
M19.6719 64.7969
L19.6719 8.10938
L31.5938 8.10938
Q46.6875 8.10938 53.6875 14.9375
Q60.6875 21.7812 60.6875 36.5312
Q60.6875 51.1719 53.6875 57.9844
Q46.6875 64.7969 31.5938 64.7969
z

M9.8125 72.9062
L30.0781 72.9062
Q51.2656 72.9062 61.1719 64.0938
Q71.0938 55.2812 71.0938 36.5312
Q71.0938 17.6719 61.125 8.82812
Q51.1719 0 30.0781 0
L9.8125 0
z
" id="BitstreamVeraSans-Roman-44"/>
      <path d="
M64.4062 67.2812
L64.4062 56.8906
Q59.4219 61.5312 53.7812 63.8125
Q48.1406 66.1094 41.7969 66.1094
Q29.2969 66.1094 22.6562 58.4688
Q16.0156 50.8281 16.0156 36.375
Q16.0156 21.9688 22.6562 14.3281
Q29.2969 6.6875 41.7969 6.6875
Q48.1406 6.6875 53.7812 8.98438
Q59.4219 11.2812 64.4062 15.9219
L64.4062 5.60938
Q59.2344 2.09375 53.4375 0.328125
Q47.6562 -1.42188 41.2188 -1.42188
Q24.6562 -1.42188 15.125 8.70312
Q5.60938 18.8438 5.60938 36.375
Q5.60938 53.9531 15.125 64.0781
Q24.6562 74.2188 41.2188 74.2188
Q47.75 74.2188 53.5312 72.4844
Q59.3281 70.75 64.4062 67.2812" id="BitstreamVeraSans-Roman-43"/>
      <path d="
M4.89062 31.3906
L31.2031 31.3906
L31.2031 23.3906
L4.89062 23.3906
z
" id="BitstreamVeraSans-Roman-2d"/>
      <path d="
M53.5156 70.5156
L53.5156 60.8906
Q47.9062 63.5781 42.9219 64.8906
Q37.9375 66.2188 33.2969 66.2188
Q25.25 66.2188 20.875 63.0938
Q16.5 59.9688 16.5 54.2031
Q16.5 49.3594 19.4062 46.8906
Q22.3125 44.4375 30.4219 42.9219
L36.375 41.7031
Q47.4062 39.5938 52.6562 34.2969
Q57.9062 29 57.9062 20.125
Q57.9062 9.51562 50.7969 4.04688
Q43.7031 -1.42188 29.9844 -1.42188
Q24.8125 -1.42188 18.9688 -0.25
Q13.1406 0.921875 6.89062 3.21875
L6.89062 13.375
Q12.8906 10.0156 18.6562 8.29688
Q24.4219 6.59375 29.9844 6.59375
Q38.4219 6.59375 43.0156 9.90625
Q47.6094 13.2344 47.6094 19.3906
Q47.6094 24.75 44.3125 27.7812
Q41.0156 30.8125 33.5 32.3281
L27.4844 33.5
Q16.4531 35.6875 11.5156 40.375
Q6.59375 45.0625 6.59375 53.4219
Q6.59375 63.0938 13.4062 68.6562
Q20.2188 74.2188 32.1719 74.2188
Q37.3125 74.2188 42.625 73.2812
Q47.9531 72.3594 53.5156 70.5156" id="BitstreamVeraSans-Roman-53"/>
     </defs>
     <g transform="translate(48.8 92.8515625)scale(0.13 -0.13)">
      <use xlink:href="#BitstreamVeraSans-Roman-43"/>
      <use x="69.82421875" xlink:href="#BitstreamVeraSans-Roman-44"/>
      <use x="146.826171875" xlink:href="#BitstreamVeraSans-Roman-53"/>
      <use x="210.302734375" xlink:href="#BitstreamVeraSans-Roman-20"/>
      <use x="242.08984375" xlink:href="#BitstreamVeraSans-Roman-20"/>
      <use x="273.876953125" xlink:href="#BitstreamVeraSans-Roman-20"/>
      <use x="305.6640625" xlink:href="#BitstreamVeraSans-Roman-20"/>
      <use x="337.451171875" xlink:href="#BitstreamVeraSans-Roman-20"/>
      <use x="369.23828125" xlink:href="#BitstreamVeraSans-Roman-20"/>
      <use x="401.025390625" xlink:href="#BitstreamVeraSans-Roman-20"/>
      <use x="432.8125" xlink:href="#BitstreamVeraSans-Roman-20"/>
      <use x="464.599609375" xlink:href="#BitstreamVeraSans-Roman-20"/>
      <use x="496.38671875" xlink:href="#BitstreamVeraSans-Roman-20"/>
      <use x="528.173828125" xlink:href="#BitstreamVeraSans-Roman-20"/>
      <use x="559.9609375" xlink:href="#BitstreamVeraSans-Roman-20"/>
      <use x="591.748046875" xlink:href="#BitstreamVeraSans-Roman-20"/>
      <use x="623.53515625" xlink:href="#BitstreamVeraSans-Roman-20"/>
      <use x="655.322265625" xlink:href="#BitstreamVeraSans-Roman-20"/>
      <use x="687.109375" xlink:href="#BitstreamVeraSans-Roman-20"/>
      <use x="718.896484375" xlink:href="#BitstreamVeraSans-Roman-20"/>
      <use x="750.68359375" xlink:href="#BitstreamVeraSans-Roman-20"/>
      <use x="782.470703125" xlink:href="#BitstreamVeraSans-Roman-2d"/>
      <use x="818.5546875" xlink:href="#BitstreamVeraSans-Roman-20"/>
      <use x="850.341796875" xlink:href="#BitstreamVeraSans-Roman-20"/>
      <use x="882.12890625" xlink:href="#BitstreamVeraSans-Roman-34"/>
      <use x="945.751953125" xlink:href="#BitstreamVeraSans-Roman-36"/>
      <use x="1009.375" xlink:href="#BitstreamVeraSans-Roman-38"/>
      <use x="1072.99804688" xlink:href="#BitstreamVeraSans-Roman-35"/>
      <use x="1136.62109375" xlink:href="#BitstreamVeraSans-Roman-20"/>
      <use x="1168.40820312" xlink:href="#BitstreamVeraSans-Roman-28"/>
      <use x="1207.421875" xlink:href="#BitstreamVeraSans-Roman-34"/>
      <use x="1271.04492188" xlink:href="#BitstreamVeraSans-Roman-38"/>
      <use x="1334.66796875" xlink:href="#BitstreamVeraSans-Roman-2e"/>
      <use x="1366.45507812" xlink:href="#BitstreamVeraSans-Roman-34"/>
      <use x="1430.078125" xlink:href="#BitstreamVeraSans-Roman-38"/>
      <use x="1493.70117188" xlink:href="#BitstreamVeraSans-Roman-25"/>
      <use x="1588.72070312" xlink:href="#BitstreamVeraSans-Roman-29"/>
     </g>
    </g>
    <g id="patch_32">
     <path d="
M12.4 111.933
L38.4 111.933
L38.4 102.833
L12.4 102.833
z
" style="fill:#4ed53f;stroke:#000000;stroke-linejoin:miter;"/>
    </g>
    <g id="text_17">
     <!-- igc                  -  3141 (32.50%) -->
     <defs>
      <path d="
M9.42188 54.6875
L18.4062 54.6875
L18.4062 0
L9.42188 0
z

M9.42188 75.9844
L18.4062 75.9844
L18.4062 64.5938
L9.42188 64.5938
z
" id="BitstreamVeraSans-Roman-69"/>
      <path d="
M48.7812 52.5938
L48.7812 44.1875
Q44.9688 46.2969 41.1406 47.3438
Q37.3125 48.3906 33.4062 48.3906
Q24.6562 48.3906 19.8125 42.8438
Q14.9844 37.3125 14.9844 27.2969
Q14.9844 17.2812 19.8125 11.7344
Q24.6562 6.20312 33.4062 6.20312
Q37.3125 6.20312 41.1406 7.25
Q44.9688 8.29688 48.7812 10.4062
L48.7812 2.09375
Q45.0156 0.34375 40.9844 -0.53125
Q36.9688 -1.42188 32.4219 -1.42188
Q20.0625 -1.42188 12.7812 6.34375
Q5.51562 14.1094 5.51562 27.2969
Q5.51562 40.6719 12.8594 48.3281
Q20.2188 56 33.0156 56
Q37.1562 56 41.1094 55.1406
Q45.0625 54.2969 48.7812 52.5938" id="BitstreamVeraSans-Roman-63"/>
     </defs>
     <g transform="translate(48.8 111.933125)scale(0.13 -0.13)">
      <use xlink:href="#BitstreamVeraSans-Roman-69"/>
      <use x="27.783203125" xlink:href="#BitstreamVeraSans-Roman-67"/>
      <use x="91.259765625" xlink:href="#BitstreamVeraSans-Roman-63"/>
      <use x="146.240234375" xlink:href="#BitstreamVeraSans-Roman-20"/>
      <use x="178.02734375" xlink:href="#BitstreamVeraSans-Roman-20"/>
      <use x="209.814453125" xlink:href="#BitstreamVeraSans-Roman-20"/>
      <use x="241.6015625" xlink:href="#BitstreamVeraSans-Roman-20"/>
      <use x="273.388671875" xlink:href="#BitstreamVeraSans-Roman-20"/>
      <use x="305.17578125" xlink:href="#BitstreamVeraSans-Roman-20"/>
      <use x="336.962890625" xlink:href="#BitstreamVeraSans-Roman-20"/>
      <use x="368.75" xlink:href="#BitstreamVeraSans-Roman-20"/>
      <use x="400.537109375" xlink:href="#BitstreamVeraSans-Roman-20"/>
      <use x="432.32421875" xlink:href="#BitstreamVeraSans-Roman-20"/>
      <use x="464.111328125" xlink:href="#BitstreamVeraSans-Roman-20"/>
      <use x="495.8984375" xlink:href="#BitstreamVeraSans-Roman-20"/>
      <use x="527.685546875" xlink:href="#BitstreamVeraSans-Roman-20"/>
      <use x="559.47265625" xlink:href="#BitstreamVeraSans-Roman-20"/>
      <use x="591.259765625" xlink:href="#BitstreamVeraSans-Roman-20"/>
      <use x="623.046875" xlink:href="#BitstreamVeraSans-Roman-20"/>
      <use x="654.833984375" xlink:href="#BitstreamVeraSans-Roman-20"/>
      <use x="686.62109375" xlink:href="#BitstreamVeraSans-Roman-20"/>
      <use x="718.408203125" xlink:href="#BitstreamVeraSans-Roman-2d"/>
      <use x="754.4921875" xlink:href="#BitstreamVeraSans-Roman-20"/>
      <use x="786.279296875" xlink:href="#BitstreamVeraSans-Roman-20"/>
      <use x="818.06640625" xlink:href="#BitstreamVeraSans-Roman-33"/>
      <use x="881.689453125" xlink:href="#BitstreamVeraSans-Roman-31"/>
      <use x="945.3125" xlink:href="#BitstreamVeraSans-Roman-34"/>
      <use x="1008.93554688" xlink:href="#BitstreamVeraSans-Roman-31"/>
      <use x="1072.55859375" xlink:href="#BitstreamVeraSans-Roman-20"/>
      <use x="1104.34570312" xlink:href="#BitstreamVeraSans-Roman-28"/>
      <use x="1143.359375" xlink:href="#BitstreamVeraSans-Roman-33"/>
      <use x="1206.98242188" xlink:href="#BitstreamVeraSans-Roman-32"/>
      <use x="1270.60546875" xlink:href="#BitstreamVeraSans-Roman-2e"/>
      <use x="1302.39257812" xlink:href="#BitstreamVeraSans-Roman-35"/>
      <use x="1366.015625" xlink:href="#BitstreamVeraSans-Roman-30"/>
      <use x="1429.63867188" xlink:href="#BitstreamVeraSans-Roman-25"/>
      <use x="1524.65820312" xlink:href="#BitstreamVeraSans-Roman-29"/>
     </g>
    </g>
    <g id="patch_33">
     <path d="
M12.4 131.015
L38.4 131.015
L38.4 121.915
L12.4 121.915
z
" style="fill:#ff000f;stroke:#000000;stroke-linejoin:miter;"/>
    </g>
    <g id="text_18">
     <!-- 5'_UTR               -  854  (8.84%) -->
     <defs>
      <path d="
M44.3906 34.1875
Q47.5625 33.1094 50.5625 29.5938
Q53.5625 26.0781 56.5938 19.9219
L66.6094 0
L56 0
L46.6875 18.7031
Q43.0625 26.0312 39.6719 28.4219
Q36.2812 30.8125 30.4219 30.8125
L19.6719 30.8125
L19.6719 0
L9.8125 0
L9.8125 72.9062
L32.0781 72.9062
Q44.5781 72.9062 50.7344 67.6719
Q56.8906 62.4531 56.8906 51.9062
Q56.8906 45.0156 53.6875 40.4688
Q50.4844 35.9375 44.3906 34.1875
M19.6719 64.7969
L19.6719 38.9219
L32.0781 38.9219
Q39.2031 38.9219 42.8438 42.2188
Q46.4844 45.5156 46.4844 51.9062
Q46.4844 58.2969 42.8438 61.5469
Q39.2031 64.7969 32.0781 64.7969
z
" id="BitstreamVeraSans-Roman-52"/>
      <path d="
M-0.296875 72.9062
L61.375 72.9062
L61.375 64.5938
L35.5 64.5938
L35.5 0
L25.5938 0
L25.5938 64.5938
L-0.296875 64.5938
z
" id="BitstreamVeraSans-Roman-54"/>
      <path d="
M50.9844 -16.6094
L50.9844 -23.5781
L-0.984375 -23.5781
L-0.984375 -16.6094
z
" id="BitstreamVeraSans-Roman-5f"/>
      <path d="
M17.9219 72.9062
L17.9219 45.7969
L9.625 45.7969
L9.625 72.9062
z
" id="BitstreamVeraSans-Roman-27"/>
      <path d="
M8.6875 72.9062
L18.6094 72.9062
L18.6094 28.6094
Q18.6094 16.8906 22.8438 11.7344
Q27.0938 6.59375 36.625 6.59375
Q46.0938 6.59375 50.3438 11.7344
Q54.5938 16.8906 54.5938 28.6094
L54.5938 72.9062
L64.5 72.9062
L64.5 27.3906
Q64.5 13.1406 57.4375 5.85938
Q50.3906 -1.42188 36.625 -1.42188
Q22.7969 -1.42188 15.7344 5.85938
Q8.6875 13.1406 8.6875 27.3906
z
" id="BitstreamVeraSans-Roman-55"/>
     </defs>
     <g transform="translate(48.8 131.0146875)scale(0.13 -0.13)">
      <use xlink:href="#BitstreamVeraSans-Roman-35"/>
      <use x="63.623046875" xlink:href="#BitstreamVeraSans-Roman-27"/>
      <use x="91.11328125" xlink:href="#BitstreamVeraSans-Roman-5f"/>
      <use x="141.11328125" xlink:href="#BitstreamVeraSans-Roman-55"/>
      <use x="214.306640625" xlink:href="#BitstreamVeraSans-Roman-54"/>
      <use x="275.390625" xlink:href="#BitstreamVeraSans-Roman-52"/>
      <use x="344.873046875" xlink:href="#BitstreamVeraSans-Roman-20"/>
      <use x="376.66015625" xlink:href="#BitstreamVeraSans-Roman-20"/>
      <use x="408.447265625" xlink:href="#BitstreamVeraSans-Roman-20"/>
      <use x="440.234375" xlink:href="#BitstreamVeraSans-Roman-20"/>
      <use x="472.021484375" xlink:href="#BitstreamVeraSans-Roman-20"/>
      <use x="503.80859375" xlink:href="#BitstreamVeraSans-Roman-20"/>
      <use x="535.595703125" xlink:href="#BitstreamVeraSans-Roman-20"/>
      <use x="567.3828125" xlink:href="#BitstreamVeraSans-Roman-20"/>
      <use x="599.169921875" xlink:href="#BitstreamVeraSans-Roman-20"/>
      <use x="630.95703125" xlink:href="#BitstreamVeraSans-Roman-20"/>
      <use x="662.744140625" xlink:href="#BitstreamVeraSans-Roman-20"/>
      <use x="694.53125" xlink:href="#BitstreamVeraSans-Roman-20"/>
      <use x="726.318359375" xlink:href="#BitstreamVeraSans-Roman-20"/>
      <use x="758.10546875" xlink:href="#BitstreamVeraSans-Roman-20"/>
      <use x="789.892578125" xlink:href="#BitstreamVeraSans-Roman-20"/>
      <use x="821.6796875" xlink:href="#BitstreamVeraSans-Roman-2d"/>
      <use x="857.763671875" xlink:href="#BitstreamVeraSans-Roman-20"/>
      <use x="889.55078125" xlink:href="#BitstreamVeraSans-Roman-20"/>
      <use x="921.337890625" xlink:href="#BitstreamVeraSans-Roman-38"/>
      <use x="984.9609375" xlink:href="#BitstreamVeraSans-Roman-35"/>
      <use x="1048.58398438" xlink:href="#BitstreamVeraSans-Roman-34"/>
      <use x="1112.20703125" xlink:href="#BitstreamVeraSans-Roman-20"/>
      <use x="1143.99414062" xlink:href="#BitstreamVeraSans-Roman-20"/>
      <use x="1175.78125" xlink:href="#BitstreamVeraSans-Roman-28"/>
      <use x="1214.79492188" xlink:href="#BitstreamVeraSans-Roman-38"/>
      <use x="1278.41796875" xlink:href="#BitstreamVeraSans-Roman-2e"/>
      <use x="1310.20507812" xlink:href="#BitstreamVeraSans-Roman-38"/>
      <use x="1373.828125" xlink:href="#BitstreamVeraSans-Roman-34"/>
      <use x="1437.45117188" xlink:href="#BitstreamVeraSans-Roman-25"/>
      <use x="1532.47070312" xlink:href="#BitstreamVeraSans-Roman-29"/>
     </g>
    </g>
    <g id="patch_34">
     <path d="
M12.4 150.458
L38.4 150.458
L38.4 141.358
L12.4 141.358
z
" style="fill:#000fff;stroke:#000000;stroke-linejoin:miter;"/>
    </g>
    <g id="text_19">
     <!-- 3'_UTR               -  661  (6.84%) -->
     <g transform="translate(48.8 150.4578125)scale(0.13 -0.13)">
      <use xlink:href="#BitstreamVeraSans-Roman-33"/>
      <use x="63.623046875" xlink:href="#BitstreamVeraSans-Roman-27"/>
      <use x="91.11328125" xlink:href="#BitstreamVeraSans-Roman-5f"/>
      <use x="141.11328125" xlink:href="#BitstreamVeraSans-Roman-55"/>
      <use x="214.306640625" xlink:href="#BitstreamVeraSans-Roman-54"/>
      <use x="275.390625" xlink:href="#BitstreamVeraSans-Roman-52"/>
      <use x="344.873046875" xlink:href="#BitstreamVeraSans-Roman-20"/>
      <use x="376.66015625" xlink:href="#BitstreamVeraSans-Roman-20"/>
      <use x="408.447265625" xlink:href="#BitstreamVeraSans-Roman-20"/>
      <use x="440.234375" xlink:href="#BitstreamVeraSans-Roman-20"/>
      <use x="472.021484375" xlink:href="#BitstreamVeraSans-Roman-20"/>
      <use x="503.80859375" xlink:href="#BitstreamVeraSans-Roman-20"/>
      <use x="535.595703125" xlink:href="#BitstreamVeraSans-Roman-20"/>
      <use x="567.3828125" xlink:href="#BitstreamVeraSans-Roman-20"/>
      <use x="599.169921875" xlink:href="#BitstreamVeraSans-Roman-20"/>
      <use x="630.95703125" xlink:href="#BitstreamVeraSans-Roman-20"/>
      <use x="662.744140625" xlink:href="#BitstreamVeraSans-Roman-20"/>
      <use x="694.53125" xlink:href="#BitstreamVeraSans-Roman-20"/>
      <use x="726.318359375" xlink:href="#BitstreamVeraSans-Roman-20"/>
      <use x="758.10546875" xlink:href="#BitstreamVeraSans-Roman-20"/>
      <use x="789.892578125" xlink:href="#BitstreamVeraSans-Roman-20"/>
      <use x="821.6796875" xlink:href="#BitstreamVeraSans-Roman-2d"/>
      <use x="857.763671875" xlink:href="#BitstreamVeraSans-Roman-20"/>
      <use x="889.55078125" xlink:href="#BitstreamVeraSans-Roman-20"/>
      <use x="921.337890625" xlink:href="#BitstreamVeraSans-Roman-36"/>
      <use x="984.9609375" xlink:href="#BitstreamVeraSans-Roman-36"/>
      <use x="1048.58398438" xlink:href="#BitstreamVeraSans-Roman-31"/>
      <use x="1112.20703125" xlink:href="#BitstreamVeraSans-Roman-20"/>
      <use x="1143.99414062" xlink:href="#BitstreamVeraSans-Roman-20"/>
      <use x="1175.78125" xlink:href="#BitstreamVeraSans-Roman-28"/>
      <use x="1214.79492188" xlink:href="#BitstreamVeraSans-Roman-36"/>
      <use x="1278.41796875" xlink:href="#BitstreamVeraSans-Roman-2e"/>
      <use x="1310.20507812" xlink:href="#BitstreamVeraSans-Roman-38"/>
      <use x="1373.828125" xlink:href="#BitstreamVeraSans-Roman-34"/>
      <use x="1437.45117188" xlink:href="#BitstreamVeraSans-Roman-25"/>
      <use x="1532.47070312" xlink:href="#BitstreamVeraSans-Roman-29"/>
     </g>
    </g>
    <g id="patch_35">
     <path d="
M12.4 169.901
L38.4 169.901
L38.4 160.801
L12.4 160.801
z
" style="fill:#00ffff;stroke:#000000;stroke-linejoin:miter;"/>
    </g>
    <g id="text_20">
     <!-- ncRNA                -  104  (1.08%) -->
     <defs>
      <path d="
M9.8125 72.9062
L23.0938 72.9062
L55.4219 11.9219
L55.4219 72.9062
L64.9844 72.9062
L64.9844 0
L51.7031 0
L19.3906 60.9844
L19.3906 0
L9.8125 0
z
" id="BitstreamVeraSans-Roman-4e"/>
      <path d="
M34.1875 63.1875
L20.7969 26.9062
L47.6094 26.9062
z

M28.6094 72.9062
L39.7969 72.9062
L67.5781 0
L57.3281 0
L50.6875 18.7031
L17.8281 18.7031
L11.1875 0
L0.78125 0
z
" id="BitstreamVeraSans-Roman-41"/>
     </defs>
     <g transform="translate(48.8 169.9009375)scale(0.13 -0.13)">
      <use xlink:href="#BitstreamVeraSans-Roman-6e"/>
      <use x="63.37890625" xlink:href="#BitstreamVeraSans-Roman-63"/>
      <use x="118.359375" xlink:href="#BitstreamVeraSans-Roman-52"/>
      <use x="187.841796875" xlink:href="#BitstreamVeraSans-Roman-4e"/>
      <use x="262.646484375" xlink:href="#BitstreamVeraSans-Roman-41"/>
      <use x="331.0546875" xlink:href="#BitstreamVeraSans-Roman-20"/>
      <use x="362.841796875" xlink:href="#BitstreamVeraSans-Roman-20"/>
      <use x="394.62890625" xlink:href="#BitstreamVeraSans-Roman-20"/>
      <use x="426.416015625" xlink:href="#BitstreamVeraSans-Roman-20"/>
      <use x="458.203125" xlink:href="#BitstreamVeraSans-Roman-20"/>
      <use x="489.990234375" xlink:href="#BitstreamVeraSans-Roman-20"/>
      <use x="521.77734375" xlink:href="#BitstreamVeraSans-Roman-20"/>
      <use x="553.564453125" xlink:href="#BitstreamVeraSans-Roman-20"/>
      <use x="585.3515625" xlink:href="#BitstreamVeraSans-Roman-20"/>
      <use x="617.138671875" xlink:href="#BitstreamVeraSans-Roman-20"/>
      <use x="648.92578125" xlink:href="#BitstreamVeraSans-Roman-20"/>
      <use x="680.712890625" xlink:href="#BitstreamVeraSans-Roman-20"/>
      <use x="712.5" xlink:href="#BitstreamVeraSans-Roman-20"/>
      <use x="744.287109375" xlink:href="#BitstreamVeraSans-Roman-20"/>
      <use x="776.07421875" xlink:href="#BitstreamVeraSans-Roman-20"/>
      <use x="807.861328125" xlink:href="#BitstreamVeraSans-Roman-20"/>
      <use x="839.6484375" xlink:href="#BitstreamVeraSans-Roman-2d"/>
      <use x="875.732421875" xlink:href="#BitstreamVeraSans-Roman-20"/>
      <use x="907.51953125" xlink:href="#BitstreamVeraSans-Roman-20"/>
      <use x="939.306640625" xlink:href="#BitstreamVeraSans-Roman-31"/>
      <use x="1002.9296875" xlink:href="#BitstreamVeraSans-Roman-30"/>
      <use x="1066.55273438" xlink:href="#BitstreamVeraSans-Roman-34"/>
      <use x="1130.17578125" xlink:href="#BitstreamVeraSans-Roman-20"/>
      <use x="1161.96289062" xlink:href="#BitstreamVeraSans-Roman-20"/>
      <use x="1193.75" xlink:href="#BitstreamVeraSans-Roman-28"/>
      <use x="1232.76367188" xlink:href="#BitstreamVeraSans-Roman-31"/>
      <use x="1296.38671875" xlink:href="#BitstreamVeraSans-Roman-2e"/>
      <use x="1328.17382812" xlink:href="#BitstreamVeraSans-Roman-30"/>
      <use x="1391.796875" xlink:href="#BitstreamVeraSans-Roman-38"/>
      <use x="1455.41992188" xlink:href="#BitstreamVeraSans-Roman-25"/>
      <use x="1550.43945312" xlink:href="#BitstreamVeraSans-Roman-29"/>
     </g>
    </g>
    <g id="patch_36">
     <path d="
M12.4 188.982
L38.4 188.982
L38.4 179.882
L12.4 179.882
z
" style="fill:#adb696;stroke:#000000;stroke-linejoin:miter;"/>
    </g>
    <g id="text_21">
     <!-- tRNA                 -  87   (0.90%) -->
     <defs>
      <path d="
M18.3125 70.2188
L18.3125 54.6875
L36.8125 54.6875
L36.8125 47.7031
L18.3125 47.7031
L18.3125 18.0156
Q18.3125 11.3281 20.1406 9.42188
Q21.9688 7.51562 27.5938 7.51562
L36.8125 7.51562
L36.8125 0
L27.5938 0
Q17.1875 0 13.2344 3.875
Q9.28125 7.76562 9.28125 18.0156
L9.28125 47.7031
L2.6875 47.7031
L2.6875 54.6875
L9.28125 54.6875
L9.28125 70.2188
z
" id="BitstreamVeraSans-Roman-74"/>
     </defs>
     <g transform="translate(48.8 188.9825)scale(0.13 -0.13)">
      <use xlink:href="#BitstreamVeraSans-Roman-74"/>
      <use x="39.208984375" xlink:href="#BitstreamVeraSans-Roman-52"/>
      <use x="108.69140625" xlink:href="#BitstreamVeraSans-Roman-4e"/>
      <use x="183.49609375" xlink:href="#BitstreamVeraSans-Roman-41"/>
      <use x="251.904296875" xlink:href="#BitstreamVeraSans-Roman-20"/>
      <use x="283.69140625" xlink:href="#BitstreamVeraSans-Roman-20"/>
      <use x="315.478515625" xlink:href="#BitstreamVeraSans-Roman-20"/>
      <use x="347.265625" xlink:href="#BitstreamVeraSans-Roman-20"/>
      <use x="379.052734375" xlink:href="#BitstreamVeraSans-Roman-20"/>
      <use x="410.83984375" xlink:href="#BitstreamVeraSans-Roman-20"/>
      <use x="442.626953125" xlink:href="#BitstreamVeraSans-Roman-20"/>
      <use x="474.4140625" xlink:href="#BitstreamVeraSans-Roman-20"/>
      <use x="506.201171875" xlink:href="#BitstreamVeraSans-Roman-20"/>
      <use x="537.98828125" xlink:href="#BitstreamVeraSans-Roman-20"/>
      <use x="569.775390625" xlink:href="#BitstreamVeraSans-Roman-20"/>
      <use x="601.5625" xlink:href="#BitstreamVeraSans-Roman-20"/>
      <use x="633.349609375" xlink:href="#BitstreamVeraSans-Roman-20"/>
      <use x="665.13671875" xlink:href="#BitstreamVeraSans-Roman-20"/>
      <use x="696.923828125" xlink:href="#BitstreamVeraSans-Roman-20"/>
      <use x="728.7109375" xlink:href="#BitstreamVeraSans-Roman-20"/>
      <use x="760.498046875" xlink:href="#BitstreamVeraSans-Roman-20"/>
      <use x="792.28515625" xlink:href="#BitstreamVeraSans-Roman-2d"/>
      <use x="828.369140625" xlink:href="#BitstreamVeraSans-Roman-20"/>
      <use x="860.15625" xlink:href="#BitstreamVeraSans-Roman-20"/>
      <use x="891.943359375" xlink:href="#BitstreamVeraSans-Roman-38"/>
      <use x="955.56640625" xlink:href="#BitstreamVeraSans-Roman-37"/>
      <use x="1019.18945312" xlink:href="#BitstreamVeraSans-Roman-20"/>
      <use x="1050.9765625" xlink:href="#BitstreamVeraSans-Roman-20"/>
      <use x="1082.76367188" xlink:href="#BitstreamVeraSans-Roman-20"/>
      <use x="1114.55078125" xlink:href="#BitstreamVeraSans-Roman-28"/>
      <use x="1153.56445312" xlink:href="#BitstreamVeraSans-Roman-30"/>
      <use x="1217.1875" xlink:href="#BitstreamVeraSans-Roman-2e"/>
      <use x="1248.97460938" xlink:href="#BitstreamVeraSans-Roman-39"/>
      <use x="1312.59765625" xlink:href="#BitstreamVeraSans-Roman-30"/>
      <use x="1376.22070312" xlink:href="#BitstreamVeraSans-Roman-25"/>
      <use x="1471.24023438" xlink:href="#BitstreamVeraSans-Roman-29"/>
     </g>
    </g>
    <g id="patch_37">
     <path d="
M12.4 208.064
L38.4 208.064
L38.4 198.964
L12.4 198.964
z
" style="fill:#adb696;stroke:#000000;stroke-linejoin:miter;"/>
    </g>
    <g id="text_22">
     <!-- 3'_UTR/CDS           -  72   (0.75%) -->
     <defs>
      <path d="
M25.3906 72.9062
L33.6875 72.9062
L8.29688 -9.28125
L0 -9.28125
z
" id="BitstreamVeraSans-Roman-2f"/>
     </defs>
     <g transform="translate(48.8 208.0640625)scale(0.13 -0.13)">
      <use xlink:href="#BitstreamVeraSans-Roman-33"/>
      <use x="63.623046875" xlink:href="#BitstreamVeraSans-Roman-27"/>
      <use x="91.11328125" xlink:href="#BitstreamVeraSans-Roman-5f"/>
      <use x="141.11328125" xlink:href="#BitstreamVeraSans-Roman-55"/>
      <use x="214.306640625" xlink:href="#BitstreamVeraSans-Roman-54"/>
      <use x="275.390625" xlink:href="#BitstreamVeraSans-Roman-52"/>
      <use x="344.873046875" xlink:href="#BitstreamVeraSans-Roman-2f"/>
      <use x="378.564453125" xlink:href="#BitstreamVeraSans-Roman-43"/>
      <use x="448.388671875" xlink:href="#BitstreamVeraSans-Roman-44"/>
      <use x="525.390625" xlink:href="#BitstreamVeraSans-Roman-53"/>
      <use x="588.8671875" xlink:href="#BitstreamVeraSans-Roman-20"/>
      <use x="620.654296875" xlink:href="#BitstreamVeraSans-Roman-20"/>
      <use x="652.44140625" xlink:href="#BitstreamVeraSans-Roman-20"/>
      <use x="684.228515625" xlink:href="#BitstreamVeraSans-Roman-20"/>
      <use x="716.015625" xlink:href="#BitstreamVeraSans-Roman-20"/>
      <use x="747.802734375" xlink:href="#BitstreamVeraSans-Roman-20"/>
      <use x="779.58984375" xlink:href="#BitstreamVeraSans-Roman-20"/>
      <use x="811.376953125" xlink:href="#BitstreamVeraSans-Roman-20"/>
      <use x="843.1640625" xlink:href="#BitstreamVeraSans-Roman-20"/>
      <use x="874.951171875" xlink:href="#BitstreamVeraSans-Roman-20"/>
      <use x="906.73828125" xlink:href="#BitstreamVeraSans-Roman-20"/>
      <use x="938.525390625" xlink:href="#BitstreamVeraSans-Roman-2d"/>
      <use x="974.609375" xlink:href="#BitstreamVeraSans-Roman-20"/>
      <use x="1006.39648438" xlink:href="#BitstreamVeraSans-Roman-20"/>
      <use x="1038.18359375" xlink:href="#BitstreamVeraSans-Roman-37"/>
      <use x="1101.80664062" xlink:href="#BitstreamVeraSans-Roman-32"/>
      <use x="1165.4296875" xlink:href="#BitstreamVeraSans-Roman-20"/>
      <use x="1197.21679688" xlink:href="#BitstreamVeraSans-Roman-20"/>
      <use x="1229.00390625" xlink:href="#BitstreamVeraSans-Roman-20"/>
      <use x="1260.79101562" xlink:href="#BitstreamVeraSans-Roman-28"/>
      <use x="1299.8046875" xlink:href="#BitstreamVeraSans-Roman-30"/>
      <use x="1363.42773438" xlink:href="#BitstreamVeraSans-Roman-2e"/>
      <use x="1395.21484375" xlink:href="#BitstreamVeraSans-Roman-37"/>
      <use x="1458.83789062" xlink:href="#BitstreamVeraSans-Roman-35"/>
      <use x="1522.4609375" xlink:href="#BitstreamVeraSans-Roman-25"/>
      <use x="1617.48046875" xlink:href="#BitstreamVeraSans-Roman-29"/>
     </g>
    </g>
    <g id="patch_38">
     <path d="
M12.4 227.507
L38.4 227.507
L38.4 218.407
L12.4 218.407
z
" style="fill:#adb696;stroke:#000000;stroke-linejoin:miter;"/>
    </g>
    <g id="text_23">
     <!-- 5'_UTR/CDS           -  23   (0.24%) -->
     <g transform="translate(48.8 227.5071875)scale(0.13 -0.13)">
      <use xlink:href="#BitstreamVeraSans-Roman-35"/>
      <use x="63.623046875" xlink:href="#BitstreamVeraSans-Roman-27"/>
      <use x="91.11328125" xlink:href="#BitstreamVeraSans-Roman-5f"/>
      <use x="141.11328125" xlink:href="#BitstreamVeraSans-Roman-55"/>
      <use x="214.306640625" xlink:href="#BitstreamVeraSans-Roman-54"/>
      <use x="275.390625" xlink:href="#BitstreamVeraSans-Roman-52"/>
      <use x="344.873046875" xlink:href="#BitstreamVeraSans-Roman-2f"/>
      <use x="378.564453125" xlink:href="#BitstreamVeraSans-Roman-43"/>
      <use x="448.388671875" xlink:href="#BitstreamVeraSans-Roman-44"/>
      <use x="525.390625" xlink:href="#BitstreamVeraSans-Roman-53"/>
      <use x="588.8671875" xlink:href="#BitstreamVeraSans-Roman-20"/>
      <use x="620.654296875" xlink:href="#BitstreamVeraSans-Roman-20"/>
      <use x="652.44140625" xlink:href="#BitstreamVeraSans-Roman-20"/>
      <use x="684.228515625" xlink:href="#BitstreamVeraSans-Roman-20"/>
      <use x="716.015625" xlink:href="#BitstreamVeraSans-Roman-20"/>
      <use x="747.802734375" xlink:href="#BitstreamVeraSans-Roman-20"/>
      <use x="779.58984375" xlink:href="#BitstreamVeraSans-Roman-20"/>
      <use x="811.376953125" xlink:href="#BitstreamVeraSans-Roman-20"/>
      <use x="843.1640625" xlink:href="#BitstreamVeraSans-Roman-20"/>
      <use x="874.951171875" xlink:href="#BitstreamVeraSans-Roman-20"/>
      <use x="906.73828125" xlink:href="#BitstreamVeraSans-Roman-20"/>
      <use x="938.525390625" xlink:href="#BitstreamVeraSans-Roman-2d"/>
      <use x="974.609375" xlink:href="#BitstreamVeraSans-Roman-20"/>
      <use x="1006.39648438" xlink:href="#BitstreamVeraSans-Roman-20"/>
      <use x="1038.18359375" xlink:href="#BitstreamVeraSans-Roman-32"/>
      <use x="1101.80664062" xlink:href="#BitstreamVeraSans-Roman-33"/>
      <use x="1165.4296875" xlink:href="#BitstreamVeraSans-Roman-20"/>
      <use x="1197.21679688" xlink:href="#BitstreamVeraSans-Roman-20"/>
      <use x="1229.00390625" xlink:href="#BitstreamVeraSans-Roman-20"/>
      <use x="1260.79101562" xlink:href="#BitstreamVeraSans-Roman-28"/>
      <use x="1299.8046875" xlink:href="#BitstreamVeraSans-Roman-30"/>
      <use x="1363.42773438" xlink:href="#BitstreamVeraSans-Roman-2e"/>
      <use x="1395.21484375" xlink:href="#BitstreamVeraSans-Roman-32"/>
      <use x="1458.83789062" xlink:href="#BitstreamVeraSans-Roman-34"/>
      <use x="1522.4609375" xlink:href="#BitstreamVeraSans-Roman-25"/>
      <use x="1617.48046875" xlink:href="#BitstreamVeraSans-Roman-29"/>
     </g>
    </g>
    <g id="patch_39">
     <path d="
M12.4 246.95
L38.4 246.95
L38.4 237.85
L12.4 237.85
z
" style="fill:#adb696;stroke:#000000;stroke-linejoin:miter;"/>
    </g>
    <g id="text_24">
     <!-- 3'_UTR/5'_UTR        -  20   (0.21%) -->
     <g transform="translate(48.8 246.9503125)scale(0.13 -0.13)">
      <use xlink:href="#BitstreamVeraSans-Roman-33"/>
      <use x="63.623046875" xlink:href="#BitstreamVeraSans-Roman-27"/>
      <use x="91.11328125" xlink:href="#BitstreamVeraSans-Roman-5f"/>
      <use x="141.11328125" xlink:href="#BitstreamVeraSans-Roman-55"/>
      <use x="214.306640625" xlink:href="#BitstreamVeraSans-Roman-54"/>
      <use x="275.390625" xlink:href="#BitstreamVeraSans-Roman-52"/>
      <use x="344.873046875" xlink:href="#BitstreamVeraSans-Roman-2f"/>
      <use x="378.564453125" xlink:href="#BitstreamVeraSans-Roman-35"/>
      <use x="442.1875" xlink:href="#BitstreamVeraSans-Roman-27"/>
      <use x="469.677734375" xlink:href="#BitstreamVeraSans-Roman-5f"/>
      <use x="519.677734375" xlink:href="#BitstreamVeraSans-Roman-55"/>
      <use x="592.87109375" xlink:href="#BitstreamVeraSans-Roman-54"/>
      <use x="653.955078125" xlink:href="#BitstreamVeraSans-Roman-52"/>
      <use x="723.4375" xlink:href="#BitstreamVeraSans-Roman-20"/>
      <use x="755.224609375" xlink:href="#BitstreamVeraSans-Roman-20"/>
      <use x="787.01171875" xlink:href="#BitstreamVeraSans-Roman-20"/>
      <use x="818.798828125" xlink:href="#BitstreamVeraSans-Roman-20"/>
      <use x="850.5859375" xlink:href="#BitstreamVeraSans-Roman-20"/>
      <use x="882.373046875" xlink:href="#BitstreamVeraSans-Roman-20"/>
      <use x="914.16015625" xlink:href="#BitstreamVeraSans-Roman-20"/>
      <use x="945.947265625" xlink:href="#BitstreamVeraSans-Roman-20"/>
      <use x="977.734375" xlink:href="#BitstreamVeraSans-Roman-2d"/>
      <use x="1013.81835938" xlink:href="#BitstreamVeraSans-Roman-20"/>
      <use x="1045.60546875" xlink:href="#BitstreamVeraSans-Roman-20"/>
      <use x="1077.39257812" xlink:href="#BitstreamVeraSans-Roman-32"/>
      <use x="1141.015625" xlink:href="#BitstreamVeraSans-Roman-30"/>
      <use x="1204.63867188" xlink:href="#BitstreamVeraSans-Roman-20"/>
      <use x="1236.42578125" xlink:href="#BitstreamVeraSans-Roman-20"/>
      <use x="1268.21289062" xlink:href="#BitstreamVeraSans-Roman-20"/>
      <use x="1300.0" xlink:href="#BitstreamVeraSans-Roman-28"/>
      <use x="1339.01367188" xlink:href="#BitstreamVeraSans-Roman-30"/>
      <use x="1402.63671875" xlink:href="#BitstreamVeraSans-Roman-2e"/>
      <use x="1434.42382812" xlink:href="#BitstreamVeraSans-Roman-32"/>
      <use x="1498.046875" xlink:href="#BitstreamVeraSans-Roman-31"/>
      <use x="1561.66992188" xlink:href="#BitstreamVeraSans-Roman-25"/>
      <use x="1656.68945312" xlink:href="#BitstreamVeraSans-Roman-29"/>
     </g>
    </g>
    <g id="patch_40">
     <path d="
M12.4 266.393
L38.4 266.393
L38.4 257.293
L12.4 257.293
z
" style="fill:#adb696;stroke:#000000;stroke-linejoin:miter;"/>
    </g>
    <g id="text_25">
     <!-- 5'_UTR/ncRNA         -  7    (0.07%) -->
     <g transform="translate(48.8 266.3934375)scale(0.13 -0.13)">
      <use xlink:href="#BitstreamVeraSans-Roman-35"/>
      <use x="63.623046875" xlink:href="#BitstreamVeraSans-Roman-27"/>
      <use x="91.11328125" xlink:href="#BitstreamVeraSans-Roman-5f"/>
      <use x="141.11328125" xlink:href="#BitstreamVeraSans-Roman-55"/>
      <use x="214.306640625" xlink:href="#BitstreamVeraSans-Roman-54"/>
      <use x="275.390625" xlink:href="#BitstreamVeraSans-Roman-52"/>
      <use x="344.873046875" xlink:href="#BitstreamVeraSans-Roman-2f"/>
      <use x="378.564453125" xlink:href="#BitstreamVeraSans-Roman-6e"/>
      <use x="441.943359375" xlink:href="#BitstreamVeraSans-Roman-63"/>
      <use x="496.923828125" xlink:href="#BitstreamVeraSans-Roman-52"/>
      <use x="566.40625" xlink:href="#BitstreamVeraSans-Roman-4e"/>
      <use x="641.2109375" xlink:href="#BitstreamVeraSans-Roman-41"/>
      <use x="709.619140625" xlink:href="#BitstreamVeraSans-Roman-20"/>
      <use x="741.40625" xlink:href="#BitstreamVeraSans-Roman-20"/>
      <use x="773.193359375" xlink:href="#BitstreamVeraSans-Roman-20"/>
      <use x="804.98046875" xlink:href="#BitstreamVeraSans-Roman-20"/>
      <use x="836.767578125" xlink:href="#BitstreamVeraSans-Roman-20"/>
      <use x="868.5546875" xlink:href="#BitstreamVeraSans-Roman-20"/>
      <use x="900.341796875" xlink:href="#BitstreamVeraSans-Roman-20"/>
      <use x="932.12890625" xlink:href="#BitstreamVeraSans-Roman-20"/>
      <use x="963.916015625" xlink:href="#BitstreamVeraSans-Roman-20"/>
      <use x="995.703125" xlink:href="#BitstreamVeraSans-Roman-2d"/>
      <use x="1031.78710938" xlink:href="#BitstreamVeraSans-Roman-20"/>
      <use x="1063.57421875" xlink:href="#BitstreamVeraSans-Roman-20"/>
      <use x="1095.36132812" xlink:href="#BitstreamVeraSans-Roman-37"/>
      <use x="1158.984375" xlink:href="#BitstreamVeraSans-Roman-20"/>
      <use x="1190.77148438" xlink:href="#BitstreamVeraSans-Roman-20"/>
      <use x="1222.55859375" xlink:href="#BitstreamVeraSans-Roman-20"/>
      <use x="1254.34570312" xlink:href="#BitstreamVeraSans-Roman-20"/>
      <use x="1286.1328125" xlink:href="#BitstreamVeraSans-Roman-28"/>
      <use x="1325.14648438" xlink:href="#BitstreamVeraSans-Roman-30"/>
      <use x="1388.76953125" xlink:href="#BitstreamVeraSans-Roman-2e"/>
      <use x="1420.55664062" xlink:href="#BitstreamVeraSans-Roman-30"/>
      <use x="1484.1796875" xlink:href="#BitstreamVeraSans-Roman-37"/>
      <use x="1547.80273438" xlink:href="#BitstreamVeraSans-Roman-25"/>
      <use x="1642.82226562" xlink:href="#BitstreamVeraSans-Roman-29"/>
     </g>
    </g>
    <g id="patch_41">
     <path d="
M12.4 285.837
L38.4 285.837
L38.4 276.737
L12.4 276.737
z
" style="fill:#adb696;stroke:#000000;stroke-linejoin:miter;"/>
    </g>
    <g id="text_26">
     <!-- CDS/ncRNA            -  6    (0.06%) -->
     <g transform="translate(48.8 285.8365625)scale(0.13 -0.13)">
      <use xlink:href="#BitstreamVeraSans-Roman-43"/>
      <use x="69.82421875" xlink:href="#BitstreamVeraSans-Roman-44"/>
      <use x="146.826171875" xlink:href="#BitstreamVeraSans-Roman-53"/>
      <use x="210.302734375" xlink:href="#BitstreamVeraSans-Roman-2f"/>
      <use x="243.994140625" xlink:href="#BitstreamVeraSans-Roman-6e"/>
      <use x="307.373046875" xlink:href="#BitstreamVeraSans-Roman-63"/>
      <use x="362.353515625" xlink:href="#BitstreamVeraSans-Roman-52"/>
      <use x="431.8359375" xlink:href="#BitstreamVeraSans-Roman-4e"/>
      <use x="506.640625" xlink:href="#BitstreamVeraSans-Roman-41"/>
      <use x="575.048828125" xlink:href="#BitstreamVeraSans-Roman-20"/>
      <use x="606.8359375" xlink:href="#BitstreamVeraSans-Roman-20"/>
      <use x="638.623046875" xlink:href="#BitstreamVeraSans-Roman-20"/>
      <use x="670.41015625" xlink:href="#BitstreamVeraSans-Roman-20"/>
      <use x="702.197265625" xlink:href="#BitstreamVeraSans-Roman-20"/>
      <use x="733.984375" xlink:href="#BitstreamVeraSans-Roman-20"/>
      <use x="765.771484375" xlink:href="#BitstreamVeraSans-Roman-20"/>
      <use x="797.55859375" xlink:href="#BitstreamVeraSans-Roman-20"/>
      <use x="829.345703125" xlink:href="#BitstreamVeraSans-Roman-20"/>
      <use x="861.1328125" xlink:href="#BitstreamVeraSans-Roman-20"/>
      <use x="892.919921875" xlink:href="#BitstreamVeraSans-Roman-20"/>
      <use x="924.70703125" xlink:href="#BitstreamVeraSans-Roman-20"/>
      <use x="956.494140625" xlink:href="#BitstreamVeraSans-Roman-2d"/>
      <use x="992.578125" xlink:href="#BitstreamVeraSans-Roman-20"/>
      <use x="1024.36523438" xlink:href="#BitstreamVeraSans-Roman-20"/>
      <use x="1056.15234375" xlink:href="#BitstreamVeraSans-Roman-36"/>
      <use x="1119.77539062" xlink:href="#BitstreamVeraSans-Roman-20"/>
      <use x="1151.5625" xlink:href="#BitstreamVeraSans-Roman-20"/>
      <use x="1183.34960938" xlink:href="#BitstreamVeraSans-Roman-20"/>
      <use x="1215.13671875" xlink:href="#BitstreamVeraSans-Roman-20"/>
      <use x="1246.92382812" xlink:href="#BitstreamVeraSans-Roman-28"/>
      <use x="1285.9375" xlink:href="#BitstreamVeraSans-Roman-30"/>
      <use x="1349.56054688" xlink:href="#BitstreamVeraSans-Roman-2e"/>
      <use x="1381.34765625" xlink:href="#BitstreamVeraSans-Roman-30"/>
      <use x="1444.97070312" xlink:href="#BitstreamVeraSans-Roman-36"/>
      <use x="1508.59375" xlink:href="#BitstreamVeraSans-Roman-25"/>
      <use x="1603.61328125" xlink:href="#BitstreamVeraSans-Roman-29"/>
     </g>
    </g>
    <g id="patch_42">
     <path d="
M12.4 304.918
L38.4 304.918
L38.4 295.818
L12.4 295.818
z
" style="fill:#adb696;stroke:#000000;stroke-linejoin:miter;"/>
    </g>
    <g id="text_27">
     <!-- CDS/tRNA             -  2    (0.02%) -->
     <g transform="translate(48.8 304.918125)scale(0.13 -0.13)">
      <use xlink:href="#BitstreamVeraSans-Roman-43"/>
      <use x="69.82421875" xlink:href="#BitstreamVeraSans-Roman-44"/>
      <use x="146.826171875" xlink:href="#BitstreamVeraSans-Roman-53"/>
      <use x="210.302734375" xlink:href="#BitstreamVeraSans-Roman-2f"/>
      <use x="243.994140625" xlink:href="#BitstreamVeraSans-Roman-74"/>
      <use x="283.203125" xlink:href="#BitstreamVeraSans-Roman-52"/>
      <use x="352.685546875" xlink:href="#BitstreamVeraSans-Roman-4e"/>
      <use x="427.490234375" xlink:href="#BitstreamVeraSans-Roman-41"/>
      <use x="495.8984375" xlink:href="#BitstreamVeraSans-Roman-20"/>
      <use x="527.685546875" xlink:href="#BitstreamVeraSans-Roman-20"/>
      <use x="559.47265625" xlink:href="#BitstreamVeraSans-Roman-20"/>
      <use x="591.259765625" xlink:href="#BitstreamVeraSans-Roman-20"/>
      <use x="623.046875" xlink:href="#BitstreamVeraSans-Roman-20"/>
      <use x="654.833984375" xlink:href="#BitstreamVeraSans-Roman-20"/>
      <use x="686.62109375" xlink:href="#BitstreamVeraSans-Roman-20"/>
      <use x="718.408203125" xlink:href="#BitstreamVeraSans-Roman-20"/>
      <use x="750.1953125" xlink:href="#BitstreamVeraSans-Roman-20"/>
      <use x="781.982421875" xlink:href="#BitstreamVeraSans-Roman-20"/>
      <use x="813.76953125" xlink:href="#BitstreamVeraSans-Roman-20"/>
      <use x="845.556640625" xlink:href="#BitstreamVeraSans-Roman-20"/>
      <use x="877.34375" xlink:href="#BitstreamVeraSans-Roman-20"/>
      <use x="909.130859375" xlink:href="#BitstreamVeraSans-Roman-2d"/>
      <use x="945.21484375" xlink:href="#BitstreamVeraSans-Roman-20"/>
      <use x="977.001953125" xlink:href="#BitstreamVeraSans-Roman-20"/>
      <use x="1008.7890625" xlink:href="#BitstreamVeraSans-Roman-32"/>
      <use x="1072.41210938" xlink:href="#BitstreamVeraSans-Roman-20"/>
      <use x="1104.19921875" xlink:href="#BitstreamVeraSans-Roman-20"/>
      <use x="1135.98632812" xlink:href="#BitstreamVeraSans-Roman-20"/>
      <use x="1167.7734375" xlink:href="#BitstreamVeraSans-Roman-20"/>
      <use x="1199.56054688" xlink:href="#BitstreamVeraSans-Roman-28"/>
      <use x="1238.57421875" xlink:href="#BitstreamVeraSans-Roman-30"/>
      <use x="1302.19726562" xlink:href="#BitstreamVeraSans-Roman-2e"/>
      <use x="1333.984375" xlink:href="#BitstreamVeraSans-Roman-30"/>
      <use x="1397.60742188" xlink:href="#BitstreamVeraSans-Roman-32"/>
      <use x="1461.23046875" xlink:href="#BitstreamVeraSans-Roman-25"/>
      <use x="1556.25" xlink:href="#BitstreamVeraSans-Roman-29"/>
     </g>
    </g>
    <g id="patch_43">
     <path d="
M12.4 324
L38.4 324
L38.4 314.9
L12.4 314.9
z
" style="fill:#adb696;stroke:#000000;stroke-linejoin:miter;"/>
    </g>
    <g id="text_28">
     <!-- LTR_retrotransposon  -  1    (0.01%) -->
     <defs>
      <path d="
M41.1094 46.2969
Q39.5938 47.1719 37.8125 47.5781
Q36.0312 48 33.8906 48
Q26.2656 48 22.1875 43.0469
Q18.1094 38.0938 18.1094 28.8125
L18.1094 0
L9.07812 0
L9.07812 54.6875
L18.1094 54.6875
L18.1094 46.1875
Q20.9531 51.1719 25.4844 53.5781
Q30.0312 56 36.5312 56
Q37.4531 56 38.5781 55.875
Q39.7031 55.7656 41.0625 55.5156
z
" id="BitstreamVeraSans-Roman-72"/>
      <path d="
M34.2812 27.4844
Q23.3906 27.4844 19.1875 25
Q14.9844 22.5156 14.9844 16.5
Q14.9844 11.7188 18.1406 8.90625
Q21.2969 6.10938 26.7031 6.10938
Q34.1875 6.10938 38.7031 11.4062
Q43.2188 16.7031 43.2188 25.4844
L43.2188 27.4844
z

M52.2031 31.2031
L52.2031 0
L43.2188 0
L43.2188 8.29688
Q40.1406 3.32812 35.5469 0.953125
Q30.9531 -1.42188 24.3125 -1.42188
Q15.9219 -1.42188 10.9531 3.29688
Q6 8.01562 6 15.9219
Q6 25.1406 12.1719 29.8281
Q18.3594 34.5156 30.6094 34.5156
L43.2188 34.5156
L43.2188 35.4062
Q43.2188 41.6094 39.1406 45
Q35.0625 48.3906 27.6875 48.3906
Q23 48.3906 18.5469 47.2656
Q14.1094 46.1406 10.0156 43.8906
L10.0156 52.2031
Q14.9375 54.1094 19.5781 55.0469
Q24.2188 56 28.6094 56
Q40.4844 56 46.3438 49.8438
Q52.2031 43.7031 52.2031 31.2031" id="BitstreamVeraSans-Roman-61"/>
      <path d="
M9.8125 72.9062
L19.6719 72.9062
L19.6719 8.29688
L55.1719 8.29688
L55.1719 0
L9.8125 0
z
" id="BitstreamVeraSans-Roman-4c"/>
      <path d="
M44.2812 53.0781
L44.2812 44.5781
Q40.4844 46.5312 36.375 47.5
Q32.2812 48.4844 27.875 48.4844
Q21.1875 48.4844 17.8438 46.4375
Q14.5 44.3906 14.5 40.2812
Q14.5 37.1562 16.8906 35.375
Q19.2812 33.5938 26.5156 31.9844
L29.5938 31.2969
Q39.1562 29.25 43.1875 25.5156
Q47.2188 21.7812 47.2188 15.0938
Q47.2188 7.46875 41.1875 3.01562
Q35.1562 -1.42188 24.6094 -1.42188
Q20.2188 -1.42188 15.4531 -0.5625
Q10.6875 0.296875 5.42188 2
L5.42188 11.2812
Q10.4062 8.6875 15.2344 7.39062
Q20.0625 6.10938 24.8125 6.10938
Q31.1562 6.10938 34.5625 8.28125
Q37.9844 10.4531 37.9844 14.4062
Q37.9844 18.0625 35.5156 20.0156
Q33.0625 21.9688 24.7031 23.7812
L21.5781 24.5156
Q13.2344 26.2656 9.51562 29.9062
Q5.8125 33.5469 5.8125 39.8906
Q5.8125 47.6094 11.2812 51.7969
Q16.75 56 26.8125 56
Q31.7812 56 36.1719 55.2656
Q40.5781 54.5469 44.2812 53.0781" id="BitstreamVeraSans-Roman-73"/>
      <path d="
M18.1094 8.20312
L18.1094 -20.7969
L9.07812 -20.7969
L9.07812 54.6875
L18.1094 54.6875
L18.1094 46.3906
Q20.9531 51.2656 25.2656 53.625
Q29.5938 56 35.5938 56
Q45.5625 56 51.7812 48.0938
Q58.0156 40.1875 58.0156 27.2969
Q58.0156 14.4062 51.7812 6.48438
Q45.5625 -1.42188 35.5938 -1.42188
Q29.5938 -1.42188 25.2656 0.953125
Q20.9531 3.32812 18.1094 8.20312
M48.6875 27.2969
Q48.6875 37.2031 44.6094 42.8438
Q40.5312 48.4844 33.4062 48.4844
Q26.2656 48.4844 22.1875 42.8438
Q18.1094 37.2031 18.1094 27.2969
Q18.1094 17.3906 22.1875 11.75
Q26.2656 6.10938 33.4062 6.10938
Q40.5312 6.10938 44.6094 11.75
Q48.6875 17.3906 48.6875 27.2969" id="BitstreamVeraSans-Roman-70"/>
     </defs>
     <g transform="translate(48.8 323.9996875)scale(0.13 -0.13)">
      <use xlink:href="#BitstreamVeraSans-Roman-4c"/>
      <use x="41.962890625" xlink:href="#BitstreamVeraSans-Roman-54"/>
      <use x="103.046875" xlink:href="#BitstreamVeraSans-Roman-52"/>
      <use x="172.529296875" xlink:href="#BitstreamVeraSans-Roman-5f"/>
      <use x="222.529296875" xlink:href="#BitstreamVeraSans-Roman-72"/>
      <use x="261.392578125" xlink:href="#BitstreamVeraSans-Roman-65"/>
      <use x="322.916015625" xlink:href="#BitstreamVeraSans-Roman-74"/>
      <use x="362.125" xlink:href="#BitstreamVeraSans-Roman-72"/>
      <use x="400.98828125" xlink:href="#BitstreamVeraSans-Roman-6f"/>
      <use x="462.169921875" xlink:href="#BitstreamVeraSans-Roman-74"/>
      <use x="501.37890625" xlink:href="#BitstreamVeraSans-Roman-72"/>
      <use x="542.4921875" xlink:href="#BitstreamVeraSans-Roman-61"/>
      <use x="603.771484375" xlink:href="#BitstreamVeraSans-Roman-6e"/>
      <use x="667.150390625" xlink:href="#BitstreamVeraSans-Roman-73"/>
      <use x="719.25" xlink:href="#BitstreamVeraSans-Roman-70"/>
      <use x="782.7265625" xlink:href="#BitstreamVeraSans-Roman-6f"/>
      <use x="843.908203125" xlink:href="#BitstreamVeraSans-Roman-73"/>
      <use x="896.0078125" xlink:href="#BitstreamVeraSans-Roman-6f"/>
      <use x="957.189453125" xlink:href="#BitstreamVeraSans-Roman-6e"/>
      <use x="1020.56835938" xlink:href="#BitstreamVeraSans-Roman-20"/>
      <use x="1052.35546875" xlink:href="#BitstreamVeraSans-Roman-20"/>
      <use x="1084.14257812" xlink:href="#BitstreamVeraSans-Roman-2d"/>
      <use x="1120.2265625" xlink:href="#BitstreamVeraSans-Roman-20"/>
      <use x="1152.01367188" xlink:href="#BitstreamVeraSans-Roman-20"/>
      <use x="1183.80078125" xlink:href="#BitstreamVeraSans-Roman-31"/>
      <use x="1247.42382812" xlink:href="#BitstreamVeraSans-Roman-20"/>
      <use x="1279.2109375" xlink:href="#BitstreamVeraSans-Roman-20"/>
      <use x="1310.99804688" xlink:href="#BitstreamVeraSans-Roman-20"/>
      <use x="1342.78515625" xlink:href="#BitstreamVeraSans-Roman-20"/>
      <use x="1374.57226562" xlink:href="#BitstreamVeraSans-Roman-28"/>
      <use x="1413.5859375" xlink:href="#BitstreamVeraSans-Roman-30"/>
      <use x="1477.20898438" xlink:href="#BitstreamVeraSans-Roman-2e"/>
      <use x="1508.99609375" xlink:href="#BitstreamVeraSans-Roman-30"/>
      <use x="1572.61914062" xlink:href="#BitstreamVeraSans-Roman-31"/>
      <use x="1636.2421875" xlink:href="#BitstreamVeraSans-Roman-25"/>
      <use x="1731.26171875" xlink:href="#BitstreamVeraSans-Roman-29"/>
     </g>
    </g>
    <g id="patch_44">
     <path d="
M12.4 343.443
L38.4 343.443
L38.4 334.343
L12.4 334.343
z
" style="fill:#adb696;stroke:#000000;stroke-linejoin:miter;"/>
    </g>
    <g id="text_29">
     <!-- CDS/pseudogene       -  1    (0.01%) -->
     <defs>
      <path d="
M45.4062 46.3906
L45.4062 75.9844
L54.3906 75.9844
L54.3906 0
L45.4062 0
L45.4062 8.20312
Q42.5781 3.32812 38.25 0.953125
Q33.9375 -1.42188 27.875 -1.42188
Q17.9688 -1.42188 11.7344 6.48438
Q5.51562 14.4062 5.51562 27.2969
Q5.51562 40.1875 11.7344 48.0938
Q17.9688 56 27.875 56
Q33.9375 56 38.25 53.625
Q42.5781 51.2656 45.4062 46.3906
M14.7969 27.2969
Q14.7969 17.3906 18.875 11.75
Q22.9531 6.10938 30.0781 6.10938
Q37.2031 6.10938 41.2969 11.75
Q45.4062 17.3906 45.4062 27.2969
Q45.4062 37.2031 41.2969 42.8438
Q37.2031 48.4844 30.0781 48.4844
Q22.9531 48.4844 18.875 42.8438
Q14.7969 37.2031 14.7969 27.2969" id="BitstreamVeraSans-Roman-64"/>
     </defs>
     <g transform="translate(48.8 343.4428125)scale(0.13 -0.13)">
      <use xlink:href="#BitstreamVeraSans-Roman-43"/>
      <use x="69.82421875" xlink:href="#BitstreamVeraSans-Roman-44"/>
      <use x="146.826171875" xlink:href="#BitstreamVeraSans-Roman-53"/>
      <use x="210.302734375" xlink:href="#BitstreamVeraSans-Roman-2f"/>
      <use x="243.994140625" xlink:href="#BitstreamVeraSans-Roman-70"/>
      <use x="307.470703125" xlink:href="#BitstreamVeraSans-Roman-73"/>
      <use x="359.5703125" xlink:href="#BitstreamVeraSans-Roman-65"/>
      <use x="421.09375" xlink:href="#BitstreamVeraSans-Roman-75"/>
      <use x="484.47265625" xlink:href="#BitstreamVeraSans-Roman-64"/>
      <use x="547.94921875" xlink:href="#BitstreamVeraSans-Roman-6f"/>
      <use x="609.130859375" xlink:href="#BitstreamVeraSans-Roman-67"/>
      <use x="672.607421875" xlink:href="#BitstreamVeraSans-Roman-65"/>
      <use x="734.130859375" xlink:href="#BitstreamVeraSans-Roman-6e"/>
      <use x="797.509765625" xlink:href="#BitstreamVeraSans-Roman-65"/>
      <use x="859.033203125" xlink:href="#BitstreamVeraSans-Roman-20"/>
      <use x="890.8203125" xlink:href="#BitstreamVeraSans-Roman-20"/>
      <use x="922.607421875" xlink:href="#BitstreamVeraSans-Roman-20"/>
      <use x="954.39453125" xlink:href="#BitstreamVeraSans-Roman-20"/>
      <use x="986.181640625" xlink:href="#BitstreamVeraSans-Roman-20"/>
      <use x="1017.96875" xlink:href="#BitstreamVeraSans-Roman-20"/>
      <use x="1049.75585938" xlink:href="#BitstreamVeraSans-Roman-20"/>
      <use x="1081.54296875" xlink:href="#BitstreamVeraSans-Roman-2d"/>
      <use x="1117.62695312" xlink:href="#BitstreamVeraSans-Roman-20"/>
      <use x="1149.4140625" xlink:href="#BitstreamVeraSans-Roman-20"/>
      <use x="1181.20117188" xlink:href="#BitstreamVeraSans-Roman-31"/>
      <use x="1244.82421875" xlink:href="#BitstreamVeraSans-Roman-20"/>
      <use x="1276.61132812" xlink:href="#BitstreamVeraSans-Roman-20"/>
      <use x="1308.3984375" xlink:href="#BitstreamVeraSans-Roman-20"/>
      <use x="1340.18554688" xlink:href="#BitstreamVeraSans-Roman-20"/>
      <use x="1371.97265625" xlink:href="#BitstreamVeraSans-Roman-28"/>
      <use x="1410.98632812" xlink:href="#BitstreamVeraSans-Roman-30"/>
      <use x="1474.609375" xlink:href="#BitstreamVeraSans-Roman-2e"/>
      <use x="1506.39648438" xlink:href="#BitstreamVeraSans-Roman-30"/>
      <use x="1570.01953125" xlink:href="#BitstreamVeraSans-Roman-31"/>
      <use x="1633.64257812" xlink:href="#BitstreamVeraSans-Roman-25"/>
      <use x="1728.66210938" xlink:href="#BitstreamVeraSans-Roman-29"/>
     </g>
    </g>
   </g>
  </g>
  <g id="text_30">
   <!-- Location of variants -->
   <defs>
    <path d="
M2.98438 54.6875
L12.5 54.6875
L29.5938 8.79688
L46.6875 54.6875
L56.2031 54.6875
L35.6875 0
L23.4844 0
z
" id="BitstreamVeraSans-Roman-76"/>
    <path d="
M37.1094 75.9844
L37.1094 68.5
L28.5156 68.5
Q23.6875 68.5 21.7969 66.5469
Q19.9219 64.5938 19.9219 59.5156
L19.9219 54.6875
L34.7188 54.6875
L34.7188 47.7031
L19.9219 47.7031
L19.9219 0
L10.8906 0
L10.8906 47.7031
L2.29688 47.7031
L2.29688 54.6875
L10.8906 54.6875
L10.8906 58.5
Q10.8906 67.625 15.1406 71.7969
Q19.3906 75.9844 28.6094 75.9844
z
" id="BitstreamVeraSans-Roman-66"/>
   </defs>
   <g transform="translate(399.1640625 22.396875)scale(0.2 -0.2)">
    <use xlink:href="#BitstreamVeraSans-Roman-4c"/>
    <use x="53.962890625" xlink:href="#BitstreamVeraSans-Roman-6f"/>
    <use x="115.14453125" xlink:href="#BitstreamVeraSans-Roman-63"/>
    <use x="170.125" xlink:href="#BitstreamVeraSans-Roman-61"/>
    <use x="231.404296875" xlink:href="#BitstreamVeraSans-Roman-74"/>
    <use x="270.61328125" xlink:href="#BitstreamVeraSans-Roman-69"/>
    <use x="298.396484375" xlink:href="#BitstreamVeraSans-Roman-6f"/>
    <use x="359.578125" xlink:href="#BitstreamVeraSans-Roman-6e"/>
    <use x="422.95703125" xlink:href="#BitstreamVeraSans-Roman-20"/>
    <use x="454.744140625" xlink:href="#BitstreamVeraSans-Roman-6f"/>
    <use x="515.92578125" xlink:href="#BitstreamVeraSans-Roman-66"/>
    <use x="551.130859375" xlink:href="#BitstreamVeraSans-Roman-20"/>
    <use x="582.91796875" xlink:href="#BitstreamVeraSans-Roman-76"/>
    <use x="642.09765625" xlink:href="#BitstreamVeraSans-Roman-61"/>
    <use x="703.376953125" xlink:href="#BitstreamVeraSans-Roman-72"/>
    <use x="744.490234375" xlink:href="#BitstreamVeraSans-Roman-69"/>
    <use x="772.2734375" xlink:href="#BitstreamVeraSans-Roman-61"/>
    <use x="833.552734375" xlink:href="#BitstreamVeraSans-Roman-6e"/>
    <use x="896.931640625" xlink:href="#BitstreamVeraSans-Roman-74"/>
    <use x="936.140625" xlink:href="#BitstreamVeraSans-Roman-73"/>
   </g>
  </g>
 </g>
</svg>
