<?xml version="1.0" encoding="utf-8" standalone="no"?>
<!DOCTYPE svg PUBLIC "-//W3C//DTD SVG 1.1//EN"
  "http://www.w3.org/Graphics/SVG/1.1/DTD/svg11.dtd">
<svg xmlns:xlink="http://www.w3.org/1999/xlink" width="657.765057pt" height="107.55875pt" viewBox="0 0 657.765057 107.55875" xmlns="http://www.w3.org/2000/svg" version="1.1">
 <metadata>
  <rdf:RDF xmlns:dc="http://purl.org/dc/elements/1.1/" xmlns:cc="http://creativecommons.org/ns#" xmlns:rdf="http://www.w3.org/1999/02/22-rdf-syntax-ns#">
   <cc:Work>
    <dc:type rdf:resource="http://purl.org/dc/dcmitype/StillImage"/>
    <dc:date>2026-04-08T15:26:27.577818</dc:date>
    <dc:format>image/svg+xml</dc:format>
    <dc:creator>
     <cc:Agent>
      <dc:title>Matplotlib v3.10.8, https://matplotlib.org/</dc:title>
     </cc:Agent>
    </dc:creator>
   </cc:Work>
  </rdf:RDF>
 </metadata>
 <defs>
  <style type="text/css">*{stroke-linejoin: round; stroke-linecap: butt}</style>
 </defs>
 <g id="figure_1">
  <g id="patch_1">
   <path d="M 0 107.55875 
L 657.765057 107.55875 
L 657.765057 0 
L 0 0 
z
" style="fill: #ffffff"/>
  </g>
  <g id="axes_1">
   <g id="patch_2">
    <path d="M 92.565057 83.680625 
L 650.565057 83.680625 
L 650.565057 28.240625 
L 92.565057 28.240625 
z
" style="fill: #ffffff"/>
   </g>
   <g id="matplotlib.axis_1">
    <g id="xtick_1">
     <g id="line2d_1">
      <defs>
       <path id="m0fdbbb18d6" d="M 0 0 
L 0 3.5 
" style="stroke: #000000; stroke-width: 0.8"/>
      </defs>
      <g>
       <use xlink:href="#m0fdbbb18d6" x="93.1225" y="83.680625" style="stroke: #000000; stroke-width: 0.8"/>
      </g>
     </g>
     <g id="text_1">
      <!-- 0 Mbp -->
      <g transform="translate(77.689688 98.279063) scale(0.1 -0.1)">
       <defs>
        <path id="DejaVuSans-30" d="M 2034 4250 
Q 1547 4250 1301 3770 
Q 1056 3291 1056 2328 
Q 1056 1369 1301 889 
Q 1547 409 2034 409 
Q 2525 409 2770 889 
Q 3016 1369 3016 2328 
Q 3016 3291 2770 3770 
Q 2525 4250 2034 4250 
z
M 2034 4750 
Q 2819 4750 3233 4129 
Q 3647 3509 3647 2328 
Q 3647 1150 3233 529 
Q 2819 -91 2034 -91 
Q 1250 -91 836 529 
Q 422 1150 422 2328 
Q 422 3509 836 4129 
Q 1250 4750 2034 4750 
z
" transform="scale(0.015625)"/>
        <path id="DejaVuSans-20" transform="scale(0.015625)"/>
        <path id="DejaVuSans-4d" d="M 628 4666 
L 1569 4666 
L 2759 1491 
L 3956 4666 
L 4897 4666 
L 4897 0 
L 4281 0 
L 4281 4097 
L 3078 897 
L 2444 897 
L 1241 4097 
L 1241 0 
L 628 0 
L 628 4666 
z
" transform="scale(0.015625)"/>
        <path id="DejaVuSans-62" d="M 3116 1747 
Q 3116 2381 2855 2742 
Q 2594 3103 2138 3103 
Q 1681 3103 1420 2742 
Q 1159 2381 1159 1747 
Q 1159 1113 1420 752 
Q 1681 391 2138 391 
Q 2594 391 2855 752 
Q 3116 1113 3116 1747 
z
M 1159 2969 
Q 1341 3281 1617 3432 
Q 1894 3584 2278 3584 
Q 2916 3584 3314 3078 
Q 3713 2572 3713 1747 
Q 3713 922 3314 415 
Q 2916 -91 2278 -91 
Q 1894 -91 1617 61 
Q 1341 213 1159 525 
L 1159 0 
L 581 0 
L 581 4863 
L 1159 4863 
L 1159 2969 
z
" transform="scale(0.015625)"/>
        <path id="DejaVuSans-70" d="M 1159 525 
L 1159 -1331 
L 581 -1331 
L 581 3500 
L 1159 3500 
L 1159 2969 
Q 1341 3281 1617 3432 
Q 1894 3584 2278 3584 
Q 2916 3584 3314 3078 
Q 3713 2572 3713 1747 
Q 3713 922 3314 415 
Q 2916 -91 2278 -91 
Q 1894 -91 1617 61 
Q 1341 213 1159 525 
z
M 3116 1747 
Q 3116 2381 2855 2742 
Q 2594 3103 2138 3103 
Q 1681 3103 1420 2742 
Q 1159 2381 1159 1747 
Q 1159 1113 1420 752 
Q 1681 391 2138 391 
Q 2594 391 2855 752 
Q 3116 1113 3116 1747 
z
" transform="scale(0.015625)"/>
       </defs>
       <use xlink:href="#DejaVuSans-30"/>
       <use xlink:href="#DejaVuSans-20" transform="translate(63.623047 0)"/>
       <use xlink:href="#DejaVuSans-4d" transform="translate(95.410156 0)"/>
       <use xlink:href="#DejaVuSans-62" transform="translate(181.689453 0)"/>
       <use xlink:href="#DejaVuSans-70" transform="translate(245.166016 0)"/>
      </g>
     </g>
    </g>
    <g id="xtick_2">
     <g id="line2d_2">
      <g>
       <use xlink:href="#m0fdbbb18d6" x="214.502744" y="83.680625" style="stroke: #000000; stroke-width: 0.8"/>
      </g>
     </g>
     <g id="text_2">
      <!-- 50 Mbp -->
      <g transform="translate(195.888682 98.279063) scale(0.1 -0.1)">
       <defs>
        <path id="DejaVuSans-35" d="M 691 4666 
L 3169 4666 
L 3169 4134 
L 1269 4134 
L 1269 2991 
Q 1406 3038 1543 3061 
Q 1681 3084 1819 3084 
Q 2600 3084 3056 2656 
Q 3513 2228 3513 1497 
Q 3513 744 3044 326 
Q 2575 -91 1722 -91 
Q 1428 -91 1123 -41 
Q 819 9 494 109 
L 494 744 
Q 775 591 1075 516 
Q 1375 441 1709 441 
Q 2250 441 2565 725 
Q 2881 1009 2881 1497 
Q 2881 1984 2565 2268 
Q 2250 2553 1709 2553 
Q 1456 2553 1204 2497 
Q 953 2441 691 2322 
L 691 4666 
z
" transform="scale(0.015625)"/>
       </defs>
       <use xlink:href="#DejaVuSans-35"/>
       <use xlink:href="#DejaVuSans-30" transform="translate(63.623047 0)"/>
       <use xlink:href="#DejaVuSans-20" transform="translate(127.246094 0)"/>
       <use xlink:href="#DejaVuSans-4d" transform="translate(159.033203 0)"/>
       <use xlink:href="#DejaVuSans-62" transform="translate(245.3125 0)"/>
       <use xlink:href="#DejaVuSans-70" transform="translate(308.789062 0)"/>
      </g>
     </g>
    </g>
    <g id="xtick_3">
     <g id="line2d_3">
      <g>
       <use xlink:href="#m0fdbbb18d6" x="335.882989" y="83.680625" style="stroke: #000000; stroke-width: 0.8"/>
      </g>
     </g>
     <g id="text_3">
      <!-- 100 Mbp -->
      <g transform="translate(314.087676 98.279063) scale(0.1 -0.1)">
       <defs>
        <path id="DejaVuSans-31" d="M 794 531 
L 1825 531 
L 1825 4091 
L 703 3866 
L 703 4441 
L 1819 4666 
L 2450 4666 
L 2450 531 
L 3481 531 
L 3481 0 
L 794 0 
L 794 531 
z
" transform="scale(0.015625)"/>
       </defs>
       <use xlink:href="#DejaVuSans-31"/>
       <use xlink:href="#DejaVuSans-30" transform="translate(63.623047 0)"/>
       <use xlink:href="#DejaVuSans-30" transform="translate(127.246094 0)"/>
       <use xlink:href="#DejaVuSans-20" transform="translate(190.869141 0)"/>
       <use xlink:href="#DejaVuSans-4d" transform="translate(222.65625 0)"/>
       <use xlink:href="#DejaVuSans-62" transform="translate(308.935547 0)"/>
       <use xlink:href="#DejaVuSans-70" transform="translate(372.412109 0)"/>
      </g>
     </g>
    </g>
    <g id="xtick_4">
     <g id="line2d_4">
      <g>
       <use xlink:href="#m0fdbbb18d6" x="457.263233" y="83.680625" style="stroke: #000000; stroke-width: 0.8"/>
      </g>
     </g>
     <g id="text_4">
      <!-- 150 Mbp -->
      <g transform="translate(435.467921 98.279063) scale(0.1 -0.1)">
       <use xlink:href="#DejaVuSans-31"/>
       <use xlink:href="#DejaVuSans-35" transform="translate(63.623047 0)"/>
       <use xlink:href="#DejaVuSans-30" transform="translate(127.246094 0)"/>
       <use xlink:href="#DejaVuSans-20" transform="translate(190.869141 0)"/>
       <use xlink:href="#DejaVuSans-4d" transform="translate(222.65625 0)"/>
       <use xlink:href="#DejaVuSans-62" transform="translate(308.935547 0)"/>
       <use xlink:href="#DejaVuSans-70" transform="translate(372.412109 0)"/>
      </g>
     </g>
    </g>
    <g id="xtick_5">
     <g id="line2d_5">
      <g>
       <use xlink:href="#m0fdbbb18d6" x="578.643478" y="83.680625" style="stroke: #000000; stroke-width: 0.8"/>
      </g>
     </g>
     <g id="text_5">
      <!-- 200 Mbp -->
      <g transform="translate(556.848165 98.279063) scale(0.1 -0.1)">
       <defs>
        <path id="DejaVuSans-32" d="M 1228 531 
L 3431 531 
L 3431 0 
L 469 0 
L 469 531 
Q 828 903 1448 1529 
Q 2069 2156 2228 2338 
Q 2531 2678 2651 2914 
Q 2772 3150 2772 3378 
Q 2772 3750 2511 3984 
Q 2250 4219 1831 4219 
Q 1534 4219 1204 4116 
Q 875 4013 500 3803 
L 500 4441 
Q 881 4594 1212 4672 
Q 1544 4750 1819 4750 
Q 2544 4750 2975 4387 
Q 3406 4025 3406 3419 
Q 3406 3131 3298 2873 
Q 3191 2616 2906 2266 
Q 2828 2175 2409 1742 
Q 1991 1309 1228 531 
z
" transform="scale(0.015625)"/>
       </defs>
       <use xlink:href="#DejaVuSans-32"/>
       <use xlink:href="#DejaVuSans-30" transform="translate(63.623047 0)"/>
       <use xlink:href="#DejaVuSans-30" transform="translate(127.246094 0)"/>
       <use xlink:href="#DejaVuSans-20" transform="translate(190.869141 0)"/>
       <use xlink:href="#DejaVuSans-4d" transform="translate(222.65625 0)"/>
       <use xlink:href="#DejaVuSans-62" transform="translate(308.935547 0)"/>
       <use xlink:href="#DejaVuSans-70" transform="translate(372.412109 0)"/>
      </g>
     </g>
    </g>
   </g>
   <g id="patch_3">
    <path d="M 92.565057 83.680625 
L 92.565057 28.240625 
" style="fill: none"/>
   </g>
   <g id="patch_4">
    <path d="M 650.565057 83.680625 
L 650.565057 28.240625 
" style="fill: none"/>
   </g>
   <g id="patch_5">
    <path d="M 92.565057 83.680625 
L 650.565057 83.680625 
" style="fill: none; stroke: #000000; stroke-width: 0.8; stroke-linejoin: miter; stroke-linecap: square"/>
   </g>
   <g id="patch_6">
    <path d="M 92.565057 28.240625 
L 650.565057 28.240625 
" style="fill: none"/>
   </g>
   <g id="text_6">
    <!-- SUPER_2 -->
    <g transform="translate(7.2 75.197003) scale(0.16 -0.16)">
     <defs>
      <path id="DejaVuSans-53" d="M 3425 4513 
L 3425 3897 
Q 3066 4069 2747 4153 
Q 2428 4238 2131 4238 
Q 1616 4238 1336 4038 
Q 1056 3838 1056 3469 
Q 1056 3159 1242 3001 
Q 1428 2844 1947 2747 
L 2328 2669 
Q 3034 2534 3370 2195 
Q 3706 1856 3706 1288 
Q 3706 609 3251 259 
Q 2797 -91 1919 -91 
Q 1588 -91 1214 -16 
Q 841 59 441 206 
L 441 856 
Q 825 641 1194 531 
Q 1563 422 1919 422 
Q 2459 422 2753 634 
Q 3047 847 3047 1241 
Q 3047 1584 2836 1778 
Q 2625 1972 2144 2069 
L 1759 2144 
Q 1053 2284 737 2584 
Q 422 2884 422 3419 
Q 422 4038 858 4394 
Q 1294 4750 2059 4750 
Q 2388 4750 2728 4690 
Q 3069 4631 3425 4513 
z
" transform="scale(0.015625)"/>
      <path id="DejaVuSans-55" d="M 556 4666 
L 1191 4666 
L 1191 1831 
Q 1191 1081 1462 751 
Q 1734 422 2344 422 
Q 2950 422 3222 751 
Q 3494 1081 3494 1831 
L 3494 4666 
L 4128 4666 
L 4128 1753 
Q 4128 841 3676 375 
Q 3225 -91 2344 -91 
Q 1459 -91 1007 375 
Q 556 841 556 1753 
L 556 4666 
z
" transform="scale(0.015625)"/>
      <path id="DejaVuSans-50" d="M 1259 4147 
L 1259 2394 
L 2053 2394 
Q 2494 2394 2734 2622 
Q 2975 2850 2975 3272 
Q 2975 3691 2734 3919 
Q 2494 4147 2053 4147 
L 1259 4147 
z
M 628 4666 
L 2053 4666 
Q 2838 4666 3239 4311 
Q 3641 3956 3641 3272 
Q 3641 2581 3239 2228 
Q 2838 1875 2053 1875 
L 1259 1875 
L 1259 0 
L 628 0 
L 628 4666 
z
" transform="scale(0.015625)"/>
      <path id="DejaVuSans-45" d="M 628 4666 
L 3578 4666 
L 3578 4134 
L 1259 4134 
L 1259 2753 
L 3481 2753 
L 3481 2222 
L 1259 2222 
L 1259 531 
L 3634 531 
L 3634 0 
L 628 0 
L 628 4666 
z
" transform="scale(0.015625)"/>
      <path id="DejaVuSans-52" d="M 2841 2188 
Q 3044 2119 3236 1894 
Q 3428 1669 3622 1275 
L 4263 0 
L 3584 0 
L 2988 1197 
Q 2756 1666 2539 1819 
Q 2322 1972 1947 1972 
L 1259 1972 
L 1259 0 
L 628 0 
L 628 4666 
L 2053 4666 
Q 2853 4666 3247 4331 
Q 3641 3997 3641 3322 
Q 3641 2881 3436 2590 
Q 3231 2300 2841 2188 
z
M 1259 4147 
L 1259 2491 
L 2053 2491 
Q 2509 2491 2742 2702 
Q 2975 2913 2975 3322 
Q 2975 3731 2742 3939 
Q 2509 4147 2053 4147 
L 1259 4147 
z
" transform="scale(0.015625)"/>
      <path id="DejaVuSans-5f" d="M 3263 -1063 
L 3263 -1509 
L -63 -1509 
L -63 -1063 
L 3263 -1063 
z
" transform="scale(0.015625)"/>
     </defs>
     <use xlink:href="#DejaVuSans-53"/>
     <use xlink:href="#DejaVuSans-55" transform="translate(63.476562 0)"/>
     <use xlink:href="#DejaVuSans-50" transform="translate(136.669922 0)"/>
     <use xlink:href="#DejaVuSans-45" transform="translate(196.972656 0)"/>
     <use xlink:href="#DejaVuSans-52" transform="translate(260.15625 0)"/>
     <use xlink:href="#DejaVuSans-5f" transform="translate(329.638672 0)"/>
     <use xlink:href="#DejaVuSans-32" transform="translate(379.638672 0)"/>
    </g>
   </g>
   <g id="text_7">
    <!-- SUPER_1 -->
    <g transform="translate(7.2 48.840797) scale(0.16 -0.16)">
     <use xlink:href="#DejaVuSans-53"/>
     <use xlink:href="#DejaVuSans-55" transform="translate(63.476562 0)"/>
     <use xlink:href="#DejaVuSans-50" transform="translate(136.669922 0)"/>
     <use xlink:href="#DejaVuSans-45" transform="translate(196.972656 0)"/>
     <use xlink:href="#DejaVuSans-52" transform="translate(260.15625 0)"/>
     <use xlink:href="#DejaVuSans-5f" transform="translate(329.638672 0)"/>
     <use xlink:href="#DejaVuSans-31" transform="translate(379.638672 0)"/>
    </g>
   </g>
   <g id="text_8">
    <!-- Coverage -->
    <g transform="translate(318.433807 22.240625) scale(0.2 -0.2)">
     <defs>
      <path id="DejaVuSans-Bold-43" d="M 4288 256 
Q 3956 84 3597 -3 
Q 3238 -91 2847 -91 
Q 1681 -91 1000 561 
Q 319 1213 319 2328 
Q 319 3447 1000 4098 
Q 1681 4750 2847 4750 
Q 3238 4750 3597 4662 
Q 3956 4575 4288 4403 
L 4288 3438 
Q 3953 3666 3628 3772 
Q 3303 3878 2944 3878 
Q 2300 3878 1931 3465 
Q 1563 3053 1563 2328 
Q 1563 1606 1931 1193 
Q 2300 781 2944 781 
Q 3303 781 3628 887 
Q 3953 994 4288 1222 
L 4288 256 
z
" transform="scale(0.015625)"/>
      <path id="DejaVuSans-Bold-6f" d="M 2203 2784 
Q 1831 2784 1636 2517 
Q 1441 2250 1441 1747 
Q 1441 1244 1636 976 
Q 1831 709 2203 709 
Q 2569 709 2762 976 
Q 2956 1244 2956 1747 
Q 2956 2250 2762 2517 
Q 2569 2784 2203 2784 
z
M 2203 3584 
Q 3106 3584 3614 3096 
Q 4122 2609 4122 1747 
Q 4122 884 3614 396 
Q 3106 -91 2203 -91 
Q 1297 -91 786 396 
Q 275 884 275 1747 
Q 275 2609 786 3096 
Q 1297 3584 2203 3584 
z
" transform="scale(0.015625)"/>
      <path id="DejaVuSans-Bold-76" d="M 97 3500 
L 1216 3500 
L 2088 1081 
L 2956 3500 
L 4078 3500 
L 2700 0 
L 1472 0 
L 97 3500 
z
" transform="scale(0.015625)"/>
      <path id="DejaVuSans-Bold-65" d="M 4031 1759 
L 4031 1441 
L 1416 1441 
Q 1456 1047 1700 850 
Q 1944 653 2381 653 
Q 2734 653 3104 758 
Q 3475 863 3866 1075 
L 3866 213 
Q 3469 63 3072 -14 
Q 2675 -91 2278 -91 
Q 1328 -91 801 392 
Q 275 875 275 1747 
Q 275 2603 792 3093 
Q 1309 3584 2216 3584 
Q 3041 3584 3536 3087 
Q 4031 2591 4031 1759 
z
M 2881 2131 
Q 2881 2450 2695 2645 
Q 2509 2841 2209 2841 
Q 1884 2841 1681 2658 
Q 1478 2475 1428 2131 
L 2881 2131 
z
" transform="scale(0.015625)"/>
      <path id="DejaVuSans-Bold-72" d="M 3138 2547 
Q 2991 2616 2845 2648 
Q 2700 2681 2553 2681 
Q 2122 2681 1889 2404 
Q 1656 2128 1656 1613 
L 1656 0 
L 538 0 
L 538 3500 
L 1656 3500 
L 1656 2925 
Q 1872 3269 2151 3426 
Q 2431 3584 2822 3584 
Q 2878 3584 2943 3579 
Q 3009 3575 3134 3559 
L 3138 2547 
z
" transform="scale(0.015625)"/>
      <path id="DejaVuSans-Bold-61" d="M 2106 1575 
Q 1756 1575 1579 1456 
Q 1403 1338 1403 1106 
Q 1403 894 1545 773 
Q 1688 653 1941 653 
Q 2256 653 2472 879 
Q 2688 1106 2688 1447 
L 2688 1575 
L 2106 1575 
z
M 3816 1997 
L 3816 0 
L 2688 0 
L 2688 519 
Q 2463 200 2181 54 
Q 1900 -91 1497 -91 
Q 953 -91 614 226 
Q 275 544 275 1050 
Q 275 1666 698 1953 
Q 1122 2241 2028 2241 
L 2688 2241 
L 2688 2328 
Q 2688 2594 2478 2717 
Q 2269 2841 1825 2841 
Q 1466 2841 1156 2769 
Q 847 2697 581 2553 
L 581 3406 
Q 941 3494 1303 3539 
Q 1666 3584 2028 3584 
Q 2975 3584 3395 3211 
Q 3816 2838 3816 1997 
z
" transform="scale(0.015625)"/>
      <path id="DejaVuSans-Bold-67" d="M 2919 594 
Q 2688 288 2409 144 
Q 2131 0 1766 0 
Q 1125 0 706 504 
Q 288 1009 288 1791 
Q 288 2575 706 3076 
Q 1125 3578 1766 3578 
Q 2131 3578 2409 3434 
Q 2688 3291 2919 2981 
L 2919 3500 
L 4044 3500 
L 4044 353 
Q 4044 -491 3511 -936 
Q 2978 -1381 1966 -1381 
Q 1638 -1381 1331 -1331 
Q 1025 -1281 716 -1178 
L 716 -306 
Q 1009 -475 1290 -558 
Q 1572 -641 1856 -641 
Q 2406 -641 2662 -400 
Q 2919 -159 2919 353 
L 2919 594 
z
M 2181 2772 
Q 1834 2772 1640 2515 
Q 1447 2259 1447 1791 
Q 1447 1309 1634 1061 
Q 1822 813 2181 813 
Q 2531 813 2725 1069 
Q 2919 1325 2919 1791 
Q 2919 2259 2725 2515 
Q 2531 2772 2181 2772 
z
" transform="scale(0.015625)"/>
     </defs>
     <use xlink:href="#DejaVuSans-Bold-43"/>
     <use xlink:href="#DejaVuSans-Bold-6f" transform="translate(73.388672 0)"/>
     <use xlink:href="#DejaVuSans-Bold-76" transform="translate(142.089844 0)"/>
     <use xlink:href="#DejaVuSans-Bold-65" transform="translate(207.275391 0)"/>
     <use xlink:href="#DejaVuSans-Bold-72" transform="translate(275.097656 0)"/>
     <use xlink:href="#DejaVuSans-Bold-61" transform="translate(324.414062 0)"/>
     <use xlink:href="#DejaVuSans-Bold-67" transform="translate(391.894531 0)"/>
     <use xlink:href="#DejaVuSans-Bold-65" transform="translate(463.476562 0)"/>
    </g>
   </g>
   <g id="patch_7">
    <path d="M 100.800772 80.855933 
L 100.800772 80.855933 
L 100.678949 80.85506 
L 100.557156 80.852441 
L 100.435425 80.848077 
L 100.313786 80.841969 
L 100.192269 80.834119 
L 100.070906 80.824527 
L 99.949726 80.813198 
L 99.828761 80.800133 
L 99.70804 80.785337 
L 99.587594 80.768811 
L 99.467454 80.750562 
L 99.34765 80.730594 
L 99.228211 80.70891 
L 99.109168 80.685518 
L 98.990551 80.660423 
L 98.87239 80.633631 
L 98.754714 80.605148 
L 98.637553 80.574983 
L 98.520937 80.543142 
L 98.404894 80.509634 
L 98.289455 80.474468 
L 98.174648 80.437651 
L 98.060503 80.399193 
L 97.947047 80.359105 
L 97.834309 80.317395 
L 97.722318 80.274075 
L 97.611103 80.229155 
L 97.50069 80.182647 
L 97.391108 80.134562 
L 97.282384 80.084913 
L 97.174546 80.033712 
L 97.067621 79.980972 
L 96.961636 79.926707 
L 96.856617 79.870929 
L 96.752592 79.813653 
L 96.649585 79.754893 
L 96.547623 79.694664 
L 96.446732 79.632982 
L 96.346937 79.569861 
L 96.248264 79.505318 
L 96.150736 79.439369 
L 96.054379 79.372031 
L 95.959217 79.30332 
L 95.865274 79.233254 
L 95.772573 79.161851 
L 95.681138 79.089127 
L 95.590992 79.015103 
L 95.502158 78.939796 
L 95.414657 78.863225 
L 95.328512 78.78541 
L 95.243745 78.70637 
L 95.160377 78.626125 
L 95.078429 78.544695 
L 94.997921 78.462101 
L 94.918874 78.378364 
L 94.841308 78.293505 
L 94.765243 78.207544 
L 94.690696 78.120504 
L 94.617688 78.032407 
L 94.546236 77.943274 
L 94.476359 77.853128 
L 94.408074 77.761993 
L 94.341399 77.66989 
L 94.276349 77.576843 
L 94.212942 77.482876 
L 94.151193 77.388012 
L 94.091119 77.292274 
L 94.032733 77.195688 
L 93.976052 77.098277 
L 93.921088 77.000066 
L 93.867856 76.90108 
L 93.81637 76.801343 
L 93.766642 76.700881 
L 93.718685 76.599719 
L 93.672511 76.497883 
L 93.628131 76.395397 
L 93.585556 76.292288 
L 93.544799 76.188582 
L 93.505868 76.084305 
L 93.468773 75.979483 
L 93.433524 75.874143 
L 93.40013 75.768311 
L 93.368599 75.662013 
L 93.338938 75.555277 
L 93.311157 75.448129 
L 93.285261 75.340597 
L 93.261256 75.232707 
L 93.23915 75.124487 
L 93.218948 75.015963 
L 93.200654 74.907163 
L 93.184273 74.798115 
L 93.16981 74.688846 
L 93.157268 74.579384 
L 93.14665 74.469755 
L 93.137959 74.359988 
L 93.131197 74.250111 
L 93.126366 74.14015 
L 93.123466 74.030134 
L 93.1225 73.92009 
L 93.1225 73.92009 
L 93.1225 73.92009 
L 93.123466 73.810046 
L 93.126366 73.70003 
L 93.131197 73.590069 
L 93.137959 73.480192 
L 93.14665 73.370425 
L 93.157268 73.260796 
L 93.16981 73.151334 
L 93.184273 73.042065 
L 93.200654 72.933017 
L 93.218948 72.824217 
L 93.23915 72.715693 
L 93.261256 72.607473 
L 93.285261 72.499583 
L 93.311157 72.392051 
L 93.338938 72.284903 
L 93.368599 72.178167 
L 93.40013 72.071869 
L 93.433524 71.966037 
L 93.468773 71.860697 
L 93.505868 71.755875 
L 93.544799 71.651598 
L 93.585556 71.547892 
L 93.628131 71.444783 
L 93.672511 71.342297 
L 93.718685 71.240461 
L 93.766642 71.139299 
L 93.81637 71.038836 
L 93.867856 70.9391 
L 93.921088 70.840113 
L 93.976052 70.741903 
L 94.032733 70.644492 
L 94.091119 70.547906 
L 94.151193 70.452168 
L 94.212942 70.357304 
L 94.276349 70.263337 
L 94.341399 70.17029 
L 94.408074 70.078187 
L 94.476359 69.987052 
L 94.546236 69.896906 
L 94.617688 69.807773 
L 94.690696 69.719676 
L 94.765243 69.632636 
L 94.841308 69.546675 
L 94.918874 69.461816 
L 94.997921 69.378078 
L 95.078429 69.295485 
L 95.160377 69.214055 
L 95.243745 69.13381 
L 95.328512 69.05477 
L 95.414657 68.976955 
L 95.502158 68.900384 
L 95.590992 68.825077 
L 95.681138 68.751052 
L 95.772573 68.678329 
L 95.865274 68.606926 
L 95.959217 68.53686 
L 96.054379 68.468149 
L 96.150736 68.40081 
L 96.248264 68.334862 
L 96.346937 68.270319 
L 96.446732 68.207198 
L 96.547623 68.145516 
L 96.649585 68.085287 
L 96.752592 68.026527 
L 96.856617 67.969251 
L 96.961636 67.913473 
L 97.067621 67.859207 
L 97.174546 67.806467 
L 97.282384 67.755266 
L 97.391108 67.705617 
L 97.50069 67.657533 
L 97.611103 67.611025 
L 97.722318 67.566105 
L 97.834309 67.522785 
L 97.947047 67.481075 
L 98.060503 67.440987 
L 98.174648 67.402529 
L 98.289455 67.365712 
L 98.404894 67.330545 
L 98.520937 67.297037 
L 98.637553 67.265197 
L 98.754714 67.235032 
L 98.87239 67.206549 
L 98.990551 67.179757 
L 99.109168 67.154662 
L 99.228211 67.131269 
L 99.34765 67.109586 
L 99.467454 67.089618 
L 99.587594 67.071368 
L 99.70804 67.054843 
L 99.828761 67.040047 
L 99.949726 67.026982 
L 100.070906 67.015653 
L 100.192269 67.006061 
L 100.313786 66.998211 
L 100.435425 66.992102 
L 100.557156 66.987738 
L 100.678949 66.98512 
L 100.800772 66.984247 
L 100.800772 66.984247 
L 491.964847 66.984247 
L 491.964847 66.984247 
L 492.08667 66.98512 
L 492.208463 66.987738 
L 492.330194 66.992102 
L 492.451833 66.998211 
L 492.57335 67.006061 
L 492.694713 67.015653 
L 492.815893 67.026982 
L 492.936858 67.040047 
L 493.057579 67.054843 
L 493.178025 67.071368 
L 493.298165 67.089618 
L 493.417969 67.109586 
L 493.537408 67.131269 
L 493.656451 67.154662 
L 493.775068 67.179757 
L 493.893229 67.206549 
L 494.010905 67.235032 
L 494.128066 67.265197 
L 494.244682 67.297037 
L 494.360725 67.330545 
L 494.476164 67.365712 
L 494.590971 67.402529 
L 494.705116 67.440987 
L 494.818572 67.481075 
L 494.93131 67.522785 
L 495.043301 67.566105 
L 495.154516 67.611025 
L 495.264929 67.657533 
L 495.374511 67.705617 
L 495.483235 67.755266 
L 495.591073 67.806467 
L 495.697998 67.859207 
L 495.803983 67.913473 
L 495.909002 67.969251 
L 496.013028 68.026527 
L 496.116034 68.085287 
L 496.217996 68.145516 
L 496.318887 68.207198 
L 496.418682 68.270319 
L 496.517355 68.334862 
L 496.614883 68.40081 
L 496.71124 68.468149 
L 496.806402 68.53686 
L 496.900345 68.606926 
L 496.993046 68.678329 
L 497.084481 68.751052 
L 497.174627 68.825077 
L 497.263461 68.900384 
L 497.350962 68.976955 
L 497.437107 69.05477 
L 497.521874 69.13381 
L 497.605242 69.214055 
L 497.68719 69.295485 
L 497.767698 69.378078 
L 497.846745 69.461816 
L 497.924311 69.546675 
L 498.000376 69.632636 
L 498.074923 69.719676 
L 498.147931 69.807773 
L 498.219383 69.896906 
L 498.28926 69.987052 
L 498.357545 70.078187 
L 498.42422 70.17029 
L 498.48927 70.263337 
L 498.552677 70.357304 
L 498.614426 70.452168 
L 498.6745 70.547906 
L 498.732886 70.644492 
L 498.789567 70.741903 
L 498.844531 70.840113 
L 498.897763 70.9391 
L 498.949249 71.038836 
L 498.998977 71.139299 
L 499.046934 71.240461 
L 499.093109 71.342297 
L 499.137488 71.444783 
L 499.180063 71.547892 
L 499.22082 71.651598 
L 499.259751 71.755875 
L 499.296846 71.860697 
L 499.332095 71.966037 
L 499.365489 72.071869 
L 499.39702 72.178167 
L 499.426681 72.284903 
L 499.454462 72.392051 
L 499.480358 72.499583 
L 499.504363 72.607473 
L 499.526469 72.715693 
L 499.546671 72.824217 
L 499.564965 72.933017 
L 499.581346 73.042065 
L 499.595809 73.151334 
L 499.608351 73.260796 
L 499.618969 73.370425 
L 499.62766 73.480192 
L 499.634422 73.590069 
L 499.639253 73.70003 
L 499.642153 73.810046 
L 499.643119 73.92009 
L 499.643119 73.92009 
L 499.643119 73.92009 
L 499.642153 74.030134 
L 499.639253 74.14015 
L 499.634422 74.250111 
L 499.62766 74.359988 
L 499.618969 74.469755 
L 499.608351 74.579384 
L 499.595809 74.688846 
L 499.581346 74.798115 
L 499.564965 74.907163 
L 499.546671 75.015963 
L 499.526469 75.124487 
L 499.504363 75.232707 
L 499.480358 75.340597 
L 499.454462 75.448129 
L 499.426681 75.555277 
L 499.39702 75.662013 
L 499.365489 75.768311 
L 499.332095 75.874143 
L 499.296846 75.979483 
L 499.259751 76.084305 
L 499.22082 76.188582 
L 499.180063 76.292288 
L 499.137488 76.395397 
L 499.093109 76.497883 
L 499.046934 76.599719 
L 498.998977 76.700881 
L 498.949249 76.801343 
L 498.897763 76.90108 
L 498.844531 77.000066 
L 498.789567 77.098277 
L 498.732886 77.195688 
L 498.6745 77.292274 
L 498.614426 77.388012 
L 498.552677 77.482876 
L 498.48927 77.576843 
L 498.42422 77.66989 
L 498.357545 77.761993 
L 498.28926 77.853128 
L 498.219383 77.943274 
L 498.147931 78.032407 
L 498.074923 78.120504 
L 498.000376 78.207544 
L 497.924311 78.293505 
L 497.846745 78.378364 
L 497.767698 78.462101 
L 497.68719 78.544695 
L 497.605242 78.626125 
L 497.521874 78.70637 
L 497.437107 78.78541 
L 497.350962 78.863225 
L 497.263461 78.939796 
L 497.174627 79.015103 
L 497.084481 79.089127 
L 496.993046 79.161851 
L 496.900345 79.233254 
L 496.806402 79.30332 
L 496.71124 79.372031 
L 496.614883 79.439369 
L 496.517355 79.505318 
L 496.418682 79.569861 
L 496.318887 79.632982 
L 496.217996 79.694664 
L 496.116034 79.754893 
L 496.013028 79.813653 
L 495.909002 79.870929 
L 495.803983 79.926707 
L 495.697998 79.980972 
L 495.591073 80.033712 
L 495.483235 80.084913 
L 495.374511 80.134562 
L 495.264929 80.182647 
L 495.154516 80.229155 
L 495.043301 80.274075 
L 494.93131 80.317395 
L 494.818572 80.359105 
L 494.705116 80.399193 
L 494.590971 80.437651 
L 494.476164 80.474468 
L 494.360725 80.509634 
L 494.244682 80.543142 
L 494.128066 80.574983 
L 494.010905 80.605148 
L 493.893229 80.633631 
L 493.775068 80.660423 
L 493.656451 80.685518 
L 493.537408 80.70891 
L 493.417969 80.730594 
L 493.298165 80.750562 
L 493.178025 80.768811 
L 493.057579 80.785337 
L 492.936858 80.800133 
L 492.815893 80.813198 
L 492.694713 80.824527 
L 492.57335 80.834119 
L 492.451833 80.841969 
L 492.330194 80.848077 
L 492.208463 80.852441 
L 492.08667 80.85506 
L 491.964847 80.855933 
L 491.964847 80.855933 
z
" clip-path="url(#p66526c876b)" style="fill: #ffffff; stroke: #ffffff; stroke-linejoin: miter"/>
   </g>
   <g id="patch_8">
    <path d="M 100.800772 54.499728 
L 100.800772 54.499728 
L 100.678949 54.498855 
L 100.557156 54.496236 
L 100.435425 54.491872 
L 100.313786 54.485764 
L 100.192269 54.477914 
L 100.070906 54.468322 
L 99.949726 54.456993 
L 99.828761 54.443928 
L 99.70804 54.429131 
L 99.587594 54.412606 
L 99.467454 54.394357 
L 99.34765 54.374389 
L 99.228211 54.352705 
L 99.109168 54.329313 
L 98.990551 54.304218 
L 98.87239 54.277426 
L 98.754714 54.248943 
L 98.637553 54.218778 
L 98.520937 54.186937 
L 98.404894 54.153429 
L 98.289455 54.118263 
L 98.174648 54.081446 
L 98.060503 54.042988 
L 97.947047 54.002899 
L 97.834309 53.96119 
L 97.722318 53.91787 
L 97.611103 53.87295 
L 97.50069 53.826442 
L 97.391108 53.778357 
L 97.282384 53.728708 
L 97.174546 53.677507 
L 97.067621 53.624767 
L 96.961636 53.570501 
L 96.856617 53.514723 
L 96.752592 53.457447 
L 96.649585 53.398688 
L 96.547623 53.338459 
L 96.446732 53.276777 
L 96.346937 53.213656 
L 96.248264 53.149113 
L 96.150736 53.083164 
L 96.054379 53.015826 
L 95.959217 52.947115 
L 95.865274 52.877049 
L 95.772573 52.805646 
L 95.681138 52.732922 
L 95.590992 52.658898 
L 95.502158 52.583591 
L 95.414657 52.50702 
L 95.328512 52.429205 
L 95.243745 52.350165 
L 95.160377 52.26992 
L 95.078429 52.18849 
L 94.997921 52.105896 
L 94.918874 52.022159 
L 94.841308 51.937299 
L 94.765243 51.851339 
L 94.690696 51.764299 
L 94.617688 51.676201 
L 94.546236 51.587069 
L 94.476359 51.496923 
L 94.408074 51.405788 
L 94.341399 51.313685 
L 94.276349 51.220638 
L 94.212942 51.126671 
L 94.151193 51.031807 
L 94.091119 50.936069 
L 94.032733 50.839483 
L 93.976052 50.742072 
L 93.921088 50.643861 
L 93.867856 50.544875 
L 93.81637 50.445138 
L 93.766642 50.344676 
L 93.718685 50.243514 
L 93.672511 50.141677 
L 93.628131 50.039192 
L 93.585556 49.936083 
L 93.544799 49.832377 
L 93.505868 49.7281 
L 93.468773 49.623278 
L 93.433524 49.517938 
L 93.40013 49.412106 
L 93.368599 49.305808 
L 93.338938 49.199072 
L 93.311157 49.091924 
L 93.285261 48.984392 
L 93.261256 48.876502 
L 93.23915 48.768281 
L 93.218948 48.659758 
L 93.200654 48.550958 
L 93.184273 48.44191 
L 93.16981 48.332641 
L 93.157268 48.223179 
L 93.14665 48.11355 
L 93.137959 48.003783 
L 93.131197 47.893906 
L 93.126366 47.783945 
L 93.123466 47.673929 
L 93.1225 47.563885 
L 93.1225 47.563885 
L 93.1225 47.563885 
L 93.123466 47.453841 
L 93.126366 47.343825 
L 93.131197 47.233864 
L 93.137959 47.123986 
L 93.14665 47.01422 
L 93.157268 46.904591 
L 93.16981 46.795128 
L 93.184273 46.685859 
L 93.200654 46.576811 
L 93.218948 46.468012 
L 93.23915 46.359488 
L 93.261256 46.251268 
L 93.285261 46.143378 
L 93.311157 46.035845 
L 93.338938 45.928698 
L 93.368599 45.821962 
L 93.40013 45.715664 
L 93.433524 45.609832 
L 93.468773 45.504492 
L 93.505868 45.39967 
L 93.544799 45.295393 
L 93.585556 45.191687 
L 93.628131 45.088578 
L 93.672511 44.986092 
L 93.718685 44.884256 
L 93.766642 44.783093 
L 93.81637 44.682631 
L 93.867856 44.582895 
L 93.921088 44.483908 
L 93.976052 44.385697 
L 94.032733 44.288287 
L 94.091119 44.1917 
L 94.151193 44.095963 
L 94.212942 44.001099 
L 94.276349 43.907132 
L 94.341399 43.814085 
L 94.408074 43.721982 
L 94.476359 43.630846 
L 94.546236 43.540701 
L 94.617688 43.451568 
L 94.690696 43.363471 
L 94.765243 43.276431 
L 94.841308 43.19047 
L 94.918874 43.105611 
L 94.997921 43.021873 
L 95.078429 42.939279 
L 95.160377 42.85785 
L 95.243745 42.777605 
L 95.328512 42.698565 
L 95.414657 42.62075 
L 95.502158 42.544179 
L 95.590992 42.468872 
L 95.681138 42.394847 
L 95.772573 42.322124 
L 95.865274 42.250721 
L 95.959217 42.180654 
L 96.054379 42.111944 
L 96.150736 42.044605 
L 96.248264 41.978656 
L 96.346937 41.914114 
L 96.446732 41.850993 
L 96.547623 41.789311 
L 96.649585 41.729082 
L 96.752592 41.670322 
L 96.856617 41.613046 
L 96.961636 41.557268 
L 97.067621 41.503002 
L 97.174546 41.450262 
L 97.282384 41.399061 
L 97.391108 41.349412 
L 97.50069 41.301328 
L 97.611103 41.25482 
L 97.722318 41.2099 
L 97.834309 41.16658 
L 97.947047 41.12487 
L 98.060503 41.084782 
L 98.174648 41.046324 
L 98.289455 41.009507 
L 98.404894 40.97434 
L 98.520937 40.940832 
L 98.637553 40.908992 
L 98.754714 40.878827 
L 98.87239 40.850344 
L 98.990551 40.823552 
L 99.109168 40.798457 
L 99.228211 40.775064 
L 99.34765 40.753381 
L 99.467454 40.733412 
L 99.587594 40.715163 
L 99.70804 40.698638 
L 99.828761 40.683842 
L 99.949726 40.670777 
L 100.070906 40.659447 
L 100.192269 40.649856 
L 100.313786 40.642005 
L 100.435425 40.635897 
L 100.557156 40.631533 
L 100.678949 40.628914 
L 100.800772 40.628041 
L 100.800772 40.628041 
L 616.341902 40.628041 
L 616.341902 40.628041 
L 616.463725 40.628914 
L 616.585517 40.631533 
L 616.707249 40.635897 
L 616.828888 40.642005 
L 616.950404 40.649856 
L 617.071768 40.659447 
L 617.192947 40.670777 
L 617.313913 40.683842 
L 617.434634 40.698638 
L 617.555079 40.715163 
L 617.67522 40.733412 
L 617.795024 40.753381 
L 617.914463 40.775064 
L 618.033506 40.798457 
L 618.152123 40.823552 
L 618.270284 40.850344 
L 618.38796 40.878827 
L 618.505121 40.908992 
L 618.621737 40.940832 
L 618.737779 40.97434 
L 618.853218 41.009507 
L 618.968025 41.046324 
L 619.082171 41.084782 
L 619.195627 41.12487 
L 619.308365 41.16658 
L 619.420355 41.2099 
L 619.531571 41.25482 
L 619.641984 41.301328 
L 619.751566 41.349412 
L 619.86029 41.399061 
L 619.968127 41.450262 
L 620.075052 41.503002 
L 620.181038 41.557268 
L 620.286056 41.613046 
L 620.390082 41.670322 
L 620.493089 41.729082 
L 620.595051 41.789311 
L 620.695942 41.850993 
L 620.795736 41.914114 
L 620.89441 41.978656 
L 620.991938 42.044605 
L 621.088295 42.111944 
L 621.183457 42.180654 
L 621.2774 42.250721 
L 621.370101 42.322124 
L 621.461535 42.394847 
L 621.551682 42.468872 
L 621.640516 42.544179 
L 621.728017 42.62075 
L 621.814161 42.698565 
L 621.898929 42.777605 
L 621.982297 42.85785 
L 622.064245 42.939279 
L 622.144753 43.021873 
L 622.223799 43.105611 
L 622.301365 43.19047 
L 622.377431 43.276431 
L 622.451978 43.363471 
L 622.524986 43.451568 
L 622.596437 43.540701 
L 622.666315 43.630846 
L 622.7346 43.721982 
L 622.801275 43.814085 
L 622.866325 43.907132 
L 622.929732 44.001099 
L 622.99148 44.095963 
L 623.051555 44.1917 
L 623.10994 44.288287 
L 623.166622 44.385697 
L 623.221586 44.483908 
L 623.274817 44.582895 
L 623.326304 44.682631 
L 623.376032 44.783093 
L 623.423989 44.884256 
L 623.470163 44.986092 
L 623.514543 45.088578 
L 623.557117 45.191687 
L 623.597875 45.295393 
L 623.636806 45.39967 
L 623.673901 45.504492 
L 623.70915 45.609832 
L 623.742544 45.715664 
L 623.774075 45.821962 
L 623.803735 45.928698 
L 623.831517 46.035845 
L 623.857413 46.143378 
L 623.881417 46.251268 
L 623.903524 46.359488 
L 623.923726 46.468012 
L 623.94202 46.576811 
L 623.958401 46.685859 
L 623.972864 46.795128 
L 623.985406 46.904591 
L 623.996024 47.01422 
L 624.004715 47.123986 
L 624.011477 47.233864 
L 624.016308 47.343825 
L 624.019207 47.453841 
L 624.020174 47.563885 
L 624.020174 47.563885 
L 624.020174 47.563885 
L 624.019207 47.673929 
L 624.016308 47.783945 
L 624.011477 47.893906 
L 624.004715 48.003783 
L 623.996024 48.11355 
L 623.985406 48.223179 
L 623.972864 48.332641 
L 623.958401 48.44191 
L 623.94202 48.550958 
L 623.923726 48.659758 
L 623.903524 48.768281 
L 623.881417 48.876502 
L 623.857413 48.984392 
L 623.831517 49.091924 
L 623.803735 49.199072 
L 623.774075 49.305808 
L 623.742544 49.412106 
L 623.70915 49.517938 
L 623.673901 49.623278 
L 623.636806 49.7281 
L 623.597875 49.832377 
L 623.557117 49.936083 
L 623.514543 50.039192 
L 623.470163 50.141677 
L 623.423989 50.243514 
L 623.376032 50.344676 
L 623.326304 50.445138 
L 623.274817 50.544875 
L 623.221586 50.643861 
L 623.166622 50.742072 
L 623.10994 50.839483 
L 623.051555 50.936069 
L 622.99148 51.031807 
L 622.929732 51.126671 
L 622.866325 51.220638 
L 622.801275 51.313685 
L 622.7346 51.405788 
L 622.666315 51.496923 
L 622.596437 51.587069 
L 622.524986 51.676201 
L 622.451978 51.764299 
L 622.377431 51.851339 
L 622.301365 51.937299 
L 622.223799 52.022159 
L 622.144753 52.105896 
L 622.064245 52.18849 
L 621.982297 52.26992 
L 621.898929 52.350165 
L 621.814161 52.429205 
L 621.728017 52.50702 
L 621.640516 52.583591 
L 621.551682 52.658898 
L 621.461535 52.732922 
L 621.370101 52.805646 
L 621.2774 52.877049 
L 621.183457 52.947115 
L 621.088295 53.015826 
L 620.991938 53.083164 
L 620.89441 53.149113 
L 620.795736 53.213656 
L 620.695942 53.276777 
L 620.595051 53.338459 
L 620.493089 53.398688 
L 620.390082 53.457447 
L 620.286056 53.514723 
L 620.181038 53.570501 
L 620.075052 53.624767 
L 619.968127 53.677507 
L 619.86029 53.728708 
L 619.751566 53.778357 
L 619.641984 53.826442 
L 619.531571 53.87295 
L 619.420355 53.91787 
L 619.308365 53.96119 
L 619.195627 54.002899 
L 619.082171 54.042988 
L 618.968025 54.081446 
L 618.853218 54.118263 
L 618.737779 54.153429 
L 618.621737 54.186937 
L 618.505121 54.218778 
L 618.38796 54.248943 
L 618.270284 54.277426 
L 618.152123 54.304218 
L 618.033506 54.329313 
L 617.914463 54.352705 
L 617.795024 54.374389 
L 617.67522 54.394357 
L 617.555079 54.412606 
L 617.434634 54.429131 
L 617.313913 54.443928 
L 617.192947 54.456993 
L 617.071768 54.468322 
L 616.950404 54.477914 
L 616.828888 54.485764 
L 616.707249 54.491872 
L 616.585517 54.496236 
L 616.463725 54.498855 
L 616.341902 54.499728 
L 616.341902 54.499728 
z
" clip-path="url(#p66526c876b)" style="fill: #ffffff; stroke: #ffffff; stroke-linejoin: miter"/>
   </g>
   <g id="PatchCollection_1">
    <defs>
     <path id="m7a0c151432" d="M 313.33054 -26.702817 
L 343.044423 -26.702817 
L 343.044423 -40.574503 
L 313.33054 -40.574503 
z
" style="stroke: #000000; stroke-opacity: 0; stroke-width: 0"/>
    </defs>
    <g clip-path="url(#p66526c876b)">
     <use xlink:href="#m7a0c151432" x="0" y="107.55875" style="fill: #ff0000; stroke: #000000; stroke-opacity: 0; stroke-width: 0"/>
    </g>
   </g>
   <g id="PatchCollection_2">
    <path d="M 93.1225 54.499728 
L 94.093542 54.499728 
L 94.093542 40.628041 
L 93.1225 40.628041 
z
" clip-path="url(#p66526c876b)" style="fill: #ff0000"/>
    <path d="M 94.724719 54.499728 
L 95.33162 54.499728 
L 95.33162 40.628041 
L 94.724719 40.628041 
z
" clip-path="url(#p66526c876b)" style="fill: #ff0000"/>
    <path d="M 95.841417 54.499728 
L 98.123366 54.499728 
L 98.123366 40.628041 
L 95.841417 40.628041 
z
" clip-path="url(#p66526c876b)" style="fill: #ff0000"/>
    <path d="M 100.769455 54.499728 
L 101.012216 54.499728 
L 101.012216 40.628041 
L 100.769455 40.628041 
z
" clip-path="url(#p66526c876b)" style="fill: #ff0000"/>
    <path d="M 101.643393 54.499728 
L 106.619983 54.499728 
L 106.619983 40.628041 
L 101.643393 40.628041 
z
" clip-path="url(#p66526c876b)" style="fill: #ff0000"/>
    <path d="M 107.445369 54.499728 
L 108.197926 54.499728 
L 108.197926 40.628041 
L 107.445369 40.628041 
z
" clip-path="url(#p66526c876b)" style="fill: #ff0000"/>
    <path d="M 109.120416 54.499728 
L 110.164286 54.499728 
L 110.164286 40.628041 
L 109.120416 40.628041 
z
" clip-path="url(#p66526c876b)" style="fill: #ff0000"/>
    <path d="M 111.086776 54.499728 
L 114.606803 54.499728 
L 114.606803 40.628041 
L 111.086776 40.628041 
z
" clip-path="url(#p66526c876b)" style="fill: #ff0000"/>
    <path d="M 115.480741 54.499728 
L 115.966262 54.499728 
L 115.966262 40.628041 
L 115.480741 40.628041 
z
" clip-path="url(#p66526c876b)" style="fill: #ff0000"/>
    <path d="M 116.694543 54.499728 
L 124.559983 54.499728 
L 124.559983 40.628041 
L 116.694543 40.628041 
z
" clip-path="url(#p66526c876b)" style="fill: #ff0000"/>
   </g>
   <g id="patch_9">
    <path d="M 100.800772 80.855933 
L 100.800772 80.855933 
L 100.678949 80.85506 
L 100.557156 80.852441 
L 100.435425 80.848077 
L 100.313786 80.841969 
L 100.192269 80.834119 
L 100.070906 80.824527 
L 99.949726 80.813198 
L 99.828761 80.800133 
L 99.70804 80.785337 
L 99.587594 80.768811 
L 99.467454 80.750562 
L 99.34765 80.730594 
L 99.228211 80.70891 
L 99.109168 80.685518 
L 98.990551 80.660423 
L 98.87239 80.633631 
L 98.754714 80.605148 
L 98.637553 80.574983 
L 98.520937 80.543142 
L 98.404894 80.509634 
L 98.289455 80.474468 
L 98.174648 80.437651 
L 98.060503 80.399193 
L 97.947047 80.359105 
L 97.834309 80.317395 
L 97.722318 80.274075 
L 97.611103 80.229155 
L 97.50069 80.182647 
L 97.391108 80.134562 
L 97.282384 80.084913 
L 97.174546 80.033712 
L 97.067621 79.980972 
L 96.961636 79.926707 
L 96.856617 79.870929 
L 96.752592 79.813653 
L 96.649585 79.754893 
L 96.547623 79.694664 
L 96.446732 79.632982 
L 96.346937 79.569861 
L 96.248264 79.505318 
L 96.150736 79.439369 
L 96.054379 79.372031 
L 95.959217 79.30332 
L 95.865274 79.233254 
L 95.772573 79.161851 
L 95.681138 79.089127 
L 95.590992 79.015103 
L 95.502158 78.939796 
L 95.414657 78.863225 
L 95.328512 78.78541 
L 95.243745 78.70637 
L 95.160377 78.626125 
L 95.078429 78.544695 
L 94.997921 78.462101 
L 94.918874 78.378364 
L 94.841308 78.293505 
L 94.765243 78.207544 
L 94.690696 78.120504 
L 94.617688 78.032407 
L 94.546236 77.943274 
L 94.476359 77.853128 
L 94.408074 77.761993 
L 94.341399 77.66989 
L 94.276349 77.576843 
L 94.212942 77.482876 
L 94.151193 77.388012 
L 94.091119 77.292274 
L 94.032733 77.195688 
L 93.976052 77.098277 
L 93.921088 77.000066 
L 93.867856 76.90108 
L 93.81637 76.801343 
L 93.766642 76.700881 
L 93.718685 76.599719 
L 93.672511 76.497883 
L 93.628131 76.395397 
L 93.585556 76.292288 
L 93.544799 76.188582 
L 93.505868 76.084305 
L 93.468773 75.979483 
L 93.433524 75.874143 
L 93.40013 75.768311 
L 93.368599 75.662013 
L 93.338938 75.555277 
L 93.311157 75.448129 
L 93.285261 75.340597 
L 93.261256 75.232707 
L 93.23915 75.124487 
L 93.218948 75.015963 
L 93.200654 74.907163 
L 93.184273 74.798115 
L 93.16981 74.688846 
L 93.157268 74.579384 
L 93.14665 74.469755 
L 93.137959 74.359988 
L 93.131197 74.250111 
L 93.126366 74.14015 
L 93.123466 74.030134 
L 93.1225 73.92009 
L 93.1225 73.92009 
L 93.1225 73.92009 
L 93.123466 73.810046 
L 93.126366 73.70003 
L 93.131197 73.590069 
L 93.137959 73.480192 
L 93.14665 73.370425 
L 93.157268 73.260796 
L 93.16981 73.151334 
L 93.184273 73.042065 
L 93.200654 72.933017 
L 93.218948 72.824217 
L 93.23915 72.715693 
L 93.261256 72.607473 
L 93.285261 72.499583 
L 93.311157 72.392051 
L 93.338938 72.284903 
L 93.368599 72.178167 
L 93.40013 72.071869 
L 93.433524 71.966037 
L 93.468773 71.860697 
L 93.505868 71.755875 
L 93.544799 71.651598 
L 93.585556 71.547892 
L 93.628131 71.444783 
L 93.672511 71.342297 
L 93.718685 71.240461 
L 93.766642 71.139299 
L 93.81637 71.038836 
L 93.867856 70.9391 
L 93.921088 70.840113 
L 93.976052 70.741903 
L 94.032733 70.644492 
L 94.091119 70.547906 
L 94.151193 70.452168 
L 94.212942 70.357304 
L 94.276349 70.263337 
L 94.341399 70.17029 
L 94.408074 70.078187 
L 94.476359 69.987052 
L 94.546236 69.896906 
L 94.617688 69.807773 
L 94.690696 69.719676 
L 94.765243 69.632636 
L 94.841308 69.546675 
L 94.918874 69.461816 
L 94.997921 69.378078 
L 95.078429 69.295485 
L 95.160377 69.214055 
L 95.243745 69.13381 
L 95.328512 69.05477 
L 95.414657 68.976955 
L 95.502158 68.900384 
L 95.590992 68.825077 
L 95.681138 68.751052 
L 95.772573 68.678329 
L 95.865274 68.606926 
L 95.959217 68.53686 
L 96.054379 68.468149 
L 96.150736 68.40081 
L 96.248264 68.334862 
L 96.346937 68.270319 
L 96.446732 68.207198 
L 96.547623 68.145516 
L 96.649585 68.085287 
L 96.752592 68.026527 
L 96.856617 67.969251 
L 96.961636 67.913473 
L 97.067621 67.859207 
L 97.174546 67.806467 
L 97.282384 67.755266 
L 97.391108 67.705617 
L 97.50069 67.657533 
L 97.611103 67.611025 
L 97.722318 67.566105 
L 97.834309 67.522785 
L 97.947047 67.481075 
L 98.060503 67.440987 
L 98.174648 67.402529 
L 98.289455 67.365712 
L 98.404894 67.330545 
L 98.520937 67.297037 
L 98.637553 67.265197 
L 98.754714 67.235032 
L 98.87239 67.206549 
L 98.990551 67.179757 
L 99.109168 67.154662 
L 99.228211 67.131269 
L 99.34765 67.109586 
L 99.467454 67.089618 
L 99.587594 67.071368 
L 99.70804 67.054843 
L 99.828761 67.040047 
L 99.949726 67.026982 
L 100.070906 67.015653 
L 100.192269 67.006061 
L 100.313786 66.998211 
L 100.435425 66.992102 
L 100.557156 66.987738 
L 100.678949 66.98512 
L 100.800772 66.984247 
L 100.800772 66.984247 
L 93.1225 66.984247 
L 93.1225 80.855933 
z
" clip-path="url(#p66526c876b)" style="fill: #ffffff; stroke: #ffffff; stroke-linejoin: miter"/>
   </g>
   <g id="patch_10">
    <path d="M 491.964847 66.984247 
L 491.964847 66.984247 
L 492.08667 66.98512 
L 492.208463 66.987738 
L 492.330194 66.992102 
L 492.451833 66.998211 
L 492.57335 67.006061 
L 492.694713 67.015653 
L 492.815893 67.026982 
L 492.936858 67.040047 
L 493.057579 67.054843 
L 493.178025 67.071368 
L 493.298165 67.089618 
L 493.417969 67.109586 
L 493.537408 67.131269 
L 493.656451 67.154662 
L 493.775068 67.179757 
L 493.893229 67.206549 
L 494.010905 67.235032 
L 494.128066 67.265197 
L 494.244682 67.297037 
L 494.360725 67.330545 
L 494.476164 67.365712 
L 494.590971 67.402529 
L 494.705116 67.440987 
L 494.818572 67.481075 
L 494.93131 67.522785 
L 495.043301 67.566105 
L 495.154516 67.611025 
L 495.264929 67.657533 
L 495.374511 67.705617 
L 495.483235 67.755266 
L 495.591073 67.806467 
L 495.697998 67.859207 
L 495.803983 67.913473 
L 495.909002 67.969251 
L 496.013028 68.026527 
L 496.116034 68.085287 
L 496.217996 68.145516 
L 496.318887 68.207198 
L 496.418682 68.270319 
L 496.517355 68.334862 
L 496.614883 68.40081 
L 496.71124 68.468149 
L 496.806402 68.53686 
L 496.900345 68.606926 
L 496.993046 68.678329 
L 497.084481 68.751052 
L 497.174627 68.825077 
L 497.263461 68.900384 
L 497.350962 68.976955 
L 497.437107 69.05477 
L 497.521874 69.13381 
L 497.605242 69.214055 
L 497.68719 69.295485 
L 497.767698 69.378078 
L 497.846745 69.461816 
L 497.924311 69.546675 
L 498.000376 69.632636 
L 498.074923 69.719676 
L 498.147931 69.807773 
L 498.219383 69.896906 
L 498.28926 69.987052 
L 498.357545 70.078187 
L 498.42422 70.17029 
L 498.48927 70.263337 
L 498.552677 70.357304 
L 498.614426 70.452168 
L 498.6745 70.547906 
L 498.732886 70.644492 
L 498.789567 70.741903 
L 498.844531 70.840113 
L 498.897763 70.9391 
L 498.949249 71.038836 
L 498.998977 71.139299 
L 499.046934 71.240461 
L 499.093109 71.342297 
L 499.137488 71.444783 
L 499.180063 71.547892 
L 499.22082 71.651598 
L 499.259751 71.755875 
L 499.296846 71.860697 
L 499.332095 71.966037 
L 499.365489 72.071869 
L 499.39702 72.178167 
L 499.426681 72.284903 
L 499.454462 72.392051 
L 499.480358 72.499583 
L 499.504363 72.607473 
L 499.526469 72.715693 
L 499.546671 72.824217 
L 499.564965 72.933017 
L 499.581346 73.042065 
L 499.595809 73.151334 
L 499.608351 73.260796 
L 499.618969 73.370425 
L 499.62766 73.480192 
L 499.634422 73.590069 
L 499.639253 73.70003 
L 499.642153 73.810046 
L 499.643119 73.92009 
L 499.643119 73.92009 
L 499.643119 73.92009 
L 499.642153 74.030134 
L 499.639253 74.14015 
L 499.634422 74.250111 
L 499.62766 74.359988 
L 499.618969 74.469755 
L 499.608351 74.579384 
L 499.595809 74.688846 
L 499.581346 74.798115 
L 499.564965 74.907163 
L 499.546671 75.015963 
L 499.526469 75.124487 
L 499.504363 75.232707 
L 499.480358 75.340597 
L 499.454462 75.448129 
L 499.426681 75.555277 
L 499.39702 75.662013 
L 499.365489 75.768311 
L 499.332095 75.874143 
L 499.296846 75.979483 
L 499.259751 76.084305 
L 499.22082 76.188582 
L 499.180063 76.292288 
L 499.137488 76.395397 
L 499.093109 76.497883 
L 499.046934 76.599719 
L 498.998977 76.700881 
L 498.949249 76.801343 
L 498.897763 76.90108 
L 498.844531 77.000066 
L 498.789567 77.098277 
L 498.732886 77.195688 
L 498.6745 77.292274 
L 498.614426 77.388012 
L 498.552677 77.482876 
L 498.48927 77.576843 
L 498.42422 77.66989 
L 498.357545 77.761993 
L 498.28926 77.853128 
L 498.219383 77.943274 
L 498.147931 78.032407 
L 498.074923 78.120504 
L 498.000376 78.207544 
L 497.924311 78.293505 
L 497.846745 78.378364 
L 497.767698 78.462101 
L 497.68719 78.544695 
L 497.605242 78.626125 
L 497.521874 78.70637 
L 497.437107 78.78541 
L 497.350962 78.863225 
L 497.263461 78.939796 
L 497.174627 79.015103 
L 497.084481 79.089127 
L 496.993046 79.161851 
L 496.900345 79.233254 
L 496.806402 79.30332 
L 496.71124 79.372031 
L 496.614883 79.439369 
L 496.517355 79.505318 
L 496.418682 79.569861 
L 496.318887 79.632982 
L 496.217996 79.694664 
L 496.116034 79.754893 
L 496.013028 79.813653 
L 495.909002 79.870929 
L 495.803983 79.926707 
L 495.697998 79.980972 
L 495.591073 80.033712 
L 495.483235 80.084913 
L 495.374511 80.134562 
L 495.264929 80.182647 
L 495.154516 80.229155 
L 495.043301 80.274075 
L 494.93131 80.317395 
L 494.818572 80.359105 
L 494.705116 80.399193 
L 494.590971 80.437651 
L 494.476164 80.474468 
L 494.360725 80.509634 
L 494.244682 80.543142 
L 494.128066 80.574983 
L 494.010905 80.605148 
L 493.893229 80.633631 
L 493.775068 80.660423 
L 493.656451 80.685518 
L 493.537408 80.70891 
L 493.417969 80.730594 
L 493.298165 80.750562 
L 493.178025 80.768811 
L 493.057579 80.785337 
L 492.936858 80.800133 
L 492.815893 80.813198 
L 492.694713 80.824527 
L 492.57335 80.834119 
L 492.451833 80.841969 
L 492.330194 80.848077 
L 492.208463 80.852441 
L 492.08667 80.85506 
L 491.964847 80.855933 
L 491.964847 80.855933 
L 499.643119 80.855933 
L 499.643119 66.984247 
z
" clip-path="url(#p66526c876b)" style="fill: #ffffff; stroke: #ffffff; stroke-linejoin: miter"/>
   </g>
   <g id="patch_11">
    <path d="M 100.800772 54.499728 
L 100.800772 54.499728 
L 100.678949 54.498855 
L 100.557156 54.496236 
L 100.435425 54.491872 
L 100.313786 54.485764 
L 100.192269 54.477914 
L 100.070906 54.468322 
L 99.949726 54.456993 
L 99.828761 54.443928 
L 99.70804 54.429131 
L 99.587594 54.412606 
L 99.467454 54.394357 
L 99.34765 54.374389 
L 99.228211 54.352705 
L 99.109168 54.329313 
L 98.990551 54.304218 
L 98.87239 54.277426 
L 98.754714 54.248943 
L 98.637553 54.218778 
L 98.520937 54.186937 
L 98.404894 54.153429 
L 98.289455 54.118263 
L 98.174648 54.081446 
L 98.060503 54.042988 
L 97.947047 54.002899 
L 97.834309 53.96119 
L 97.722318 53.91787 
L 97.611103 53.87295 
L 97.50069 53.826442 
L 97.391108 53.778357 
L 97.282384 53.728708 
L 97.174546 53.677507 
L 97.067621 53.624767 
L 96.961636 53.570501 
L 96.856617 53.514723 
L 96.752592 53.457447 
L 96.649585 53.398688 
L 96.547623 53.338459 
L 96.446732 53.276777 
L 96.346937 53.213656 
L 96.248264 53.149113 
L 96.150736 53.083164 
L 96.054379 53.015826 
L 95.959217 52.947115 
L 95.865274 52.877049 
L 95.772573 52.805646 
L 95.681138 52.732922 
L 95.590992 52.658898 
L 95.502158 52.583591 
L 95.414657 52.50702 
L 95.328512 52.429205 
L 95.243745 52.350165 
L 95.160377 52.26992 
L 95.078429 52.18849 
L 94.997921 52.105896 
L 94.918874 52.022159 
L 94.841308 51.937299 
L 94.765243 51.851339 
L 94.690696 51.764299 
L 94.617688 51.676201 
L 94.546236 51.587069 
L 94.476359 51.496923 
L 94.408074 51.405788 
L 94.341399 51.313685 
L 94.276349 51.220638 
L 94.212942 51.126671 
L 94.151193 51.031807 
L 94.091119 50.936069 
L 94.032733 50.839483 
L 93.976052 50.742072 
L 93.921088 50.643861 
L 93.867856 50.544875 
L 93.81637 50.445138 
L 93.766642 50.344676 
L 93.718685 50.243514 
L 93.672511 50.141677 
L 93.628131 50.039192 
L 93.585556 49.936083 
L 93.544799 49.832377 
L 93.505868 49.7281 
L 93.468773 49.623278 
L 93.433524 49.517938 
L 93.40013 49.412106 
L 93.368599 49.305808 
L 93.338938 49.199072 
L 93.311157 49.091924 
L 93.285261 48.984392 
L 93.261256 48.876502 
L 93.23915 48.768281 
L 93.218948 48.659758 
L 93.200654 48.550958 
L 93.184273 48.44191 
L 93.16981 48.332641 
L 93.157268 48.223179 
L 93.14665 48.11355 
L 93.137959 48.003783 
L 93.131197 47.893906 
L 93.126366 47.783945 
L 93.123466 47.673929 
L 93.1225 47.563885 
L 93.1225 47.563885 
L 93.1225 47.563885 
L 93.123466 47.453841 
L 93.126366 47.343825 
L 93.131197 47.233864 
L 93.137959 47.123986 
L 93.14665 47.01422 
L 93.157268 46.904591 
L 93.16981 46.795128 
L 93.184273 46.685859 
L 93.200654 46.576811 
L 93.218948 46.468012 
L 93.23915 46.359488 
L 93.261256 46.251268 
L 93.285261 46.143378 
L 93.311157 46.035845 
L 93.338938 45.928698 
L 93.368599 45.821962 
L 93.40013 45.715664 
L 93.433524 45.609832 
L 93.468773 45.504492 
L 93.505868 45.39967 
L 93.544799 45.295393 
L 93.585556 45.191687 
L 93.628131 45.088578 
L 93.672511 44.986092 
L 93.718685 44.884256 
L 93.766642 44.783093 
L 93.81637 44.682631 
L 93.867856 44.582895 
L 93.921088 44.483908 
L 93.976052 44.385697 
L 94.032733 44.288287 
L 94.091119 44.1917 
L 94.151193 44.095963 
L 94.212942 44.001099 
L 94.276349 43.907132 
L 94.341399 43.814085 
L 94.408074 43.721982 
L 94.476359 43.630846 
L 94.546236 43.540701 
L 94.617688 43.451568 
L 94.690696 43.363471 
L 94.765243 43.276431 
L 94.841308 43.19047 
L 94.918874 43.105611 
L 94.997921 43.021873 
L 95.078429 42.939279 
L 95.160377 42.85785 
L 95.243745 42.777605 
L 95.328512 42.698565 
L 95.414657 42.62075 
L 95.502158 42.544179 
L 95.590992 42.468872 
L 95.681138 42.394847 
L 95.772573 42.322124 
L 95.865274 42.250721 
L 95.959217 42.180654 
L 96.054379 42.111944 
L 96.150736 42.044605 
L 96.248264 41.978656 
L 96.346937 41.914114 
L 96.446732 41.850993 
L 96.547623 41.789311 
L 96.649585 41.729082 
L 96.752592 41.670322 
L 96.856617 41.613046 
L 96.961636 41.557268 
L 97.067621 41.503002 
L 97.174546 41.450262 
L 97.282384 41.399061 
L 97.391108 41.349412 
L 97.50069 41.301328 
L 97.611103 41.25482 
L 97.722318 41.2099 
L 97.834309 41.16658 
L 97.947047 41.12487 
L 98.060503 41.084782 
L 98.174648 41.046324 
L 98.289455 41.009507 
L 98.404894 40.97434 
L 98.520937 40.940832 
L 98.637553 40.908992 
L 98.754714 40.878827 
L 98.87239 40.850344 
L 98.990551 40.823552 
L 99.109168 40.798457 
L 99.228211 40.775064 
L 99.34765 40.753381 
L 99.467454 40.733412 
L 99.587594 40.715163 
L 99.70804 40.698638 
L 99.828761 40.683842 
L 99.949726 40.670777 
L 100.070906 40.659447 
L 100.192269 40.649856 
L 100.313786 40.642005 
L 100.435425 40.635897 
L 100.557156 40.631533 
L 100.678949 40.628914 
L 100.800772 40.628041 
L 100.800772 40.628041 
L 93.1225 40.628041 
L 93.1225 54.499728 
z
" clip-path="url(#p66526c876b)" style="fill: #ffffff; stroke: #ffffff; stroke-linejoin: miter"/>
   </g>
   <g id="patch_12">
    <path d="M 616.341902 40.628041 
L 616.341902 40.628041 
L 616.463725 40.628914 
L 616.585517 40.631533 
L 616.707249 40.635897 
L 616.828888 40.642005 
L 616.950404 40.649856 
L 617.071768 40.659447 
L 617.192947 40.670777 
L 617.313913 40.683842 
L 617.434634 40.698638 
L 617.555079 40.715163 
L 617.67522 40.733412 
L 617.795024 40.753381 
L 617.914463 40.775064 
L 618.033506 40.798457 
L 618.152123 40.823552 
L 618.270284 40.850344 
L 618.38796 40.878827 
L 618.505121 40.908992 
L 618.621737 40.940832 
L 618.737779 40.97434 
L 618.853218 41.009507 
L 618.968025 41.046324 
L 619.082171 41.084782 
L 619.195627 41.12487 
L 619.308365 41.16658 
L 619.420355 41.2099 
L 619.531571 41.25482 
L 619.641984 41.301328 
L 619.751566 41.349412 
L 619.86029 41.399061 
L 619.968127 41.450262 
L 620.075052 41.503002 
L 620.181038 41.557268 
L 620.286056 41.613046 
L 620.390082 41.670322 
L 620.493089 41.729082 
L 620.595051 41.789311 
L 620.695942 41.850993 
L 620.795736 41.914114 
L 620.89441 41.978656 
L 620.991938 42.044605 
L 621.088295 42.111944 
L 621.183457 42.180654 
L 621.2774 42.250721 
L 621.370101 42.322124 
L 621.461535 42.394847 
L 621.551682 42.468872 
L 621.640516 42.544179 
L 621.728017 42.62075 
L 621.814161 42.698565 
L 621.898929 42.777605 
L 621.982297 42.85785 
L 622.064245 42.939279 
L 622.144753 43.021873 
L 622.223799 43.105611 
L 622.301365 43.19047 
L 622.377431 43.276431 
L 622.451978 43.363471 
L 622.524986 43.451568 
L 622.596437 43.540701 
L 622.666315 43.630846 
L 622.7346 43.721982 
L 622.801275 43.814085 
L 622.866325 43.907132 
L 622.929732 44.001099 
L 622.99148 44.095963 
L 623.051555 44.1917 
L 623.10994 44.288287 
L 623.166622 44.385697 
L 623.221586 44.483908 
L 623.274817 44.582895 
L 623.326304 44.682631 
L 623.376032 44.783093 
L 623.423989 44.884256 
L 623.470163 44.986092 
L 623.514543 45.088578 
L 623.557117 45.191687 
L 623.597875 45.295393 
L 623.636806 45.39967 
L 623.673901 45.504492 
L 623.70915 45.609832 
L 623.742544 45.715664 
L 623.774075 45.821962 
L 623.803735 45.928698 
L 623.831517 46.035845 
L 623.857413 46.143378 
L 623.881417 46.251268 
L 623.903524 46.359488 
L 623.923726 46.468012 
L 623.94202 46.576811 
L 623.958401 46.685859 
L 623.972864 46.795128 
L 623.985406 46.904591 
L 623.996024 47.01422 
L 624.004715 47.123986 
L 624.011477 47.233864 
L 624.016308 47.343825 
L 624.019207 47.453841 
L 624.020174 47.563885 
L 624.020174 47.563885 
L 624.020174 47.563885 
L 624.019207 47.673929 
L 624.016308 47.783945 
L 624.011477 47.893906 
L 624.004715 48.003783 
L 623.996024 48.11355 
L 623.985406 48.223179 
L 623.972864 48.332641 
L 623.958401 48.44191 
L 623.94202 48.550958 
L 623.923726 48.659758 
L 623.903524 48.768281 
L 623.881417 48.876502 
L 623.857413 48.984392 
L 623.831517 49.091924 
L 623.803735 49.199072 
L 623.774075 49.305808 
L 623.742544 49.412106 
L 623.70915 49.517938 
L 623.673901 49.623278 
L 623.636806 49.7281 
L 623.597875 49.832377 
L 623.557117 49.936083 
L 623.514543 50.039192 
L 623.470163 50.141677 
L 623.423989 50.243514 
L 623.376032 50.344676 
L 623.326304 50.445138 
L 623.274817 50.544875 
L 623.221586 50.643861 
L 623.166622 50.742072 
L 623.10994 50.839483 
L 623.051555 50.936069 
L 622.99148 51.031807 
L 622.929732 51.126671 
L 622.866325 51.220638 
L 622.801275 51.313685 
L 622.7346 51.405788 
L 622.666315 51.496923 
L 622.596437 51.587069 
L 622.524986 51.676201 
L 622.451978 51.764299 
L 622.377431 51.851339 
L 622.301365 51.937299 
L 622.223799 52.022159 
L 622.144753 52.105896 
L 622.064245 52.18849 
L 621.982297 52.26992 
L 621.898929 52.350165 
L 621.814161 52.429205 
L 621.728017 52.50702 
L 621.640516 52.583591 
L 621.551682 52.658898 
L 621.461535 52.732922 
L 621.370101 52.805646 
L 621.2774 52.877049 
L 621.183457 52.947115 
L 621.088295 53.015826 
L 620.991938 53.083164 
L 620.89441 53.149113 
L 620.795736 53.213656 
L 620.695942 53.276777 
L 620.595051 53.338459 
L 620.493089 53.398688 
L 620.390082 53.457447 
L 620.286056 53.514723 
L 620.181038 53.570501 
L 620.075052 53.624767 
L 619.968127 53.677507 
L 619.86029 53.728708 
L 619.751566 53.778357 
L 619.641984 53.826442 
L 619.531571 53.87295 
L 619.420355 53.91787 
L 619.308365 53.96119 
L 619.195627 54.002899 
L 619.082171 54.042988 
L 618.968025 54.081446 
L 618.853218 54.118263 
L 618.737779 54.153429 
L 618.621737 54.186937 
L 618.505121 54.218778 
L 618.38796 54.248943 
L 618.270284 54.277426 
L 618.152123 54.304218 
L 618.033506 54.329313 
L 617.914463 54.352705 
L 617.795024 54.374389 
L 617.67522 54.394357 
L 617.555079 54.412606 
L 617.434634 54.429131 
L 617.313913 54.443928 
L 617.192947 54.456993 
L 617.071768 54.468322 
L 616.950404 54.477914 
L 616.828888 54.485764 
L 616.707249 54.491872 
L 616.585517 54.496236 
L 616.463725 54.498855 
L 616.341902 54.499728 
L 616.341902 54.499728 
L 624.020174 54.499728 
L 624.020174 40.628041 
z
" clip-path="url(#p66526c876b)" style="fill: #ffffff; stroke: #ffffff; stroke-linejoin: miter"/>
   </g>
   <g id="patch_13">
    <path d="M 100.800772 80.855933 
L 100.800772 80.855933 
L 100.678949 80.85506 
L 100.557156 80.852441 
L 100.435425 80.848077 
L 100.313786 80.841969 
L 100.192269 80.834119 
L 100.070906 80.824527 
L 99.949726 80.813198 
L 99.828761 80.800133 
L 99.70804 80.785337 
L 99.587594 80.768811 
L 99.467454 80.750562 
L 99.34765 80.730594 
L 99.228211 80.70891 
L 99.109168 80.685518 
L 98.990551 80.660423 
L 98.87239 80.633631 
L 98.754714 80.605148 
L 98.637553 80.574983 
L 98.520937 80.543142 
L 98.404894 80.509634 
L 98.289455 80.474468 
L 98.174648 80.437651 
L 98.060503 80.399193 
L 97.947047 80.359105 
L 97.834309 80.317395 
L 97.722318 80.274075 
L 97.611103 80.229155 
L 97.50069 80.182647 
L 97.391108 80.134562 
L 97.282384 80.084913 
L 97.174546 80.033712 
L 97.067621 79.980972 
L 96.961636 79.926707 
L 96.856617 79.870929 
L 96.752592 79.813653 
L 96.649585 79.754893 
L 96.547623 79.694664 
L 96.446732 79.632982 
L 96.346937 79.569861 
L 96.248264 79.505318 
L 96.150736 79.439369 
L 96.054379 79.372031 
L 95.959217 79.30332 
L 95.865274 79.233254 
L 95.772573 79.161851 
L 95.681138 79.089127 
L 95.590992 79.015103 
L 95.502158 78.939796 
L 95.414657 78.863225 
L 95.328512 78.78541 
L 95.243745 78.70637 
L 95.160377 78.626125 
L 95.078429 78.544695 
L 94.997921 78.462101 
L 94.918874 78.378364 
L 94.841308 78.293505 
L 94.765243 78.207544 
L 94.690696 78.120504 
L 94.617688 78.032407 
L 94.546236 77.943274 
L 94.476359 77.853128 
L 94.408074 77.761993 
L 94.341399 77.66989 
L 94.276349 77.576843 
L 94.212942 77.482876 
L 94.151193 77.388012 
L 94.091119 77.292274 
L 94.032733 77.195688 
L 93.976052 77.098277 
L 93.921088 77.000066 
L 93.867856 76.90108 
L 93.81637 76.801343 
L 93.766642 76.700881 
L 93.718685 76.599719 
L 93.672511 76.497883 
L 93.628131 76.395397 
L 93.585556 76.292288 
L 93.544799 76.188582 
L 93.505868 76.084305 
L 93.468773 75.979483 
L 93.433524 75.874143 
L 93.40013 75.768311 
L 93.368599 75.662013 
L 93.338938 75.555277 
L 93.311157 75.448129 
L 93.285261 75.340597 
L 93.261256 75.232707 
L 93.23915 75.124487 
L 93.218948 75.015963 
L 93.200654 74.907163 
L 93.184273 74.798115 
L 93.16981 74.688846 
L 93.157268 74.579384 
L 93.14665 74.469755 
L 93.137959 74.359988 
L 93.131197 74.250111 
L 93.126366 74.14015 
L 93.123466 74.030134 
L 93.1225 73.92009 
L 93.1225 73.92009 
L 93.1225 73.92009 
L 93.123466 73.810046 
L 93.126366 73.70003 
L 93.131197 73.590069 
L 93.137959 73.480192 
L 93.14665 73.370425 
L 93.157268 73.260796 
L 93.16981 73.151334 
L 93.184273 73.042065 
L 93.200654 72.933017 
L 93.218948 72.824217 
L 93.23915 72.715693 
L 93.261256 72.607473 
L 93.285261 72.499583 
L 93.311157 72.392051 
L 93.338938 72.284903 
L 93.368599 72.178167 
L 93.40013 72.071869 
L 93.433524 71.966037 
L 93.468773 71.860697 
L 93.505868 71.755875 
L 93.544799 71.651598 
L 93.585556 71.547892 
L 93.628131 71.444783 
L 93.672511 71.342297 
L 93.718685 71.240461 
L 93.766642 71.139299 
L 93.81637 71.038836 
L 93.867856 70.9391 
L 93.921088 70.840113 
L 93.976052 70.741903 
L 94.032733 70.644492 
L 94.091119 70.547906 
L 94.151193 70.452168 
L 94.212942 70.357304 
L 94.276349 70.263337 
L 94.341399 70.17029 
L 94.408074 70.078187 
L 94.476359 69.987052 
L 94.546236 69.896906 
L 94.617688 69.807773 
L 94.690696 69.719676 
L 94.765243 69.632636 
L 94.841308 69.546675 
L 94.918874 69.461816 
L 94.997921 69.378078 
L 95.078429 69.295485 
L 95.160377 69.214055 
L 95.243745 69.13381 
L 95.328512 69.05477 
L 95.414657 68.976955 
L 95.502158 68.900384 
L 95.590992 68.825077 
L 95.681138 68.751052 
L 95.772573 68.678329 
L 95.865274 68.606926 
L 95.959217 68.53686 
L 96.054379 68.468149 
L 96.150736 68.40081 
L 96.248264 68.334862 
L 96.346937 68.270319 
L 96.446732 68.207198 
L 96.547623 68.145516 
L 96.649585 68.085287 
L 96.752592 68.026527 
L 96.856617 67.969251 
L 96.961636 67.913473 
L 97.067621 67.859207 
L 97.174546 67.806467 
L 97.282384 67.755266 
L 97.391108 67.705617 
L 97.50069 67.657533 
L 97.611103 67.611025 
L 97.722318 67.566105 
L 97.834309 67.522785 
L 97.947047 67.481075 
L 98.060503 67.440987 
L 98.174648 67.402529 
L 98.289455 67.365712 
L 98.404894 67.330545 
L 98.520937 67.297037 
L 98.637553 67.265197 
L 98.754714 67.235032 
L 98.87239 67.206549 
L 98.990551 67.179757 
L 99.109168 67.154662 
L 99.228211 67.131269 
L 99.34765 67.109586 
L 99.467454 67.089618 
L 99.587594 67.071368 
L 99.70804 67.054843 
L 99.828761 67.040047 
L 99.949726 67.026982 
L 100.070906 67.015653 
L 100.192269 67.006061 
L 100.313786 66.998211 
L 100.435425 66.992102 
L 100.557156 66.987738 
L 100.678949 66.98512 
L 100.800772 66.984247 
L 100.800772 66.984247 
L 491.964847 66.984247 
L 491.964847 66.984247 
L 492.08667 66.98512 
L 492.208463 66.987738 
L 492.330194 66.992102 
L 492.451833 66.998211 
L 492.57335 67.006061 
L 492.694713 67.015653 
L 492.815893 67.026982 
L 492.936858 67.040047 
L 493.057579 67.054843 
L 493.178025 67.071368 
L 493.298165 67.089618 
L 493.417969 67.109586 
L 493.537408 67.131269 
L 493.656451 67.154662 
L 493.775068 67.179757 
L 493.893229 67.206549 
L 494.010905 67.235032 
L 494.128066 67.265197 
L 494.244682 67.297037 
L 494.360725 67.330545 
L 494.476164 67.365712 
L 494.590971 67.402529 
L 494.705116 67.440987 
L 494.818572 67.481075 
L 494.93131 67.522785 
L 495.043301 67.566105 
L 495.154516 67.611025 
L 495.264929 67.657533 
L 495.374511 67.705617 
L 495.483235 67.755266 
L 495.591073 67.806467 
L 495.697998 67.859207 
L 495.803983 67.913473 
L 495.909002 67.969251 
L 496.013028 68.026527 
L 496.116034 68.085287 
L 496.217996 68.145516 
L 496.318887 68.207198 
L 496.418682 68.270319 
L 496.517355 68.334862 
L 496.614883 68.40081 
L 496.71124 68.468149 
L 496.806402 68.53686 
L 496.900345 68.606926 
L 496.993046 68.678329 
L 497.084481 68.751052 
L 497.174627 68.825077 
L 497.263461 68.900384 
L 497.350962 68.976955 
L 497.437107 69.05477 
L 497.521874 69.13381 
L 497.605242 69.214055 
L 497.68719 69.295485 
L 497.767698 69.378078 
L 497.846745 69.461816 
L 497.924311 69.546675 
L 498.000376 69.632636 
L 498.074923 69.719676 
L 498.147931 69.807773 
L 498.219383 69.896906 
L 498.28926 69.987052 
L 498.357545 70.078187 
L 498.42422 70.17029 
L 498.48927 70.263337 
L 498.552677 70.357304 
L 498.614426 70.452168 
L 498.6745 70.547906 
L 498.732886 70.644492 
L 498.789567 70.741903 
L 498.844531 70.840113 
L 498.897763 70.9391 
L 498.949249 71.038836 
L 498.998977 71.139299 
L 499.046934 71.240461 
L 499.093109 71.342297 
L 499.137488 71.444783 
L 499.180063 71.547892 
L 499.22082 71.651598 
L 499.259751 71.755875 
L 499.296846 71.860697 
L 499.332095 71.966037 
L 499.365489 72.071869 
L 499.39702 72.178167 
L 499.426681 72.284903 
L 499.454462 72.392051 
L 499.480358 72.499583 
L 499.504363 72.607473 
L 499.526469 72.715693 
L 499.546671 72.824217 
L 499.564965 72.933017 
L 499.581346 73.042065 
L 499.595809 73.151334 
L 499.608351 73.260796 
L 499.618969 73.370425 
L 499.62766 73.480192 
L 499.634422 73.590069 
L 499.639253 73.70003 
L 499.642153 73.810046 
L 499.643119 73.92009 
L 499.643119 73.92009 
L 499.643119 73.92009 
L 499.642153 74.030134 
L 499.639253 74.14015 
L 499.634422 74.250111 
L 499.62766 74.359988 
L 499.618969 74.469755 
L 499.608351 74.579384 
L 499.595809 74.688846 
L 499.581346 74.798115 
L 499.564965 74.907163 
L 499.546671 75.015963 
L 499.526469 75.124487 
L 499.504363 75.232707 
L 499.480358 75.340597 
L 499.454462 75.448129 
L 499.426681 75.555277 
L 499.39702 75.662013 
L 499.365489 75.768311 
L 499.332095 75.874143 
L 499.296846 75.979483 
L 499.259751 76.084305 
L 499.22082 76.188582 
L 499.180063 76.292288 
L 499.137488 76.395397 
L 499.093109 76.497883 
L 499.046934 76.599719 
L 498.998977 76.700881 
L 498.949249 76.801343 
L 498.897763 76.90108 
L 498.844531 77.000066 
L 498.789567 77.098277 
L 498.732886 77.195688 
L 498.6745 77.292274 
L 498.614426 77.388012 
L 498.552677 77.482876 
L 498.48927 77.576843 
L 498.42422 77.66989 
L 498.357545 77.761993 
L 498.28926 77.853128 
L 498.219383 77.943274 
L 498.147931 78.032407 
L 498.074923 78.120504 
L 498.000376 78.207544 
L 497.924311 78.293505 
L 497.846745 78.378364 
L 497.767698 78.462101 
L 497.68719 78.544695 
L 497.605242 78.626125 
L 497.521874 78.70637 
L 497.437107 78.78541 
L 497.350962 78.863225 
L 497.263461 78.939796 
L 497.174627 79.015103 
L 497.084481 79.089127 
L 496.993046 79.161851 
L 496.900345 79.233254 
L 496.806402 79.30332 
L 496.71124 79.372031 
L 496.614883 79.439369 
L 496.517355 79.505318 
L 496.418682 79.569861 
L 496.318887 79.632982 
L 496.217996 79.694664 
L 496.116034 79.754893 
L 496.013028 79.813653 
L 495.909002 79.870929 
L 495.803983 79.926707 
L 495.697998 79.980972 
L 495.591073 80.033712 
L 495.483235 80.084913 
L 495.374511 80.134562 
L 495.264929 80.182647 
L 495.154516 80.229155 
L 495.043301 80.274075 
L 494.93131 80.317395 
L 494.818572 80.359105 
L 494.705116 80.399193 
L 494.590971 80.437651 
L 494.476164 80.474468 
L 494.360725 80.509634 
L 494.244682 80.543142 
L 494.128066 80.574983 
L 494.010905 80.605148 
L 493.893229 80.633631 
L 493.775068 80.660423 
L 493.656451 80.685518 
L 493.537408 80.70891 
L 493.417969 80.730594 
L 493.298165 80.750562 
L 493.178025 80.768811 
L 493.057579 80.785337 
L 492.936858 80.800133 
L 492.815893 80.813198 
L 492.694713 80.824527 
L 492.57335 80.834119 
L 492.451833 80.841969 
L 492.330194 80.848077 
L 492.208463 80.852441 
L 492.08667 80.85506 
L 491.964847 80.855933 
L 491.964847 80.855933 
L 100.800772 80.855933 
z
" clip-path="url(#p66526c876b)" style="fill: none; stroke: #000000; stroke-linejoin: miter"/>
   </g>
   <g id="patch_14">
    <path d="M 100.800772 54.499728 
L 100.800772 54.499728 
L 100.678949 54.498855 
L 100.557156 54.496236 
L 100.435425 54.491872 
L 100.313786 54.485764 
L 100.192269 54.477914 
L 100.070906 54.468322 
L 99.949726 54.456993 
L 99.828761 54.443928 
L 99.70804 54.429131 
L 99.587594 54.412606 
L 99.467454 54.394357 
L 99.34765 54.374389 
L 99.228211 54.352705 
L 99.109168 54.329313 
L 98.990551 54.304218 
L 98.87239 54.277426 
L 98.754714 54.248943 
L 98.637553 54.218778 
L 98.520937 54.186937 
L 98.404894 54.153429 
L 98.289455 54.118263 
L 98.174648 54.081446 
L 98.060503 54.042988 
L 97.947047 54.002899 
L 97.834309 53.96119 
L 97.722318 53.91787 
L 97.611103 53.87295 
L 97.50069 53.826442 
L 97.391108 53.778357 
L 97.282384 53.728708 
L 97.174546 53.677507 
L 97.067621 53.624767 
L 96.961636 53.570501 
L 96.856617 53.514723 
L 96.752592 53.457447 
L 96.649585 53.398688 
L 96.547623 53.338459 
L 96.446732 53.276777 
L 96.346937 53.213656 
L 96.248264 53.149113 
L 96.150736 53.083164 
L 96.054379 53.015826 
L 95.959217 52.947115 
L 95.865274 52.877049 
L 95.772573 52.805646 
L 95.681138 52.732922 
L 95.590992 52.658898 
L 95.502158 52.583591 
L 95.414657 52.50702 
L 95.328512 52.429205 
L 95.243745 52.350165 
L 95.160377 52.26992 
L 95.078429 52.18849 
L 94.997921 52.105896 
L 94.918874 52.022159 
L 94.841308 51.937299 
L 94.765243 51.851339 
L 94.690696 51.764299 
L 94.617688 51.676201 
L 94.546236 51.587069 
L 94.476359 51.496923 
L 94.408074 51.405788 
L 94.341399 51.313685 
L 94.276349 51.220638 
L 94.212942 51.126671 
L 94.151193 51.031807 
L 94.091119 50.936069 
L 94.032733 50.839483 
L 93.976052 50.742072 
L 93.921088 50.643861 
L 93.867856 50.544875 
L 93.81637 50.445138 
L 93.766642 50.344676 
L 93.718685 50.243514 
L 93.672511 50.141677 
L 93.628131 50.039192 
L 93.585556 49.936083 
L 93.544799 49.832377 
L 93.505868 49.7281 
L 93.468773 49.623278 
L 93.433524 49.517938 
L 93.40013 49.412106 
L 93.368599 49.305808 
L 93.338938 49.199072 
L 93.311157 49.091924 
L 93.285261 48.984392 
L 93.261256 48.876502 
L 93.23915 48.768281 
L 93.218948 48.659758 
L 93.200654 48.550958 
L 93.184273 48.44191 
L 93.16981 48.332641 
L 93.157268 48.223179 
L 93.14665 48.11355 
L 93.137959 48.003783 
L 93.131197 47.893906 
L 93.126366 47.783945 
L 93.123466 47.673929 
L 93.1225 47.563885 
L 93.1225 47.563885 
L 93.1225 47.563885 
L 93.123466 47.453841 
L 93.126366 47.343825 
L 93.131197 47.233864 
L 93.137959 47.123986 
L 93.14665 47.01422 
L 93.157268 46.904591 
L 93.16981 46.795128 
L 93.184273 46.685859 
L 93.200654 46.576811 
L 93.218948 46.468012 
L 93.23915 46.359488 
L 93.261256 46.251268 
L 93.285261 46.143378 
L 93.311157 46.035845 
L 93.338938 45.928698 
L 93.368599 45.821962 
L 93.40013 45.715664 
L 93.433524 45.609832 
L 93.468773 45.504492 
L 93.505868 45.39967 
L 93.544799 45.295393 
L 93.585556 45.191687 
L 93.628131 45.088578 
L 93.672511 44.986092 
L 93.718685 44.884256 
L 93.766642 44.783093 
L 93.81637 44.682631 
L 93.867856 44.582895 
L 93.921088 44.483908 
L 93.976052 44.385697 
L 94.032733 44.288287 
L 94.091119 44.1917 
L 94.151193 44.095963 
L 94.212942 44.001099 
L 94.276349 43.907132 
L 94.341399 43.814085 
L 94.408074 43.721982 
L 94.476359 43.630846 
L 94.546236 43.540701 
L 94.617688 43.451568 
L 94.690696 43.363471 
L 94.765243 43.276431 
L 94.841308 43.19047 
L 94.918874 43.105611 
L 94.997921 43.021873 
L 95.078429 42.939279 
L 95.160377 42.85785 
L 95.243745 42.777605 
L 95.328512 42.698565 
L 95.414657 42.62075 
L 95.502158 42.544179 
L 95.590992 42.468872 
L 95.681138 42.394847 
L 95.772573 42.322124 
L 95.865274 42.250721 
L 95.959217 42.180654 
L 96.054379 42.111944 
L 96.150736 42.044605 
L 96.248264 41.978656 
L 96.346937 41.914114 
L 96.446732 41.850993 
L 96.547623 41.789311 
L 96.649585 41.729082 
L 96.752592 41.670322 
L 96.856617 41.613046 
L 96.961636 41.557268 
L 97.067621 41.503002 
L 97.174546 41.450262 
L 97.282384 41.399061 
L 97.391108 41.349412 
L 97.50069 41.301328 
L 97.611103 41.25482 
L 97.722318 41.2099 
L 97.834309 41.16658 
L 97.947047 41.12487 
L 98.060503 41.084782 
L 98.174648 41.046324 
L 98.289455 41.009507 
L 98.404894 40.97434 
L 98.520937 40.940832 
L 98.637553 40.908992 
L 98.754714 40.878827 
L 98.87239 40.850344 
L 98.990551 40.823552 
L 99.109168 40.798457 
L 99.228211 40.775064 
L 99.34765 40.753381 
L 99.467454 40.733412 
L 99.587594 40.715163 
L 99.70804 40.698638 
L 99.828761 40.683842 
L 99.949726 40.670777 
L 100.070906 40.659447 
L 100.192269 40.649856 
L 100.313786 40.642005 
L 100.435425 40.635897 
L 100.557156 40.631533 
L 100.678949 40.628914 
L 100.800772 40.628041 
L 100.800772 40.628041 
L 616.341902 40.628041 
L 616.341902 40.628041 
L 616.463725 40.628914 
L 616.585517 40.631533 
L 616.707249 40.635897 
L 616.828888 40.642005 
L 616.950404 40.649856 
L 617.071768 40.659447 
L 617.192947 40.670777 
L 617.313913 40.683842 
L 617.434634 40.698638 
L 617.555079 40.715163 
L 617.67522 40.733412 
L 617.795024 40.753381 
L 617.914463 40.775064 
L 618.033506 40.798457 
L 618.152123 40.823552 
L 618.270284 40.850344 
L 618.38796 40.878827 
L 618.505121 40.908992 
L 618.621737 40.940832 
L 618.737779 40.97434 
L 618.853218 41.009507 
L 618.968025 41.046324 
L 619.082171 41.084782 
L 619.195627 41.12487 
L 619.308365 41.16658 
L 619.420355 41.2099 
L 619.531571 41.25482 
L 619.641984 41.301328 
L 619.751566 41.349412 
L 619.86029 41.399061 
L 619.968127 41.450262 
L 620.075052 41.503002 
L 620.181038 41.557268 
L 620.286056 41.613046 
L 620.390082 41.670322 
L 620.493089 41.729082 
L 620.595051 41.789311 
L 620.695942 41.850993 
L 620.795736 41.914114 
L 620.89441 41.978656 
L 620.991938 42.044605 
L 621.088295 42.111944 
L 621.183457 42.180654 
L 621.2774 42.250721 
L 621.370101 42.322124 
L 621.461535 42.394847 
L 621.551682 42.468872 
L 621.640516 42.544179 
L 621.728017 42.62075 
L 621.814161 42.698565 
L 621.898929 42.777605 
L 621.982297 42.85785 
L 622.064245 42.939279 
L 622.144753 43.021873 
L 622.223799 43.105611 
L 622.301365 43.19047 
L 622.377431 43.276431 
L 622.451978 43.363471 
L 622.524986 43.451568 
L 622.596437 43.540701 
L 622.666315 43.630846 
L 622.7346 43.721982 
L 622.801275 43.814085 
L 622.866325 43.907132 
L 622.929732 44.001099 
L 622.99148 44.095963 
L 623.051555 44.1917 
L 623.10994 44.288287 
L 623.166622 44.385697 
L 623.221586 44.483908 
L 623.274817 44.582895 
L 623.326304 44.682631 
L 623.376032 44.783093 
L 623.423989 44.884256 
L 623.470163 44.986092 
L 623.514543 45.088578 
L 623.557117 45.191687 
L 623.597875 45.295393 
L 623.636806 45.39967 
L 623.673901 45.504492 
L 623.70915 45.609832 
L 623.742544 45.715664 
L 623.774075 45.821962 
L 623.803735 45.928698 
L 623.831517 46.035845 
L 623.857413 46.143378 
L 623.881417 46.251268 
L 623.903524 46.359488 
L 623.923726 46.468012 
L 623.94202 46.576811 
L 623.958401 46.685859 
L 623.972864 46.795128 
L 623.985406 46.904591 
L 623.996024 47.01422 
L 624.004715 47.123986 
L 624.011477 47.233864 
L 624.016308 47.343825 
L 624.019207 47.453841 
L 624.020174 47.563885 
L 624.020174 47.563885 
L 624.020174 47.563885 
L 624.019207 47.673929 
L 624.016308 47.783945 
L 624.011477 47.893906 
L 624.004715 48.003783 
L 623.996024 48.11355 
L 623.985406 48.223179 
L 623.972864 48.332641 
L 623.958401 48.44191 
L 623.94202 48.550958 
L 623.923726 48.659758 
L 623.903524 48.768281 
L 623.881417 48.876502 
L 623.857413 48.984392 
L 623.831517 49.091924 
L 623.803735 49.199072 
L 623.774075 49.305808 
L 623.742544 49.412106 
L 623.70915 49.517938 
L 623.673901 49.623278 
L 623.636806 49.7281 
L 623.597875 49.832377 
L 623.557117 49.936083 
L 623.514543 50.039192 
L 623.470163 50.141677 
L 623.423989 50.243514 
L 623.376032 50.344676 
L 623.326304 50.445138 
L 623.274817 50.544875 
L 623.221586 50.643861 
L 623.166622 50.742072 
L 623.10994 50.839483 
L 623.051555 50.936069 
L 622.99148 51.031807 
L 622.929732 51.126671 
L 622.866325 51.220638 
L 622.801275 51.313685 
L 622.7346 51.405788 
L 622.666315 51.496923 
L 622.596437 51.587069 
L 622.524986 51.676201 
L 622.451978 51.764299 
L 622.377431 51.851339 
L 622.301365 51.937299 
L 622.223799 52.022159 
L 622.144753 52.105896 
L 622.064245 52.18849 
L 621.982297 52.26992 
L 621.898929 52.350165 
L 621.814161 52.429205 
L 621.728017 52.50702 
L 621.640516 52.583591 
L 621.551682 52.658898 
L 621.461535 52.732922 
L 621.370101 52.805646 
L 621.2774 52.877049 
L 621.183457 52.947115 
L 621.088295 53.015826 
L 620.991938 53.083164 
L 620.89441 53.149113 
L 620.795736 53.213656 
L 620.695942 53.276777 
L 620.595051 53.338459 
L 620.493089 53.398688 
L 620.390082 53.457447 
L 620.286056 53.514723 
L 620.181038 53.570501 
L 620.075052 53.624767 
L 619.968127 53.677507 
L 619.86029 53.728708 
L 619.751566 53.778357 
L 619.641984 53.826442 
L 619.531571 53.87295 
L 619.420355 53.91787 
L 619.308365 53.96119 
L 619.195627 54.002899 
L 619.082171 54.042988 
L 618.968025 54.081446 
L 618.853218 54.118263 
L 618.737779 54.153429 
L 618.621737 54.186937 
L 618.505121 54.218778 
L 618.38796 54.248943 
L 618.270284 54.277426 
L 618.152123 54.304218 
L 618.033506 54.329313 
L 617.914463 54.352705 
L 617.795024 54.374389 
L 617.67522 54.394357 
L 617.555079 54.412606 
L 617.434634 54.429131 
L 617.313913 54.443928 
L 617.192947 54.456993 
L 617.071768 54.468322 
L 616.950404 54.477914 
L 616.828888 54.485764 
L 616.707249 54.491872 
L 616.585517 54.496236 
L 616.463725 54.498855 
L 616.341902 54.499728 
L 616.341902 54.499728 
L 100.800772 54.499728 
z
" clip-path="url(#p66526c876b)" style="fill: none; stroke: #000000; stroke-linejoin: miter"/>
   </g>
  </g>
 </g>
 <defs>
  <clipPath id="p66526c876b">
   <rect x="92.565057" y="28.240625" width="558" height="55.44"/>
  </clipPath>
 </defs>
</svg>
