<?xml version="1.0" encoding="utf-8" standalone="no"?>
<!DOCTYPE svg PUBLIC "-//W3C//DTD SVG 1.1//EN"
  "http://www.w3.org/Graphics/SVG/1.1/DTD/svg11.dtd">
<svg xmlns:xlink="http://www.w3.org/1999/xlink" width="622.537557pt" height="107.55875pt" viewBox="0 0 622.537557 107.55875" xmlns="http://www.w3.org/2000/svg" version="1.1">
 <metadata>
  <rdf:RDF xmlns:dc="http://purl.org/dc/elements/1.1/" xmlns:cc="http://creativecommons.org/ns#" xmlns:rdf="http://www.w3.org/1999/02/22-rdf-syntax-ns#">
   <cc:Work>
    <dc:type rdf:resource="http://purl.org/dc/dcmitype/StillImage"/>
    <dc:date>2026-04-10T22:38:22.039965</dc:date>
    <dc:format>image/svg+xml</dc:format>
    <dc:creator>
     <cc:Agent>
      <dc:title>Matplotlib v3.10.8, https://matplotlib.org/</dc:title>
     </cc:Agent>
    </dc:creator>
   </cc:Work>
  </rdf:RDF>
 </metadata>
 <defs>
  <style type="text/css">*{stroke-linejoin: round; stroke-linecap: butt}</style>
 </defs>
 <g id="figure_1">
  <g id="patch_1">
   <path d="M 0 107.55875 
L 622.537557 107.55875 
L 622.537557 0 
L 0 0 
z
" style="fill: #ffffff"/>
  </g>
  <g id="axes_1">
   <g id="patch_2">
    <path d="M 57.337557 83.680625 
L 615.337557 83.680625 
L 615.337557 28.240625 
L 57.337557 28.240625 
z
" style="fill: #ffffff"/>
   </g>
   <g id="matplotlib.axis_1">
    <g id="xtick_1">
     <g id="line2d_1">
      <defs>
       <path id="m6d50d7bb81" d="M 0 0 
L 0 3.5 
" style="stroke: #000000; stroke-width: 0.8"/>
      </defs>
      <g>
       <use xlink:href="#m6d50d7bb81" x="57.895" y="83.680625" style="stroke: #000000; stroke-width: 0.8"/>
      </g>
     </g>
     <g id="text_1">
      <!-- 0 Mbp -->
      <g transform="translate(42.462187 98.279063) scale(0.1 -0.1)">
       <defs>
        <path id="DejaVuSans-30" d="M 2034 4250 
Q 1547 4250 1301 3770 
Q 1056 3291 1056 2328 
Q 1056 1369 1301 889 
Q 1547 409 2034 409 
Q 2525 409 2770 889 
Q 3016 1369 3016 2328 
Q 3016 3291 2770 3770 
Q 2525 4250 2034 4250 
z
M 2034 4750 
Q 2819 4750 3233 4129 
Q 3647 3509 3647 2328 
Q 3647 1150 3233 529 
Q 2819 -91 2034 -91 
Q 1250 -91 836 529 
Q 422 1150 422 2328 
Q 422 3509 836 4129 
Q 1250 4750 2034 4750 
z
" transform="scale(0.015625)"/>
        <path id="DejaVuSans-20" transform="scale(0.015625)"/>
        <path id="DejaVuSans-4d" d="M 628 4666 
L 1569 4666 
L 2759 1491 
L 3956 4666 
L 4897 4666 
L 4897 0 
L 4281 0 
L 4281 4097 
L 3078 897 
L 2444 897 
L 1241 4097 
L 1241 0 
L 628 0 
L 628 4666 
z
" transform="scale(0.015625)"/>
        <path id="DejaVuSans-62" d="M 3116 1747 
Q 3116 2381 2855 2742 
Q 2594 3103 2138 3103 
Q 1681 3103 1420 2742 
Q 1159 2381 1159 1747 
Q 1159 1113 1420 752 
Q 1681 391 2138 391 
Q 2594 391 2855 752 
Q 3116 1113 3116 1747 
z
M 1159 2969 
Q 1341 3281 1617 3432 
Q 1894 3584 2278 3584 
Q 2916 3584 3314 3078 
Q 3713 2572 3713 1747 
Q 3713 922 3314 415 
Q 2916 -91 2278 -91 
Q 1894 -91 1617 61 
Q 1341 213 1159 525 
L 1159 0 
L 581 0 
L 581 4863 
L 1159 4863 
L 1159 2969 
z
" transform="scale(0.015625)"/>
        <path id="DejaVuSans-70" d="M 1159 525 
L 1159 -1331 
L 581 -1331 
L 581 3500 
L 1159 3500 
L 1159 2969 
Q 1341 3281 1617 3432 
Q 1894 3584 2278 3584 
Q 2916 3584 3314 3078 
Q 3713 2572 3713 1747 
Q 3713 922 3314 415 
Q 2916 -91 2278 -91 
Q 1894 -91 1617 61 
Q 1341 213 1159 525 
z
M 3116 1747 
Q 3116 2381 2855 2742 
Q 2594 3103 2138 3103 
Q 1681 3103 1420 2742 
Q 1159 2381 1159 1747 
Q 1159 1113 1420 752 
Q 1681 391 2138 391 
Q 2594 391 2855 752 
Q 3116 1113 3116 1747 
z
" transform="scale(0.015625)"/>
       </defs>
       <use xlink:href="#DejaVuSans-30"/>
       <use xlink:href="#DejaVuSans-20" transform="translate(63.623047 0)"/>
       <use xlink:href="#DejaVuSans-4d" transform="translate(95.410156 0)"/>
       <use xlink:href="#DejaVuSans-62" transform="translate(181.689453 0)"/>
       <use xlink:href="#DejaVuSans-70" transform="translate(245.166016 0)"/>
      </g>
     </g>
    </g>
    <g id="xtick_2">
     <g id="line2d_2">
      <g>
       <use xlink:href="#m6d50d7bb81" x="179.275244" y="83.680625" style="stroke: #000000; stroke-width: 0.8"/>
      </g>
     </g>
     <g id="text_2">
      <!-- 50 Mbp -->
      <g transform="translate(160.661182 98.279063) scale(0.1 -0.1)">
       <defs>
        <path id="DejaVuSans-35" d="M 691 4666 
L 3169 4666 
L 3169 4134 
L 1269 4134 
L 1269 2991 
Q 1406 3038 1543 3061 
Q 1681 3084 1819 3084 
Q 2600 3084 3056 2656 
Q 3513 2228 3513 1497 
Q 3513 744 3044 326 
Q 2575 -91 1722 -91 
Q 1428 -91 1123 -41 
Q 819 9 494 109 
L 494 744 
Q 775 591 1075 516 
Q 1375 441 1709 441 
Q 2250 441 2565 725 
Q 2881 1009 2881 1497 
Q 2881 1984 2565 2268 
Q 2250 2553 1709 2553 
Q 1456 2553 1204 2497 
Q 953 2441 691 2322 
L 691 4666 
z
" transform="scale(0.015625)"/>
       </defs>
       <use xlink:href="#DejaVuSans-35"/>
       <use xlink:href="#DejaVuSans-30" transform="translate(63.623047 0)"/>
       <use xlink:href="#DejaVuSans-20" transform="translate(127.246094 0)"/>
       <use xlink:href="#DejaVuSans-4d" transform="translate(159.033203 0)"/>
       <use xlink:href="#DejaVuSans-62" transform="translate(245.3125 0)"/>
       <use xlink:href="#DejaVuSans-70" transform="translate(308.789062 0)"/>
      </g>
     </g>
    </g>
    <g id="xtick_3">
     <g id="line2d_3">
      <g>
       <use xlink:href="#m6d50d7bb81" x="300.655489" y="83.680625" style="stroke: #000000; stroke-width: 0.8"/>
      </g>
     </g>
     <g id="text_3">
      <!-- 100 Mbp -->
      <g transform="translate(278.860176 98.279063) scale(0.1 -0.1)">
       <defs>
        <path id="DejaVuSans-31" d="M 794 531 
L 1825 531 
L 1825 4091 
L 703 3866 
L 703 4441 
L 1819 4666 
L 2450 4666 
L 2450 531 
L 3481 531 
L 3481 0 
L 794 0 
L 794 531 
z
" transform="scale(0.015625)"/>
       </defs>
       <use xlink:href="#DejaVuSans-31"/>
       <use xlink:href="#DejaVuSans-30" transform="translate(63.623047 0)"/>
       <use xlink:href="#DejaVuSans-30" transform="translate(127.246094 0)"/>
       <use xlink:href="#DejaVuSans-20" transform="translate(190.869141 0)"/>
       <use xlink:href="#DejaVuSans-4d" transform="translate(222.65625 0)"/>
       <use xlink:href="#DejaVuSans-62" transform="translate(308.935547 0)"/>
       <use xlink:href="#DejaVuSans-70" transform="translate(372.412109 0)"/>
      </g>
     </g>
    </g>
    <g id="xtick_4">
     <g id="line2d_4">
      <g>
       <use xlink:href="#m6d50d7bb81" x="422.035733" y="83.680625" style="stroke: #000000; stroke-width: 0.8"/>
      </g>
     </g>
     <g id="text_4">
      <!-- 150 Mbp -->
      <g transform="translate(400.240421 98.279063) scale(0.1 -0.1)">
       <use xlink:href="#DejaVuSans-31"/>
       <use xlink:href="#DejaVuSans-35" transform="translate(63.623047 0)"/>
       <use xlink:href="#DejaVuSans-30" transform="translate(127.246094 0)"/>
       <use xlink:href="#DejaVuSans-20" transform="translate(190.869141 0)"/>
       <use xlink:href="#DejaVuSans-4d" transform="translate(222.65625 0)"/>
       <use xlink:href="#DejaVuSans-62" transform="translate(308.935547 0)"/>
       <use xlink:href="#DejaVuSans-70" transform="translate(372.412109 0)"/>
      </g>
     </g>
    </g>
    <g id="xtick_5">
     <g id="line2d_5">
      <g>
       <use xlink:href="#m6d50d7bb81" x="543.415978" y="83.680625" style="stroke: #000000; stroke-width: 0.8"/>
      </g>
     </g>
     <g id="text_5">
      <!-- 200 Mbp -->
      <g transform="translate(521.620665 98.279063) scale(0.1 -0.1)">
       <defs>
        <path id="DejaVuSans-32" d="M 1228 531 
L 3431 531 
L 3431 0 
L 469 0 
L 469 531 
Q 828 903 1448 1529 
Q 2069 2156 2228 2338 
Q 2531 2678 2651 2914 
Q 2772 3150 2772 3378 
Q 2772 3750 2511 3984 
Q 2250 4219 1831 4219 
Q 1534 4219 1204 4116 
Q 875 4013 500 3803 
L 500 4441 
Q 881 4594 1212 4672 
Q 1544 4750 1819 4750 
Q 2544 4750 2975 4387 
Q 3406 4025 3406 3419 
Q 3406 3131 3298 2873 
Q 3191 2616 2906 2266 
Q 2828 2175 2409 1742 
Q 1991 1309 1228 531 
z
" transform="scale(0.015625)"/>
       </defs>
       <use xlink:href="#DejaVuSans-32"/>
       <use xlink:href="#DejaVuSans-30" transform="translate(63.623047 0)"/>
       <use xlink:href="#DejaVuSans-30" transform="translate(127.246094 0)"/>
       <use xlink:href="#DejaVuSans-20" transform="translate(190.869141 0)"/>
       <use xlink:href="#DejaVuSans-4d" transform="translate(222.65625 0)"/>
       <use xlink:href="#DejaVuSans-62" transform="translate(308.935547 0)"/>
       <use xlink:href="#DejaVuSans-70" transform="translate(372.412109 0)"/>
      </g>
     </g>
    </g>
   </g>
   <g id="patch_3">
    <path d="M 57.337557 83.680625 
L 57.337557 28.240625 
" style="fill: none"/>
   </g>
   <g id="patch_4">
    <path d="M 615.337557 83.680625 
L 615.337557 28.240625 
" style="fill: none"/>
   </g>
   <g id="patch_5">
    <path d="M 57.337557 83.680625 
L 615.337557 83.680625 
" style="fill: none; stroke: #000000; stroke-width: 0.8; stroke-linejoin: miter; stroke-linecap: square"/>
   </g>
   <g id="patch_6">
    <path d="M 57.337557 28.240625 
L 615.337557 28.240625 
" style="fill: none"/>
   </g>
   <g id="text_6">
    <!-- chr1 -->
    <g transform="translate(7.2 58.617478) scale(0.16 -0.16)">
     <defs>
      <path id="DejaVuSans-63" d="M 3122 3366 
L 3122 2828 
Q 2878 2963 2633 3030 
Q 2388 3097 2138 3097 
Q 1578 3097 1268 2742 
Q 959 2388 959 1747 
Q 959 1106 1268 751 
Q 1578 397 2138 397 
Q 2388 397 2633 464 
Q 2878 531 3122 666 
L 3122 134 
Q 2881 22 2623 -34 
Q 2366 -91 2075 -91 
Q 1284 -91 818 406 
Q 353 903 353 1747 
Q 353 2603 823 3093 
Q 1294 3584 2113 3584 
Q 2378 3584 2631 3529 
Q 2884 3475 3122 3366 
z
" transform="scale(0.015625)"/>
      <path id="DejaVuSans-68" d="M 3513 2113 
L 3513 0 
L 2938 0 
L 2938 2094 
Q 2938 2591 2744 2837 
Q 2550 3084 2163 3084 
Q 1697 3084 1428 2787 
Q 1159 2491 1159 1978 
L 1159 0 
L 581 0 
L 581 4863 
L 1159 4863 
L 1159 2956 
Q 1366 3272 1645 3428 
Q 1925 3584 2291 3584 
Q 2894 3584 3203 3211 
Q 3513 2838 3513 2113 
z
" transform="scale(0.015625)"/>
      <path id="DejaVuSans-72" d="M 2631 2963 
Q 2534 3019 2420 3045 
Q 2306 3072 2169 3072 
Q 1681 3072 1420 2755 
Q 1159 2438 1159 1844 
L 1159 0 
L 581 0 
L 581 3500 
L 1159 3500 
L 1159 2956 
Q 1341 3275 1631 3429 
Q 1922 3584 2338 3584 
Q 2397 3584 2469 3576 
Q 2541 3569 2628 3553 
L 2631 2963 
z
" transform="scale(0.015625)"/>
     </defs>
     <use xlink:href="#DejaVuSans-63"/>
     <use xlink:href="#DejaVuSans-68" transform="translate(54.980469 0)"/>
     <use xlink:href="#DejaVuSans-72" transform="translate(118.359375 0)"/>
     <use xlink:href="#DejaVuSans-31" transform="translate(159.472656 0)"/>
    </g>
   </g>
   <g id="text_7">
    <!-- Coverage -->
    <g transform="translate(283.206307 22.240625) scale(0.2 -0.2)">
     <defs>
      <path id="DejaVuSans-Bold-43" d="M 4288 256 
Q 3956 84 3597 -3 
Q 3238 -91 2847 -91 
Q 1681 -91 1000 561 
Q 319 1213 319 2328 
Q 319 3447 1000 4098 
Q 1681 4750 2847 4750 
Q 3238 4750 3597 4662 
Q 3956 4575 4288 4403 
L 4288 3438 
Q 3953 3666 3628 3772 
Q 3303 3878 2944 3878 
Q 2300 3878 1931 3465 
Q 1563 3053 1563 2328 
Q 1563 1606 1931 1193 
Q 2300 781 2944 781 
Q 3303 781 3628 887 
Q 3953 994 4288 1222 
L 4288 256 
z
" transform="scale(0.015625)"/>
      <path id="DejaVuSans-Bold-6f" d="M 2203 2784 
Q 1831 2784 1636 2517 
Q 1441 2250 1441 1747 
Q 1441 1244 1636 976 
Q 1831 709 2203 709 
Q 2569 709 2762 976 
Q 2956 1244 2956 1747 
Q 2956 2250 2762 2517 
Q 2569 2784 2203 2784 
z
M 2203 3584 
Q 3106 3584 3614 3096 
Q 4122 2609 4122 1747 
Q 4122 884 3614 396 
Q 3106 -91 2203 -91 
Q 1297 -91 786 396 
Q 275 884 275 1747 
Q 275 2609 786 3096 
Q 1297 3584 2203 3584 
z
" transform="scale(0.015625)"/>
      <path id="DejaVuSans-Bold-76" d="M 97 3500 
L 1216 3500 
L 2088 1081 
L 2956 3500 
L 4078 3500 
L 2700 0 
L 1472 0 
L 97 3500 
z
" transform="scale(0.015625)"/>
      <path id="DejaVuSans-Bold-65" d="M 4031 1759 
L 4031 1441 
L 1416 1441 
Q 1456 1047 1700 850 
Q 1944 653 2381 653 
Q 2734 653 3104 758 
Q 3475 863 3866 1075 
L 3866 213 
Q 3469 63 3072 -14 
Q 2675 -91 2278 -91 
Q 1328 -91 801 392 
Q 275 875 275 1747 
Q 275 2603 792 3093 
Q 1309 3584 2216 3584 
Q 3041 3584 3536 3087 
Q 4031 2591 4031 1759 
z
M 2881 2131 
Q 2881 2450 2695 2645 
Q 2509 2841 2209 2841 
Q 1884 2841 1681 2658 
Q 1478 2475 1428 2131 
L 2881 2131 
z
" transform="scale(0.015625)"/>
      <path id="DejaVuSans-Bold-72" d="M 3138 2547 
Q 2991 2616 2845 2648 
Q 2700 2681 2553 2681 
Q 2122 2681 1889 2404 
Q 1656 2128 1656 1613 
L 1656 0 
L 538 0 
L 538 3500 
L 1656 3500 
L 1656 2925 
Q 1872 3269 2151 3426 
Q 2431 3584 2822 3584 
Q 2878 3584 2943 3579 
Q 3009 3575 3134 3559 
L 3138 2547 
z
" transform="scale(0.015625)"/>
      <path id="DejaVuSans-Bold-61" d="M 2106 1575 
Q 1756 1575 1579 1456 
Q 1403 1338 1403 1106 
Q 1403 894 1545 773 
Q 1688 653 1941 653 
Q 2256 653 2472 879 
Q 2688 1106 2688 1447 
L 2688 1575 
L 2106 1575 
z
M 3816 1997 
L 3816 0 
L 2688 0 
L 2688 519 
Q 2463 200 2181 54 
Q 1900 -91 1497 -91 
Q 953 -91 614 226 
Q 275 544 275 1050 
Q 275 1666 698 1953 
Q 1122 2241 2028 2241 
L 2688 2241 
L 2688 2328 
Q 2688 2594 2478 2717 
Q 2269 2841 1825 2841 
Q 1466 2841 1156 2769 
Q 847 2697 581 2553 
L 581 3406 
Q 941 3494 1303 3539 
Q 1666 3584 2028 3584 
Q 2975 3584 3395 3211 
Q 3816 2838 3816 1997 
z
" transform="scale(0.015625)"/>
      <path id="DejaVuSans-Bold-67" d="M 2919 594 
Q 2688 288 2409 144 
Q 2131 0 1766 0 
Q 1125 0 706 504 
Q 288 1009 288 1791 
Q 288 2575 706 3076 
Q 1125 3578 1766 3578 
Q 2131 3578 2409 3434 
Q 2688 3291 2919 2981 
L 2919 3500 
L 4044 3500 
L 4044 353 
Q 4044 -491 3511 -936 
Q 2978 -1381 1966 -1381 
Q 1638 -1381 1331 -1331 
Q 1025 -1281 716 -1178 
L 716 -306 
Q 1009 -475 1290 -558 
Q 1572 -641 1856 -641 
Q 2406 -641 2662 -400 
Q 2919 -159 2919 353 
L 2919 594 
z
M 2181 2772 
Q 1834 2772 1640 2515 
Q 1447 2259 1447 1791 
Q 1447 1309 1634 1061 
Q 1822 813 2181 813 
Q 2531 813 2725 1069 
Q 2919 1325 2919 1791 
Q 2919 2259 2725 2515 
Q 2531 2772 2181 2772 
z
" transform="scale(0.015625)"/>
     </defs>
     <use xlink:href="#DejaVuSans-Bold-43"/>
     <use xlink:href="#DejaVuSans-Bold-6f" transform="translate(73.388672 0)"/>
     <use xlink:href="#DejaVuSans-Bold-76" transform="translate(142.089844 0)"/>
     <use xlink:href="#DejaVuSans-Bold-65" transform="translate(207.275391 0)"/>
     <use xlink:href="#DejaVuSans-Bold-72" transform="translate(275.097656 0)"/>
     <use xlink:href="#DejaVuSans-Bold-61" transform="translate(324.414062 0)"/>
     <use xlink:href="#DejaVuSans-Bold-67" transform="translate(391.894531 0)"/>
     <use xlink:href="#DejaVuSans-Bold-65" transform="translate(463.476562 0)"/>
    </g>
   </g>
   <g id="patch_7">
    <path d="M 75.993784 77.090761 
L 75.993784 77.090761 
L 75.70663 77.088703 
L 75.419547 77.08253 
L 75.132609 77.072244 
L 74.845888 77.057846 
L 74.559456 77.039341 
L 74.273386 77.016733 
L 73.987748 76.990028 
L 73.702615 76.959232 
L 73.418059 76.924354 
L 73.134151 76.885402 
L 72.850963 76.842387 
L 72.568567 76.795318 
L 72.287033 76.744207 
L 72.006432 76.689068 
L 71.726834 76.629915 
L 71.448311 76.566762 
L 71.170932 76.499625 
L 70.894768 76.428521 
L 70.619886 76.353468 
L 70.346358 76.274485 
L 70.074252 76.191592 
L 69.803636 76.10481 
L 69.534578 76.01416 
L 69.267146 75.919665 
L 69.001407 75.821349 
L 68.737429 75.719237 
L 68.475278 75.613355 
L 68.215019 75.503729 
L 67.956718 75.390387 
L 67.700441 75.273357 
L 67.446252 75.152669 
L 67.194214 75.028353 
L 66.944392 74.900441 
L 66.696848 74.768964 
L 66.451644 74.633956 
L 66.208843 74.495451 
L 65.968505 74.353484 
L 65.73069 74.20809 
L 65.495459 74.059305 
L 65.262872 73.907169 
L 65.032985 73.751718 
L 64.805858 73.592992 
L 64.581548 73.43103 
L 64.36011 73.265875 
L 64.141601 73.097566 
L 63.926076 72.926147 
L 63.713589 72.751661 
L 63.504193 72.574152 
L 63.297942 72.393663 
L 63.094886 72.210242 
L 62.895078 72.023933 
L 62.698567 71.834784 
L 62.505404 71.642843 
L 62.315636 71.448157 
L 62.129311 71.250777 
L 61.946477 71.05075 
L 61.767179 70.848129 
L 61.591462 70.642963 
L 61.419372 70.435305 
L 61.25095 70.225207 
L 61.08624 70.012721 
L 60.925282 69.797901 
L 60.768118 69.580802 
L 60.614787 69.361477 
L 60.465328 69.139983 
L 60.319777 68.916374 
L 60.178173 68.690708 
L 60.04055 68.46304 
L 59.906943 68.233429 
L 59.777386 68.001932 
L 59.651912 67.768607 
L 59.530551 67.533513 
L 59.413335 67.29671 
L 59.300293 67.058256 
L 59.191453 66.818213 
L 59.086844 66.57664 
L 58.98649 66.333597 
L 58.890418 66.089148 
L 58.798652 65.843352 
L 58.711215 65.596271 
L 58.628128 65.347969 
L 58.549413 65.098508 
L 58.47509 64.847949 
L 58.405176 64.596357 
L 58.339691 64.343794 
L 58.27865 64.090325 
L 58.222069 63.836013 
L 58.169961 63.580922 
L 58.122341 63.325116 
L 58.07922 63.068661 
L 58.040608 62.811619 
L 58.006516 62.554056 
L 57.976953 62.296037 
L 57.951925 62.037627 
L 57.931439 61.778891 
L 57.9155 61.519893 
L 57.904112 61.2607 
L 57.897278 61.001376 
L 57.895 60.741987 
L 57.895 60.741987 
L 57.895 60.741987 
L 57.897278 60.482598 
L 57.904112 60.223275 
L 57.9155 59.964081 
L 57.931439 59.705084 
L 57.951925 59.446348 
L 57.976953 59.187938 
L 58.006516 58.929919 
L 58.040608 58.672356 
L 58.07922 58.415314 
L 58.122341 58.158858 
L 58.169961 57.903053 
L 58.222069 57.647962 
L 58.27865 57.39365 
L 58.339691 57.14018 
L 58.405176 56.887618 
L 58.47509 56.636026 
L 58.549413 56.385467 
L 58.628128 56.136006 
L 58.711215 55.887703 
L 58.798652 55.640623 
L 58.890418 55.394827 
L 58.98649 55.150377 
L 59.086844 54.907335 
L 59.191453 54.665762 
L 59.300293 54.425718 
L 59.413335 54.187265 
L 59.530551 53.950461 
L 59.651912 53.715368 
L 59.777386 53.482043 
L 59.906943 53.250546 
L 60.04055 53.020934 
L 60.178173 52.793267 
L 60.319777 52.5676 
L 60.465328 52.343992 
L 60.614787 52.122497 
L 60.768118 51.903173 
L 60.925282 51.686074 
L 61.08624 51.471254 
L 61.25095 51.258768 
L 61.419372 51.04867 
L 61.591462 50.841012 
L 61.767179 50.635846 
L 61.946477 50.433224 
L 62.129311 50.233198 
L 62.315636 50.035817 
L 62.505404 49.841132 
L 62.698567 49.64919 
L 62.895078 49.460042 
L 63.094886 49.273733 
L 63.297942 49.090312 
L 63.504193 48.909823 
L 63.713589 48.732314 
L 63.926076 48.557827 
L 64.141601 48.386409 
L 64.36011 48.2181 
L 64.581548 48.052944 
L 64.805858 47.890983 
L 65.032985 47.732257 
L 65.262872 47.576806 
L 65.495459 47.424669 
L 65.73069 47.275885 
L 65.968505 47.130491 
L 66.208843 46.988524 
L 66.451644 46.850019 
L 66.696848 46.715011 
L 66.944392 46.583534 
L 67.194214 46.455622 
L 67.446252 46.331306 
L 67.700441 46.210618 
L 67.956718 46.093588 
L 68.215019 45.980246 
L 68.475278 45.87062 
L 68.737429 45.764737 
L 69.001407 45.662626 
L 69.267146 45.56431 
L 69.534578 45.469815 
L 69.803636 45.379165 
L 70.074252 45.292383 
L 70.346358 45.20949 
L 70.619886 45.130507 
L 70.894768 45.055454 
L 71.170932 44.98435 
L 71.448311 44.917213 
L 71.726834 44.85406 
L 72.006432 44.794906 
L 72.287033 44.739768 
L 72.568567 44.688657 
L 72.850963 44.641588 
L 73.134151 44.598572 
L 73.418059 44.559621 
L 73.702615 44.524743 
L 73.987748 44.493947 
L 74.273386 44.467242 
L 74.559456 44.444634 
L 74.845888 44.426129 
L 75.132609 44.411731 
L 75.419547 44.401444 
L 75.70663 44.395271 
L 75.993784 44.393214 
L 75.993784 44.393214 
L 423.357788 44.393214 
L 441.456572 60.741987 
L 459.555357 44.393214 
L 570.693889 44.393214 
L 570.693889 44.393214 
L 570.981044 44.395271 
L 571.268126 44.401444 
L 571.555064 44.411731 
L 571.841785 44.426129 
L 572.128217 44.444634 
L 572.414288 44.467242 
L 572.699926 44.493947 
L 572.985059 44.524743 
L 573.269615 44.559621 
L 573.553523 44.598572 
L 573.83671 44.641588 
L 574.119107 44.688657 
L 574.400641 44.739768 
L 574.681242 44.794906 
L 574.96084 44.85406 
L 575.239363 44.917213 
L 575.516742 44.98435 
L 575.792906 45.055454 
L 576.067787 45.130507 
L 576.341315 45.20949 
L 576.613422 45.292383 
L 576.884038 45.379165 
L 577.153096 45.469815 
L 577.420528 45.56431 
L 577.686267 45.662626 
L 577.950245 45.764737 
L 578.212396 45.87062 
L 578.472655 45.980246 
L 578.730955 46.093588 
L 578.987232 46.210618 
L 579.241422 46.331306 
L 579.493459 46.455622 
L 579.743282 46.583534 
L 579.990826 46.715011 
L 580.236029 46.850019 
L 580.478831 46.988524 
L 580.719169 47.130491 
L 580.956984 47.275885 
L 581.192214 47.424669 
L 581.424802 47.576806 
L 581.654689 47.732257 
L 581.881816 47.890983 
L 582.106126 48.052944 
L 582.327564 48.2181 
L 582.546073 48.386409 
L 582.761598 48.557827 
L 582.974085 48.732314 
L 583.183481 48.909823 
L 583.389732 49.090312 
L 583.592788 49.273733 
L 583.792596 49.460042 
L 583.989106 49.64919 
L 584.18227 49.841132 
L 584.372038 50.035817 
L 584.558363 50.233198 
L 584.741197 50.433224 
L 584.920495 50.635846 
L 585.096211 50.841012 
L 585.268302 51.04867 
L 585.436724 51.258768 
L 585.601434 51.471254 
L 585.762392 51.686074 
L 585.919556 51.903173 
L 586.072887 52.122497 
L 586.222346 52.343992 
L 586.367896 52.5676 
L 586.509501 52.793267 
L 586.647124 53.020934 
L 586.780731 53.250546 
L 586.910288 53.482043 
L 587.035762 53.715368 
L 587.157123 53.950461 
L 587.274339 54.187265 
L 587.387381 54.425718 
L 587.49622 54.665762 
L 587.60083 54.907335 
L 587.701184 55.150377 
L 587.797255 55.394827 
L 587.889022 55.640623 
L 587.976459 55.887703 
L 588.059546 56.136006 
L 588.138261 56.385467 
L 588.212584 56.636026 
L 588.282497 56.887618 
L 588.347983 57.14018 
L 588.409024 57.39365 
L 588.465605 57.647962 
L 588.517713 57.903053 
L 588.565333 58.158858 
L 588.608454 58.415314 
L 588.647066 58.672356 
L 588.681157 58.929919 
L 588.710721 59.187938 
L 588.735749 59.446348 
L 588.756235 59.705084 
L 588.772174 59.964081 
L 588.783562 60.223275 
L 588.790396 60.482598 
L 588.792674 60.741987 
L 588.792674 60.741987 
L 588.792674 60.741987 
L 588.790396 61.001376 
L 588.783562 61.2607 
L 588.772174 61.519893 
L 588.756235 61.778891 
L 588.735749 62.037627 
L 588.710721 62.296037 
L 588.681157 62.554056 
L 588.647066 62.811619 
L 588.608454 63.068661 
L 588.565333 63.325116 
L 588.517713 63.580922 
L 588.465605 63.836013 
L 588.409024 64.090325 
L 588.347983 64.343794 
L 588.282497 64.596357 
L 588.212584 64.847949 
L 588.138261 65.098508 
L 588.059546 65.347969 
L 587.976459 65.596271 
L 587.889022 65.843352 
L 587.797255 66.089148 
L 587.701184 66.333597 
L 587.60083 66.57664 
L 587.49622 66.818213 
L 587.387381 67.058256 
L 587.274339 67.29671 
L 587.157123 67.533513 
L 587.035762 67.768607 
L 586.910288 68.001932 
L 586.780731 68.233429 
L 586.647124 68.46304 
L 586.509501 68.690708 
L 586.367896 68.916374 
L 586.222346 69.139983 
L 586.072887 69.361477 
L 585.919556 69.580802 
L 585.762392 69.797901 
L 585.601434 70.012721 
L 585.436724 70.225207 
L 585.268302 70.435305 
L 585.096211 70.642963 
L 584.920495 70.848129 
L 584.741197 71.05075 
L 584.558363 71.250777 
L 584.372038 71.448157 
L 584.18227 71.642843 
L 583.989106 71.834784 
L 583.792596 72.023933 
L 583.592788 72.210242 
L 583.389732 72.393663 
L 583.183481 72.574152 
L 582.974085 72.751661 
L 582.761598 72.926147 
L 582.546073 73.097566 
L 582.327564 73.265875 
L 582.106126 73.43103 
L 581.881816 73.592992 
L 581.654689 73.751718 
L 581.424802 73.907169 
L 581.192214 74.059305 
L 580.956984 74.20809 
L 580.719169 74.353484 
L 580.478831 74.495451 
L 580.236029 74.633956 
L 579.990826 74.768964 
L 579.743282 74.900441 
L 579.493459 75.028353 
L 579.241422 75.152669 
L 578.987232 75.273357 
L 578.730955 75.390387 
L 578.472655 75.503729 
L 578.212396 75.613355 
L 577.950245 75.719237 
L 577.686267 75.821349 
L 577.420528 75.919665 
L 577.153096 76.01416 
L 576.884038 76.10481 
L 576.613422 76.191592 
L 576.341315 76.274485 
L 576.067787 76.353468 
L 575.792906 76.428521 
L 575.516742 76.499625 
L 575.239363 76.566762 
L 574.96084 76.629915 
L 574.681242 76.689068 
L 574.400641 76.744207 
L 574.119107 76.795318 
L 573.83671 76.842387 
L 573.553523 76.885402 
L 573.269615 76.924354 
L 572.985059 76.959232 
L 572.699926 76.990028 
L 572.414288 77.016733 
L 572.128217 77.039341 
L 571.841785 77.057846 
L 571.555064 77.072244 
L 571.268126 77.08253 
L 570.981044 77.088703 
L 570.693889 77.090761 
L 570.693889 77.090761 
L 459.555357 77.090761 
L 441.456572 60.741987 
L 423.357788 77.090761 
z
" clip-path="url(#p7060d1f01d)" style="fill: #ffffff; stroke: #ffffff; stroke-linejoin: miter"/>
   </g>
   <g id="PatchCollection_1">
    <path d="M 57.895 77.090761 
L 58.866042 77.090761 
L 58.866042 44.393214 
L 57.895 44.393214 
z
" clip-path="url(#p7060d1f01d)" style="fill: #ff0000"/>
    <path d="M 59.497219 77.090761 
L 60.10412 77.090761 
L 60.10412 44.393214 
L 59.497219 44.393214 
z
" clip-path="url(#p7060d1f01d)" style="fill: #ff0000"/>
    <path d="M 60.613917 77.090761 
L 62.895866 77.090761 
L 62.895866 44.393214 
L 60.613917 44.393214 
z
" clip-path="url(#p7060d1f01d)" style="fill: #ff0000"/>
    <path d="M 65.541955 77.090761 
L 65.784716 77.090761 
L 65.784716 44.393214 
L 65.541955 44.393214 
z
" clip-path="url(#p7060d1f01d)" style="fill: #ff0000"/>
    <path d="M 66.415893 77.090761 
L 71.392483 77.090761 
L 71.392483 44.393214 
L 66.415893 44.393214 
z
" clip-path="url(#p7060d1f01d)" style="fill: #ff0000"/>
    <path d="M 72.217869 77.090761 
L 72.970426 77.090761 
L 72.970426 44.393214 
L 72.217869 44.393214 
z
" clip-path="url(#p7060d1f01d)" style="fill: #ff0000"/>
    <path d="M 73.892916 77.090761 
L 74.936786 77.090761 
L 74.936786 44.393214 
L 73.892916 44.393214 
z
" clip-path="url(#p7060d1f01d)" style="fill: #ff0000"/>
    <path d="M 75.859276 77.090761 
L 79.379303 77.090761 
L 79.379303 44.393214 
L 75.859276 44.393214 
z
" clip-path="url(#p7060d1f01d)" style="fill: #ff0000"/>
    <path d="M 80.253241 77.090761 
L 80.738762 77.090761 
L 80.738762 44.393214 
L 80.253241 44.393214 
z
" clip-path="url(#p7060d1f01d)" style="fill: #ff0000"/>
    <path d="M 81.467043 77.090761 
L 89.332483 77.090761 
L 89.332483 44.393214 
L 81.467043 44.393214 
z
" clip-path="url(#p7060d1f01d)" style="fill: #ff0000"/>
   </g>
   <g id="patch_8">
    <path d="M 75.993784 77.090761 
L 75.993784 77.090761 
L 75.70663 77.088703 
L 75.419547 77.08253 
L 75.132609 77.072244 
L 74.845888 77.057846 
L 74.559456 77.039341 
L 74.273386 77.016733 
L 73.987748 76.990028 
L 73.702615 76.959232 
L 73.418059 76.924354 
L 73.134151 76.885402 
L 72.850963 76.842387 
L 72.568567 76.795318 
L 72.287033 76.744207 
L 72.006432 76.689068 
L 71.726834 76.629915 
L 71.448311 76.566762 
L 71.170932 76.499625 
L 70.894768 76.428521 
L 70.619886 76.353468 
L 70.346358 76.274485 
L 70.074252 76.191592 
L 69.803636 76.10481 
L 69.534578 76.01416 
L 69.267146 75.919665 
L 69.001407 75.821349 
L 68.737429 75.719237 
L 68.475278 75.613355 
L 68.215019 75.503729 
L 67.956718 75.390387 
L 67.700441 75.273357 
L 67.446252 75.152669 
L 67.194214 75.028353 
L 66.944392 74.900441 
L 66.696848 74.768964 
L 66.451644 74.633956 
L 66.208843 74.495451 
L 65.968505 74.353484 
L 65.73069 74.20809 
L 65.495459 74.059305 
L 65.262872 73.907169 
L 65.032985 73.751718 
L 64.805858 73.592992 
L 64.581548 73.43103 
L 64.36011 73.265875 
L 64.141601 73.097566 
L 63.926076 72.926147 
L 63.713589 72.751661 
L 63.504193 72.574152 
L 63.297942 72.393663 
L 63.094886 72.210242 
L 62.895078 72.023933 
L 62.698567 71.834784 
L 62.505404 71.642843 
L 62.315636 71.448157 
L 62.129311 71.250777 
L 61.946477 71.05075 
L 61.767179 70.848129 
L 61.591462 70.642963 
L 61.419372 70.435305 
L 61.25095 70.225207 
L 61.08624 70.012721 
L 60.925282 69.797901 
L 60.768118 69.580802 
L 60.614787 69.361477 
L 60.465328 69.139983 
L 60.319777 68.916374 
L 60.178173 68.690708 
L 60.04055 68.46304 
L 59.906943 68.233429 
L 59.777386 68.001932 
L 59.651912 67.768607 
L 59.530551 67.533513 
L 59.413335 67.29671 
L 59.300293 67.058256 
L 59.191453 66.818213 
L 59.086844 66.57664 
L 58.98649 66.333597 
L 58.890418 66.089148 
L 58.798652 65.843352 
L 58.711215 65.596271 
L 58.628128 65.347969 
L 58.549413 65.098508 
L 58.47509 64.847949 
L 58.405176 64.596357 
L 58.339691 64.343794 
L 58.27865 64.090325 
L 58.222069 63.836013 
L 58.169961 63.580922 
L 58.122341 63.325116 
L 58.07922 63.068661 
L 58.040608 62.811619 
L 58.006516 62.554056 
L 57.976953 62.296037 
L 57.951925 62.037627 
L 57.931439 61.778891 
L 57.9155 61.519893 
L 57.904112 61.2607 
L 57.897278 61.001376 
L 57.895 60.741987 
L 57.895 60.741987 
L 57.895 60.741987 
L 57.897278 60.482598 
L 57.904112 60.223275 
L 57.9155 59.964081 
L 57.931439 59.705084 
L 57.951925 59.446348 
L 57.976953 59.187938 
L 58.006516 58.929919 
L 58.040608 58.672356 
L 58.07922 58.415314 
L 58.122341 58.158858 
L 58.169961 57.903053 
L 58.222069 57.647962 
L 58.27865 57.39365 
L 58.339691 57.14018 
L 58.405176 56.887618 
L 58.47509 56.636026 
L 58.549413 56.385467 
L 58.628128 56.136006 
L 58.711215 55.887703 
L 58.798652 55.640623 
L 58.890418 55.394827 
L 58.98649 55.150377 
L 59.086844 54.907335 
L 59.191453 54.665762 
L 59.300293 54.425718 
L 59.413335 54.187265 
L 59.530551 53.950461 
L 59.651912 53.715368 
L 59.777386 53.482043 
L 59.906943 53.250546 
L 60.04055 53.020934 
L 60.178173 52.793267 
L 60.319777 52.5676 
L 60.465328 52.343992 
L 60.614787 52.122497 
L 60.768118 51.903173 
L 60.925282 51.686074 
L 61.08624 51.471254 
L 61.25095 51.258768 
L 61.419372 51.04867 
L 61.591462 50.841012 
L 61.767179 50.635846 
L 61.946477 50.433224 
L 62.129311 50.233198 
L 62.315636 50.035817 
L 62.505404 49.841132 
L 62.698567 49.64919 
L 62.895078 49.460042 
L 63.094886 49.273733 
L 63.297942 49.090312 
L 63.504193 48.909823 
L 63.713589 48.732314 
L 63.926076 48.557827 
L 64.141601 48.386409 
L 64.36011 48.2181 
L 64.581548 48.052944 
L 64.805858 47.890983 
L 65.032985 47.732257 
L 65.262872 47.576806 
L 65.495459 47.424669 
L 65.73069 47.275885 
L 65.968505 47.130491 
L 66.208843 46.988524 
L 66.451644 46.850019 
L 66.696848 46.715011 
L 66.944392 46.583534 
L 67.194214 46.455622 
L 67.446252 46.331306 
L 67.700441 46.210618 
L 67.956718 46.093588 
L 68.215019 45.980246 
L 68.475278 45.87062 
L 68.737429 45.764737 
L 69.001407 45.662626 
L 69.267146 45.56431 
L 69.534578 45.469815 
L 69.803636 45.379165 
L 70.074252 45.292383 
L 70.346358 45.20949 
L 70.619886 45.130507 
L 70.894768 45.055454 
L 71.170932 44.98435 
L 71.448311 44.917213 
L 71.726834 44.85406 
L 72.006432 44.794906 
L 72.287033 44.739768 
L 72.568567 44.688657 
L 72.850963 44.641588 
L 73.134151 44.598572 
L 73.418059 44.559621 
L 73.702615 44.524743 
L 73.987748 44.493947 
L 74.273386 44.467242 
L 74.559456 44.444634 
L 74.845888 44.426129 
L 75.132609 44.411731 
L 75.419547 44.401444 
L 75.70663 44.395271 
L 75.993784 44.393214 
L 75.993784 44.393214 
L 57.895 44.393214 
L 57.895 77.090761 
z
" clip-path="url(#p7060d1f01d)" style="fill: #ffffff; stroke: #ffffff; stroke-linejoin: miter"/>
   </g>
   <g id="patch_9">
    <path d="M 570.693889 44.393214 
L 570.693889 44.393214 
L 570.981044 44.395271 
L 571.268126 44.401444 
L 571.555064 44.411731 
L 571.841785 44.426129 
L 572.128217 44.444634 
L 572.414288 44.467242 
L 572.699926 44.493947 
L 572.985059 44.524743 
L 573.269615 44.559621 
L 573.553523 44.598572 
L 573.83671 44.641588 
L 574.119107 44.688657 
L 574.400641 44.739768 
L 574.681242 44.794906 
L 574.96084 44.85406 
L 575.239363 44.917213 
L 575.516742 44.98435 
L 575.792906 45.055454 
L 576.067787 45.130507 
L 576.341315 45.20949 
L 576.613422 45.292383 
L 576.884038 45.379165 
L 577.153096 45.469815 
L 577.420528 45.56431 
L 577.686267 45.662626 
L 577.950245 45.764737 
L 578.212396 45.87062 
L 578.472655 45.980246 
L 578.730955 46.093588 
L 578.987232 46.210618 
L 579.241422 46.331306 
L 579.493459 46.455622 
L 579.743282 46.583534 
L 579.990826 46.715011 
L 580.236029 46.850019 
L 580.478831 46.988524 
L 580.719169 47.130491 
L 580.956984 47.275885 
L 581.192214 47.424669 
L 581.424802 47.576806 
L 581.654689 47.732257 
L 581.881816 47.890983 
L 582.106126 48.052944 
L 582.327564 48.2181 
L 582.546073 48.386409 
L 582.761598 48.557827 
L 582.974085 48.732314 
L 583.183481 48.909823 
L 583.389732 49.090312 
L 583.592788 49.273733 
L 583.792596 49.460042 
L 583.989106 49.64919 
L 584.18227 49.841132 
L 584.372038 50.035817 
L 584.558363 50.233198 
L 584.741197 50.433224 
L 584.920495 50.635846 
L 585.096211 50.841012 
L 585.268302 51.04867 
L 585.436724 51.258768 
L 585.601434 51.471254 
L 585.762392 51.686074 
L 585.919556 51.903173 
L 586.072887 52.122497 
L 586.222346 52.343992 
L 586.367896 52.5676 
L 586.509501 52.793267 
L 586.647124 53.020934 
L 586.780731 53.250546 
L 586.910288 53.482043 
L 587.035762 53.715368 
L 587.157123 53.950461 
L 587.274339 54.187265 
L 587.387381 54.425718 
L 587.49622 54.665762 
L 587.60083 54.907335 
L 587.701184 55.150377 
L 587.797255 55.394827 
L 587.889022 55.640623 
L 587.976459 55.887703 
L 588.059546 56.136006 
L 588.138261 56.385467 
L 588.212584 56.636026 
L 588.282497 56.887618 
L 588.347983 57.14018 
L 588.409024 57.39365 
L 588.465605 57.647962 
L 588.517713 57.903053 
L 588.565333 58.158858 
L 588.608454 58.415314 
L 588.647066 58.672356 
L 588.681157 58.929919 
L 588.710721 59.187938 
L 588.735749 59.446348 
L 588.756235 59.705084 
L 588.772174 59.964081 
L 588.783562 60.223275 
L 588.790396 60.482598 
L 588.792674 60.741987 
L 588.792674 60.741987 
L 588.792674 60.741987 
L 588.790396 61.001376 
L 588.783562 61.2607 
L 588.772174 61.519893 
L 588.756235 61.778891 
L 588.735749 62.037627 
L 588.710721 62.296037 
L 588.681157 62.554056 
L 588.647066 62.811619 
L 588.608454 63.068661 
L 588.565333 63.325116 
L 588.517713 63.580922 
L 588.465605 63.836013 
L 588.409024 64.090325 
L 588.347983 64.343794 
L 588.282497 64.596357 
L 588.212584 64.847949 
L 588.138261 65.098508 
L 588.059546 65.347969 
L 587.976459 65.596271 
L 587.889022 65.843352 
L 587.797255 66.089148 
L 587.701184 66.333597 
L 587.60083 66.57664 
L 587.49622 66.818213 
L 587.387381 67.058256 
L 587.274339 67.29671 
L 587.157123 67.533513 
L 587.035762 67.768607 
L 586.910288 68.001932 
L 586.780731 68.233429 
L 586.647124 68.46304 
L 586.509501 68.690708 
L 586.367896 68.916374 
L 586.222346 69.139983 
L 586.072887 69.361477 
L 585.919556 69.580802 
L 585.762392 69.797901 
L 585.601434 70.012721 
L 585.436724 70.225207 
L 585.268302 70.435305 
L 585.096211 70.642963 
L 584.920495 70.848129 
L 584.741197 71.05075 
L 584.558363 71.250777 
L 584.372038 71.448157 
L 584.18227 71.642843 
L 583.989106 71.834784 
L 583.792596 72.023933 
L 583.592788 72.210242 
L 583.389732 72.393663 
L 583.183481 72.574152 
L 582.974085 72.751661 
L 582.761598 72.926147 
L 582.546073 73.097566 
L 582.327564 73.265875 
L 582.106126 73.43103 
L 581.881816 73.592992 
L 581.654689 73.751718 
L 581.424802 73.907169 
L 581.192214 74.059305 
L 580.956984 74.20809 
L 580.719169 74.353484 
L 580.478831 74.495451 
L 580.236029 74.633956 
L 579.990826 74.768964 
L 579.743282 74.900441 
L 579.493459 75.028353 
L 579.241422 75.152669 
L 578.987232 75.273357 
L 578.730955 75.390387 
L 578.472655 75.503729 
L 578.212396 75.613355 
L 577.950245 75.719237 
L 577.686267 75.821349 
L 577.420528 75.919665 
L 577.153096 76.01416 
L 576.884038 76.10481 
L 576.613422 76.191592 
L 576.341315 76.274485 
L 576.067787 76.353468 
L 575.792906 76.428521 
L 575.516742 76.499625 
L 575.239363 76.566762 
L 574.96084 76.629915 
L 574.681242 76.689068 
L 574.400641 76.744207 
L 574.119107 76.795318 
L 573.83671 76.842387 
L 573.553523 76.885402 
L 573.269615 76.924354 
L 572.985059 76.959232 
L 572.699926 76.990028 
L 572.414288 77.016733 
L 572.128217 77.039341 
L 571.841785 77.057846 
L 571.555064 77.072244 
L 571.268126 77.08253 
L 570.981044 77.088703 
L 570.693889 77.090761 
L 570.693889 77.090761 
L 588.792674 77.090761 
L 588.792674 44.393214 
z
" clip-path="url(#p7060d1f01d)" style="fill: #ffffff; stroke: #ffffff; stroke-linejoin: miter"/>
   </g>
   <g id="patch_10">
    <path d="M 423.357788 44.393214 
L 441.456572 60.741987 
L 459.555357 44.393214 
z
" clip-path="url(#p7060d1f01d)" style="fill: #ffffff; stroke: #ffffff; stroke-linejoin: miter"/>
   </g>
   <g id="patch_11">
    <path d="M 459.555357 77.090761 
L 441.456572 60.741987 
L 423.357788 77.090761 
z
" clip-path="url(#p7060d1f01d)" style="fill: #ffffff; stroke: #ffffff; stroke-linejoin: miter"/>
   </g>
   <g id="patch_12">
    <path d="M 75.993784 77.090761 
L 75.993784 77.090761 
L 75.70663 77.088703 
L 75.419547 77.08253 
L 75.132609 77.072244 
L 74.845888 77.057846 
L 74.559456 77.039341 
L 74.273386 77.016733 
L 73.987748 76.990028 
L 73.702615 76.959232 
L 73.418059 76.924354 
L 73.134151 76.885402 
L 72.850963 76.842387 
L 72.568567 76.795318 
L 72.287033 76.744207 
L 72.006432 76.689068 
L 71.726834 76.629915 
L 71.448311 76.566762 
L 71.170932 76.499625 
L 70.894768 76.428521 
L 70.619886 76.353468 
L 70.346358 76.274485 
L 70.074252 76.191592 
L 69.803636 76.10481 
L 69.534578 76.01416 
L 69.267146 75.919665 
L 69.001407 75.821349 
L 68.737429 75.719237 
L 68.475278 75.613355 
L 68.215019 75.503729 
L 67.956718 75.390387 
L 67.700441 75.273357 
L 67.446252 75.152669 
L 67.194214 75.028353 
L 66.944392 74.900441 
L 66.696848 74.768964 
L 66.451644 74.633956 
L 66.208843 74.495451 
L 65.968505 74.353484 
L 65.73069 74.20809 
L 65.495459 74.059305 
L 65.262872 73.907169 
L 65.032985 73.751718 
L 64.805858 73.592992 
L 64.581548 73.43103 
L 64.36011 73.265875 
L 64.141601 73.097566 
L 63.926076 72.926147 
L 63.713589 72.751661 
L 63.504193 72.574152 
L 63.297942 72.393663 
L 63.094886 72.210242 
L 62.895078 72.023933 
L 62.698567 71.834784 
L 62.505404 71.642843 
L 62.315636 71.448157 
L 62.129311 71.250777 
L 61.946477 71.05075 
L 61.767179 70.848129 
L 61.591462 70.642963 
L 61.419372 70.435305 
L 61.25095 70.225207 
L 61.08624 70.012721 
L 60.925282 69.797901 
L 60.768118 69.580802 
L 60.614787 69.361477 
L 60.465328 69.139983 
L 60.319777 68.916374 
L 60.178173 68.690708 
L 60.04055 68.46304 
L 59.906943 68.233429 
L 59.777386 68.001932 
L 59.651912 67.768607 
L 59.530551 67.533513 
L 59.413335 67.29671 
L 59.300293 67.058256 
L 59.191453 66.818213 
L 59.086844 66.57664 
L 58.98649 66.333597 
L 58.890418 66.089148 
L 58.798652 65.843352 
L 58.711215 65.596271 
L 58.628128 65.347969 
L 58.549413 65.098508 
L 58.47509 64.847949 
L 58.405176 64.596357 
L 58.339691 64.343794 
L 58.27865 64.090325 
L 58.222069 63.836013 
L 58.169961 63.580922 
L 58.122341 63.325116 
L 58.07922 63.068661 
L 58.040608 62.811619 
L 58.006516 62.554056 
L 57.976953 62.296037 
L 57.951925 62.037627 
L 57.931439 61.778891 
L 57.9155 61.519893 
L 57.904112 61.2607 
L 57.897278 61.001376 
L 57.895 60.741987 
L 57.895 60.741987 
L 57.895 60.741987 
L 57.897278 60.482598 
L 57.904112 60.223275 
L 57.9155 59.964081 
L 57.931439 59.705084 
L 57.951925 59.446348 
L 57.976953 59.187938 
L 58.006516 58.929919 
L 58.040608 58.672356 
L 58.07922 58.415314 
L 58.122341 58.158858 
L 58.169961 57.903053 
L 58.222069 57.647962 
L 58.27865 57.39365 
L 58.339691 57.14018 
L 58.405176 56.887618 
L 58.47509 56.636026 
L 58.549413 56.385467 
L 58.628128 56.136006 
L 58.711215 55.887703 
L 58.798652 55.640623 
L 58.890418 55.394827 
L 58.98649 55.150377 
L 59.086844 54.907335 
L 59.191453 54.665762 
L 59.300293 54.425718 
L 59.413335 54.187265 
L 59.530551 53.950461 
L 59.651912 53.715368 
L 59.777386 53.482043 
L 59.906943 53.250546 
L 60.04055 53.020934 
L 60.178173 52.793267 
L 60.319777 52.5676 
L 60.465328 52.343992 
L 60.614787 52.122497 
L 60.768118 51.903173 
L 60.925282 51.686074 
L 61.08624 51.471254 
L 61.25095 51.258768 
L 61.419372 51.04867 
L 61.591462 50.841012 
L 61.767179 50.635846 
L 61.946477 50.433224 
L 62.129311 50.233198 
L 62.315636 50.035817 
L 62.505404 49.841132 
L 62.698567 49.64919 
L 62.895078 49.460042 
L 63.094886 49.273733 
L 63.297942 49.090312 
L 63.504193 48.909823 
L 63.713589 48.732314 
L 63.926076 48.557827 
L 64.141601 48.386409 
L 64.36011 48.2181 
L 64.581548 48.052944 
L 64.805858 47.890983 
L 65.032985 47.732257 
L 65.262872 47.576806 
L 65.495459 47.424669 
L 65.73069 47.275885 
L 65.968505 47.130491 
L 66.208843 46.988524 
L 66.451644 46.850019 
L 66.696848 46.715011 
L 66.944392 46.583534 
L 67.194214 46.455622 
L 67.446252 46.331306 
L 67.700441 46.210618 
L 67.956718 46.093588 
L 68.215019 45.980246 
L 68.475278 45.87062 
L 68.737429 45.764737 
L 69.001407 45.662626 
L 69.267146 45.56431 
L 69.534578 45.469815 
L 69.803636 45.379165 
L 70.074252 45.292383 
L 70.346358 45.20949 
L 70.619886 45.130507 
L 70.894768 45.055454 
L 71.170932 44.98435 
L 71.448311 44.917213 
L 71.726834 44.85406 
L 72.006432 44.794906 
L 72.287033 44.739768 
L 72.568567 44.688657 
L 72.850963 44.641588 
L 73.134151 44.598572 
L 73.418059 44.559621 
L 73.702615 44.524743 
L 73.987748 44.493947 
L 74.273386 44.467242 
L 74.559456 44.444634 
L 74.845888 44.426129 
L 75.132609 44.411731 
L 75.419547 44.401444 
L 75.70663 44.395271 
L 75.993784 44.393214 
L 75.993784 44.393214 
L 423.357788 44.393214 
L 441.456572 60.741987 
L 459.555357 44.393214 
L 570.693889 44.393214 
L 570.693889 44.393214 
L 570.981044 44.395271 
L 571.268126 44.401444 
L 571.555064 44.411731 
L 571.841785 44.426129 
L 572.128217 44.444634 
L 572.414288 44.467242 
L 572.699926 44.493947 
L 572.985059 44.524743 
L 573.269615 44.559621 
L 573.553523 44.598572 
L 573.83671 44.641588 
L 574.119107 44.688657 
L 574.400641 44.739768 
L 574.681242 44.794906 
L 574.96084 44.85406 
L 575.239363 44.917213 
L 575.516742 44.98435 
L 575.792906 45.055454 
L 576.067787 45.130507 
L 576.341315 45.20949 
L 576.613422 45.292383 
L 576.884038 45.379165 
L 577.153096 45.469815 
L 577.420528 45.56431 
L 577.686267 45.662626 
L 577.950245 45.764737 
L 578.212396 45.87062 
L 578.472655 45.980246 
L 578.730955 46.093588 
L 578.987232 46.210618 
L 579.241422 46.331306 
L 579.493459 46.455622 
L 579.743282 46.583534 
L 579.990826 46.715011 
L 580.236029 46.850019 
L 580.478831 46.988524 
L 580.719169 47.130491 
L 580.956984 47.275885 
L 581.192214 47.424669 
L 581.424802 47.576806 
L 581.654689 47.732257 
L 581.881816 47.890983 
L 582.106126 48.052944 
L 582.327564 48.2181 
L 582.546073 48.386409 
L 582.761598 48.557827 
L 582.974085 48.732314 
L 583.183481 48.909823 
L 583.389732 49.090312 
L 583.592788 49.273733 
L 583.792596 49.460042 
L 583.989106 49.64919 
L 584.18227 49.841132 
L 584.372038 50.035817 
L 584.558363 50.233198 
L 584.741197 50.433224 
L 584.920495 50.635846 
L 585.096211 50.841012 
L 585.268302 51.04867 
L 585.436724 51.258768 
L 585.601434 51.471254 
L 585.762392 51.686074 
L 585.919556 51.903173 
L 586.072887 52.122497 
L 586.222346 52.343992 
L 586.367896 52.5676 
L 586.509501 52.793267 
L 586.647124 53.020934 
L 586.780731 53.250546 
L 586.910288 53.482043 
L 587.035762 53.715368 
L 587.157123 53.950461 
L 587.274339 54.187265 
L 587.387381 54.425718 
L 587.49622 54.665762 
L 587.60083 54.907335 
L 587.701184 55.150377 
L 587.797255 55.394827 
L 587.889022 55.640623 
L 587.976459 55.887703 
L 588.059546 56.136006 
L 588.138261 56.385467 
L 588.212584 56.636026 
L 588.282497 56.887618 
L 588.347983 57.14018 
L 588.409024 57.39365 
L 588.465605 57.647962 
L 588.517713 57.903053 
L 588.565333 58.158858 
L 588.608454 58.415314 
L 588.647066 58.672356 
L 588.681157 58.929919 
L 588.710721 59.187938 
L 588.735749 59.446348 
L 588.756235 59.705084 
L 588.772174 59.964081 
L 588.783562 60.223275 
L 588.790396 60.482598 
L 588.792674 60.741987 
L 588.792674 60.741987 
L 588.792674 60.741987 
L 588.790396 61.001376 
L 588.783562 61.2607 
L 588.772174 61.519893 
L 588.756235 61.778891 
L 588.735749 62.037627 
L 588.710721 62.296037 
L 588.681157 62.554056 
L 588.647066 62.811619 
L 588.608454 63.068661 
L 588.565333 63.325116 
L 588.517713 63.580922 
L 588.465605 63.836013 
L 588.409024 64.090325 
L 588.347983 64.343794 
L 588.282497 64.596357 
L 588.212584 64.847949 
L 588.138261 65.098508 
L 588.059546 65.347969 
L 587.976459 65.596271 
L 587.889022 65.843352 
L 587.797255 66.089148 
L 587.701184 66.333597 
L 587.60083 66.57664 
L 587.49622 66.818213 
L 587.387381 67.058256 
L 587.274339 67.29671 
L 587.157123 67.533513 
L 587.035762 67.768607 
L 586.910288 68.001932 
L 586.780731 68.233429 
L 586.647124 68.46304 
L 586.509501 68.690708 
L 586.367896 68.916374 
L 586.222346 69.139983 
L 586.072887 69.361477 
L 585.919556 69.580802 
L 585.762392 69.797901 
L 585.601434 70.012721 
L 585.436724 70.225207 
L 585.268302 70.435305 
L 585.096211 70.642963 
L 584.920495 70.848129 
L 584.741197 71.05075 
L 584.558363 71.250777 
L 584.372038 71.448157 
L 584.18227 71.642843 
L 583.989106 71.834784 
L 583.792596 72.023933 
L 583.592788 72.210242 
L 583.389732 72.393663 
L 583.183481 72.574152 
L 582.974085 72.751661 
L 582.761598 72.926147 
L 582.546073 73.097566 
L 582.327564 73.265875 
L 582.106126 73.43103 
L 581.881816 73.592992 
L 581.654689 73.751718 
L 581.424802 73.907169 
L 581.192214 74.059305 
L 580.956984 74.20809 
L 580.719169 74.353484 
L 580.478831 74.495451 
L 580.236029 74.633956 
L 579.990826 74.768964 
L 579.743282 74.900441 
L 579.493459 75.028353 
L 579.241422 75.152669 
L 578.987232 75.273357 
L 578.730955 75.390387 
L 578.472655 75.503729 
L 578.212396 75.613355 
L 577.950245 75.719237 
L 577.686267 75.821349 
L 577.420528 75.919665 
L 577.153096 76.01416 
L 576.884038 76.10481 
L 576.613422 76.191592 
L 576.341315 76.274485 
L 576.067787 76.353468 
L 575.792906 76.428521 
L 575.516742 76.499625 
L 575.239363 76.566762 
L 574.96084 76.629915 
L 574.681242 76.689068 
L 574.400641 76.744207 
L 574.119107 76.795318 
L 573.83671 76.842387 
L 573.553523 76.885402 
L 573.269615 76.924354 
L 572.985059 76.959232 
L 572.699926 76.990028 
L 572.414288 77.016733 
L 572.128217 77.039341 
L 571.841785 77.057846 
L 571.555064 77.072244 
L 571.268126 77.08253 
L 570.981044 77.088703 
L 570.693889 77.090761 
L 570.693889 77.090761 
L 459.555357 77.090761 
L 441.456572 60.741987 
L 423.357788 77.090761 
L 75.993784 77.090761 
z
" clip-path="url(#p7060d1f01d)" style="fill: none; stroke: #000000; stroke-linejoin: miter"/>
   </g>
  </g>
 </g>
 <defs>
  <clipPath id="p7060d1f01d">
   <rect x="57.337557" y="28.240625" width="558" height="55.44"/>
  </clipPath>
 </defs>
</svg>
