<?xml version="1.0" encoding="utf-8" standalone="no"?>
<!DOCTYPE svg PUBLIC "-//W3C//DTD SVG 1.1//EN"
  "http://www.w3.org/Graphics/SVG/1.1/DTD/svg11.dtd">
<svg xmlns:xlink="http://www.w3.org/1999/xlink" width="622.537557pt" height="107.55875pt" viewBox="0 0 622.537557 107.55875" xmlns="http://www.w3.org/2000/svg" version="1.1">
 <metadata>
  <rdf:RDF xmlns:dc="http://purl.org/dc/elements/1.1/" xmlns:cc="http://creativecommons.org/ns#" xmlns:rdf="http://www.w3.org/1999/02/22-rdf-syntax-ns#">
   <cc:Work>
    <dc:type rdf:resource="http://purl.org/dc/dcmitype/StillImage"/>
    <dc:date>2026-04-10T00:01:14.300710</dc:date>
    <dc:format>image/svg+xml</dc:format>
    <dc:creator>
     <cc:Agent>
      <dc:title>Matplotlib v3.10.8, https://matplotlib.org/</dc:title>
     </cc:Agent>
    </dc:creator>
   </cc:Work>
  </rdf:RDF>
 </metadata>
 <defs>
  <style type="text/css">*{stroke-linejoin: round; stroke-linecap: butt}</style>
 </defs>
 <g id="figure_1">
  <g id="patch_1">
   <path d="M 0 107.55875 
L 622.537557 107.55875 
L 622.537557 0 
L 0 0 
z
" style="fill: #ffffff"/>
  </g>
  <g id="axes_1">
   <g id="patch_2">
    <path d="M 57.337557 83.680625 
L 615.337557 83.680625 
L 615.337557 28.240625 
L 57.337557 28.240625 
z
" style="fill: #ffffff"/>
   </g>
   <g id="matplotlib.axis_1">
    <g id="xtick_1">
     <g id="line2d_1">
      <defs>
       <path id="m1e2992e9e3" d="M 0 0 
L 0 3.5 
" style="stroke: #000000; stroke-width: 0.8"/>
      </defs>
      <g>
       <use xlink:href="#m1e2992e9e3" x="57.895" y="83.680625" style="stroke: #000000; stroke-width: 0.8"/>
      </g>
     </g>
     <g id="text_1">
      <!-- 0 Mbp -->
      <g transform="translate(42.462187 98.279063) scale(0.1 -0.1)">
       <defs>
        <path id="DejaVuSans-30" d="M 2034 4250 
Q 1547 4250 1301 3770 
Q 1056 3291 1056 2328 
Q 1056 1369 1301 889 
Q 1547 409 2034 409 
Q 2525 409 2770 889 
Q 3016 1369 3016 2328 
Q 3016 3291 2770 3770 
Q 2525 4250 2034 4250 
z
M 2034 4750 
Q 2819 4750 3233 4129 
Q 3647 3509 3647 2328 
Q 3647 1150 3233 529 
Q 2819 -91 2034 -91 
Q 1250 -91 836 529 
Q 422 1150 422 2328 
Q 422 3509 836 4129 
Q 1250 4750 2034 4750 
z
" transform="scale(0.015625)"/>
        <path id="DejaVuSans-20" transform="scale(0.015625)"/>
        <path id="DejaVuSans-4d" d="M 628 4666 
L 1569 4666 
L 2759 1491 
L 3956 4666 
L 4897 4666 
L 4897 0 
L 4281 0 
L 4281 4097 
L 3078 897 
L 2444 897 
L 1241 4097 
L 1241 0 
L 628 0 
L 628 4666 
z
" transform="scale(0.015625)"/>
        <path id="DejaVuSans-62" d="M 3116 1747 
Q 3116 2381 2855 2742 
Q 2594 3103 2138 3103 
Q 1681 3103 1420 2742 
Q 1159 2381 1159 1747 
Q 1159 1113 1420 752 
Q 1681 391 2138 391 
Q 2594 391 2855 752 
Q 3116 1113 3116 1747 
z
M 1159 2969 
Q 1341 3281 1617 3432 
Q 1894 3584 2278 3584 
Q 2916 3584 3314 3078 
Q 3713 2572 3713 1747 
Q 3713 922 3314 415 
Q 2916 -91 2278 -91 
Q 1894 -91 1617 61 
Q 1341 213 1159 525 
L 1159 0 
L 581 0 
L 581 4863 
L 1159 4863 
L 1159 2969 
z
" transform="scale(0.015625)"/>
        <path id="DejaVuSans-70" d="M 1159 525 
L 1159 -1331 
L 581 -1331 
L 581 3500 
L 1159 3500 
L 1159 2969 
Q 1341 3281 1617 3432 
Q 1894 3584 2278 3584 
Q 2916 3584 3314 3078 
Q 3713 2572 3713 1747 
Q 3713 922 3314 415 
Q 2916 -91 2278 -91 
Q 1894 -91 1617 61 
Q 1341 213 1159 525 
z
M 3116 1747 
Q 3116 2381 2855 2742 
Q 2594 3103 2138 3103 
Q 1681 3103 1420 2742 
Q 1159 2381 1159 1747 
Q 1159 1113 1420 752 
Q 1681 391 2138 391 
Q 2594 391 2855 752 
Q 3116 1113 3116 1747 
z
" transform="scale(0.015625)"/>
       </defs>
       <use xlink:href="#DejaVuSans-30"/>
       <use xlink:href="#DejaVuSans-20" transform="translate(63.623047 0)"/>
       <use xlink:href="#DejaVuSans-4d" transform="translate(95.410156 0)"/>
       <use xlink:href="#DejaVuSans-62" transform="translate(181.689453 0)"/>
       <use xlink:href="#DejaVuSans-70" transform="translate(245.166016 0)"/>
      </g>
     </g>
    </g>
    <g id="xtick_2">
     <g id="line2d_2">
      <g>
       <use xlink:href="#m1e2992e9e3" x="179.275244" y="83.680625" style="stroke: #000000; stroke-width: 0.8"/>
      </g>
     </g>
     <g id="text_2">
      <!-- 50 Mbp -->
      <g transform="translate(160.661182 98.279063) scale(0.1 -0.1)">
       <defs>
        <path id="DejaVuSans-35" d="M 691 4666 
L 3169 4666 
L 3169 4134 
L 1269 4134 
L 1269 2991 
Q 1406 3038 1543 3061 
Q 1681 3084 1819 3084 
Q 2600 3084 3056 2656 
Q 3513 2228 3513 1497 
Q 3513 744 3044 326 
Q 2575 -91 1722 -91 
Q 1428 -91 1123 -41 
Q 819 9 494 109 
L 494 744 
Q 775 591 1075 516 
Q 1375 441 1709 441 
Q 2250 441 2565 725 
Q 2881 1009 2881 1497 
Q 2881 1984 2565 2268 
Q 2250 2553 1709 2553 
Q 1456 2553 1204 2497 
Q 953 2441 691 2322 
L 691 4666 
z
" transform="scale(0.015625)"/>
       </defs>
       <use xlink:href="#DejaVuSans-35"/>
       <use xlink:href="#DejaVuSans-30" transform="translate(63.623047 0)"/>
       <use xlink:href="#DejaVuSans-20" transform="translate(127.246094 0)"/>
       <use xlink:href="#DejaVuSans-4d" transform="translate(159.033203 0)"/>
       <use xlink:href="#DejaVuSans-62" transform="translate(245.3125 0)"/>
       <use xlink:href="#DejaVuSans-70" transform="translate(308.789062 0)"/>
      </g>
     </g>
    </g>
    <g id="xtick_3">
     <g id="line2d_3">
      <g>
       <use xlink:href="#m1e2992e9e3" x="300.655489" y="83.680625" style="stroke: #000000; stroke-width: 0.8"/>
      </g>
     </g>
     <g id="text_3">
      <!-- 100 Mbp -->
      <g transform="translate(278.860176 98.279063) scale(0.1 -0.1)">
       <defs>
        <path id="DejaVuSans-31" d="M 794 531 
L 1825 531 
L 1825 4091 
L 703 3866 
L 703 4441 
L 1819 4666 
L 2450 4666 
L 2450 531 
L 3481 531 
L 3481 0 
L 794 0 
L 794 531 
z
" transform="scale(0.015625)"/>
       </defs>
       <use xlink:href="#DejaVuSans-31"/>
       <use xlink:href="#DejaVuSans-30" transform="translate(63.623047 0)"/>
       <use xlink:href="#DejaVuSans-30" transform="translate(127.246094 0)"/>
       <use xlink:href="#DejaVuSans-20" transform="translate(190.869141 0)"/>
       <use xlink:href="#DejaVuSans-4d" transform="translate(222.65625 0)"/>
       <use xlink:href="#DejaVuSans-62" transform="translate(308.935547 0)"/>
       <use xlink:href="#DejaVuSans-70" transform="translate(372.412109 0)"/>
      </g>
     </g>
    </g>
    <g id="xtick_4">
     <g id="line2d_4">
      <g>
       <use xlink:href="#m1e2992e9e3" x="422.035733" y="83.680625" style="stroke: #000000; stroke-width: 0.8"/>
      </g>
     </g>
     <g id="text_4">
      <!-- 150 Mbp -->
      <g transform="translate(400.240421 98.279063) scale(0.1 -0.1)">
       <use xlink:href="#DejaVuSans-31"/>
       <use xlink:href="#DejaVuSans-35" transform="translate(63.623047 0)"/>
       <use xlink:href="#DejaVuSans-30" transform="translate(127.246094 0)"/>
       <use xlink:href="#DejaVuSans-20" transform="translate(190.869141 0)"/>
       <use xlink:href="#DejaVuSans-4d" transform="translate(222.65625 0)"/>
       <use xlink:href="#DejaVuSans-62" transform="translate(308.935547 0)"/>
       <use xlink:href="#DejaVuSans-70" transform="translate(372.412109 0)"/>
      </g>
     </g>
    </g>
    <g id="xtick_5">
     <g id="line2d_5">
      <g>
       <use xlink:href="#m1e2992e9e3" x="543.415978" y="83.680625" style="stroke: #000000; stroke-width: 0.8"/>
      </g>
     </g>
     <g id="text_5">
      <!-- 200 Mbp -->
      <g transform="translate(521.620665 98.279063) scale(0.1 -0.1)">
       <defs>
        <path id="DejaVuSans-32" d="M 1228 531 
L 3431 531 
L 3431 0 
L 469 0 
L 469 531 
Q 828 903 1448 1529 
Q 2069 2156 2228 2338 
Q 2531 2678 2651 2914 
Q 2772 3150 2772 3378 
Q 2772 3750 2511 3984 
Q 2250 4219 1831 4219 
Q 1534 4219 1204 4116 
Q 875 4013 500 3803 
L 500 4441 
Q 881 4594 1212 4672 
Q 1544 4750 1819 4750 
Q 2544 4750 2975 4387 
Q 3406 4025 3406 3419 
Q 3406 3131 3298 2873 
Q 3191 2616 2906 2266 
Q 2828 2175 2409 1742 
Q 1991 1309 1228 531 
z
" transform="scale(0.015625)"/>
       </defs>
       <use xlink:href="#DejaVuSans-32"/>
       <use xlink:href="#DejaVuSans-30" transform="translate(63.623047 0)"/>
       <use xlink:href="#DejaVuSans-30" transform="translate(127.246094 0)"/>
       <use xlink:href="#DejaVuSans-20" transform="translate(190.869141 0)"/>
       <use xlink:href="#DejaVuSans-4d" transform="translate(222.65625 0)"/>
       <use xlink:href="#DejaVuSans-62" transform="translate(308.935547 0)"/>
       <use xlink:href="#DejaVuSans-70" transform="translate(372.412109 0)"/>
      </g>
     </g>
    </g>
   </g>
   <g id="patch_3">
    <path d="M 57.337557 83.680625 
L 57.337557 28.240625 
" style="fill: none"/>
   </g>
   <g id="patch_4">
    <path d="M 615.337557 83.680625 
L 615.337557 28.240625 
" style="fill: none"/>
   </g>
   <g id="patch_5">
    <path d="M 57.337557 83.680625 
L 615.337557 83.680625 
" style="fill: none; stroke: #000000; stroke-width: 0.8; stroke-linejoin: miter; stroke-linecap: square"/>
   </g>
   <g id="patch_6">
    <path d="M 57.337557 28.240625 
L 615.337557 28.240625 
" style="fill: none"/>
   </g>
   <g id="text_6">
    <!-- chr2 -->
    <g transform="translate(7.2 75.560753) scale(0.16 -0.16)">
     <defs>
      <path id="DejaVuSans-63" d="M 3122 3366 
L 3122 2828 
Q 2878 2963 2633 3030 
Q 2388 3097 2138 3097 
Q 1578 3097 1268 2742 
Q 959 2388 959 1747 
Q 959 1106 1268 751 
Q 1578 397 2138 397 
Q 2388 397 2633 464 
Q 2878 531 3122 666 
L 3122 134 
Q 2881 22 2623 -34 
Q 2366 -91 2075 -91 
Q 1284 -91 818 406 
Q 353 903 353 1747 
Q 353 2603 823 3093 
Q 1294 3584 2113 3584 
Q 2378 3584 2631 3529 
Q 2884 3475 3122 3366 
z
" transform="scale(0.015625)"/>
      <path id="DejaVuSans-68" d="M 3513 2113 
L 3513 0 
L 2938 0 
L 2938 2094 
Q 2938 2591 2744 2837 
Q 2550 3084 2163 3084 
Q 1697 3084 1428 2787 
Q 1159 2491 1159 1978 
L 1159 0 
L 581 0 
L 581 4863 
L 1159 4863 
L 1159 2956 
Q 1366 3272 1645 3428 
Q 1925 3584 2291 3584 
Q 2894 3584 3203 3211 
Q 3513 2838 3513 2113 
z
" transform="scale(0.015625)"/>
      <path id="DejaVuSans-72" d="M 2631 2963 
Q 2534 3019 2420 3045 
Q 2306 3072 2169 3072 
Q 1681 3072 1420 2755 
Q 1159 2438 1159 1844 
L 1159 0 
L 581 0 
L 581 3500 
L 1159 3500 
L 1159 2956 
Q 1341 3275 1631 3429 
Q 1922 3584 2338 3584 
Q 2397 3584 2469 3576 
Q 2541 3569 2628 3553 
L 2631 2963 
z
" transform="scale(0.015625)"/>
     </defs>
     <use xlink:href="#DejaVuSans-63"/>
     <use xlink:href="#DejaVuSans-68" transform="translate(54.980469 0)"/>
     <use xlink:href="#DejaVuSans-72" transform="translate(118.359375 0)"/>
     <use xlink:href="#DejaVuSans-32" transform="translate(159.472656 0)"/>
    </g>
   </g>
   <g id="text_7">
    <!-- chr1 -->
    <g transform="translate(7.2 49.204547) scale(0.16 -0.16)">
     <use xlink:href="#DejaVuSans-63"/>
     <use xlink:href="#DejaVuSans-68" transform="translate(54.980469 0)"/>
     <use xlink:href="#DejaVuSans-72" transform="translate(118.359375 0)"/>
     <use xlink:href="#DejaVuSans-31" transform="translate(159.472656 0)"/>
    </g>
   </g>
   <g id="text_8">
    <!-- Coverage -->
    <g transform="translate(283.206307 22.240625) scale(0.2 -0.2)">
     <defs>
      <path id="DejaVuSans-Bold-43" d="M 4288 256 
Q 3956 84 3597 -3 
Q 3238 -91 2847 -91 
Q 1681 -91 1000 561 
Q 319 1213 319 2328 
Q 319 3447 1000 4098 
Q 1681 4750 2847 4750 
Q 3238 4750 3597 4662 
Q 3956 4575 4288 4403 
L 4288 3438 
Q 3953 3666 3628 3772 
Q 3303 3878 2944 3878 
Q 2300 3878 1931 3465 
Q 1563 3053 1563 2328 
Q 1563 1606 1931 1193 
Q 2300 781 2944 781 
Q 3303 781 3628 887 
Q 3953 994 4288 1222 
L 4288 256 
z
" transform="scale(0.015625)"/>
      <path id="DejaVuSans-Bold-6f" d="M 2203 2784 
Q 1831 2784 1636 2517 
Q 1441 2250 1441 1747 
Q 1441 1244 1636 976 
Q 1831 709 2203 709 
Q 2569 709 2762 976 
Q 2956 1244 2956 1747 
Q 2956 2250 2762 2517 
Q 2569 2784 2203 2784 
z
M 2203 3584 
Q 3106 3584 3614 3096 
Q 4122 2609 4122 1747 
Q 4122 884 3614 396 
Q 3106 -91 2203 -91 
Q 1297 -91 786 396 
Q 275 884 275 1747 
Q 275 2609 786 3096 
Q 1297 3584 2203 3584 
z
" transform="scale(0.015625)"/>
      <path id="DejaVuSans-Bold-76" d="M 97 3500 
L 1216 3500 
L 2088 1081 
L 2956 3500 
L 4078 3500 
L 2700 0 
L 1472 0 
L 97 3500 
z
" transform="scale(0.015625)"/>
      <path id="DejaVuSans-Bold-65" d="M 4031 1759 
L 4031 1441 
L 1416 1441 
Q 1456 1047 1700 850 
Q 1944 653 2381 653 
Q 2734 653 3104 758 
Q 3475 863 3866 1075 
L 3866 213 
Q 3469 63 3072 -14 
Q 2675 -91 2278 -91 
Q 1328 -91 801 392 
Q 275 875 275 1747 
Q 275 2603 792 3093 
Q 1309 3584 2216 3584 
Q 3041 3584 3536 3087 
Q 4031 2591 4031 1759 
z
M 2881 2131 
Q 2881 2450 2695 2645 
Q 2509 2841 2209 2841 
Q 1884 2841 1681 2658 
Q 1478 2475 1428 2131 
L 2881 2131 
z
" transform="scale(0.015625)"/>
      <path id="DejaVuSans-Bold-72" d="M 3138 2547 
Q 2991 2616 2845 2648 
Q 2700 2681 2553 2681 
Q 2122 2681 1889 2404 
Q 1656 2128 1656 1613 
L 1656 0 
L 538 0 
L 538 3500 
L 1656 3500 
L 1656 2925 
Q 1872 3269 2151 3426 
Q 2431 3584 2822 3584 
Q 2878 3584 2943 3579 
Q 3009 3575 3134 3559 
L 3138 2547 
z
" transform="scale(0.015625)"/>
      <path id="DejaVuSans-Bold-61" d="M 2106 1575 
Q 1756 1575 1579 1456 
Q 1403 1338 1403 1106 
Q 1403 894 1545 773 
Q 1688 653 1941 653 
Q 2256 653 2472 879 
Q 2688 1106 2688 1447 
L 2688 1575 
L 2106 1575 
z
M 3816 1997 
L 3816 0 
L 2688 0 
L 2688 519 
Q 2463 200 2181 54 
Q 1900 -91 1497 -91 
Q 953 -91 614 226 
Q 275 544 275 1050 
Q 275 1666 698 1953 
Q 1122 2241 2028 2241 
L 2688 2241 
L 2688 2328 
Q 2688 2594 2478 2717 
Q 2269 2841 1825 2841 
Q 1466 2841 1156 2769 
Q 847 2697 581 2553 
L 581 3406 
Q 941 3494 1303 3539 
Q 1666 3584 2028 3584 
Q 2975 3584 3395 3211 
Q 3816 2838 3816 1997 
z
" transform="scale(0.015625)"/>
      <path id="DejaVuSans-Bold-67" d="M 2919 594 
Q 2688 288 2409 144 
Q 2131 0 1766 0 
Q 1125 0 706 504 
Q 288 1009 288 1791 
Q 288 2575 706 3076 
Q 1125 3578 1766 3578 
Q 2131 3578 2409 3434 
Q 2688 3291 2919 2981 
L 2919 3500 
L 4044 3500 
L 4044 353 
Q 4044 -491 3511 -936 
Q 2978 -1381 1966 -1381 
Q 1638 -1381 1331 -1331 
Q 1025 -1281 716 -1178 
L 716 -306 
Q 1009 -475 1290 -558 
Q 1572 -641 1856 -641 
Q 2406 -641 2662 -400 
Q 2919 -159 2919 353 
L 2919 594 
z
M 2181 2772 
Q 1834 2772 1640 2515 
Q 1447 2259 1447 1791 
Q 1447 1309 1634 1061 
Q 1822 813 2181 813 
Q 2531 813 2725 1069 
Q 2919 1325 2919 1791 
Q 2919 2259 2725 2515 
Q 2531 2772 2181 2772 
z
" transform="scale(0.015625)"/>
     </defs>
     <use xlink:href="#DejaVuSans-Bold-43"/>
     <use xlink:href="#DejaVuSans-Bold-6f" transform="translate(73.388672 0)"/>
     <use xlink:href="#DejaVuSans-Bold-76" transform="translate(142.089844 0)"/>
     <use xlink:href="#DejaVuSans-Bold-65" transform="translate(207.275391 0)"/>
     <use xlink:href="#DejaVuSans-Bold-72" transform="translate(275.097656 0)"/>
     <use xlink:href="#DejaVuSans-Bold-61" transform="translate(324.414062 0)"/>
     <use xlink:href="#DejaVuSans-Bold-67" transform="translate(391.894531 0)"/>
     <use xlink:href="#DejaVuSans-Bold-65" transform="translate(463.476562 0)"/>
    </g>
   </g>
   <g id="patch_7">
    <path d="M 65.573272 80.855933 
L 65.573272 80.855933 
L 65.451449 80.85506 
L 65.329656 80.852441 
L 65.207925 80.848077 
L 65.086286 80.841969 
L 64.964769 80.834119 
L 64.843406 80.824527 
L 64.722226 80.813198 
L 64.601261 80.800133 
L 64.48054 80.785337 
L 64.360094 80.768811 
L 64.239954 80.750562 
L 64.12015 80.730594 
L 64.000711 80.70891 
L 63.881668 80.685518 
L 63.763051 80.660423 
L 63.64489 80.633631 
L 63.527214 80.605148 
L 63.410053 80.574983 
L 63.293437 80.543142 
L 63.177394 80.509634 
L 63.061955 80.474468 
L 62.947148 80.437651 
L 62.833003 80.399193 
L 62.719547 80.359105 
L 62.606809 80.317395 
L 62.494818 80.274075 
L 62.383603 80.229155 
L 62.27319 80.182647 
L 62.163608 80.134562 
L 62.054884 80.084913 
L 61.947046 80.033712 
L 61.840121 79.980972 
L 61.734136 79.926707 
L 61.629117 79.870929 
L 61.525092 79.813653 
L 61.422085 79.754893 
L 61.320123 79.694664 
L 61.219232 79.632982 
L 61.119437 79.569861 
L 61.020764 79.505318 
L 60.923236 79.439369 
L 60.826879 79.372031 
L 60.731717 79.30332 
L 60.637774 79.233254 
L 60.545073 79.161851 
L 60.453638 79.089127 
L 60.363492 79.015103 
L 60.274658 78.939796 
L 60.187157 78.863225 
L 60.101012 78.78541 
L 60.016245 78.70637 
L 59.932877 78.626125 
L 59.850929 78.544695 
L 59.770421 78.462101 
L 59.691374 78.378364 
L 59.613808 78.293505 
L 59.537743 78.207544 
L 59.463196 78.120504 
L 59.390188 78.032407 
L 59.318736 77.943274 
L 59.248859 77.853128 
L 59.180574 77.761993 
L 59.113899 77.66989 
L 59.048849 77.576843 
L 58.985442 77.482876 
L 58.923693 77.388012 
L 58.863619 77.292274 
L 58.805233 77.195688 
L 58.748552 77.098277 
L 58.693588 77.000066 
L 58.640356 76.90108 
L 58.58887 76.801343 
L 58.539142 76.700881 
L 58.491185 76.599719 
L 58.445011 76.497883 
L 58.400631 76.395397 
L 58.358056 76.292288 
L 58.317299 76.188582 
L 58.278368 76.084305 
L 58.241273 75.979483 
L 58.206024 75.874143 
L 58.17263 75.768311 
L 58.141099 75.662013 
L 58.111438 75.555277 
L 58.083657 75.448129 
L 58.057761 75.340597 
L 58.033756 75.232707 
L 58.01165 75.124487 
L 57.991448 75.015963 
L 57.973154 74.907163 
L 57.956773 74.798115 
L 57.94231 74.688846 
L 57.929768 74.579384 
L 57.91915 74.469755 
L 57.910459 74.359988 
L 57.903697 74.250111 
L 57.898866 74.14015 
L 57.895966 74.030134 
L 57.895 73.92009 
L 57.895 73.92009 
L 57.895 73.92009 
L 57.895966 73.810046 
L 57.898866 73.70003 
L 57.903697 73.590069 
L 57.910459 73.480192 
L 57.91915 73.370425 
L 57.929768 73.260796 
L 57.94231 73.151334 
L 57.956773 73.042065 
L 57.973154 72.933017 
L 57.991448 72.824217 
L 58.01165 72.715693 
L 58.033756 72.607473 
L 58.057761 72.499583 
L 58.083657 72.392051 
L 58.111438 72.284903 
L 58.141099 72.178167 
L 58.17263 72.071869 
L 58.206024 71.966037 
L 58.241273 71.860697 
L 58.278368 71.755875 
L 58.317299 71.651598 
L 58.358056 71.547892 
L 58.400631 71.444783 
L 58.445011 71.342297 
L 58.491185 71.240461 
L 58.539142 71.139299 
L 58.58887 71.038836 
L 58.640356 70.9391 
L 58.693588 70.840113 
L 58.748552 70.741903 
L 58.805233 70.644492 
L 58.863619 70.547906 
L 58.923693 70.452168 
L 58.985442 70.357304 
L 59.048849 70.263337 
L 59.113899 70.17029 
L 59.180574 70.078187 
L 59.248859 69.987052 
L 59.318736 69.896906 
L 59.390188 69.807773 
L 59.463196 69.719676 
L 59.537743 69.632636 
L 59.613808 69.546675 
L 59.691374 69.461816 
L 59.770421 69.378078 
L 59.850929 69.295485 
L 59.932877 69.214055 
L 60.016245 69.13381 
L 60.101012 69.05477 
L 60.187157 68.976955 
L 60.274658 68.900384 
L 60.363492 68.825077 
L 60.453638 68.751052 
L 60.545073 68.678329 
L 60.637774 68.606926 
L 60.731717 68.53686 
L 60.826879 68.468149 
L 60.923236 68.40081 
L 61.020764 68.334862 
L 61.119437 68.270319 
L 61.219232 68.207198 
L 61.320123 68.145516 
L 61.422085 68.085287 
L 61.525092 68.026527 
L 61.629117 67.969251 
L 61.734136 67.913473 
L 61.840121 67.859207 
L 61.947046 67.806467 
L 62.054884 67.755266 
L 62.163608 67.705617 
L 62.27319 67.657533 
L 62.383603 67.611025 
L 62.494818 67.566105 
L 62.606809 67.522785 
L 62.719547 67.481075 
L 62.833003 67.440987 
L 62.947148 67.402529 
L 63.061955 67.365712 
L 63.177394 67.330545 
L 63.293437 67.297037 
L 63.410053 67.265197 
L 63.527214 67.235032 
L 63.64489 67.206549 
L 63.763051 67.179757 
L 63.881668 67.154662 
L 64.000711 67.131269 
L 64.12015 67.109586 
L 64.239954 67.089618 
L 64.360094 67.071368 
L 64.48054 67.054843 
L 64.601261 67.040047 
L 64.722226 67.026982 
L 64.843406 67.015653 
L 64.964769 67.006061 
L 65.086286 66.998211 
L 65.207925 66.992102 
L 65.329656 66.987738 
L 65.451449 66.98512 
L 65.573272 66.984247 
L 65.573272 66.984247 
L 456.737347 66.984247 
L 456.737347 66.984247 
L 456.85917 66.98512 
L 456.980963 66.987738 
L 457.102694 66.992102 
L 457.224333 66.998211 
L 457.34585 67.006061 
L 457.467213 67.015653 
L 457.588393 67.026982 
L 457.709358 67.040047 
L 457.830079 67.054843 
L 457.950525 67.071368 
L 458.070665 67.089618 
L 458.190469 67.109586 
L 458.309908 67.131269 
L 458.428951 67.154662 
L 458.547568 67.179757 
L 458.665729 67.206549 
L 458.783405 67.235032 
L 458.900566 67.265197 
L 459.017182 67.297037 
L 459.133225 67.330545 
L 459.248664 67.365712 
L 459.363471 67.402529 
L 459.477616 67.440987 
L 459.591072 67.481075 
L 459.70381 67.522785 
L 459.815801 67.566105 
L 459.927016 67.611025 
L 460.037429 67.657533 
L 460.147011 67.705617 
L 460.255735 67.755266 
L 460.363573 67.806467 
L 460.470498 67.859207 
L 460.576483 67.913473 
L 460.681502 67.969251 
L 460.785528 68.026527 
L 460.888534 68.085287 
L 460.990496 68.145516 
L 461.091387 68.207198 
L 461.191182 68.270319 
L 461.289855 68.334862 
L 461.387383 68.40081 
L 461.48374 68.468149 
L 461.578902 68.53686 
L 461.672845 68.606926 
L 461.765546 68.678329 
L 461.856981 68.751052 
L 461.947127 68.825077 
L 462.035961 68.900384 
L 462.123462 68.976955 
L 462.209607 69.05477 
L 462.294374 69.13381 
L 462.377742 69.214055 
L 462.45969 69.295485 
L 462.540198 69.378078 
L 462.619245 69.461816 
L 462.696811 69.546675 
L 462.772876 69.632636 
L 462.847423 69.719676 
L 462.920431 69.807773 
L 462.991883 69.896906 
L 463.06176 69.987052 
L 463.130045 70.078187 
L 463.19672 70.17029 
L 463.26177 70.263337 
L 463.325177 70.357304 
L 463.386926 70.452168 
L 463.447 70.547906 
L 463.505386 70.644492 
L 463.562067 70.741903 
L 463.617031 70.840113 
L 463.670263 70.9391 
L 463.721749 71.038836 
L 463.771477 71.139299 
L 463.819434 71.240461 
L 463.865609 71.342297 
L 463.909988 71.444783 
L 463.952563 71.547892 
L 463.99332 71.651598 
L 464.032251 71.755875 
L 464.069346 71.860697 
L 464.104595 71.966037 
L 464.137989 72.071869 
L 464.16952 72.178167 
L 464.199181 72.284903 
L 464.226962 72.392051 
L 464.252858 72.499583 
L 464.276863 72.607473 
L 464.298969 72.715693 
L 464.319171 72.824217 
L 464.337465 72.933017 
L 464.353846 73.042065 
L 464.368309 73.151334 
L 464.380851 73.260796 
L 464.391469 73.370425 
L 464.40016 73.480192 
L 464.406922 73.590069 
L 464.411753 73.70003 
L 464.414653 73.810046 
L 464.415619 73.92009 
L 464.415619 73.92009 
L 464.415619 73.92009 
L 464.414653 74.030134 
L 464.411753 74.14015 
L 464.406922 74.250111 
L 464.40016 74.359988 
L 464.391469 74.469755 
L 464.380851 74.579384 
L 464.368309 74.688846 
L 464.353846 74.798115 
L 464.337465 74.907163 
L 464.319171 75.015963 
L 464.298969 75.124487 
L 464.276863 75.232707 
L 464.252858 75.340597 
L 464.226962 75.448129 
L 464.199181 75.555277 
L 464.16952 75.662013 
L 464.137989 75.768311 
L 464.104595 75.874143 
L 464.069346 75.979483 
L 464.032251 76.084305 
L 463.99332 76.188582 
L 463.952563 76.292288 
L 463.909988 76.395397 
L 463.865609 76.497883 
L 463.819434 76.599719 
L 463.771477 76.700881 
L 463.721749 76.801343 
L 463.670263 76.90108 
L 463.617031 77.000066 
L 463.562067 77.098277 
L 463.505386 77.195688 
L 463.447 77.292274 
L 463.386926 77.388012 
L 463.325177 77.482876 
L 463.26177 77.576843 
L 463.19672 77.66989 
L 463.130045 77.761993 
L 463.06176 77.853128 
L 462.991883 77.943274 
L 462.920431 78.032407 
L 462.847423 78.120504 
L 462.772876 78.207544 
L 462.696811 78.293505 
L 462.619245 78.378364 
L 462.540198 78.462101 
L 462.45969 78.544695 
L 462.377742 78.626125 
L 462.294374 78.70637 
L 462.209607 78.78541 
L 462.123462 78.863225 
L 462.035961 78.939796 
L 461.947127 79.015103 
L 461.856981 79.089127 
L 461.765546 79.161851 
L 461.672845 79.233254 
L 461.578902 79.30332 
L 461.48374 79.372031 
L 461.387383 79.439369 
L 461.289855 79.505318 
L 461.191182 79.569861 
L 461.091387 79.632982 
L 460.990496 79.694664 
L 460.888534 79.754893 
L 460.785528 79.813653 
L 460.681502 79.870929 
L 460.576483 79.926707 
L 460.470498 79.980972 
L 460.363573 80.033712 
L 460.255735 80.084913 
L 460.147011 80.134562 
L 460.037429 80.182647 
L 459.927016 80.229155 
L 459.815801 80.274075 
L 459.70381 80.317395 
L 459.591072 80.359105 
L 459.477616 80.399193 
L 459.363471 80.437651 
L 459.248664 80.474468 
L 459.133225 80.509634 
L 459.017182 80.543142 
L 458.900566 80.574983 
L 458.783405 80.605148 
L 458.665729 80.633631 
L 458.547568 80.660423 
L 458.428951 80.685518 
L 458.309908 80.70891 
L 458.190469 80.730594 
L 458.070665 80.750562 
L 457.950525 80.768811 
L 457.830079 80.785337 
L 457.709358 80.800133 
L 457.588393 80.813198 
L 457.467213 80.824527 
L 457.34585 80.834119 
L 457.224333 80.841969 
L 457.102694 80.848077 
L 456.980963 80.852441 
L 456.85917 80.85506 
L 456.737347 80.855933 
L 456.737347 80.855933 
z
" clip-path="url(#p2db7f62f83)" style="fill: #ffffff; stroke: #ffffff; stroke-linejoin: miter"/>
   </g>
   <g id="patch_8">
    <path d="M 65.573272 54.499728 
L 65.573272 54.499728 
L 65.451449 54.498855 
L 65.329656 54.496236 
L 65.207925 54.491872 
L 65.086286 54.485764 
L 64.964769 54.477914 
L 64.843406 54.468322 
L 64.722226 54.456993 
L 64.601261 54.443928 
L 64.48054 54.429131 
L 64.360094 54.412606 
L 64.239954 54.394357 
L 64.12015 54.374389 
L 64.000711 54.352705 
L 63.881668 54.329313 
L 63.763051 54.304218 
L 63.64489 54.277426 
L 63.527214 54.248943 
L 63.410053 54.218778 
L 63.293437 54.186937 
L 63.177394 54.153429 
L 63.061955 54.118263 
L 62.947148 54.081446 
L 62.833003 54.042988 
L 62.719547 54.002899 
L 62.606809 53.96119 
L 62.494818 53.91787 
L 62.383603 53.87295 
L 62.27319 53.826442 
L 62.163608 53.778357 
L 62.054884 53.728708 
L 61.947046 53.677507 
L 61.840121 53.624767 
L 61.734136 53.570501 
L 61.629117 53.514723 
L 61.525092 53.457447 
L 61.422085 53.398688 
L 61.320123 53.338459 
L 61.219232 53.276777 
L 61.119437 53.213656 
L 61.020764 53.149113 
L 60.923236 53.083164 
L 60.826879 53.015826 
L 60.731717 52.947115 
L 60.637774 52.877049 
L 60.545073 52.805646 
L 60.453638 52.732922 
L 60.363492 52.658898 
L 60.274658 52.583591 
L 60.187157 52.50702 
L 60.101012 52.429205 
L 60.016245 52.350165 
L 59.932877 52.26992 
L 59.850929 52.18849 
L 59.770421 52.105896 
L 59.691374 52.022159 
L 59.613808 51.937299 
L 59.537743 51.851339 
L 59.463196 51.764299 
L 59.390188 51.676201 
L 59.318736 51.587069 
L 59.248859 51.496923 
L 59.180574 51.405788 
L 59.113899 51.313685 
L 59.048849 51.220638 
L 58.985442 51.126671 
L 58.923693 51.031807 
L 58.863619 50.936069 
L 58.805233 50.839483 
L 58.748552 50.742072 
L 58.693588 50.643861 
L 58.640356 50.544875 
L 58.58887 50.445138 
L 58.539142 50.344676 
L 58.491185 50.243514 
L 58.445011 50.141677 
L 58.400631 50.039192 
L 58.358056 49.936083 
L 58.317299 49.832377 
L 58.278368 49.7281 
L 58.241273 49.623278 
L 58.206024 49.517938 
L 58.17263 49.412106 
L 58.141099 49.305808 
L 58.111438 49.199072 
L 58.083657 49.091924 
L 58.057761 48.984392 
L 58.033756 48.876502 
L 58.01165 48.768281 
L 57.991448 48.659758 
L 57.973154 48.550958 
L 57.956773 48.44191 
L 57.94231 48.332641 
L 57.929768 48.223179 
L 57.91915 48.11355 
L 57.910459 48.003783 
L 57.903697 47.893906 
L 57.898866 47.783945 
L 57.895966 47.673929 
L 57.895 47.563885 
L 57.895 47.563885 
L 57.895 47.563885 
L 57.895966 47.453841 
L 57.898866 47.343825 
L 57.903697 47.233864 
L 57.910459 47.123986 
L 57.91915 47.01422 
L 57.929768 46.904591 
L 57.94231 46.795128 
L 57.956773 46.685859 
L 57.973154 46.576811 
L 57.991448 46.468012 
L 58.01165 46.359488 
L 58.033756 46.251268 
L 58.057761 46.143378 
L 58.083657 46.035845 
L 58.111438 45.928698 
L 58.141099 45.821962 
L 58.17263 45.715664 
L 58.206024 45.609832 
L 58.241273 45.504492 
L 58.278368 45.39967 
L 58.317299 45.295393 
L 58.358056 45.191687 
L 58.400631 45.088578 
L 58.445011 44.986092 
L 58.491185 44.884256 
L 58.539142 44.783093 
L 58.58887 44.682631 
L 58.640356 44.582895 
L 58.693588 44.483908 
L 58.748552 44.385697 
L 58.805233 44.288287 
L 58.863619 44.1917 
L 58.923693 44.095963 
L 58.985442 44.001099 
L 59.048849 43.907132 
L 59.113899 43.814085 
L 59.180574 43.721982 
L 59.248859 43.630846 
L 59.318736 43.540701 
L 59.390188 43.451568 
L 59.463196 43.363471 
L 59.537743 43.276431 
L 59.613808 43.19047 
L 59.691374 43.105611 
L 59.770421 43.021873 
L 59.850929 42.939279 
L 59.932877 42.85785 
L 60.016245 42.777605 
L 60.101012 42.698565 
L 60.187157 42.62075 
L 60.274658 42.544179 
L 60.363492 42.468872 
L 60.453638 42.394847 
L 60.545073 42.322124 
L 60.637774 42.250721 
L 60.731717 42.180654 
L 60.826879 42.111944 
L 60.923236 42.044605 
L 61.020764 41.978656 
L 61.119437 41.914114 
L 61.219232 41.850993 
L 61.320123 41.789311 
L 61.422085 41.729082 
L 61.525092 41.670322 
L 61.629117 41.613046 
L 61.734136 41.557268 
L 61.840121 41.503002 
L 61.947046 41.450262 
L 62.054884 41.399061 
L 62.163608 41.349412 
L 62.27319 41.301328 
L 62.383603 41.25482 
L 62.494818 41.2099 
L 62.606809 41.16658 
L 62.719547 41.12487 
L 62.833003 41.084782 
L 62.947148 41.046324 
L 63.061955 41.009507 
L 63.177394 40.97434 
L 63.293437 40.940832 
L 63.410053 40.908992 
L 63.527214 40.878827 
L 63.64489 40.850344 
L 63.763051 40.823552 
L 63.881668 40.798457 
L 64.000711 40.775064 
L 64.12015 40.753381 
L 64.239954 40.733412 
L 64.360094 40.715163 
L 64.48054 40.698638 
L 64.601261 40.683842 
L 64.722226 40.670777 
L 64.843406 40.659447 
L 64.964769 40.649856 
L 65.086286 40.642005 
L 65.207925 40.635897 
L 65.329656 40.631533 
L 65.451449 40.628914 
L 65.573272 40.628041 
L 65.573272 40.628041 
L 581.114402 40.628041 
L 581.114402 40.628041 
L 581.236225 40.628914 
L 581.358017 40.631533 
L 581.479749 40.635897 
L 581.601388 40.642005 
L 581.722904 40.649856 
L 581.844268 40.659447 
L 581.965447 40.670777 
L 582.086413 40.683842 
L 582.207134 40.698638 
L 582.327579 40.715163 
L 582.44772 40.733412 
L 582.567524 40.753381 
L 582.686963 40.775064 
L 582.806006 40.798457 
L 582.924623 40.823552 
L 583.042784 40.850344 
L 583.16046 40.878827 
L 583.277621 40.908992 
L 583.394237 40.940832 
L 583.510279 40.97434 
L 583.625718 41.009507 
L 583.740525 41.046324 
L 583.854671 41.084782 
L 583.968127 41.12487 
L 584.080865 41.16658 
L 584.192855 41.2099 
L 584.304071 41.25482 
L 584.414484 41.301328 
L 584.524066 41.349412 
L 584.63279 41.399061 
L 584.740627 41.450262 
L 584.847552 41.503002 
L 584.953538 41.557268 
L 585.058556 41.613046 
L 585.162582 41.670322 
L 585.265589 41.729082 
L 585.367551 41.789311 
L 585.468442 41.850993 
L 585.568236 41.914114 
L 585.66691 41.978656 
L 585.764438 42.044605 
L 585.860795 42.111944 
L 585.955957 42.180654 
L 586.0499 42.250721 
L 586.142601 42.322124 
L 586.234035 42.394847 
L 586.324182 42.468872 
L 586.413016 42.544179 
L 586.500517 42.62075 
L 586.586661 42.698565 
L 586.671429 42.777605 
L 586.754797 42.85785 
L 586.836745 42.939279 
L 586.917253 43.021873 
L 586.996299 43.105611 
L 587.073865 43.19047 
L 587.149931 43.276431 
L 587.224478 43.363471 
L 587.297486 43.451568 
L 587.368937 43.540701 
L 587.438815 43.630846 
L 587.5071 43.721982 
L 587.573775 43.814085 
L 587.638825 43.907132 
L 587.702232 44.001099 
L 587.76398 44.095963 
L 587.824055 44.1917 
L 587.88244 44.288287 
L 587.939122 44.385697 
L 587.994086 44.483908 
L 588.047317 44.582895 
L 588.098804 44.682631 
L 588.148532 44.783093 
L 588.196489 44.884256 
L 588.242663 44.986092 
L 588.287043 45.088578 
L 588.329617 45.191687 
L 588.370375 45.295393 
L 588.409306 45.39967 
L 588.446401 45.504492 
L 588.48165 45.609832 
L 588.515044 45.715664 
L 588.546575 45.821962 
L 588.576235 45.928698 
L 588.604017 46.035845 
L 588.629913 46.143378 
L 588.653917 46.251268 
L 588.676024 46.359488 
L 588.696226 46.468012 
L 588.71452 46.576811 
L 588.730901 46.685859 
L 588.745364 46.795128 
L 588.757906 46.904591 
L 588.768524 47.01422 
L 588.777215 47.123986 
L 588.783977 47.233864 
L 588.788808 47.343825 
L 588.791707 47.453841 
L 588.792674 47.563885 
L 588.792674 47.563885 
L 588.792674 47.563885 
L 588.791707 47.673929 
L 588.788808 47.783945 
L 588.783977 47.893906 
L 588.777215 48.003783 
L 588.768524 48.11355 
L 588.757906 48.223179 
L 588.745364 48.332641 
L 588.730901 48.44191 
L 588.71452 48.550958 
L 588.696226 48.659758 
L 588.676024 48.768281 
L 588.653917 48.876502 
L 588.629913 48.984392 
L 588.604017 49.091924 
L 588.576235 49.199072 
L 588.546575 49.305808 
L 588.515044 49.412106 
L 588.48165 49.517938 
L 588.446401 49.623278 
L 588.409306 49.7281 
L 588.370375 49.832377 
L 588.329617 49.936083 
L 588.287043 50.039192 
L 588.242663 50.141677 
L 588.196489 50.243514 
L 588.148532 50.344676 
L 588.098804 50.445138 
L 588.047317 50.544875 
L 587.994086 50.643861 
L 587.939122 50.742072 
L 587.88244 50.839483 
L 587.824055 50.936069 
L 587.76398 51.031807 
L 587.702232 51.126671 
L 587.638825 51.220638 
L 587.573775 51.313685 
L 587.5071 51.405788 
L 587.438815 51.496923 
L 587.368937 51.587069 
L 587.297486 51.676201 
L 587.224478 51.764299 
L 587.149931 51.851339 
L 587.073865 51.937299 
L 586.996299 52.022159 
L 586.917253 52.105896 
L 586.836745 52.18849 
L 586.754797 52.26992 
L 586.671429 52.350165 
L 586.586661 52.429205 
L 586.500517 52.50702 
L 586.413016 52.583591 
L 586.324182 52.658898 
L 586.234035 52.732922 
L 586.142601 52.805646 
L 586.0499 52.877049 
L 585.955957 52.947115 
L 585.860795 53.015826 
L 585.764438 53.083164 
L 585.66691 53.149113 
L 585.568236 53.213656 
L 585.468442 53.276777 
L 585.367551 53.338459 
L 585.265589 53.398688 
L 585.162582 53.457447 
L 585.058556 53.514723 
L 584.953538 53.570501 
L 584.847552 53.624767 
L 584.740627 53.677507 
L 584.63279 53.728708 
L 584.524066 53.778357 
L 584.414484 53.826442 
L 584.304071 53.87295 
L 584.192855 53.91787 
L 584.080865 53.96119 
L 583.968127 54.002899 
L 583.854671 54.042988 
L 583.740525 54.081446 
L 583.625718 54.118263 
L 583.510279 54.153429 
L 583.394237 54.186937 
L 583.277621 54.218778 
L 583.16046 54.248943 
L 583.042784 54.277426 
L 582.924623 54.304218 
L 582.806006 54.329313 
L 582.686963 54.352705 
L 582.567524 54.374389 
L 582.44772 54.394357 
L 582.327579 54.412606 
L 582.207134 54.429131 
L 582.086413 54.443928 
L 581.965447 54.456993 
L 581.844268 54.468322 
L 581.722904 54.477914 
L 581.601388 54.485764 
L 581.479749 54.491872 
L 581.358017 54.496236 
L 581.236225 54.498855 
L 581.114402 54.499728 
L 581.114402 54.499728 
z
" clip-path="url(#p2db7f62f83)" style="fill: #ffffff; stroke: #ffffff; stroke-linejoin: miter"/>
   </g>
   <g id="PatchCollection_1">
    <defs>
     <path id="mfbef947036" d="M 278.10304 -26.702817 
L 307.816923 -26.702817 
L 307.816923 -40.574503 
L 278.10304 -40.574503 
z
" style="stroke: #000000; stroke-opacity: 0; stroke-width: 0"/>
    </defs>
    <g clip-path="url(#p2db7f62f83)">
     <use xlink:href="#mfbef947036" x="0" y="107.55875" style="fill: #ff0000; stroke: #000000; stroke-opacity: 0; stroke-width: 0"/>
    </g>
   </g>
   <g id="PatchCollection_2">
    <path d="M 57.895 54.499728 
L 58.866042 54.499728 
L 58.866042 40.628041 
L 57.895 40.628041 
z
" clip-path="url(#p2db7f62f83)" style="fill: #ff0000"/>
    <path d="M 59.497219 54.499728 
L 60.10412 54.499728 
L 60.10412 40.628041 
L 59.497219 40.628041 
z
" clip-path="url(#p2db7f62f83)" style="fill: #ff0000"/>
    <path d="M 60.613917 54.499728 
L 62.895866 54.499728 
L 62.895866 40.628041 
L 60.613917 40.628041 
z
" clip-path="url(#p2db7f62f83)" style="fill: #ff0000"/>
    <path d="M 65.541955 54.499728 
L 65.784716 54.499728 
L 65.784716 40.628041 
L 65.541955 40.628041 
z
" clip-path="url(#p2db7f62f83)" style="fill: #ff0000"/>
    <path d="M 66.415893 54.499728 
L 71.392483 54.499728 
L 71.392483 40.628041 
L 66.415893 40.628041 
z
" clip-path="url(#p2db7f62f83)" style="fill: #ff0000"/>
    <path d="M 72.217869 54.499728 
L 72.970426 54.499728 
L 72.970426 40.628041 
L 72.217869 40.628041 
z
" clip-path="url(#p2db7f62f83)" style="fill: #ff0000"/>
    <path d="M 73.892916 54.499728 
L 74.936786 54.499728 
L 74.936786 40.628041 
L 73.892916 40.628041 
z
" clip-path="url(#p2db7f62f83)" style="fill: #ff0000"/>
    <path d="M 75.859276 54.499728 
L 79.379303 54.499728 
L 79.379303 40.628041 
L 75.859276 40.628041 
z
" clip-path="url(#p2db7f62f83)" style="fill: #ff0000"/>
    <path d="M 80.253241 54.499728 
L 80.738762 54.499728 
L 80.738762 40.628041 
L 80.253241 40.628041 
z
" clip-path="url(#p2db7f62f83)" style="fill: #ff0000"/>
    <path d="M 81.467043 54.499728 
L 89.332483 54.499728 
L 89.332483 40.628041 
L 81.467043 40.628041 
z
" clip-path="url(#p2db7f62f83)" style="fill: #ff0000"/>
   </g>
   <g id="patch_9">
    <path d="M 65.573272 80.855933 
L 65.573272 80.855933 
L 65.451449 80.85506 
L 65.329656 80.852441 
L 65.207925 80.848077 
L 65.086286 80.841969 
L 64.964769 80.834119 
L 64.843406 80.824527 
L 64.722226 80.813198 
L 64.601261 80.800133 
L 64.48054 80.785337 
L 64.360094 80.768811 
L 64.239954 80.750562 
L 64.12015 80.730594 
L 64.000711 80.70891 
L 63.881668 80.685518 
L 63.763051 80.660423 
L 63.64489 80.633631 
L 63.527214 80.605148 
L 63.410053 80.574983 
L 63.293437 80.543142 
L 63.177394 80.509634 
L 63.061955 80.474468 
L 62.947148 80.437651 
L 62.833003 80.399193 
L 62.719547 80.359105 
L 62.606809 80.317395 
L 62.494818 80.274075 
L 62.383603 80.229155 
L 62.27319 80.182647 
L 62.163608 80.134562 
L 62.054884 80.084913 
L 61.947046 80.033712 
L 61.840121 79.980972 
L 61.734136 79.926707 
L 61.629117 79.870929 
L 61.525092 79.813653 
L 61.422085 79.754893 
L 61.320123 79.694664 
L 61.219232 79.632982 
L 61.119437 79.569861 
L 61.020764 79.505318 
L 60.923236 79.439369 
L 60.826879 79.372031 
L 60.731717 79.30332 
L 60.637774 79.233254 
L 60.545073 79.161851 
L 60.453638 79.089127 
L 60.363492 79.015103 
L 60.274658 78.939796 
L 60.187157 78.863225 
L 60.101012 78.78541 
L 60.016245 78.70637 
L 59.932877 78.626125 
L 59.850929 78.544695 
L 59.770421 78.462101 
L 59.691374 78.378364 
L 59.613808 78.293505 
L 59.537743 78.207544 
L 59.463196 78.120504 
L 59.390188 78.032407 
L 59.318736 77.943274 
L 59.248859 77.853128 
L 59.180574 77.761993 
L 59.113899 77.66989 
L 59.048849 77.576843 
L 58.985442 77.482876 
L 58.923693 77.388012 
L 58.863619 77.292274 
L 58.805233 77.195688 
L 58.748552 77.098277 
L 58.693588 77.000066 
L 58.640356 76.90108 
L 58.58887 76.801343 
L 58.539142 76.700881 
L 58.491185 76.599719 
L 58.445011 76.497883 
L 58.400631 76.395397 
L 58.358056 76.292288 
L 58.317299 76.188582 
L 58.278368 76.084305 
L 58.241273 75.979483 
L 58.206024 75.874143 
L 58.17263 75.768311 
L 58.141099 75.662013 
L 58.111438 75.555277 
L 58.083657 75.448129 
L 58.057761 75.340597 
L 58.033756 75.232707 
L 58.01165 75.124487 
L 57.991448 75.015963 
L 57.973154 74.907163 
L 57.956773 74.798115 
L 57.94231 74.688846 
L 57.929768 74.579384 
L 57.91915 74.469755 
L 57.910459 74.359988 
L 57.903697 74.250111 
L 57.898866 74.14015 
L 57.895966 74.030134 
L 57.895 73.92009 
L 57.895 73.92009 
L 57.895 73.92009 
L 57.895966 73.810046 
L 57.898866 73.70003 
L 57.903697 73.590069 
L 57.910459 73.480192 
L 57.91915 73.370425 
L 57.929768 73.260796 
L 57.94231 73.151334 
L 57.956773 73.042065 
L 57.973154 72.933017 
L 57.991448 72.824217 
L 58.01165 72.715693 
L 58.033756 72.607473 
L 58.057761 72.499583 
L 58.083657 72.392051 
L 58.111438 72.284903 
L 58.141099 72.178167 
L 58.17263 72.071869 
L 58.206024 71.966037 
L 58.241273 71.860697 
L 58.278368 71.755875 
L 58.317299 71.651598 
L 58.358056 71.547892 
L 58.400631 71.444783 
L 58.445011 71.342297 
L 58.491185 71.240461 
L 58.539142 71.139299 
L 58.58887 71.038836 
L 58.640356 70.9391 
L 58.693588 70.840113 
L 58.748552 70.741903 
L 58.805233 70.644492 
L 58.863619 70.547906 
L 58.923693 70.452168 
L 58.985442 70.357304 
L 59.048849 70.263337 
L 59.113899 70.17029 
L 59.180574 70.078187 
L 59.248859 69.987052 
L 59.318736 69.896906 
L 59.390188 69.807773 
L 59.463196 69.719676 
L 59.537743 69.632636 
L 59.613808 69.546675 
L 59.691374 69.461816 
L 59.770421 69.378078 
L 59.850929 69.295485 
L 59.932877 69.214055 
L 60.016245 69.13381 
L 60.101012 69.05477 
L 60.187157 68.976955 
L 60.274658 68.900384 
L 60.363492 68.825077 
L 60.453638 68.751052 
L 60.545073 68.678329 
L 60.637774 68.606926 
L 60.731717 68.53686 
L 60.826879 68.468149 
L 60.923236 68.40081 
L 61.020764 68.334862 
L 61.119437 68.270319 
L 61.219232 68.207198 
L 61.320123 68.145516 
L 61.422085 68.085287 
L 61.525092 68.026527 
L 61.629117 67.969251 
L 61.734136 67.913473 
L 61.840121 67.859207 
L 61.947046 67.806467 
L 62.054884 67.755266 
L 62.163608 67.705617 
L 62.27319 67.657533 
L 62.383603 67.611025 
L 62.494818 67.566105 
L 62.606809 67.522785 
L 62.719547 67.481075 
L 62.833003 67.440987 
L 62.947148 67.402529 
L 63.061955 67.365712 
L 63.177394 67.330545 
L 63.293437 67.297037 
L 63.410053 67.265197 
L 63.527214 67.235032 
L 63.64489 67.206549 
L 63.763051 67.179757 
L 63.881668 67.154662 
L 64.000711 67.131269 
L 64.12015 67.109586 
L 64.239954 67.089618 
L 64.360094 67.071368 
L 64.48054 67.054843 
L 64.601261 67.040047 
L 64.722226 67.026982 
L 64.843406 67.015653 
L 64.964769 67.006061 
L 65.086286 66.998211 
L 65.207925 66.992102 
L 65.329656 66.987738 
L 65.451449 66.98512 
L 65.573272 66.984247 
L 65.573272 66.984247 
L 57.895 66.984247 
L 57.895 80.855933 
z
" clip-path="url(#p2db7f62f83)" style="fill: #ffffff; stroke: #ffffff; stroke-linejoin: miter"/>
   </g>
   <g id="patch_10">
    <path d="M 456.737347 66.984247 
L 456.737347 66.984247 
L 456.85917 66.98512 
L 456.980963 66.987738 
L 457.102694 66.992102 
L 457.224333 66.998211 
L 457.34585 67.006061 
L 457.467213 67.015653 
L 457.588393 67.026982 
L 457.709358 67.040047 
L 457.830079 67.054843 
L 457.950525 67.071368 
L 458.070665 67.089618 
L 458.190469 67.109586 
L 458.309908 67.131269 
L 458.428951 67.154662 
L 458.547568 67.179757 
L 458.665729 67.206549 
L 458.783405 67.235032 
L 458.900566 67.265197 
L 459.017182 67.297037 
L 459.133225 67.330545 
L 459.248664 67.365712 
L 459.363471 67.402529 
L 459.477616 67.440987 
L 459.591072 67.481075 
L 459.70381 67.522785 
L 459.815801 67.566105 
L 459.927016 67.611025 
L 460.037429 67.657533 
L 460.147011 67.705617 
L 460.255735 67.755266 
L 460.363573 67.806467 
L 460.470498 67.859207 
L 460.576483 67.913473 
L 460.681502 67.969251 
L 460.785528 68.026527 
L 460.888534 68.085287 
L 460.990496 68.145516 
L 461.091387 68.207198 
L 461.191182 68.270319 
L 461.289855 68.334862 
L 461.387383 68.40081 
L 461.48374 68.468149 
L 461.578902 68.53686 
L 461.672845 68.606926 
L 461.765546 68.678329 
L 461.856981 68.751052 
L 461.947127 68.825077 
L 462.035961 68.900384 
L 462.123462 68.976955 
L 462.209607 69.05477 
L 462.294374 69.13381 
L 462.377742 69.214055 
L 462.45969 69.295485 
L 462.540198 69.378078 
L 462.619245 69.461816 
L 462.696811 69.546675 
L 462.772876 69.632636 
L 462.847423 69.719676 
L 462.920431 69.807773 
L 462.991883 69.896906 
L 463.06176 69.987052 
L 463.130045 70.078187 
L 463.19672 70.17029 
L 463.26177 70.263337 
L 463.325177 70.357304 
L 463.386926 70.452168 
L 463.447 70.547906 
L 463.505386 70.644492 
L 463.562067 70.741903 
L 463.617031 70.840113 
L 463.670263 70.9391 
L 463.721749 71.038836 
L 463.771477 71.139299 
L 463.819434 71.240461 
L 463.865609 71.342297 
L 463.909988 71.444783 
L 463.952563 71.547892 
L 463.99332 71.651598 
L 464.032251 71.755875 
L 464.069346 71.860697 
L 464.104595 71.966037 
L 464.137989 72.071869 
L 464.16952 72.178167 
L 464.199181 72.284903 
L 464.226962 72.392051 
L 464.252858 72.499583 
L 464.276863 72.607473 
L 464.298969 72.715693 
L 464.319171 72.824217 
L 464.337465 72.933017 
L 464.353846 73.042065 
L 464.368309 73.151334 
L 464.380851 73.260796 
L 464.391469 73.370425 
L 464.40016 73.480192 
L 464.406922 73.590069 
L 464.411753 73.70003 
L 464.414653 73.810046 
L 464.415619 73.92009 
L 464.415619 73.92009 
L 464.415619 73.92009 
L 464.414653 74.030134 
L 464.411753 74.14015 
L 464.406922 74.250111 
L 464.40016 74.359988 
L 464.391469 74.469755 
L 464.380851 74.579384 
L 464.368309 74.688846 
L 464.353846 74.798115 
L 464.337465 74.907163 
L 464.319171 75.015963 
L 464.298969 75.124487 
L 464.276863 75.232707 
L 464.252858 75.340597 
L 464.226962 75.448129 
L 464.199181 75.555277 
L 464.16952 75.662013 
L 464.137989 75.768311 
L 464.104595 75.874143 
L 464.069346 75.979483 
L 464.032251 76.084305 
L 463.99332 76.188582 
L 463.952563 76.292288 
L 463.909988 76.395397 
L 463.865609 76.497883 
L 463.819434 76.599719 
L 463.771477 76.700881 
L 463.721749 76.801343 
L 463.670263 76.90108 
L 463.617031 77.000066 
L 463.562067 77.098277 
L 463.505386 77.195688 
L 463.447 77.292274 
L 463.386926 77.388012 
L 463.325177 77.482876 
L 463.26177 77.576843 
L 463.19672 77.66989 
L 463.130045 77.761993 
L 463.06176 77.853128 
L 462.991883 77.943274 
L 462.920431 78.032407 
L 462.847423 78.120504 
L 462.772876 78.207544 
L 462.696811 78.293505 
L 462.619245 78.378364 
L 462.540198 78.462101 
L 462.45969 78.544695 
L 462.377742 78.626125 
L 462.294374 78.70637 
L 462.209607 78.78541 
L 462.123462 78.863225 
L 462.035961 78.939796 
L 461.947127 79.015103 
L 461.856981 79.089127 
L 461.765546 79.161851 
L 461.672845 79.233254 
L 461.578902 79.30332 
L 461.48374 79.372031 
L 461.387383 79.439369 
L 461.289855 79.505318 
L 461.191182 79.569861 
L 461.091387 79.632982 
L 460.990496 79.694664 
L 460.888534 79.754893 
L 460.785528 79.813653 
L 460.681502 79.870929 
L 460.576483 79.926707 
L 460.470498 79.980972 
L 460.363573 80.033712 
L 460.255735 80.084913 
L 460.147011 80.134562 
L 460.037429 80.182647 
L 459.927016 80.229155 
L 459.815801 80.274075 
L 459.70381 80.317395 
L 459.591072 80.359105 
L 459.477616 80.399193 
L 459.363471 80.437651 
L 459.248664 80.474468 
L 459.133225 80.509634 
L 459.017182 80.543142 
L 458.900566 80.574983 
L 458.783405 80.605148 
L 458.665729 80.633631 
L 458.547568 80.660423 
L 458.428951 80.685518 
L 458.309908 80.70891 
L 458.190469 80.730594 
L 458.070665 80.750562 
L 457.950525 80.768811 
L 457.830079 80.785337 
L 457.709358 80.800133 
L 457.588393 80.813198 
L 457.467213 80.824527 
L 457.34585 80.834119 
L 457.224333 80.841969 
L 457.102694 80.848077 
L 456.980963 80.852441 
L 456.85917 80.85506 
L 456.737347 80.855933 
L 456.737347 80.855933 
L 464.415619 80.855933 
L 464.415619 66.984247 
z
" clip-path="url(#p2db7f62f83)" style="fill: #ffffff; stroke: #ffffff; stroke-linejoin: miter"/>
   </g>
   <g id="patch_11">
    <path d="M 65.573272 54.499728 
L 65.573272 54.499728 
L 65.451449 54.498855 
L 65.329656 54.496236 
L 65.207925 54.491872 
L 65.086286 54.485764 
L 64.964769 54.477914 
L 64.843406 54.468322 
L 64.722226 54.456993 
L 64.601261 54.443928 
L 64.48054 54.429131 
L 64.360094 54.412606 
L 64.239954 54.394357 
L 64.12015 54.374389 
L 64.000711 54.352705 
L 63.881668 54.329313 
L 63.763051 54.304218 
L 63.64489 54.277426 
L 63.527214 54.248943 
L 63.410053 54.218778 
L 63.293437 54.186937 
L 63.177394 54.153429 
L 63.061955 54.118263 
L 62.947148 54.081446 
L 62.833003 54.042988 
L 62.719547 54.002899 
L 62.606809 53.96119 
L 62.494818 53.91787 
L 62.383603 53.87295 
L 62.27319 53.826442 
L 62.163608 53.778357 
L 62.054884 53.728708 
L 61.947046 53.677507 
L 61.840121 53.624767 
L 61.734136 53.570501 
L 61.629117 53.514723 
L 61.525092 53.457447 
L 61.422085 53.398688 
L 61.320123 53.338459 
L 61.219232 53.276777 
L 61.119437 53.213656 
L 61.020764 53.149113 
L 60.923236 53.083164 
L 60.826879 53.015826 
L 60.731717 52.947115 
L 60.637774 52.877049 
L 60.545073 52.805646 
L 60.453638 52.732922 
L 60.363492 52.658898 
L 60.274658 52.583591 
L 60.187157 52.50702 
L 60.101012 52.429205 
L 60.016245 52.350165 
L 59.932877 52.26992 
L 59.850929 52.18849 
L 59.770421 52.105896 
L 59.691374 52.022159 
L 59.613808 51.937299 
L 59.537743 51.851339 
L 59.463196 51.764299 
L 59.390188 51.676201 
L 59.318736 51.587069 
L 59.248859 51.496923 
L 59.180574 51.405788 
L 59.113899 51.313685 
L 59.048849 51.220638 
L 58.985442 51.126671 
L 58.923693 51.031807 
L 58.863619 50.936069 
L 58.805233 50.839483 
L 58.748552 50.742072 
L 58.693588 50.643861 
L 58.640356 50.544875 
L 58.58887 50.445138 
L 58.539142 50.344676 
L 58.491185 50.243514 
L 58.445011 50.141677 
L 58.400631 50.039192 
L 58.358056 49.936083 
L 58.317299 49.832377 
L 58.278368 49.7281 
L 58.241273 49.623278 
L 58.206024 49.517938 
L 58.17263 49.412106 
L 58.141099 49.305808 
L 58.111438 49.199072 
L 58.083657 49.091924 
L 58.057761 48.984392 
L 58.033756 48.876502 
L 58.01165 48.768281 
L 57.991448 48.659758 
L 57.973154 48.550958 
L 57.956773 48.44191 
L 57.94231 48.332641 
L 57.929768 48.223179 
L 57.91915 48.11355 
L 57.910459 48.003783 
L 57.903697 47.893906 
L 57.898866 47.783945 
L 57.895966 47.673929 
L 57.895 47.563885 
L 57.895 47.563885 
L 57.895 47.563885 
L 57.895966 47.453841 
L 57.898866 47.343825 
L 57.903697 47.233864 
L 57.910459 47.123986 
L 57.91915 47.01422 
L 57.929768 46.904591 
L 57.94231 46.795128 
L 57.956773 46.685859 
L 57.973154 46.576811 
L 57.991448 46.468012 
L 58.01165 46.359488 
L 58.033756 46.251268 
L 58.057761 46.143378 
L 58.083657 46.035845 
L 58.111438 45.928698 
L 58.141099 45.821962 
L 58.17263 45.715664 
L 58.206024 45.609832 
L 58.241273 45.504492 
L 58.278368 45.39967 
L 58.317299 45.295393 
L 58.358056 45.191687 
L 58.400631 45.088578 
L 58.445011 44.986092 
L 58.491185 44.884256 
L 58.539142 44.783093 
L 58.58887 44.682631 
L 58.640356 44.582895 
L 58.693588 44.483908 
L 58.748552 44.385697 
L 58.805233 44.288287 
L 58.863619 44.1917 
L 58.923693 44.095963 
L 58.985442 44.001099 
L 59.048849 43.907132 
L 59.113899 43.814085 
L 59.180574 43.721982 
L 59.248859 43.630846 
L 59.318736 43.540701 
L 59.390188 43.451568 
L 59.463196 43.363471 
L 59.537743 43.276431 
L 59.613808 43.19047 
L 59.691374 43.105611 
L 59.770421 43.021873 
L 59.850929 42.939279 
L 59.932877 42.85785 
L 60.016245 42.777605 
L 60.101012 42.698565 
L 60.187157 42.62075 
L 60.274658 42.544179 
L 60.363492 42.468872 
L 60.453638 42.394847 
L 60.545073 42.322124 
L 60.637774 42.250721 
L 60.731717 42.180654 
L 60.826879 42.111944 
L 60.923236 42.044605 
L 61.020764 41.978656 
L 61.119437 41.914114 
L 61.219232 41.850993 
L 61.320123 41.789311 
L 61.422085 41.729082 
L 61.525092 41.670322 
L 61.629117 41.613046 
L 61.734136 41.557268 
L 61.840121 41.503002 
L 61.947046 41.450262 
L 62.054884 41.399061 
L 62.163608 41.349412 
L 62.27319 41.301328 
L 62.383603 41.25482 
L 62.494818 41.2099 
L 62.606809 41.16658 
L 62.719547 41.12487 
L 62.833003 41.084782 
L 62.947148 41.046324 
L 63.061955 41.009507 
L 63.177394 40.97434 
L 63.293437 40.940832 
L 63.410053 40.908992 
L 63.527214 40.878827 
L 63.64489 40.850344 
L 63.763051 40.823552 
L 63.881668 40.798457 
L 64.000711 40.775064 
L 64.12015 40.753381 
L 64.239954 40.733412 
L 64.360094 40.715163 
L 64.48054 40.698638 
L 64.601261 40.683842 
L 64.722226 40.670777 
L 64.843406 40.659447 
L 64.964769 40.649856 
L 65.086286 40.642005 
L 65.207925 40.635897 
L 65.329656 40.631533 
L 65.451449 40.628914 
L 65.573272 40.628041 
L 65.573272 40.628041 
L 57.895 40.628041 
L 57.895 54.499728 
z
" clip-path="url(#p2db7f62f83)" style="fill: #ffffff; stroke: #ffffff; stroke-linejoin: miter"/>
   </g>
   <g id="patch_12">
    <path d="M 581.114402 40.628041 
L 581.114402 40.628041 
L 581.236225 40.628914 
L 581.358017 40.631533 
L 581.479749 40.635897 
L 581.601388 40.642005 
L 581.722904 40.649856 
L 581.844268 40.659447 
L 581.965447 40.670777 
L 582.086413 40.683842 
L 582.207134 40.698638 
L 582.327579 40.715163 
L 582.44772 40.733412 
L 582.567524 40.753381 
L 582.686963 40.775064 
L 582.806006 40.798457 
L 582.924623 40.823552 
L 583.042784 40.850344 
L 583.16046 40.878827 
L 583.277621 40.908992 
L 583.394237 40.940832 
L 583.510279 40.97434 
L 583.625718 41.009507 
L 583.740525 41.046324 
L 583.854671 41.084782 
L 583.968127 41.12487 
L 584.080865 41.16658 
L 584.192855 41.2099 
L 584.304071 41.25482 
L 584.414484 41.301328 
L 584.524066 41.349412 
L 584.63279 41.399061 
L 584.740627 41.450262 
L 584.847552 41.503002 
L 584.953538 41.557268 
L 585.058556 41.613046 
L 585.162582 41.670322 
L 585.265589 41.729082 
L 585.367551 41.789311 
L 585.468442 41.850993 
L 585.568236 41.914114 
L 585.66691 41.978656 
L 585.764438 42.044605 
L 585.860795 42.111944 
L 585.955957 42.180654 
L 586.0499 42.250721 
L 586.142601 42.322124 
L 586.234035 42.394847 
L 586.324182 42.468872 
L 586.413016 42.544179 
L 586.500517 42.62075 
L 586.586661 42.698565 
L 586.671429 42.777605 
L 586.754797 42.85785 
L 586.836745 42.939279 
L 586.917253 43.021873 
L 586.996299 43.105611 
L 587.073865 43.19047 
L 587.149931 43.276431 
L 587.224478 43.363471 
L 587.297486 43.451568 
L 587.368937 43.540701 
L 587.438815 43.630846 
L 587.5071 43.721982 
L 587.573775 43.814085 
L 587.638825 43.907132 
L 587.702232 44.001099 
L 587.76398 44.095963 
L 587.824055 44.1917 
L 587.88244 44.288287 
L 587.939122 44.385697 
L 587.994086 44.483908 
L 588.047317 44.582895 
L 588.098804 44.682631 
L 588.148532 44.783093 
L 588.196489 44.884256 
L 588.242663 44.986092 
L 588.287043 45.088578 
L 588.329617 45.191687 
L 588.370375 45.295393 
L 588.409306 45.39967 
L 588.446401 45.504492 
L 588.48165 45.609832 
L 588.515044 45.715664 
L 588.546575 45.821962 
L 588.576235 45.928698 
L 588.604017 46.035845 
L 588.629913 46.143378 
L 588.653917 46.251268 
L 588.676024 46.359488 
L 588.696226 46.468012 
L 588.71452 46.576811 
L 588.730901 46.685859 
L 588.745364 46.795128 
L 588.757906 46.904591 
L 588.768524 47.01422 
L 588.777215 47.123986 
L 588.783977 47.233864 
L 588.788808 47.343825 
L 588.791707 47.453841 
L 588.792674 47.563885 
L 588.792674 47.563885 
L 588.792674 47.563885 
L 588.791707 47.673929 
L 588.788808 47.783945 
L 588.783977 47.893906 
L 588.777215 48.003783 
L 588.768524 48.11355 
L 588.757906 48.223179 
L 588.745364 48.332641 
L 588.730901 48.44191 
L 588.71452 48.550958 
L 588.696226 48.659758 
L 588.676024 48.768281 
L 588.653917 48.876502 
L 588.629913 48.984392 
L 588.604017 49.091924 
L 588.576235 49.199072 
L 588.546575 49.305808 
L 588.515044 49.412106 
L 588.48165 49.517938 
L 588.446401 49.623278 
L 588.409306 49.7281 
L 588.370375 49.832377 
L 588.329617 49.936083 
L 588.287043 50.039192 
L 588.242663 50.141677 
L 588.196489 50.243514 
L 588.148532 50.344676 
L 588.098804 50.445138 
L 588.047317 50.544875 
L 587.994086 50.643861 
L 587.939122 50.742072 
L 587.88244 50.839483 
L 587.824055 50.936069 
L 587.76398 51.031807 
L 587.702232 51.126671 
L 587.638825 51.220638 
L 587.573775 51.313685 
L 587.5071 51.405788 
L 587.438815 51.496923 
L 587.368937 51.587069 
L 587.297486 51.676201 
L 587.224478 51.764299 
L 587.149931 51.851339 
L 587.073865 51.937299 
L 586.996299 52.022159 
L 586.917253 52.105896 
L 586.836745 52.18849 
L 586.754797 52.26992 
L 586.671429 52.350165 
L 586.586661 52.429205 
L 586.500517 52.50702 
L 586.413016 52.583591 
L 586.324182 52.658898 
L 586.234035 52.732922 
L 586.142601 52.805646 
L 586.0499 52.877049 
L 585.955957 52.947115 
L 585.860795 53.015826 
L 585.764438 53.083164 
L 585.66691 53.149113 
L 585.568236 53.213656 
L 585.468442 53.276777 
L 585.367551 53.338459 
L 585.265589 53.398688 
L 585.162582 53.457447 
L 585.058556 53.514723 
L 584.953538 53.570501 
L 584.847552 53.624767 
L 584.740627 53.677507 
L 584.63279 53.728708 
L 584.524066 53.778357 
L 584.414484 53.826442 
L 584.304071 53.87295 
L 584.192855 53.91787 
L 584.080865 53.96119 
L 583.968127 54.002899 
L 583.854671 54.042988 
L 583.740525 54.081446 
L 583.625718 54.118263 
L 583.510279 54.153429 
L 583.394237 54.186937 
L 583.277621 54.218778 
L 583.16046 54.248943 
L 583.042784 54.277426 
L 582.924623 54.304218 
L 582.806006 54.329313 
L 582.686963 54.352705 
L 582.567524 54.374389 
L 582.44772 54.394357 
L 582.327579 54.412606 
L 582.207134 54.429131 
L 582.086413 54.443928 
L 581.965447 54.456993 
L 581.844268 54.468322 
L 581.722904 54.477914 
L 581.601388 54.485764 
L 581.479749 54.491872 
L 581.358017 54.496236 
L 581.236225 54.498855 
L 581.114402 54.499728 
L 581.114402 54.499728 
L 588.792674 54.499728 
L 588.792674 40.628041 
z
" clip-path="url(#p2db7f62f83)" style="fill: #ffffff; stroke: #ffffff; stroke-linejoin: miter"/>
   </g>
   <g id="patch_13">
    <path d="M 65.573272 80.855933 
L 65.573272 80.855933 
L 65.451449 80.85506 
L 65.329656 80.852441 
L 65.207925 80.848077 
L 65.086286 80.841969 
L 64.964769 80.834119 
L 64.843406 80.824527 
L 64.722226 80.813198 
L 64.601261 80.800133 
L 64.48054 80.785337 
L 64.360094 80.768811 
L 64.239954 80.750562 
L 64.12015 80.730594 
L 64.000711 80.70891 
L 63.881668 80.685518 
L 63.763051 80.660423 
L 63.64489 80.633631 
L 63.527214 80.605148 
L 63.410053 80.574983 
L 63.293437 80.543142 
L 63.177394 80.509634 
L 63.061955 80.474468 
L 62.947148 80.437651 
L 62.833003 80.399193 
L 62.719547 80.359105 
L 62.606809 80.317395 
L 62.494818 80.274075 
L 62.383603 80.229155 
L 62.27319 80.182647 
L 62.163608 80.134562 
L 62.054884 80.084913 
L 61.947046 80.033712 
L 61.840121 79.980972 
L 61.734136 79.926707 
L 61.629117 79.870929 
L 61.525092 79.813653 
L 61.422085 79.754893 
L 61.320123 79.694664 
L 61.219232 79.632982 
L 61.119437 79.569861 
L 61.020764 79.505318 
L 60.923236 79.439369 
L 60.826879 79.372031 
L 60.731717 79.30332 
L 60.637774 79.233254 
L 60.545073 79.161851 
L 60.453638 79.089127 
L 60.363492 79.015103 
L 60.274658 78.939796 
L 60.187157 78.863225 
L 60.101012 78.78541 
L 60.016245 78.70637 
L 59.932877 78.626125 
L 59.850929 78.544695 
L 59.770421 78.462101 
L 59.691374 78.378364 
L 59.613808 78.293505 
L 59.537743 78.207544 
L 59.463196 78.120504 
L 59.390188 78.032407 
L 59.318736 77.943274 
L 59.248859 77.853128 
L 59.180574 77.761993 
L 59.113899 77.66989 
L 59.048849 77.576843 
L 58.985442 77.482876 
L 58.923693 77.388012 
L 58.863619 77.292274 
L 58.805233 77.195688 
L 58.748552 77.098277 
L 58.693588 77.000066 
L 58.640356 76.90108 
L 58.58887 76.801343 
L 58.539142 76.700881 
L 58.491185 76.599719 
L 58.445011 76.497883 
L 58.400631 76.395397 
L 58.358056 76.292288 
L 58.317299 76.188582 
L 58.278368 76.084305 
L 58.241273 75.979483 
L 58.206024 75.874143 
L 58.17263 75.768311 
L 58.141099 75.662013 
L 58.111438 75.555277 
L 58.083657 75.448129 
L 58.057761 75.340597 
L 58.033756 75.232707 
L 58.01165 75.124487 
L 57.991448 75.015963 
L 57.973154 74.907163 
L 57.956773 74.798115 
L 57.94231 74.688846 
L 57.929768 74.579384 
L 57.91915 74.469755 
L 57.910459 74.359988 
L 57.903697 74.250111 
L 57.898866 74.14015 
L 57.895966 74.030134 
L 57.895 73.92009 
L 57.895 73.92009 
L 57.895 73.92009 
L 57.895966 73.810046 
L 57.898866 73.70003 
L 57.903697 73.590069 
L 57.910459 73.480192 
L 57.91915 73.370425 
L 57.929768 73.260796 
L 57.94231 73.151334 
L 57.956773 73.042065 
L 57.973154 72.933017 
L 57.991448 72.824217 
L 58.01165 72.715693 
L 58.033756 72.607473 
L 58.057761 72.499583 
L 58.083657 72.392051 
L 58.111438 72.284903 
L 58.141099 72.178167 
L 58.17263 72.071869 
L 58.206024 71.966037 
L 58.241273 71.860697 
L 58.278368 71.755875 
L 58.317299 71.651598 
L 58.358056 71.547892 
L 58.400631 71.444783 
L 58.445011 71.342297 
L 58.491185 71.240461 
L 58.539142 71.139299 
L 58.58887 71.038836 
L 58.640356 70.9391 
L 58.693588 70.840113 
L 58.748552 70.741903 
L 58.805233 70.644492 
L 58.863619 70.547906 
L 58.923693 70.452168 
L 58.985442 70.357304 
L 59.048849 70.263337 
L 59.113899 70.17029 
L 59.180574 70.078187 
L 59.248859 69.987052 
L 59.318736 69.896906 
L 59.390188 69.807773 
L 59.463196 69.719676 
L 59.537743 69.632636 
L 59.613808 69.546675 
L 59.691374 69.461816 
L 59.770421 69.378078 
L 59.850929 69.295485 
L 59.932877 69.214055 
L 60.016245 69.13381 
L 60.101012 69.05477 
L 60.187157 68.976955 
L 60.274658 68.900384 
L 60.363492 68.825077 
L 60.453638 68.751052 
L 60.545073 68.678329 
L 60.637774 68.606926 
L 60.731717 68.53686 
L 60.826879 68.468149 
L 60.923236 68.40081 
L 61.020764 68.334862 
L 61.119437 68.270319 
L 61.219232 68.207198 
L 61.320123 68.145516 
L 61.422085 68.085287 
L 61.525092 68.026527 
L 61.629117 67.969251 
L 61.734136 67.913473 
L 61.840121 67.859207 
L 61.947046 67.806467 
L 62.054884 67.755266 
L 62.163608 67.705617 
L 62.27319 67.657533 
L 62.383603 67.611025 
L 62.494818 67.566105 
L 62.606809 67.522785 
L 62.719547 67.481075 
L 62.833003 67.440987 
L 62.947148 67.402529 
L 63.061955 67.365712 
L 63.177394 67.330545 
L 63.293437 67.297037 
L 63.410053 67.265197 
L 63.527214 67.235032 
L 63.64489 67.206549 
L 63.763051 67.179757 
L 63.881668 67.154662 
L 64.000711 67.131269 
L 64.12015 67.109586 
L 64.239954 67.089618 
L 64.360094 67.071368 
L 64.48054 67.054843 
L 64.601261 67.040047 
L 64.722226 67.026982 
L 64.843406 67.015653 
L 64.964769 67.006061 
L 65.086286 66.998211 
L 65.207925 66.992102 
L 65.329656 66.987738 
L 65.451449 66.98512 
L 65.573272 66.984247 
L 65.573272 66.984247 
L 456.737347 66.984247 
L 456.737347 66.984247 
L 456.85917 66.98512 
L 456.980963 66.987738 
L 457.102694 66.992102 
L 457.224333 66.998211 
L 457.34585 67.006061 
L 457.467213 67.015653 
L 457.588393 67.026982 
L 457.709358 67.040047 
L 457.830079 67.054843 
L 457.950525 67.071368 
L 458.070665 67.089618 
L 458.190469 67.109586 
L 458.309908 67.131269 
L 458.428951 67.154662 
L 458.547568 67.179757 
L 458.665729 67.206549 
L 458.783405 67.235032 
L 458.900566 67.265197 
L 459.017182 67.297037 
L 459.133225 67.330545 
L 459.248664 67.365712 
L 459.363471 67.402529 
L 459.477616 67.440987 
L 459.591072 67.481075 
L 459.70381 67.522785 
L 459.815801 67.566105 
L 459.927016 67.611025 
L 460.037429 67.657533 
L 460.147011 67.705617 
L 460.255735 67.755266 
L 460.363573 67.806467 
L 460.470498 67.859207 
L 460.576483 67.913473 
L 460.681502 67.969251 
L 460.785528 68.026527 
L 460.888534 68.085287 
L 460.990496 68.145516 
L 461.091387 68.207198 
L 461.191182 68.270319 
L 461.289855 68.334862 
L 461.387383 68.40081 
L 461.48374 68.468149 
L 461.578902 68.53686 
L 461.672845 68.606926 
L 461.765546 68.678329 
L 461.856981 68.751052 
L 461.947127 68.825077 
L 462.035961 68.900384 
L 462.123462 68.976955 
L 462.209607 69.05477 
L 462.294374 69.13381 
L 462.377742 69.214055 
L 462.45969 69.295485 
L 462.540198 69.378078 
L 462.619245 69.461816 
L 462.696811 69.546675 
L 462.772876 69.632636 
L 462.847423 69.719676 
L 462.920431 69.807773 
L 462.991883 69.896906 
L 463.06176 69.987052 
L 463.130045 70.078187 
L 463.19672 70.17029 
L 463.26177 70.263337 
L 463.325177 70.357304 
L 463.386926 70.452168 
L 463.447 70.547906 
L 463.505386 70.644492 
L 463.562067 70.741903 
L 463.617031 70.840113 
L 463.670263 70.9391 
L 463.721749 71.038836 
L 463.771477 71.139299 
L 463.819434 71.240461 
L 463.865609 71.342297 
L 463.909988 71.444783 
L 463.952563 71.547892 
L 463.99332 71.651598 
L 464.032251 71.755875 
L 464.069346 71.860697 
L 464.104595 71.966037 
L 464.137989 72.071869 
L 464.16952 72.178167 
L 464.199181 72.284903 
L 464.226962 72.392051 
L 464.252858 72.499583 
L 464.276863 72.607473 
L 464.298969 72.715693 
L 464.319171 72.824217 
L 464.337465 72.933017 
L 464.353846 73.042065 
L 464.368309 73.151334 
L 464.380851 73.260796 
L 464.391469 73.370425 
L 464.40016 73.480192 
L 464.406922 73.590069 
L 464.411753 73.70003 
L 464.414653 73.810046 
L 464.415619 73.92009 
L 464.415619 73.92009 
L 464.415619 73.92009 
L 464.414653 74.030134 
L 464.411753 74.14015 
L 464.406922 74.250111 
L 464.40016 74.359988 
L 464.391469 74.469755 
L 464.380851 74.579384 
L 464.368309 74.688846 
L 464.353846 74.798115 
L 464.337465 74.907163 
L 464.319171 75.015963 
L 464.298969 75.124487 
L 464.276863 75.232707 
L 464.252858 75.340597 
L 464.226962 75.448129 
L 464.199181 75.555277 
L 464.16952 75.662013 
L 464.137989 75.768311 
L 464.104595 75.874143 
L 464.069346 75.979483 
L 464.032251 76.084305 
L 463.99332 76.188582 
L 463.952563 76.292288 
L 463.909988 76.395397 
L 463.865609 76.497883 
L 463.819434 76.599719 
L 463.771477 76.700881 
L 463.721749 76.801343 
L 463.670263 76.90108 
L 463.617031 77.000066 
L 463.562067 77.098277 
L 463.505386 77.195688 
L 463.447 77.292274 
L 463.386926 77.388012 
L 463.325177 77.482876 
L 463.26177 77.576843 
L 463.19672 77.66989 
L 463.130045 77.761993 
L 463.06176 77.853128 
L 462.991883 77.943274 
L 462.920431 78.032407 
L 462.847423 78.120504 
L 462.772876 78.207544 
L 462.696811 78.293505 
L 462.619245 78.378364 
L 462.540198 78.462101 
L 462.45969 78.544695 
L 462.377742 78.626125 
L 462.294374 78.70637 
L 462.209607 78.78541 
L 462.123462 78.863225 
L 462.035961 78.939796 
L 461.947127 79.015103 
L 461.856981 79.089127 
L 461.765546 79.161851 
L 461.672845 79.233254 
L 461.578902 79.30332 
L 461.48374 79.372031 
L 461.387383 79.439369 
L 461.289855 79.505318 
L 461.191182 79.569861 
L 461.091387 79.632982 
L 460.990496 79.694664 
L 460.888534 79.754893 
L 460.785528 79.813653 
L 460.681502 79.870929 
L 460.576483 79.926707 
L 460.470498 79.980972 
L 460.363573 80.033712 
L 460.255735 80.084913 
L 460.147011 80.134562 
L 460.037429 80.182647 
L 459.927016 80.229155 
L 459.815801 80.274075 
L 459.70381 80.317395 
L 459.591072 80.359105 
L 459.477616 80.399193 
L 459.363471 80.437651 
L 459.248664 80.474468 
L 459.133225 80.509634 
L 459.017182 80.543142 
L 458.900566 80.574983 
L 458.783405 80.605148 
L 458.665729 80.633631 
L 458.547568 80.660423 
L 458.428951 80.685518 
L 458.309908 80.70891 
L 458.190469 80.730594 
L 458.070665 80.750562 
L 457.950525 80.768811 
L 457.830079 80.785337 
L 457.709358 80.800133 
L 457.588393 80.813198 
L 457.467213 80.824527 
L 457.34585 80.834119 
L 457.224333 80.841969 
L 457.102694 80.848077 
L 456.980963 80.852441 
L 456.85917 80.85506 
L 456.737347 80.855933 
L 456.737347 80.855933 
L 65.573272 80.855933 
z
" clip-path="url(#p2db7f62f83)" style="fill: none; stroke: #000000; stroke-linejoin: miter"/>
   </g>
   <g id="patch_14">
    <path d="M 65.573272 54.499728 
L 65.573272 54.499728 
L 65.451449 54.498855 
L 65.329656 54.496236 
L 65.207925 54.491872 
L 65.086286 54.485764 
L 64.964769 54.477914 
L 64.843406 54.468322 
L 64.722226 54.456993 
L 64.601261 54.443928 
L 64.48054 54.429131 
L 64.360094 54.412606 
L 64.239954 54.394357 
L 64.12015 54.374389 
L 64.000711 54.352705 
L 63.881668 54.329313 
L 63.763051 54.304218 
L 63.64489 54.277426 
L 63.527214 54.248943 
L 63.410053 54.218778 
L 63.293437 54.186937 
L 63.177394 54.153429 
L 63.061955 54.118263 
L 62.947148 54.081446 
L 62.833003 54.042988 
L 62.719547 54.002899 
L 62.606809 53.96119 
L 62.494818 53.91787 
L 62.383603 53.87295 
L 62.27319 53.826442 
L 62.163608 53.778357 
L 62.054884 53.728708 
L 61.947046 53.677507 
L 61.840121 53.624767 
L 61.734136 53.570501 
L 61.629117 53.514723 
L 61.525092 53.457447 
L 61.422085 53.398688 
L 61.320123 53.338459 
L 61.219232 53.276777 
L 61.119437 53.213656 
L 61.020764 53.149113 
L 60.923236 53.083164 
L 60.826879 53.015826 
L 60.731717 52.947115 
L 60.637774 52.877049 
L 60.545073 52.805646 
L 60.453638 52.732922 
L 60.363492 52.658898 
L 60.274658 52.583591 
L 60.187157 52.50702 
L 60.101012 52.429205 
L 60.016245 52.350165 
L 59.932877 52.26992 
L 59.850929 52.18849 
L 59.770421 52.105896 
L 59.691374 52.022159 
L 59.613808 51.937299 
L 59.537743 51.851339 
L 59.463196 51.764299 
L 59.390188 51.676201 
L 59.318736 51.587069 
L 59.248859 51.496923 
L 59.180574 51.405788 
L 59.113899 51.313685 
L 59.048849 51.220638 
L 58.985442 51.126671 
L 58.923693 51.031807 
L 58.863619 50.936069 
L 58.805233 50.839483 
L 58.748552 50.742072 
L 58.693588 50.643861 
L 58.640356 50.544875 
L 58.58887 50.445138 
L 58.539142 50.344676 
L 58.491185 50.243514 
L 58.445011 50.141677 
L 58.400631 50.039192 
L 58.358056 49.936083 
L 58.317299 49.832377 
L 58.278368 49.7281 
L 58.241273 49.623278 
L 58.206024 49.517938 
L 58.17263 49.412106 
L 58.141099 49.305808 
L 58.111438 49.199072 
L 58.083657 49.091924 
L 58.057761 48.984392 
L 58.033756 48.876502 
L 58.01165 48.768281 
L 57.991448 48.659758 
L 57.973154 48.550958 
L 57.956773 48.44191 
L 57.94231 48.332641 
L 57.929768 48.223179 
L 57.91915 48.11355 
L 57.910459 48.003783 
L 57.903697 47.893906 
L 57.898866 47.783945 
L 57.895966 47.673929 
L 57.895 47.563885 
L 57.895 47.563885 
L 57.895 47.563885 
L 57.895966 47.453841 
L 57.898866 47.343825 
L 57.903697 47.233864 
L 57.910459 47.123986 
L 57.91915 47.01422 
L 57.929768 46.904591 
L 57.94231 46.795128 
L 57.956773 46.685859 
L 57.973154 46.576811 
L 57.991448 46.468012 
L 58.01165 46.359488 
L 58.033756 46.251268 
L 58.057761 46.143378 
L 58.083657 46.035845 
L 58.111438 45.928698 
L 58.141099 45.821962 
L 58.17263 45.715664 
L 58.206024 45.609832 
L 58.241273 45.504492 
L 58.278368 45.39967 
L 58.317299 45.295393 
L 58.358056 45.191687 
L 58.400631 45.088578 
L 58.445011 44.986092 
L 58.491185 44.884256 
L 58.539142 44.783093 
L 58.58887 44.682631 
L 58.640356 44.582895 
L 58.693588 44.483908 
L 58.748552 44.385697 
L 58.805233 44.288287 
L 58.863619 44.1917 
L 58.923693 44.095963 
L 58.985442 44.001099 
L 59.048849 43.907132 
L 59.113899 43.814085 
L 59.180574 43.721982 
L 59.248859 43.630846 
L 59.318736 43.540701 
L 59.390188 43.451568 
L 59.463196 43.363471 
L 59.537743 43.276431 
L 59.613808 43.19047 
L 59.691374 43.105611 
L 59.770421 43.021873 
L 59.850929 42.939279 
L 59.932877 42.85785 
L 60.016245 42.777605 
L 60.101012 42.698565 
L 60.187157 42.62075 
L 60.274658 42.544179 
L 60.363492 42.468872 
L 60.453638 42.394847 
L 60.545073 42.322124 
L 60.637774 42.250721 
L 60.731717 42.180654 
L 60.826879 42.111944 
L 60.923236 42.044605 
L 61.020764 41.978656 
L 61.119437 41.914114 
L 61.219232 41.850993 
L 61.320123 41.789311 
L 61.422085 41.729082 
L 61.525092 41.670322 
L 61.629117 41.613046 
L 61.734136 41.557268 
L 61.840121 41.503002 
L 61.947046 41.450262 
L 62.054884 41.399061 
L 62.163608 41.349412 
L 62.27319 41.301328 
L 62.383603 41.25482 
L 62.494818 41.2099 
L 62.606809 41.16658 
L 62.719547 41.12487 
L 62.833003 41.084782 
L 62.947148 41.046324 
L 63.061955 41.009507 
L 63.177394 40.97434 
L 63.293437 40.940832 
L 63.410053 40.908992 
L 63.527214 40.878827 
L 63.64489 40.850344 
L 63.763051 40.823552 
L 63.881668 40.798457 
L 64.000711 40.775064 
L 64.12015 40.753381 
L 64.239954 40.733412 
L 64.360094 40.715163 
L 64.48054 40.698638 
L 64.601261 40.683842 
L 64.722226 40.670777 
L 64.843406 40.659447 
L 64.964769 40.649856 
L 65.086286 40.642005 
L 65.207925 40.635897 
L 65.329656 40.631533 
L 65.451449 40.628914 
L 65.573272 40.628041 
L 65.573272 40.628041 
L 581.114402 40.628041 
L 581.114402 40.628041 
L 581.236225 40.628914 
L 581.358017 40.631533 
L 581.479749 40.635897 
L 581.601388 40.642005 
L 581.722904 40.649856 
L 581.844268 40.659447 
L 581.965447 40.670777 
L 582.086413 40.683842 
L 582.207134 40.698638 
L 582.327579 40.715163 
L 582.44772 40.733412 
L 582.567524 40.753381 
L 582.686963 40.775064 
L 582.806006 40.798457 
L 582.924623 40.823552 
L 583.042784 40.850344 
L 583.16046 40.878827 
L 583.277621 40.908992 
L 583.394237 40.940832 
L 583.510279 40.97434 
L 583.625718 41.009507 
L 583.740525 41.046324 
L 583.854671 41.084782 
L 583.968127 41.12487 
L 584.080865 41.16658 
L 584.192855 41.2099 
L 584.304071 41.25482 
L 584.414484 41.301328 
L 584.524066 41.349412 
L 584.63279 41.399061 
L 584.740627 41.450262 
L 584.847552 41.503002 
L 584.953538 41.557268 
L 585.058556 41.613046 
L 585.162582 41.670322 
L 585.265589 41.729082 
L 585.367551 41.789311 
L 585.468442 41.850993 
L 585.568236 41.914114 
L 585.66691 41.978656 
L 585.764438 42.044605 
L 585.860795 42.111944 
L 585.955957 42.180654 
L 586.0499 42.250721 
L 586.142601 42.322124 
L 586.234035 42.394847 
L 586.324182 42.468872 
L 586.413016 42.544179 
L 586.500517 42.62075 
L 586.586661 42.698565 
L 586.671429 42.777605 
L 586.754797 42.85785 
L 586.836745 42.939279 
L 586.917253 43.021873 
L 586.996299 43.105611 
L 587.073865 43.19047 
L 587.149931 43.276431 
L 587.224478 43.363471 
L 587.297486 43.451568 
L 587.368937 43.540701 
L 587.438815 43.630846 
L 587.5071 43.721982 
L 587.573775 43.814085 
L 587.638825 43.907132 
L 587.702232 44.001099 
L 587.76398 44.095963 
L 587.824055 44.1917 
L 587.88244 44.288287 
L 587.939122 44.385697 
L 587.994086 44.483908 
L 588.047317 44.582895 
L 588.098804 44.682631 
L 588.148532 44.783093 
L 588.196489 44.884256 
L 588.242663 44.986092 
L 588.287043 45.088578 
L 588.329617 45.191687 
L 588.370375 45.295393 
L 588.409306 45.39967 
L 588.446401 45.504492 
L 588.48165 45.609832 
L 588.515044 45.715664 
L 588.546575 45.821962 
L 588.576235 45.928698 
L 588.604017 46.035845 
L 588.629913 46.143378 
L 588.653917 46.251268 
L 588.676024 46.359488 
L 588.696226 46.468012 
L 588.71452 46.576811 
L 588.730901 46.685859 
L 588.745364 46.795128 
L 588.757906 46.904591 
L 588.768524 47.01422 
L 588.777215 47.123986 
L 588.783977 47.233864 
L 588.788808 47.343825 
L 588.791707 47.453841 
L 588.792674 47.563885 
L 588.792674 47.563885 
L 588.792674 47.563885 
L 588.791707 47.673929 
L 588.788808 47.783945 
L 588.783977 47.893906 
L 588.777215 48.003783 
L 588.768524 48.11355 
L 588.757906 48.223179 
L 588.745364 48.332641 
L 588.730901 48.44191 
L 588.71452 48.550958 
L 588.696226 48.659758 
L 588.676024 48.768281 
L 588.653917 48.876502 
L 588.629913 48.984392 
L 588.604017 49.091924 
L 588.576235 49.199072 
L 588.546575 49.305808 
L 588.515044 49.412106 
L 588.48165 49.517938 
L 588.446401 49.623278 
L 588.409306 49.7281 
L 588.370375 49.832377 
L 588.329617 49.936083 
L 588.287043 50.039192 
L 588.242663 50.141677 
L 588.196489 50.243514 
L 588.148532 50.344676 
L 588.098804 50.445138 
L 588.047317 50.544875 
L 587.994086 50.643861 
L 587.939122 50.742072 
L 587.88244 50.839483 
L 587.824055 50.936069 
L 587.76398 51.031807 
L 587.702232 51.126671 
L 587.638825 51.220638 
L 587.573775 51.313685 
L 587.5071 51.405788 
L 587.438815 51.496923 
L 587.368937 51.587069 
L 587.297486 51.676201 
L 587.224478 51.764299 
L 587.149931 51.851339 
L 587.073865 51.937299 
L 586.996299 52.022159 
L 586.917253 52.105896 
L 586.836745 52.18849 
L 586.754797 52.26992 
L 586.671429 52.350165 
L 586.586661 52.429205 
L 586.500517 52.50702 
L 586.413016 52.583591 
L 586.324182 52.658898 
L 586.234035 52.732922 
L 586.142601 52.805646 
L 586.0499 52.877049 
L 585.955957 52.947115 
L 585.860795 53.015826 
L 585.764438 53.083164 
L 585.66691 53.149113 
L 585.568236 53.213656 
L 585.468442 53.276777 
L 585.367551 53.338459 
L 585.265589 53.398688 
L 585.162582 53.457447 
L 585.058556 53.514723 
L 584.953538 53.570501 
L 584.847552 53.624767 
L 584.740627 53.677507 
L 584.63279 53.728708 
L 584.524066 53.778357 
L 584.414484 53.826442 
L 584.304071 53.87295 
L 584.192855 53.91787 
L 584.080865 53.96119 
L 583.968127 54.002899 
L 583.854671 54.042988 
L 583.740525 54.081446 
L 583.625718 54.118263 
L 583.510279 54.153429 
L 583.394237 54.186937 
L 583.277621 54.218778 
L 583.16046 54.248943 
L 583.042784 54.277426 
L 582.924623 54.304218 
L 582.806006 54.329313 
L 582.686963 54.352705 
L 582.567524 54.374389 
L 582.44772 54.394357 
L 582.327579 54.412606 
L 582.207134 54.429131 
L 582.086413 54.443928 
L 581.965447 54.456993 
L 581.844268 54.468322 
L 581.722904 54.477914 
L 581.601388 54.485764 
L 581.479749 54.491872 
L 581.358017 54.496236 
L 581.236225 54.498855 
L 581.114402 54.499728 
L 581.114402 54.499728 
L 65.573272 54.499728 
z
" clip-path="url(#p2db7f62f83)" style="fill: none; stroke: #000000; stroke-linejoin: miter"/>
   </g>
  </g>
 </g>
 <defs>
  <clipPath id="p2db7f62f83">
   <rect x="57.337557" y="28.240625" width="558" height="55.44"/>
  </clipPath>
 </defs>
</svg>
