<?xml version="1.0" encoding="utf-8" standalone="no"?>
<!DOCTYPE svg PUBLIC "-//W3C//DTD SVG 1.1//EN"
  "http://www.w3.org/Graphics/SVG/1.1/DTD/svg11.dtd">
<svg xmlns:xlink="http://www.w3.org/1999/xlink" width="734.026069pt" height="163.155pt" viewBox="0 0 734.026069 163.155" xmlns="http://www.w3.org/2000/svg" version="1.1">
 <metadata>
  <rdf:RDF xmlns:dc="http://purl.org/dc/elements/1.1/" xmlns:cc="http://creativecommons.org/ns#" xmlns:rdf="http://www.w3.org/1999/02/22-rdf-syntax-ns#">
   <cc:Work>
    <dc:type rdf:resource="http://purl.org/dc/dcmitype/StillImage"/>
    <dc:date>2026-04-10T02:48:05.714545</dc:date>
    <dc:format>image/svg+xml</dc:format>
    <dc:creator>
     <cc:Agent>
      <dc:title>Matplotlib v3.10.8, https://matplotlib.org/</dc:title>
     </cc:Agent>
    </dc:creator>
   </cc:Work>
  </rdf:RDF>
 </metadata>
 <defs>
  <style type="text/css">*{stroke-linejoin: round; stroke-linecap: butt}</style>
 </defs>
 <g id="figure_1">
  <g id="patch_1">
   <path d="M 0 163.155 
L 734.026069 163.155 
L 734.026069 0 
L 0 0 
z
" style="fill: #ffffff"/>
  </g>
  <g id="axes_1">
   <g id="patch_2">
    <path d="M 57.226069 139.276875 
L 726.826069 139.276875 
L 726.826069 28.396875 
L 57.226069 28.396875 
z
" style="fill: #ffffff"/>
   </g>
   <g id="patch_3">
    <path d="M 606.761518 130.645396 
L 623.913597 130.645396 
L 623.913597 122.124686 
L 606.761518 122.124686 
z
" clip-path="url(#pe2a51177e8)" style="fill: #808080; stroke: #000000; stroke-width: 0.5; stroke-linejoin: miter"/>
   </g>
   <g id="patch_4">
    <path d="M 606.761518 122.124686 
L 623.913597 122.124686 
L 623.913597 113.603976 
L 606.761518 113.603976 
z
" clip-path="url(#pe2a51177e8)" style="fill: #ffffff; stroke: #000000; stroke-width: 0.5; stroke-linejoin: miter"/>
   </g>
   <g id="patch_5">
    <path d="M 606.761518 113.603976 
L 623.913597 113.603976 
L 623.913597 105.083266 
L 606.761518 105.083266 
z
" clip-path="url(#pe2a51177e8)" style="fill: #00007f; stroke: #000000; stroke-width: 0.5; stroke-linejoin: miter"/>
   </g>
   <g id="patch_6">
    <path d="M 606.761518 105.083266 
L 623.913597 105.083266 
L 623.913597 96.562555 
L 606.761518 96.562555 
z
" clip-path="url(#pe2a51177e8)" style="fill: #0000ff; stroke: #000000; stroke-width: 0.5; stroke-linejoin: miter"/>
   </g>
   <g id="patch_7">
    <path d="M 606.761518 96.562555 
L 623.913597 96.562555 
L 623.913597 88.041845 
L 606.761518 88.041845 
z
" clip-path="url(#pe2a51177e8)" style="fill: #007fff; stroke: #000000; stroke-width: 0.5; stroke-linejoin: miter"/>
   </g>
   <g id="patch_8">
    <path d="M 606.761518 88.041845 
L 623.913597 88.041845 
L 623.913597 79.521135 
L 606.761518 79.521135 
z
" clip-path="url(#pe2a51177e8)" style="fill: #14ffe2; stroke: #000000; stroke-width: 0.5; stroke-linejoin: miter"/>
   </g>
   <g id="patch_9">
    <path d="M 606.761518 79.521135 
L 623.913597 79.521135 
L 623.913597 71.000425 
L 606.761518 71.000425 
z
" clip-path="url(#pe2a51177e8)" style="fill: #7bff7b; stroke: #000000; stroke-width: 0.5; stroke-linejoin: miter"/>
   </g>
   <g id="patch_10">
    <path d="M 606.761518 71.000425 
L 623.913597 71.000425 
L 623.913597 62.479715 
L 606.761518 62.479715 
z
" clip-path="url(#pe2a51177e8)" style="fill: #e2ff14; stroke: #000000; stroke-width: 0.5; stroke-linejoin: miter"/>
   </g>
   <g id="patch_11">
    <path d="M 606.761518 62.479715 
L 623.913597 62.479715 
L 623.913597 53.959005 
L 606.761518 53.959005 
z
" clip-path="url(#pe2a51177e8)" style="fill: #ff9700; stroke: #000000; stroke-width: 0.5; stroke-linejoin: miter"/>
   </g>
   <g id="patch_12">
    <path d="M 606.761518 53.959005 
L 623.913597 53.959005 
L 623.913597 45.438295 
L 606.761518 45.438295 
z
" clip-path="url(#pe2a51177e8)" style="fill: #ff2100; stroke: #000000; stroke-width: 0.5; stroke-linejoin: miter"/>
   </g>
   <g id="patch_13">
    <path d="M 606.761518 45.438295 
L 623.913597 45.438295 
L 623.913597 36.917585 
L 606.761518 36.917585 
z
" clip-path="url(#pe2a51177e8)" style="fill: #7f0000; stroke: #000000; stroke-width: 0.5; stroke-linejoin: miter"/>
   </g>
   <g id="matplotlib.axis_1">
    <g id="xtick_1">
     <g id="line2d_1">
      <defs>
       <path id="m51da5349d9" d="M 0 0 
L 0 3.5 
" style="stroke: #000000; stroke-width: 0.8"/>
      </defs>
      <g>
       <use xlink:href="#m51da5349d9" x="57.895" y="139.276875" style="stroke: #000000; stroke-width: 0.8"/>
      </g>
     </g>
     <g id="text_1">
      <!-- 0 Mbp -->
      <g transform="translate(42.462187 153.875313) scale(0.1 -0.1)">
       <defs>
        <path id="DejaVuSans-30" d="M 2034 4250 
Q 1547 4250 1301 3770 
Q 1056 3291 1056 2328 
Q 1056 1369 1301 889 
Q 1547 409 2034 409 
Q 2525 409 2770 889 
Q 3016 1369 3016 2328 
Q 3016 3291 2770 3770 
Q 2525 4250 2034 4250 
z
M 2034 4750 
Q 2819 4750 3233 4129 
Q 3647 3509 3647 2328 
Q 3647 1150 3233 529 
Q 2819 -91 2034 -91 
Q 1250 -91 836 529 
Q 422 1150 422 2328 
Q 422 3509 836 4129 
Q 1250 4750 2034 4750 
z
" transform="scale(0.015625)"/>
        <path id="DejaVuSans-20" transform="scale(0.015625)"/>
        <path id="DejaVuSans-4d" d="M 628 4666 
L 1569 4666 
L 2759 1491 
L 3956 4666 
L 4897 4666 
L 4897 0 
L 4281 0 
L 4281 4097 
L 3078 897 
L 2444 897 
L 1241 4097 
L 1241 0 
L 628 0 
L 628 4666 
z
" transform="scale(0.015625)"/>
        <path id="DejaVuSans-62" d="M 3116 1747 
Q 3116 2381 2855 2742 
Q 2594 3103 2138 3103 
Q 1681 3103 1420 2742 
Q 1159 2381 1159 1747 
Q 1159 1113 1420 752 
Q 1681 391 2138 391 
Q 2594 391 2855 752 
Q 3116 1113 3116 1747 
z
M 1159 2969 
Q 1341 3281 1617 3432 
Q 1894 3584 2278 3584 
Q 2916 3584 3314 3078 
Q 3713 2572 3713 1747 
Q 3713 922 3314 415 
Q 2916 -91 2278 -91 
Q 1894 -91 1617 61 
Q 1341 213 1159 525 
L 1159 0 
L 581 0 
L 581 4863 
L 1159 4863 
L 1159 2969 
z
" transform="scale(0.015625)"/>
        <path id="DejaVuSans-70" d="M 1159 525 
L 1159 -1331 
L 581 -1331 
L 581 3500 
L 1159 3500 
L 1159 2969 
Q 1341 3281 1617 3432 
Q 1894 3584 2278 3584 
Q 2916 3584 3314 3078 
Q 3713 2572 3713 1747 
Q 3713 922 3314 415 
Q 2916 -91 2278 -91 
Q 1894 -91 1617 61 
Q 1341 213 1159 525 
z
M 3116 1747 
Q 3116 2381 2855 2742 
Q 2594 3103 2138 3103 
Q 1681 3103 1420 2742 
Q 1159 2381 1159 1747 
Q 1159 1113 1420 752 
Q 1681 391 2138 391 
Q 2594 391 2855 752 
Q 3116 1113 3116 1747 
z
" transform="scale(0.015625)"/>
       </defs>
       <use xlink:href="#DejaVuSans-30"/>
       <use xlink:href="#DejaVuSans-20" transform="translate(63.623047 0)"/>
       <use xlink:href="#DejaVuSans-4d" transform="translate(95.410156 0)"/>
       <use xlink:href="#DejaVuSans-62" transform="translate(181.689453 0)"/>
       <use xlink:href="#DejaVuSans-70" transform="translate(245.166016 0)"/>
      </g>
     </g>
    </g>
    <g id="xtick_2">
     <g id="line2d_2">
      <g>
       <use xlink:href="#m51da5349d9" x="177.407856" y="139.276875" style="stroke: #000000; stroke-width: 0.8"/>
      </g>
     </g>
     <g id="text_2">
      <!-- 50 Mbp -->
      <g transform="translate(158.793794 153.875313) scale(0.1 -0.1)">
       <defs>
        <path id="DejaVuSans-35" d="M 691 4666 
L 3169 4666 
L 3169 4134 
L 1269 4134 
L 1269 2991 
Q 1406 3038 1543 3061 
Q 1681 3084 1819 3084 
Q 2600 3084 3056 2656 
Q 3513 2228 3513 1497 
Q 3513 744 3044 326 
Q 2575 -91 1722 -91 
Q 1428 -91 1123 -41 
Q 819 9 494 109 
L 494 744 
Q 775 591 1075 516 
Q 1375 441 1709 441 
Q 2250 441 2565 725 
Q 2881 1009 2881 1497 
Q 2881 1984 2565 2268 
Q 2250 2553 1709 2553 
Q 1456 2553 1204 2497 
Q 953 2441 691 2322 
L 691 4666 
z
" transform="scale(0.015625)"/>
       </defs>
       <use xlink:href="#DejaVuSans-35"/>
       <use xlink:href="#DejaVuSans-30" transform="translate(63.623047 0)"/>
       <use xlink:href="#DejaVuSans-20" transform="translate(127.246094 0)"/>
       <use xlink:href="#DejaVuSans-4d" transform="translate(159.033203 0)"/>
       <use xlink:href="#DejaVuSans-62" transform="translate(245.3125 0)"/>
       <use xlink:href="#DejaVuSans-70" transform="translate(308.789062 0)"/>
      </g>
     </g>
    </g>
    <g id="xtick_3">
     <g id="line2d_3">
      <g>
       <use xlink:href="#m51da5349d9" x="296.920712" y="139.276875" style="stroke: #000000; stroke-width: 0.8"/>
      </g>
     </g>
     <g id="text_3">
      <!-- 100 Mbp -->
      <g transform="translate(275.1254 153.875313) scale(0.1 -0.1)">
       <defs>
        <path id="DejaVuSans-31" d="M 794 531 
L 1825 531 
L 1825 4091 
L 703 3866 
L 703 4441 
L 1819 4666 
L 2450 4666 
L 2450 531 
L 3481 531 
L 3481 0 
L 794 0 
L 794 531 
z
" transform="scale(0.015625)"/>
       </defs>
       <use xlink:href="#DejaVuSans-31"/>
       <use xlink:href="#DejaVuSans-30" transform="translate(63.623047 0)"/>
       <use xlink:href="#DejaVuSans-30" transform="translate(127.246094 0)"/>
       <use xlink:href="#DejaVuSans-20" transform="translate(190.869141 0)"/>
       <use xlink:href="#DejaVuSans-4d" transform="translate(222.65625 0)"/>
       <use xlink:href="#DejaVuSans-62" transform="translate(308.935547 0)"/>
       <use xlink:href="#DejaVuSans-70" transform="translate(372.412109 0)"/>
      </g>
     </g>
    </g>
    <g id="xtick_4">
     <g id="line2d_4">
      <g>
       <use xlink:href="#m51da5349d9" x="416.433568" y="139.276875" style="stroke: #000000; stroke-width: 0.8"/>
      </g>
     </g>
     <g id="text_4">
      <!-- 150 Mbp -->
      <g transform="translate(394.638256 153.875313) scale(0.1 -0.1)">
       <use xlink:href="#DejaVuSans-31"/>
       <use xlink:href="#DejaVuSans-35" transform="translate(63.623047 0)"/>
       <use xlink:href="#DejaVuSans-30" transform="translate(127.246094 0)"/>
       <use xlink:href="#DejaVuSans-20" transform="translate(190.869141 0)"/>
       <use xlink:href="#DejaVuSans-4d" transform="translate(222.65625 0)"/>
       <use xlink:href="#DejaVuSans-62" transform="translate(308.935547 0)"/>
       <use xlink:href="#DejaVuSans-70" transform="translate(372.412109 0)"/>
      </g>
     </g>
    </g>
    <g id="xtick_5">
     <g id="line2d_5">
      <g>
       <use xlink:href="#m51da5349d9" x="535.946424" y="139.276875" style="stroke: #000000; stroke-width: 0.8"/>
      </g>
     </g>
     <g id="text_5">
      <!-- 200 Mbp -->
      <g transform="translate(514.151112 153.875313) scale(0.1 -0.1)">
       <defs>
        <path id="DejaVuSans-32" d="M 1228 531 
L 3431 531 
L 3431 0 
L 469 0 
L 469 531 
Q 828 903 1448 1529 
Q 2069 2156 2228 2338 
Q 2531 2678 2651 2914 
Q 2772 3150 2772 3378 
Q 2772 3750 2511 3984 
Q 2250 4219 1831 4219 
Q 1534 4219 1204 4116 
Q 875 4013 500 3803 
L 500 4441 
Q 881 4594 1212 4672 
Q 1544 4750 1819 4750 
Q 2544 4750 2975 4387 
Q 3406 4025 3406 3419 
Q 3406 3131 3298 2873 
Q 3191 2616 2906 2266 
Q 2828 2175 2409 1742 
Q 1991 1309 1228 531 
z
" transform="scale(0.015625)"/>
       </defs>
       <use xlink:href="#DejaVuSans-32"/>
       <use xlink:href="#DejaVuSans-30" transform="translate(63.623047 0)"/>
       <use xlink:href="#DejaVuSans-30" transform="translate(127.246094 0)"/>
       <use xlink:href="#DejaVuSans-20" transform="translate(190.869141 0)"/>
       <use xlink:href="#DejaVuSans-4d" transform="translate(222.65625 0)"/>
       <use xlink:href="#DejaVuSans-62" transform="translate(308.935547 0)"/>
       <use xlink:href="#DejaVuSans-70" transform="translate(372.412109 0)"/>
      </g>
     </g>
    </g>
    <g id="xtick_6">
     <g id="line2d_6">
      <g>
       <use xlink:href="#m51da5349d9" x="655.45928" y="139.276875" style="stroke: #000000; stroke-width: 0.8"/>
      </g>
     </g>
     <g id="text_6">
      <!-- 250 Mbp -->
      <g transform="translate(633.663968 153.875313) scale(0.1 -0.1)">
       <use xlink:href="#DejaVuSans-32"/>
       <use xlink:href="#DejaVuSans-35" transform="translate(63.623047 0)"/>
       <use xlink:href="#DejaVuSans-30" transform="translate(127.246094 0)"/>
       <use xlink:href="#DejaVuSans-20" transform="translate(190.869141 0)"/>
       <use xlink:href="#DejaVuSans-4d" transform="translate(222.65625 0)"/>
       <use xlink:href="#DejaVuSans-62" transform="translate(308.935547 0)"/>
       <use xlink:href="#DejaVuSans-70" transform="translate(372.412109 0)"/>
      </g>
     </g>
    </g>
   </g>
   <g id="patch_14">
    <path d="M 57.226069 139.276875 
L 57.226069 28.396875 
" style="fill: none"/>
   </g>
   <g id="patch_15">
    <path d="M 726.826069 139.276875 
L 726.826069 28.396875 
" style="fill: none"/>
   </g>
   <g id="patch_16">
    <path d="M 57.226069 139.276875 
L 726.826069 139.276875 
" style="fill: none; stroke: #000000; stroke-width: 0.8; stroke-linejoin: miter; stroke-linecap: square"/>
   </g>
   <g id="patch_17">
    <path d="M 57.226069 28.396875 
L 726.826069 28.396875 
" style="fill: none"/>
   </g>
   <g id="text_7">
    <!-- chr1 -->
    <g transform="translate(7.2 135.912467) scale(0.16 -0.16)">
     <defs>
      <path id="DejaVuSans-63" d="M 3122 3366 
L 3122 2828 
Q 2878 2963 2633 3030 
Q 2388 3097 2138 3097 
Q 1578 3097 1268 2742 
Q 959 2388 959 1747 
Q 959 1106 1268 751 
Q 1578 397 2138 397 
Q 2388 397 2633 464 
Q 2878 531 3122 666 
L 3122 134 
Q 2881 22 2623 -34 
Q 2366 -91 2075 -91 
Q 1284 -91 818 406 
Q 353 903 353 1747 
Q 353 2603 823 3093 
Q 1294 3584 2113 3584 
Q 2378 3584 2631 3529 
Q 2884 3475 3122 3366 
z
" transform="scale(0.015625)"/>
      <path id="DejaVuSans-68" d="M 3513 2113 
L 3513 0 
L 2938 0 
L 2938 2094 
Q 2938 2591 2744 2837 
Q 2550 3084 2163 3084 
Q 1697 3084 1428 2787 
Q 1159 2491 1159 1978 
L 1159 0 
L 581 0 
L 581 4863 
L 1159 4863 
L 1159 2956 
Q 1366 3272 1645 3428 
Q 1925 3584 2291 3584 
Q 2894 3584 3203 3211 
Q 3513 2838 3513 2113 
z
" transform="scale(0.015625)"/>
      <path id="DejaVuSans-72" d="M 2631 2963 
Q 2534 3019 2420 3045 
Q 2306 3072 2169 3072 
Q 1681 3072 1420 2755 
Q 1159 2438 1159 1844 
L 1159 0 
L 581 0 
L 581 3500 
L 1159 3500 
L 1159 2956 
Q 1341 3275 1631 3429 
Q 1922 3584 2338 3584 
Q 2397 3584 2469 3576 
Q 2541 3569 2628 3553 
L 2631 2963 
z
" transform="scale(0.015625)"/>
     </defs>
     <use xlink:href="#DejaVuSans-63"/>
     <use xlink:href="#DejaVuSans-68" transform="translate(54.980469 0)"/>
     <use xlink:href="#DejaVuSans-72" transform="translate(118.359375 0)"/>
     <use xlink:href="#DejaVuSans-31" transform="translate(159.472656 0)"/>
    </g>
   </g>
   <g id="text_8">
    <!-- chr2 -->
    <g transform="translate(7.2 119.723118) scale(0.16 -0.16)">
     <use xlink:href="#DejaVuSans-63"/>
     <use xlink:href="#DejaVuSans-68" transform="translate(54.980469 0)"/>
     <use xlink:href="#DejaVuSans-72" transform="translate(118.359375 0)"/>
     <use xlink:href="#DejaVuSans-32" transform="translate(159.472656 0)"/>
    </g>
   </g>
   <g id="text_9">
    <!-- masked -->
    <g transform="translate(641.065675 128.515218) scale(0.13 -0.13)">
     <defs>
      <path id="DejaVuSans-6d" d="M 3328 2828 
Q 3544 3216 3844 3400 
Q 4144 3584 4550 3584 
Q 5097 3584 5394 3201 
Q 5691 2819 5691 2113 
L 5691 0 
L 5113 0 
L 5113 2094 
Q 5113 2597 4934 2840 
Q 4756 3084 4391 3084 
Q 3944 3084 3684 2787 
Q 3425 2491 3425 1978 
L 3425 0 
L 2847 0 
L 2847 2094 
Q 2847 2600 2669 2842 
Q 2491 3084 2119 3084 
Q 1678 3084 1418 2786 
Q 1159 2488 1159 1978 
L 1159 0 
L 581 0 
L 581 3500 
L 1159 3500 
L 1159 2956 
Q 1356 3278 1631 3431 
Q 1906 3584 2284 3584 
Q 2666 3584 2933 3390 
Q 3200 3197 3328 2828 
z
" transform="scale(0.015625)"/>
      <path id="DejaVuSans-61" d="M 2194 1759 
Q 1497 1759 1228 1600 
Q 959 1441 959 1056 
Q 959 750 1161 570 
Q 1363 391 1709 391 
Q 2188 391 2477 730 
Q 2766 1069 2766 1631 
L 2766 1759 
L 2194 1759 
z
M 3341 1997 
L 3341 0 
L 2766 0 
L 2766 531 
Q 2569 213 2275 61 
Q 1981 -91 1556 -91 
Q 1019 -91 701 211 
Q 384 513 384 1019 
Q 384 1609 779 1909 
Q 1175 2209 1959 2209 
L 2766 2209 
L 2766 2266 
Q 2766 2663 2505 2880 
Q 2244 3097 1772 3097 
Q 1472 3097 1187 3025 
Q 903 2953 641 2809 
L 641 3341 
Q 956 3463 1253 3523 
Q 1550 3584 1831 3584 
Q 2591 3584 2966 3190 
Q 3341 2797 3341 1997 
z
" transform="scale(0.015625)"/>
      <path id="DejaVuSans-73" d="M 2834 3397 
L 2834 2853 
Q 2591 2978 2328 3040 
Q 2066 3103 1784 3103 
Q 1356 3103 1142 2972 
Q 928 2841 928 2578 
Q 928 2378 1081 2264 
Q 1234 2150 1697 2047 
L 1894 2003 
Q 2506 1872 2764 1633 
Q 3022 1394 3022 966 
Q 3022 478 2636 193 
Q 2250 -91 1575 -91 
Q 1294 -91 989 -36 
Q 684 19 347 128 
L 347 722 
Q 666 556 975 473 
Q 1284 391 1588 391 
Q 1994 391 2212 530 
Q 2431 669 2431 922 
Q 2431 1156 2273 1281 
Q 2116 1406 1581 1522 
L 1381 1569 
Q 847 1681 609 1914 
Q 372 2147 372 2553 
Q 372 3047 722 3315 
Q 1072 3584 1716 3584 
Q 2034 3584 2315 3537 
Q 2597 3491 2834 3397 
z
" transform="scale(0.015625)"/>
      <path id="DejaVuSans-6b" d="M 581 4863 
L 1159 4863 
L 1159 1991 
L 2875 3500 
L 3609 3500 
L 1753 1863 
L 3688 0 
L 2938 0 
L 1159 1709 
L 1159 0 
L 581 0 
L 581 4863 
z
" transform="scale(0.015625)"/>
      <path id="DejaVuSans-65" d="M 3597 1894 
L 3597 1613 
L 953 1613 
Q 991 1019 1311 708 
Q 1631 397 2203 397 
Q 2534 397 2845 478 
Q 3156 559 3463 722 
L 3463 178 
Q 3153 47 2828 -22 
Q 2503 -91 2169 -91 
Q 1331 -91 842 396 
Q 353 884 353 1716 
Q 353 2575 817 3079 
Q 1281 3584 2069 3584 
Q 2775 3584 3186 3129 
Q 3597 2675 3597 1894 
z
M 3022 2063 
Q 3016 2534 2758 2815 
Q 2500 3097 2075 3097 
Q 1594 3097 1305 2825 
Q 1016 2553 972 2059 
L 3022 2063 
z
" transform="scale(0.015625)"/>
      <path id="DejaVuSans-64" d="M 2906 2969 
L 2906 4863 
L 3481 4863 
L 3481 0 
L 2906 0 
L 2906 525 
Q 2725 213 2448 61 
Q 2172 -91 1784 -91 
Q 1150 -91 751 415 
Q 353 922 353 1747 
Q 353 2572 751 3078 
Q 1150 3584 1784 3584 
Q 2172 3584 2448 3432 
Q 2725 3281 2906 2969 
z
M 947 1747 
Q 947 1113 1208 752 
Q 1469 391 1925 391 
Q 2381 391 2643 752 
Q 2906 1113 2906 1747 
Q 2906 2381 2643 2742 
Q 2381 3103 1925 3103 
Q 1469 3103 1208 2742 
Q 947 2381 947 1747 
z
" transform="scale(0.015625)"/>
     </defs>
     <use xlink:href="#DejaVuSans-6d"/>
     <use xlink:href="#DejaVuSans-61" transform="translate(97.412109 0)"/>
     <use xlink:href="#DejaVuSans-73" transform="translate(158.691406 0)"/>
     <use xlink:href="#DejaVuSans-6b" transform="translate(210.791016 0)"/>
     <use xlink:href="#DejaVuSans-65" transform="translate(265.076172 0)"/>
     <use xlink:href="#DejaVuSans-64" transform="translate(326.599609 0)"/>
    </g>
   </g>
   <g id="text_10">
    <!-- no SNPs -->
    <g transform="translate(641.065675 119.994508) scale(0.13 -0.13)">
     <defs>
      <path id="DejaVuSans-6e" d="M 3513 2113 
L 3513 0 
L 2938 0 
L 2938 2094 
Q 2938 2591 2744 2837 
Q 2550 3084 2163 3084 
Q 1697 3084 1428 2787 
Q 1159 2491 1159 1978 
L 1159 0 
L 581 0 
L 581 3500 
L 1159 3500 
L 1159 2956 
Q 1366 3272 1645 3428 
Q 1925 3584 2291 3584 
Q 2894 3584 3203 3211 
Q 3513 2838 3513 2113 
z
" transform="scale(0.015625)"/>
      <path id="DejaVuSans-6f" d="M 1959 3097 
Q 1497 3097 1228 2736 
Q 959 2375 959 1747 
Q 959 1119 1226 758 
Q 1494 397 1959 397 
Q 2419 397 2687 759 
Q 2956 1122 2956 1747 
Q 2956 2369 2687 2733 
Q 2419 3097 1959 3097 
z
M 1959 3584 
Q 2709 3584 3137 3096 
Q 3566 2609 3566 1747 
Q 3566 888 3137 398 
Q 2709 -91 1959 -91 
Q 1206 -91 779 398 
Q 353 888 353 1747 
Q 353 2609 779 3096 
Q 1206 3584 1959 3584 
z
" transform="scale(0.015625)"/>
      <path id="DejaVuSans-53" d="M 3425 4513 
L 3425 3897 
Q 3066 4069 2747 4153 
Q 2428 4238 2131 4238 
Q 1616 4238 1336 4038 
Q 1056 3838 1056 3469 
Q 1056 3159 1242 3001 
Q 1428 2844 1947 2747 
L 2328 2669 
Q 3034 2534 3370 2195 
Q 3706 1856 3706 1288 
Q 3706 609 3251 259 
Q 2797 -91 1919 -91 
Q 1588 -91 1214 -16 
Q 841 59 441 206 
L 441 856 
Q 825 641 1194 531 
Q 1563 422 1919 422 
Q 2459 422 2753 634 
Q 3047 847 3047 1241 
Q 3047 1584 2836 1778 
Q 2625 1972 2144 2069 
L 1759 2144 
Q 1053 2284 737 2584 
Q 422 2884 422 3419 
Q 422 4038 858 4394 
Q 1294 4750 2059 4750 
Q 2388 4750 2728 4690 
Q 3069 4631 3425 4513 
z
" transform="scale(0.015625)"/>
      <path id="DejaVuSans-4e" d="M 628 4666 
L 1478 4666 
L 3547 763 
L 3547 4666 
L 4159 4666 
L 4159 0 
L 3309 0 
L 1241 3903 
L 1241 0 
L 628 0 
L 628 4666 
z
" transform="scale(0.015625)"/>
      <path id="DejaVuSans-50" d="M 1259 4147 
L 1259 2394 
L 2053 2394 
Q 2494 2394 2734 2622 
Q 2975 2850 2975 3272 
Q 2975 3691 2734 3919 
Q 2494 4147 2053 4147 
L 1259 4147 
z
M 628 4666 
L 2053 4666 
Q 2838 4666 3239 4311 
Q 3641 3956 3641 3272 
Q 3641 2581 3239 2228 
Q 2838 1875 2053 1875 
L 1259 1875 
L 1259 0 
L 628 0 
L 628 4666 
z
" transform="scale(0.015625)"/>
     </defs>
     <use xlink:href="#DejaVuSans-6e"/>
     <use xlink:href="#DejaVuSans-6f" transform="translate(63.378906 0)"/>
     <use xlink:href="#DejaVuSans-20" transform="translate(124.560547 0)"/>
     <use xlink:href="#DejaVuSans-53" transform="translate(156.347656 0)"/>
     <use xlink:href="#DejaVuSans-4e" transform="translate(219.824219 0)"/>
     <use xlink:href="#DejaVuSans-50" transform="translate(294.628906 0)"/>
     <use xlink:href="#DejaVuSans-73" transform="translate(353.181641 0)"/>
    </g>
   </g>
   <g id="text_11">
    <!-- 0.00 - 0.10 -->
    <g transform="translate(641.065675 111.473798) scale(0.13 -0.13)">
     <defs>
      <path id="DejaVuSans-2e" d="M 684 794 
L 1344 794 
L 1344 0 
L 684 0 
L 684 794 
z
" transform="scale(0.015625)"/>
      <path id="DejaVuSans-2d" d="M 313 2009 
L 1997 2009 
L 1997 1497 
L 313 1497 
L 313 2009 
z
" transform="scale(0.015625)"/>
     </defs>
     <use xlink:href="#DejaVuSans-30"/>
     <use xlink:href="#DejaVuSans-2e" transform="translate(63.623047 0)"/>
     <use xlink:href="#DejaVuSans-30" transform="translate(95.410156 0)"/>
     <use xlink:href="#DejaVuSans-30" transform="translate(159.033203 0)"/>
     <use xlink:href="#DejaVuSans-20" transform="translate(222.65625 0)"/>
     <use xlink:href="#DejaVuSans-2d" transform="translate(254.443359 0)"/>
     <use xlink:href="#DejaVuSans-20" transform="translate(290.527344 0)"/>
     <use xlink:href="#DejaVuSans-30" transform="translate(322.314453 0)"/>
     <use xlink:href="#DejaVuSans-2e" transform="translate(385.9375 0)"/>
     <use xlink:href="#DejaVuSans-31" transform="translate(417.724609 0)"/>
     <use xlink:href="#DejaVuSans-30" transform="translate(481.347656 0)"/>
    </g>
   </g>
   <g id="text_12">
    <!-- 0.10 - 0.50 -->
    <g transform="translate(641.065675 102.953088) scale(0.13 -0.13)">
     <use xlink:href="#DejaVuSans-30"/>
     <use xlink:href="#DejaVuSans-2e" transform="translate(63.623047 0)"/>
     <use xlink:href="#DejaVuSans-31" transform="translate(95.410156 0)"/>
     <use xlink:href="#DejaVuSans-30" transform="translate(159.033203 0)"/>
     <use xlink:href="#DejaVuSans-20" transform="translate(222.65625 0)"/>
     <use xlink:href="#DejaVuSans-2d" transform="translate(254.443359 0)"/>
     <use xlink:href="#DejaVuSans-20" transform="translate(290.527344 0)"/>
     <use xlink:href="#DejaVuSans-30" transform="translate(322.314453 0)"/>
     <use xlink:href="#DejaVuSans-2e" transform="translate(385.9375 0)"/>
     <use xlink:href="#DejaVuSans-35" transform="translate(417.724609 0)"/>
     <use xlink:href="#DejaVuSans-30" transform="translate(481.347656 0)"/>
    </g>
   </g>
   <g id="text_13">
    <!-- 0.50 - 0.75 -->
    <g transform="translate(641.065675 94.432378) scale(0.13 -0.13)">
     <defs>
      <path id="DejaVuSans-37" d="M 525 4666 
L 3525 4666 
L 3525 4397 
L 1831 0 
L 1172 0 
L 2766 4134 
L 525 4134 
L 525 4666 
z
" transform="scale(0.015625)"/>
     </defs>
     <use xlink:href="#DejaVuSans-30"/>
     <use xlink:href="#DejaVuSans-2e" transform="translate(63.623047 0)"/>
     <use xlink:href="#DejaVuSans-35" transform="translate(95.410156 0)"/>
     <use xlink:href="#DejaVuSans-30" transform="translate(159.033203 0)"/>
     <use xlink:href="#DejaVuSans-20" transform="translate(222.65625 0)"/>
     <use xlink:href="#DejaVuSans-2d" transform="translate(254.443359 0)"/>
     <use xlink:href="#DejaVuSans-20" transform="translate(290.527344 0)"/>
     <use xlink:href="#DejaVuSans-30" transform="translate(322.314453 0)"/>
     <use xlink:href="#DejaVuSans-2e" transform="translate(385.9375 0)"/>
     <use xlink:href="#DejaVuSans-37" transform="translate(417.724609 0)"/>
     <use xlink:href="#DejaVuSans-35" transform="translate(481.347656 0)"/>
    </g>
   </g>
   <g id="text_14">
    <!-- 0.75 - 1.00 -->
    <g transform="translate(641.065675 85.911668) scale(0.13 -0.13)">
     <use xlink:href="#DejaVuSans-30"/>
     <use xlink:href="#DejaVuSans-2e" transform="translate(63.623047 0)"/>
     <use xlink:href="#DejaVuSans-37" transform="translate(95.410156 0)"/>
     <use xlink:href="#DejaVuSans-35" transform="translate(159.033203 0)"/>
     <use xlink:href="#DejaVuSans-20" transform="translate(222.65625 0)"/>
     <use xlink:href="#DejaVuSans-2d" transform="translate(254.443359 0)"/>
     <use xlink:href="#DejaVuSans-20" transform="translate(290.527344 0)"/>
     <use xlink:href="#DejaVuSans-31" transform="translate(322.314453 0)"/>
     <use xlink:href="#DejaVuSans-2e" transform="translate(385.9375 0)"/>
     <use xlink:href="#DejaVuSans-30" transform="translate(417.724609 0)"/>
     <use xlink:href="#DejaVuSans-30" transform="translate(481.347656 0)"/>
    </g>
   </g>
   <g id="text_15">
    <!-- 1.00 - 1.25 -->
    <g transform="translate(641.065675 77.390958) scale(0.13 -0.13)">
     <use xlink:href="#DejaVuSans-31"/>
     <use xlink:href="#DejaVuSans-2e" transform="translate(63.623047 0)"/>
     <use xlink:href="#DejaVuSans-30" transform="translate(95.410156 0)"/>
     <use xlink:href="#DejaVuSans-30" transform="translate(159.033203 0)"/>
     <use xlink:href="#DejaVuSans-20" transform="translate(222.65625 0)"/>
     <use xlink:href="#DejaVuSans-2d" transform="translate(254.443359 0)"/>
     <use xlink:href="#DejaVuSans-20" transform="translate(290.527344 0)"/>
     <use xlink:href="#DejaVuSans-31" transform="translate(322.314453 0)"/>
     <use xlink:href="#DejaVuSans-2e" transform="translate(385.9375 0)"/>
     <use xlink:href="#DejaVuSans-32" transform="translate(417.724609 0)"/>
     <use xlink:href="#DejaVuSans-35" transform="translate(481.347656 0)"/>
    </g>
   </g>
   <g id="text_16">
    <!-- 1.25 - 1.50 -->
    <g transform="translate(641.065675 68.870248) scale(0.13 -0.13)">
     <use xlink:href="#DejaVuSans-31"/>
     <use xlink:href="#DejaVuSans-2e" transform="translate(63.623047 0)"/>
     <use xlink:href="#DejaVuSans-32" transform="translate(95.410156 0)"/>
     <use xlink:href="#DejaVuSans-35" transform="translate(159.033203 0)"/>
     <use xlink:href="#DejaVuSans-20" transform="translate(222.65625 0)"/>
     <use xlink:href="#DejaVuSans-2d" transform="translate(254.443359 0)"/>
     <use xlink:href="#DejaVuSans-20" transform="translate(290.527344 0)"/>
     <use xlink:href="#DejaVuSans-31" transform="translate(322.314453 0)"/>
     <use xlink:href="#DejaVuSans-2e" transform="translate(385.9375 0)"/>
     <use xlink:href="#DejaVuSans-35" transform="translate(417.724609 0)"/>
     <use xlink:href="#DejaVuSans-30" transform="translate(481.347656 0)"/>
    </g>
   </g>
   <g id="text_17">
    <!-- 1.50 - 2.00 -->
    <g transform="translate(641.065675 60.349538) scale(0.13 -0.13)">
     <use xlink:href="#DejaVuSans-31"/>
     <use xlink:href="#DejaVuSans-2e" transform="translate(63.623047 0)"/>
     <use xlink:href="#DejaVuSans-35" transform="translate(95.410156 0)"/>
     <use xlink:href="#DejaVuSans-30" transform="translate(159.033203 0)"/>
     <use xlink:href="#DejaVuSans-20" transform="translate(222.65625 0)"/>
     <use xlink:href="#DejaVuSans-2d" transform="translate(254.443359 0)"/>
     <use xlink:href="#DejaVuSans-20" transform="translate(290.527344 0)"/>
     <use xlink:href="#DejaVuSans-32" transform="translate(322.314453 0)"/>
     <use xlink:href="#DejaVuSans-2e" transform="translate(385.9375 0)"/>
     <use xlink:href="#DejaVuSans-30" transform="translate(417.724609 0)"/>
     <use xlink:href="#DejaVuSans-30" transform="translate(481.347656 0)"/>
    </g>
   </g>
   <g id="text_18">
    <!-- 2.00 - 2.50 -->
    <g transform="translate(641.065675 51.828828) scale(0.13 -0.13)">
     <use xlink:href="#DejaVuSans-32"/>
     <use xlink:href="#DejaVuSans-2e" transform="translate(63.623047 0)"/>
     <use xlink:href="#DejaVuSans-30" transform="translate(95.410156 0)"/>
     <use xlink:href="#DejaVuSans-30" transform="translate(159.033203 0)"/>
     <use xlink:href="#DejaVuSans-20" transform="translate(222.65625 0)"/>
     <use xlink:href="#DejaVuSans-2d" transform="translate(254.443359 0)"/>
     <use xlink:href="#DejaVuSans-20" transform="translate(290.527344 0)"/>
     <use xlink:href="#DejaVuSans-32" transform="translate(322.314453 0)"/>
     <use xlink:href="#DejaVuSans-2e" transform="translate(385.9375 0)"/>
     <use xlink:href="#DejaVuSans-35" transform="translate(417.724609 0)"/>
     <use xlink:href="#DejaVuSans-30" transform="translate(481.347656 0)"/>
    </g>
   </g>
   <g id="text_19">
    <!-- &gt; 2.50 -->
    <g transform="translate(641.065675 43.308118) scale(0.13 -0.13)">
     <defs>
      <path id="DejaVuSans-3e" d="M 678 3150 
L 678 3719 
L 4684 2266 
L 4684 1747 
L 678 294 
L 678 863 
L 3897 2003 
L 678 3150 
z
" transform="scale(0.015625)"/>
     </defs>
     <use xlink:href="#DejaVuSans-3e"/>
     <use xlink:href="#DejaVuSans-20" transform="translate(83.789062 0)"/>
     <use xlink:href="#DejaVuSans-32" transform="translate(115.576172 0)"/>
     <use xlink:href="#DejaVuSans-2e" transform="translate(179.199219 0)"/>
     <use xlink:href="#DejaVuSans-35" transform="translate(210.986328 0)"/>
     <use xlink:href="#DejaVuSans-30" transform="translate(274.609375 0)"/>
    </g>
   </g>
   <g id="text_20">
    <!-- SNP Densities -->
    <g transform="translate(313.119819 22.396875) scale(0.2 -0.2)">
     <defs>
      <path id="DejaVuSans-Bold-53" d="M 3834 4519 
L 3834 3531 
Q 3450 3703 3084 3790 
Q 2719 3878 2394 3878 
Q 1963 3878 1756 3759 
Q 1550 3641 1550 3391 
Q 1550 3203 1689 3098 
Q 1828 2994 2194 2919 
L 2706 2816 
Q 3484 2659 3812 2340 
Q 4141 2022 4141 1434 
Q 4141 663 3683 286 
Q 3225 -91 2284 -91 
Q 1841 -91 1394 -6 
Q 947 78 500 244 
L 500 1259 
Q 947 1022 1364 901 
Q 1781 781 2169 781 
Q 2563 781 2772 912 
Q 2981 1044 2981 1288 
Q 2981 1506 2839 1625 
Q 2697 1744 2272 1838 
L 1806 1941 
Q 1106 2091 782 2419 
Q 459 2747 459 3303 
Q 459 4000 909 4375 
Q 1359 4750 2203 4750 
Q 2588 4750 2994 4692 
Q 3400 4634 3834 4519 
z
" transform="scale(0.015625)"/>
      <path id="DejaVuSans-Bold-4e" d="M 588 4666 
L 1931 4666 
L 3628 1466 
L 3628 4666 
L 4769 4666 
L 4769 0 
L 3425 0 
L 1728 3200 
L 1728 0 
L 588 0 
L 588 4666 
z
" transform="scale(0.015625)"/>
      <path id="DejaVuSans-Bold-50" d="M 588 4666 
L 2584 4666 
Q 3475 4666 3951 4270 
Q 4428 3875 4428 3144 
Q 4428 2409 3951 2014 
Q 3475 1619 2584 1619 
L 1791 1619 
L 1791 0 
L 588 0 
L 588 4666 
z
M 1791 3794 
L 1791 2491 
L 2456 2491 
Q 2806 2491 2997 2661 
Q 3188 2831 3188 3144 
Q 3188 3456 2997 3625 
Q 2806 3794 2456 3794 
L 1791 3794 
z
" transform="scale(0.015625)"/>
      <path id="DejaVuSans-Bold-20" transform="scale(0.015625)"/>
      <path id="DejaVuSans-Bold-44" d="M 1791 3756 
L 1791 909 
L 2222 909 
Q 2959 909 3348 1275 
Q 3738 1641 3738 2338 
Q 3738 3031 3350 3393 
Q 2963 3756 2222 3756 
L 1791 3756 
z
M 588 4666 
L 1856 4666 
Q 2919 4666 3439 4514 
Q 3959 4363 4331 4000 
Q 4659 3684 4818 3271 
Q 4978 2859 4978 2338 
Q 4978 1809 4818 1395 
Q 4659 981 4331 666 
Q 3956 303 3431 151 
Q 2906 0 1856 0 
L 588 0 
L 588 4666 
z
" transform="scale(0.015625)"/>
      <path id="DejaVuSans-Bold-65" d="M 4031 1759 
L 4031 1441 
L 1416 1441 
Q 1456 1047 1700 850 
Q 1944 653 2381 653 
Q 2734 653 3104 758 
Q 3475 863 3866 1075 
L 3866 213 
Q 3469 63 3072 -14 
Q 2675 -91 2278 -91 
Q 1328 -91 801 392 
Q 275 875 275 1747 
Q 275 2603 792 3093 
Q 1309 3584 2216 3584 
Q 3041 3584 3536 3087 
Q 4031 2591 4031 1759 
z
M 2881 2131 
Q 2881 2450 2695 2645 
Q 2509 2841 2209 2841 
Q 1884 2841 1681 2658 
Q 1478 2475 1428 2131 
L 2881 2131 
z
" transform="scale(0.015625)"/>
      <path id="DejaVuSans-Bold-6e" d="M 4056 2131 
L 4056 0 
L 2931 0 
L 2931 347 
L 2931 1631 
Q 2931 2084 2911 2256 
Q 2891 2428 2841 2509 
Q 2775 2619 2662 2680 
Q 2550 2741 2406 2741 
Q 2056 2741 1856 2470 
Q 1656 2200 1656 1722 
L 1656 0 
L 538 0 
L 538 3500 
L 1656 3500 
L 1656 2988 
Q 1909 3294 2193 3439 
Q 2478 3584 2822 3584 
Q 3428 3584 3742 3212 
Q 4056 2841 4056 2131 
z
" transform="scale(0.015625)"/>
      <path id="DejaVuSans-Bold-73" d="M 3272 3391 
L 3272 2541 
Q 2913 2691 2578 2766 
Q 2244 2841 1947 2841 
Q 1628 2841 1473 2761 
Q 1319 2681 1319 2516 
Q 1319 2381 1436 2309 
Q 1553 2238 1856 2203 
L 2053 2175 
Q 2913 2066 3209 1816 
Q 3506 1566 3506 1031 
Q 3506 472 3093 190 
Q 2681 -91 1863 -91 
Q 1516 -91 1145 -36 
Q 775 19 384 128 
L 384 978 
Q 719 816 1070 734 
Q 1422 653 1784 653 
Q 2113 653 2278 743 
Q 2444 834 2444 1013 
Q 2444 1163 2330 1236 
Q 2216 1309 1875 1350 
L 1678 1375 
Q 931 1469 631 1722 
Q 331 1975 331 2491 
Q 331 3047 712 3315 
Q 1094 3584 1881 3584 
Q 2191 3584 2531 3537 
Q 2872 3491 3272 3391 
z
" transform="scale(0.015625)"/>
      <path id="DejaVuSans-Bold-69" d="M 538 3500 
L 1656 3500 
L 1656 0 
L 538 0 
L 538 3500 
z
M 538 4863 
L 1656 4863 
L 1656 3950 
L 538 3950 
L 538 4863 
z
" transform="scale(0.015625)"/>
      <path id="DejaVuSans-Bold-74" d="M 1759 4494 
L 1759 3500 
L 2913 3500 
L 2913 2700 
L 1759 2700 
L 1759 1216 
Q 1759 972 1856 886 
Q 1953 800 2241 800 
L 2816 800 
L 2816 0 
L 1856 0 
Q 1194 0 917 276 
Q 641 553 641 1216 
L 641 2700 
L 84 2700 
L 84 3500 
L 641 3500 
L 641 4494 
L 1759 4494 
z
" transform="scale(0.015625)"/>
     </defs>
     <use xlink:href="#DejaVuSans-Bold-53"/>
     <use xlink:href="#DejaVuSans-Bold-4e" transform="translate(72.021484 0)"/>
     <use xlink:href="#DejaVuSans-Bold-50" transform="translate(155.712891 0)"/>
     <use xlink:href="#DejaVuSans-Bold-20" transform="translate(229.003906 0)"/>
     <use xlink:href="#DejaVuSans-Bold-44" transform="translate(263.818359 0)"/>
     <use xlink:href="#DejaVuSans-Bold-65" transform="translate(346.826172 0)"/>
     <use xlink:href="#DejaVuSans-Bold-6e" transform="translate(414.648438 0)"/>
     <use xlink:href="#DejaVuSans-Bold-73" transform="translate(485.839844 0)"/>
     <use xlink:href="#DejaVuSans-Bold-69" transform="translate(545.361328 0)"/>
     <use xlink:href="#DejaVuSans-Bold-74" transform="translate(579.638672 0)"/>
     <use xlink:href="#DejaVuSans-Bold-69" transform="translate(627.441406 0)"/>
     <use xlink:href="#DejaVuSans-Bold-65" transform="translate(661.71875 0)"/>
     <use xlink:href="#DejaVuSans-Bold-73" transform="translate(729.541016 0)"/>
    </g>
   </g>
   <g id="patch_18">
    <path d="M 64.195121 137.461964 
L 64.195121 137.461964 
L 64.095163 137.461427 
L 63.995231 137.459819 
L 63.895349 137.457138 
L 63.795542 137.453386 
L 63.695836 137.448564 
L 63.596256 137.442673 
L 63.496827 137.435713 
L 63.397573 137.427688 
L 63.29852 137.418599 
L 63.199693 137.408449 
L 63.101116 137.397239 
L 63.002815 137.384974 
L 62.904814 137.371655 
L 62.807138 137.357286 
L 62.709811 137.341871 
L 62.612858 137.325414 
L 62.516304 137.307919 
L 62.420172 137.289389 
L 62.324487 137.269831 
L 62.229272 137.249249 
L 62.134553 137.227648 
L 62.040353 137.205033 
L 61.946694 137.18141 
L 61.853602 137.156786 
L 61.7611 137.131165 
L 61.66921 137.104556 
L 61.577956 137.076964 
L 61.487361 137.048396 
L 61.397447 137.01886 
L 61.308238 136.988363 
L 61.219756 136.956913 
L 61.132023 136.924517 
L 61.04506 136.891184 
L 60.958891 136.856923 
L 60.873537 136.821741 
L 60.789018 136.785647 
L 60.705357 136.748652 
L 60.622575 136.710763 
L 60.540692 136.671991 
L 60.459729 136.632346 
L 60.379707 136.591837 
L 60.300644 136.550474 
L 60.222563 136.508268 
L 60.145481 136.46523 
L 60.069419 136.42137 
L 59.994396 136.3767 
L 59.92043 136.33123 
L 59.84754 136.284973 
L 59.775744 136.237939 
L 59.705061 136.190141 
L 59.635509 136.14159 
L 59.567104 136.0923 
L 59.499865 136.042281 
L 59.433807 135.991548 
L 59.368948 135.940112 
L 59.305304 135.887987 
L 59.242891 135.835185 
L 59.181725 135.781721 
L 59.121821 135.727607 
L 59.063194 135.672857 
L 59.005859 135.617485 
L 58.94983 135.561505 
L 58.895122 135.504931 
L 58.841748 135.447776 
L 58.789722 135.390057 
L 58.739056 135.331786 
L 58.689764 135.272979 
L 58.641858 135.213651 
L 58.59535 135.153816 
L 58.550252 135.09349 
L 58.506575 135.032688 
L 58.464329 134.971424 
L 58.423527 134.909715 
L 58.384177 134.847576 
L 58.346291 134.785023 
L 58.309876 134.722071 
L 58.274944 134.658736 
L 58.241501 134.595034 
L 58.209558 134.530982 
L 58.179121 134.466595 
L 58.150199 134.401889 
L 58.122799 134.336882 
L 58.096927 134.271588 
L 58.072591 134.206025 
L 58.049795 134.14021 
L 58.028547 134.074158 
L 58.008851 134.007886 
L 57.990713 133.941412 
L 57.974137 133.874751 
L 57.959126 133.80792 
L 57.945686 133.740938 
L 57.933818 133.673819 
L 57.923527 133.606581 
L 57.914815 133.539242 
L 57.907684 133.471817 
L 57.902136 133.404325 
L 57.898172 133.336781 
L 57.895793 133.269203 
L 57.895 133.201609 
L 57.895 133.201609 
L 57.895 133.201609 
L 57.895793 133.134014 
L 57.898172 133.066436 
L 57.902136 132.998893 
L 57.907684 132.9314 
L 57.914815 132.863976 
L 57.923527 132.796636 
L 57.933818 132.729399 
L 57.945686 132.66228 
L 57.959126 132.595297 
L 57.974137 132.528467 
L 57.990713 132.461806 
L 58.008851 132.395331 
L 58.028547 132.32906 
L 58.049795 132.263008 
L 58.072591 132.197192 
L 58.096927 132.131629 
L 58.122799 132.066336 
L 58.150199 132.001328 
L 58.179121 131.936623 
L 58.209558 131.872235 
L 58.241501 131.808183 
L 58.274944 131.744481 
L 58.309876 131.681147 
L 58.346291 131.618195 
L 58.384177 131.555641 
L 58.423527 131.493502 
L 58.464329 131.431793 
L 58.506575 131.37053 
L 58.550252 131.309727 
L 58.59535 131.249401 
L 58.641858 131.189566 
L 58.689764 131.130238 
L 58.739056 131.071431 
L 58.789722 131.013161 
L 58.841748 130.955441 
L 58.895122 130.898287 
L 58.94983 130.841713 
L 59.005859 130.785732 
L 59.063194 130.73036 
L 59.121821 130.67561 
L 59.181725 130.621496 
L 59.242891 130.568032 
L 59.305304 130.515231 
L 59.368948 130.463105 
L 59.433807 130.41167 
L 59.499865 130.360936 
L 59.567104 130.310918 
L 59.635509 130.261627 
L 59.705061 130.213077 
L 59.775744 130.165279 
L 59.84754 130.118245 
L 59.92043 130.071987 
L 59.994396 130.026518 
L 60.069419 129.981847 
L 60.145481 129.937987 
L 60.222563 129.894949 
L 60.300644 129.852743 
L 60.379707 129.811381 
L 60.459729 129.770872 
L 60.540692 129.731226 
L 60.622575 129.692454 
L 60.705357 129.654566 
L 60.789018 129.61757 
L 60.873537 129.581477 
L 60.958891 129.546295 
L 61.04506 129.512033 
L 61.132023 129.4787 
L 61.219756 129.446304 
L 61.308238 129.414854 
L 61.397447 129.384357 
L 61.487361 129.354821 
L 61.577956 129.326253 
L 61.66921 129.298661 
L 61.7611 129.272052 
L 61.853602 129.246432 
L 61.946694 129.221807 
L 62.040353 129.198185 
L 62.134553 129.17557 
L 62.229272 129.153968 
L 62.324487 129.133386 
L 62.420172 129.113828 
L 62.516304 129.095299 
L 62.612858 129.077804 
L 62.709811 129.061346 
L 62.807138 129.045932 
L 62.904814 129.031563 
L 63.002815 129.018244 
L 63.101116 129.005978 
L 63.199693 128.994768 
L 63.29852 128.984618 
L 63.397573 128.975529 
L 63.496827 128.967504 
L 63.596256 128.960545 
L 63.695836 128.954653 
L 63.795542 128.949831 
L 63.895349 128.946079 
L 63.995231 128.943399 
L 64.095163 128.94179 
L 64.195121 128.941254 
L 64.195121 128.941254 
L 429.255504 128.941254 
L 435.555625 133.201609 
L 441.855746 128.941254 
L 574.324897 128.941254 
L 574.324897 128.941254 
L 574.424854 128.94179 
L 574.524786 128.943399 
L 574.624668 128.946079 
L 574.724475 128.949831 
L 574.824181 128.954653 
L 574.923761 128.960545 
L 575.023191 128.967504 
L 575.122444 128.975529 
L 575.221497 128.984618 
L 575.320324 128.994768 
L 575.418901 129.005978 
L 575.517202 129.018244 
L 575.615203 129.031563 
L 575.712879 129.045932 
L 575.810206 129.061346 
L 575.907159 129.077804 
L 576.003714 129.095299 
L 576.099846 129.113828 
L 576.195531 129.133386 
L 576.290745 129.153968 
L 576.385464 129.17557 
L 576.479665 129.198185 
L 576.573323 129.221807 
L 576.666415 129.246432 
L 576.758917 129.272052 
L 576.850807 129.298661 
L 576.942061 129.326253 
L 577.032656 129.354821 
L 577.12257 129.384357 
L 577.211779 129.414854 
L 577.300261 129.446304 
L 577.387995 129.4787 
L 577.474957 129.512033 
L 577.561126 129.546295 
L 577.646481 129.581477 
L 577.730999 129.61757 
L 577.81466 129.654566 
L 577.897442 129.692454 
L 577.979325 129.731226 
L 578.060288 129.770872 
L 578.140311 129.811381 
L 578.219373 129.852743 
L 578.297454 129.894949 
L 578.374536 129.937987 
L 578.450598 129.981847 
L 578.525622 130.026518 
L 578.599588 130.071987 
L 578.672478 130.118245 
L 578.744273 130.165279 
L 578.814956 130.213077 
L 578.884508 130.261627 
L 578.952913 130.310918 
L 579.020153 130.360936 
L 579.08621 130.41167 
L 579.151069 130.463105 
L 579.214713 130.515231 
L 579.277126 130.568032 
L 579.338292 130.621496 
L 579.398196 130.67561 
L 579.456823 130.73036 
L 579.514158 130.785732 
L 579.570187 130.841713 
L 579.624895 130.898287 
L 579.678269 130.955441 
L 579.730296 131.013161 
L 579.780961 131.071431 
L 579.830253 131.130238 
L 579.878159 131.189566 
L 579.924667 131.249401 
L 579.969765 131.309727 
L 580.013443 131.37053 
L 580.055688 131.431793 
L 580.09649 131.493502 
L 580.13584 131.555641 
L 580.173727 131.618195 
L 580.210141 131.681147 
L 580.245073 131.744481 
L 580.278516 131.808183 
L 580.310459 131.872235 
L 580.340896 131.936623 
L 580.369818 132.001328 
L 580.397218 132.066336 
L 580.42309 132.131629 
L 580.447427 132.197192 
L 580.470222 132.263008 
L 580.49147 132.32906 
L 580.511166 132.395331 
L 580.529304 132.461806 
L 580.545881 132.528467 
L 580.560891 132.595297 
L 580.574332 132.66228 
L 580.586199 132.729399 
L 580.59649 132.796636 
L 580.605202 132.863976 
L 580.612333 132.9314 
L 580.617881 132.998893 
L 580.621845 133.066436 
L 580.624224 133.134014 
L 580.625017 133.201609 
L 580.625017 133.201609 
L 580.625017 133.201609 
L 580.624224 133.269203 
L 580.621845 133.336781 
L 580.617881 133.404325 
L 580.612333 133.471817 
L 580.605202 133.539242 
L 580.59649 133.606581 
L 580.586199 133.673819 
L 580.574332 133.740938 
L 580.560891 133.80792 
L 580.545881 133.874751 
L 580.529304 133.941412 
L 580.511166 134.007886 
L 580.49147 134.074158 
L 580.470222 134.14021 
L 580.447427 134.206025 
L 580.42309 134.271588 
L 580.397218 134.336882 
L 580.369818 134.401889 
L 580.340896 134.466595 
L 580.310459 134.530982 
L 580.278516 134.595034 
L 580.245073 134.658736 
L 580.210141 134.722071 
L 580.173727 134.785023 
L 580.13584 134.847576 
L 580.09649 134.909715 
L 580.055688 134.971424 
L 580.013443 135.032688 
L 579.969765 135.09349 
L 579.924667 135.153816 
L 579.878159 135.213651 
L 579.830253 135.272979 
L 579.780961 135.331786 
L 579.730296 135.390057 
L 579.678269 135.447776 
L 579.624895 135.504931 
L 579.570187 135.561505 
L 579.514158 135.617485 
L 579.456823 135.672857 
L 579.398196 135.727607 
L 579.338292 135.781721 
L 579.277126 135.835185 
L 579.214713 135.887987 
L 579.151069 135.940112 
L 579.08621 135.991548 
L 579.020153 136.042281 
L 578.952913 136.0923 
L 578.884508 136.14159 
L 578.814956 136.190141 
L 578.744273 136.237939 
L 578.672478 136.284973 
L 578.599588 136.33123 
L 578.525622 136.3767 
L 578.450598 136.42137 
L 578.374536 136.46523 
L 578.297454 136.508268 
L 578.219373 136.550474 
L 578.140311 136.591837 
L 578.060288 136.632346 
L 577.979325 136.671991 
L 577.897442 136.710763 
L 577.81466 136.748652 
L 577.730999 136.785647 
L 577.646481 136.821741 
L 577.561126 136.856923 
L 577.474957 136.891184 
L 577.387995 136.924517 
L 577.300261 136.956913 
L 577.211779 136.988363 
L 577.12257 137.01886 
L 577.032656 137.048396 
L 576.942061 137.076964 
L 576.850807 137.104556 
L 576.758917 137.131165 
L 576.666415 137.156786 
L 576.573323 137.18141 
L 576.479665 137.205033 
L 576.385464 137.227648 
L 576.290745 137.249249 
L 576.195531 137.269831 
L 576.099846 137.289389 
L 576.003714 137.307919 
L 575.907159 137.325414 
L 575.810206 137.341871 
L 575.712879 137.357286 
L 575.615203 137.371655 
L 575.517202 137.384974 
L 575.418901 137.397239 
L 575.320324 137.408449 
L 575.221497 137.418599 
L 575.122444 137.427688 
L 575.023191 137.435713 
L 574.923761 137.442673 
L 574.824181 137.448564 
L 574.724475 137.453386 
L 574.624668 137.457138 
L 574.524786 137.459819 
L 574.424854 137.461427 
L 574.324897 137.461964 
L 574.324897 137.461964 
L 441.855746 137.461964 
L 435.555625 133.201609 
L 429.255504 137.461964 
z
" clip-path="url(#pe2a51177e8)" style="fill: #ffffff; stroke: #ffffff; stroke-linejoin: miter"/>
   </g>
   <g id="patch_19">
    <path d="M 64.195121 121.272615 
L 64.195121 121.272615 
L 64.095163 121.272078 
L 63.995231 121.27047 
L 63.895349 121.267789 
L 63.795542 121.264037 
L 63.695836 121.259215 
L 63.596256 121.253323 
L 63.496827 121.246364 
L 63.397573 121.238339 
L 63.29852 121.22925 
L 63.199693 121.2191 
L 63.101116 121.20789 
L 63.002815 121.195624 
L 62.904814 121.182306 
L 62.807138 121.167937 
L 62.709811 121.152522 
L 62.612858 121.136065 
L 62.516304 121.118569 
L 62.420172 121.10004 
L 62.324487 121.080482 
L 62.229272 121.0599 
L 62.134553 121.038299 
L 62.040353 121.015684 
L 61.946694 120.992061 
L 61.853602 120.967437 
L 61.7611 120.941816 
L 61.66921 120.915207 
L 61.577956 120.887615 
L 61.487361 120.859047 
L 61.397447 120.829511 
L 61.308238 120.799014 
L 61.219756 120.767564 
L 61.132023 120.735168 
L 61.04506 120.701835 
L 60.958891 120.667574 
L 60.873537 120.632392 
L 60.789018 120.596298 
L 60.705357 120.559303 
L 60.622575 120.521414 
L 60.540692 120.482642 
L 60.459729 120.442997 
L 60.379707 120.402488 
L 60.300644 120.361125 
L 60.222563 120.318919 
L 60.145481 120.275881 
L 60.069419 120.232021 
L 59.994396 120.187351 
L 59.92043 120.141881 
L 59.84754 120.095624 
L 59.775744 120.04859 
L 59.705061 120.000792 
L 59.635509 119.952241 
L 59.567104 119.902951 
L 59.499865 119.852932 
L 59.433807 119.802199 
L 59.368948 119.750763 
L 59.305304 119.698638 
L 59.242891 119.645836 
L 59.181725 119.592372 
L 59.121821 119.538258 
L 59.063194 119.483508 
L 59.005859 119.428136 
L 58.94983 119.372156 
L 58.895122 119.315581 
L 58.841748 119.258427 
L 58.789722 119.200708 
L 58.739056 119.142437 
L 58.689764 119.08363 
L 58.641858 119.024302 
L 58.59535 118.964467 
L 58.550252 118.904141 
L 58.506575 118.843339 
L 58.464329 118.782075 
L 58.423527 118.720366 
L 58.384177 118.658227 
L 58.346291 118.595674 
L 58.309876 118.532722 
L 58.274944 118.469387 
L 58.241501 118.405685 
L 58.209558 118.341633 
L 58.179121 118.277246 
L 58.150199 118.21254 
L 58.122799 118.147533 
L 58.096927 118.082239 
L 58.072591 118.016676 
L 58.049795 117.950861 
L 58.028547 117.884809 
L 58.008851 117.818537 
L 57.990713 117.752063 
L 57.974137 117.685402 
L 57.959126 117.618571 
L 57.945686 117.551588 
L 57.933818 117.48447 
L 57.923527 117.417232 
L 57.914815 117.349893 
L 57.907684 117.282468 
L 57.902136 117.214975 
L 57.898172 117.147432 
L 57.895793 117.079854 
L 57.895 117.01226 
L 57.895 117.01226 
L 57.895 117.01226 
L 57.895793 116.944665 
L 57.898172 116.877087 
L 57.902136 116.809544 
L 57.907684 116.742051 
L 57.914815 116.674627 
L 57.923527 116.607287 
L 57.933818 116.54005 
L 57.945686 116.472931 
L 57.959126 116.405948 
L 57.974137 116.339118 
L 57.990713 116.272457 
L 58.008851 116.205982 
L 58.028547 116.13971 
L 58.049795 116.073659 
L 58.072591 116.007843 
L 58.096927 115.94228 
L 58.122799 115.876987 
L 58.150199 115.811979 
L 58.179121 115.747273 
L 58.209558 115.682886 
L 58.241501 115.618834 
L 58.274944 115.555132 
L 58.309876 115.491798 
L 58.346291 115.428846 
L 58.384177 115.366292 
L 58.423527 115.304153 
L 58.464329 115.242444 
L 58.506575 115.181181 
L 58.550252 115.120378 
L 58.59535 115.060052 
L 58.641858 115.000217 
L 58.689764 114.940889 
L 58.739056 114.882082 
L 58.789722 114.823812 
L 58.841748 114.766092 
L 58.895122 114.708938 
L 58.94983 114.652363 
L 59.005859 114.596383 
L 59.063194 114.541011 
L 59.121821 114.486261 
L 59.181725 114.432147 
L 59.242891 114.378683 
L 59.305304 114.325881 
L 59.368948 114.273756 
L 59.433807 114.22232 
L 59.499865 114.171587 
L 59.567104 114.121569 
L 59.635509 114.072278 
L 59.705061 114.023728 
L 59.775744 113.975929 
L 59.84754 113.928896 
L 59.92043 113.882638 
L 59.994396 113.837168 
L 60.069419 113.792498 
L 60.145481 113.748638 
L 60.222563 113.7056 
L 60.300644 113.663394 
L 60.379707 113.622032 
L 60.459729 113.581522 
L 60.540692 113.541877 
L 60.622575 113.503105 
L 60.705357 113.465216 
L 60.789018 113.428221 
L 60.873537 113.392128 
L 60.958891 113.356946 
L 61.04506 113.322684 
L 61.132023 113.289351 
L 61.219756 113.256955 
L 61.308238 113.225505 
L 61.397447 113.195008 
L 61.487361 113.165472 
L 61.577956 113.136904 
L 61.66921 113.109312 
L 61.7611 113.082703 
L 61.853602 113.057083 
L 61.946694 113.032458 
L 62.040353 113.008835 
L 62.134553 112.986221 
L 62.229272 112.964619 
L 62.324487 112.944037 
L 62.420172 112.924479 
L 62.516304 112.90595 
L 62.612858 112.888454 
L 62.709811 112.871997 
L 62.807138 112.856582 
L 62.904814 112.842214 
L 63.002815 112.828895 
L 63.101116 112.816629 
L 63.199693 112.805419 
L 63.29852 112.795269 
L 63.397573 112.78618 
L 63.496827 112.778155 
L 63.596256 112.771196 
L 63.695836 112.765304 
L 63.795542 112.760482 
L 63.895349 112.75673 
L 63.995231 112.754049 
L 64.095163 112.752441 
L 64.195121 112.751905 
L 64.195121 112.751905 
L 383.840619 112.751905 
L 390.14074 117.01226 
L 396.440861 112.751905 
L 451.861335 112.751905 
L 451.861335 112.751905 
L 451.961292 112.752441 
L 452.061225 112.754049 
L 452.161107 112.75673 
L 452.260913 112.760482 
L 452.360619 112.765304 
L 452.460199 112.771196 
L 452.559629 112.778155 
L 452.658883 112.78618 
L 452.757936 112.795269 
L 452.856763 112.805419 
L 452.955339 112.816629 
L 453.053641 112.828895 
L 453.151642 112.842214 
L 453.249318 112.856582 
L 453.346645 112.871997 
L 453.443598 112.888454 
L 453.540152 112.90595 
L 453.636284 112.924479 
L 453.731969 112.944037 
L 453.827183 112.964619 
L 453.921903 112.986221 
L 454.016103 113.008835 
L 454.109761 113.032458 
L 454.202853 113.057083 
L 454.295356 113.082703 
L 454.387246 113.109312 
L 454.4785 113.136904 
L 454.569095 113.165472 
L 454.659008 113.195008 
L 454.748217 113.225505 
L 454.8367 113.256955 
L 454.924433 113.289351 
L 455.011395 113.322684 
L 455.097565 113.356946 
L 455.182919 113.392128 
L 455.267437 113.428221 
L 455.351098 113.465216 
L 455.433881 113.503105 
L 455.515763 113.541877 
L 455.596726 113.581522 
L 455.676749 113.622032 
L 455.755811 113.663394 
L 455.833893 113.7056 
L 455.910974 113.748638 
L 455.987037 113.792498 
L 456.06206 113.837168 
L 456.136026 113.882638 
L 456.208916 113.928896 
L 456.280711 113.975929 
L 456.351394 114.023728 
L 456.420947 114.072278 
L 456.489351 114.121569 
L 456.556591 114.171587 
L 456.622648 114.22232 
L 456.687507 114.273756 
L 456.751151 114.325881 
L 456.813564 114.378683 
L 456.874731 114.432147 
L 456.934635 114.486261 
L 456.993262 114.541011 
L 457.050597 114.596383 
L 457.106626 114.652363 
L 457.161334 114.708938 
L 457.214708 114.766092 
L 457.266734 114.823812 
L 457.3174 114.882082 
L 457.366692 114.940889 
L 457.414598 115.000217 
L 457.461106 115.060052 
L 457.506204 115.120378 
L 457.549881 115.181181 
L 457.592126 115.242444 
L 457.632929 115.304153 
L 457.672278 115.366292 
L 457.710165 115.428846 
L 457.746579 115.491798 
L 457.781512 115.555132 
L 457.814954 115.618834 
L 457.846898 115.682886 
L 457.877334 115.747273 
L 457.906257 115.811979 
L 457.933657 115.876987 
L 457.959529 115.94228 
L 457.983865 116.007843 
L 458.00666 116.073659 
L 458.027909 116.13971 
L 458.047604 116.205982 
L 458.065743 116.272457 
L 458.082319 116.339118 
L 458.09733 116.405948 
L 458.11077 116.472931 
L 458.122637 116.54005 
L 458.132928 116.607287 
L 458.14164 116.674627 
L 458.148771 116.742051 
L 458.15432 116.809544 
L 458.158284 116.877087 
L 458.160663 116.944665 
L 458.161456 117.01226 
L 458.161456 117.01226 
L 458.161456 117.01226 
L 458.160663 117.079854 
L 458.158284 117.147432 
L 458.15432 117.214975 
L 458.148771 117.282468 
L 458.14164 117.349893 
L 458.132928 117.417232 
L 458.122637 117.48447 
L 458.11077 117.551588 
L 458.09733 117.618571 
L 458.082319 117.685402 
L 458.065743 117.752063 
L 458.047604 117.818537 
L 458.027909 117.884809 
L 458.00666 117.950861 
L 457.983865 118.016676 
L 457.959529 118.082239 
L 457.933657 118.147533 
L 457.906257 118.21254 
L 457.877334 118.277246 
L 457.846898 118.341633 
L 457.814954 118.405685 
L 457.781512 118.469387 
L 457.746579 118.532722 
L 457.710165 118.595674 
L 457.672278 118.658227 
L 457.632929 118.720366 
L 457.592126 118.782075 
L 457.549881 118.843339 
L 457.506204 118.904141 
L 457.461106 118.964467 
L 457.414598 119.024302 
L 457.366692 119.08363 
L 457.3174 119.142437 
L 457.266734 119.200708 
L 457.214708 119.258427 
L 457.161334 119.315581 
L 457.106626 119.372156 
L 457.050597 119.428136 
L 456.993262 119.483508 
L 456.934635 119.538258 
L 456.874731 119.592372 
L 456.813564 119.645836 
L 456.751151 119.698638 
L 456.687507 119.750763 
L 456.622648 119.802199 
L 456.556591 119.852932 
L 456.489351 119.902951 
L 456.420947 119.952241 
L 456.351394 120.000792 
L 456.280711 120.04859 
L 456.208916 120.095624 
L 456.136026 120.141881 
L 456.06206 120.187351 
L 455.987037 120.232021 
L 455.910974 120.275881 
L 455.833893 120.318919 
L 455.755811 120.361125 
L 455.676749 120.402488 
L 455.596726 120.442997 
L 455.515763 120.482642 
L 455.433881 120.521414 
L 455.351098 120.559303 
L 455.267437 120.596298 
L 455.182919 120.632392 
L 455.097565 120.667574 
L 455.011395 120.701835 
L 454.924433 120.735168 
L 454.8367 120.767564 
L 454.748217 120.799014 
L 454.659008 120.829511 
L 454.569095 120.859047 
L 454.4785 120.887615 
L 454.387246 120.915207 
L 454.295356 120.941816 
L 454.202853 120.967437 
L 454.109761 120.992061 
L 454.016103 121.015684 
L 453.921903 121.038299 
L 453.827183 121.0599 
L 453.731969 121.080482 
L 453.636284 121.10004 
L 453.540152 121.118569 
L 453.443598 121.136065 
L 453.346645 121.152522 
L 453.249318 121.167937 
L 453.151642 121.182306 
L 453.053641 121.195624 
L 452.955339 121.20789 
L 452.856763 121.2191 
L 452.757936 121.22925 
L 452.658883 121.238339 
L 452.559629 121.246364 
L 452.460199 121.253323 
L 452.360619 121.259215 
L 452.260913 121.264037 
L 452.161107 121.267789 
L 452.061225 121.27047 
L 451.961292 121.272078 
L 451.861335 121.272615 
L 451.861335 121.272615 
L 396.440861 121.272615 
L 390.14074 117.01226 
L 383.840619 121.272615 
z
" clip-path="url(#pe2a51177e8)" style="fill: #ffffff; stroke: #ffffff; stroke-linejoin: miter"/>
   </g>
   <g id="PatchCollection_1">
    <path d="M 81.797571 137.461964 
L 84.187828 137.461964 
L 84.187828 128.941254 
L 81.797571 128.941254 
z
" clip-path="url(#pe2a51177e8)" style="fill: #0000ff"/>
    <path d="M 105.700142 137.461964 
L 122.431942 137.461964 
L 122.431942 128.941254 
L 105.700142 128.941254 
z
" clip-path="url(#pe2a51177e8)" style="fill: #0000ff"/>
    <path d="M 129.602714 137.461964 
L 134.383228 137.461964 
L 134.383228 128.941254 
L 129.602714 128.941254 
z
" clip-path="url(#pe2a51177e8)" style="fill: #0000ff"/>
    <path d="M 153.505285 137.461964 
L 155.895542 137.461964 
L 155.895542 128.941254 
L 153.505285 128.941254 
z
" clip-path="url(#pe2a51177e8)" style="fill: #0000ff"/>
    <path d="M 177.407856 137.461964 
L 178.602985 137.461964 
L 178.602985 128.941254 
L 177.407856 128.941254 
z
" clip-path="url(#pe2a51177e8)" style="fill: #0000ff"/>
    <path d="M 201.310427 137.461964 
L 208.481199 137.461964 
L 208.481199 128.941254 
L 201.310427 128.941254 
z
" clip-path="url(#pe2a51177e8)" style="fill: #0000ff"/>
    <path d="M 225.212999 137.461964 
L 229.993513 137.461964 
L 229.993513 128.941254 
L 225.212999 128.941254 
z
" clip-path="url(#pe2a51177e8)" style="fill: #ff2100"/>
    <path d="M 249.11557 137.461964 
L 251.505827 137.461964 
L 251.505827 128.941254 
L 249.11557 128.941254 
z
" clip-path="url(#pe2a51177e8)" style="fill: #00007f"/>
   </g>
   <g id="PatchCollection_2">
    <defs>
     <path id="m2cff420154" d="M 77.017057 -41.882385 
L 79.407314 -41.882385 
L 79.407314 -50.403095 
L 77.017057 -50.403095 
z
" style="stroke: #000000; stroke-opacity: 0; stroke-width: 0"/>
    </defs>
    <g clip-path="url(#pe2a51177e8)">
     <use xlink:href="#m2cff420154" x="0" y="163.155" style="fill: #00007f; stroke: #000000; stroke-opacity: 0; stroke-width: 0"/>
    </g>
   </g>
   <g id="patch_20">
    <path d="M 64.195121 137.461964 
L 64.195121 137.461964 
L 64.095163 137.461427 
L 63.995231 137.459819 
L 63.895349 137.457138 
L 63.795542 137.453386 
L 63.695836 137.448564 
L 63.596256 137.442673 
L 63.496827 137.435713 
L 63.397573 137.427688 
L 63.29852 137.418599 
L 63.199693 137.408449 
L 63.101116 137.397239 
L 63.002815 137.384974 
L 62.904814 137.371655 
L 62.807138 137.357286 
L 62.709811 137.341871 
L 62.612858 137.325414 
L 62.516304 137.307919 
L 62.420172 137.289389 
L 62.324487 137.269831 
L 62.229272 137.249249 
L 62.134553 137.227648 
L 62.040353 137.205033 
L 61.946694 137.18141 
L 61.853602 137.156786 
L 61.7611 137.131165 
L 61.66921 137.104556 
L 61.577956 137.076964 
L 61.487361 137.048396 
L 61.397447 137.01886 
L 61.308238 136.988363 
L 61.219756 136.956913 
L 61.132023 136.924517 
L 61.04506 136.891184 
L 60.958891 136.856923 
L 60.873537 136.821741 
L 60.789018 136.785647 
L 60.705357 136.748652 
L 60.622575 136.710763 
L 60.540692 136.671991 
L 60.459729 136.632346 
L 60.379707 136.591837 
L 60.300644 136.550474 
L 60.222563 136.508268 
L 60.145481 136.46523 
L 60.069419 136.42137 
L 59.994396 136.3767 
L 59.92043 136.33123 
L 59.84754 136.284973 
L 59.775744 136.237939 
L 59.705061 136.190141 
L 59.635509 136.14159 
L 59.567104 136.0923 
L 59.499865 136.042281 
L 59.433807 135.991548 
L 59.368948 135.940112 
L 59.305304 135.887987 
L 59.242891 135.835185 
L 59.181725 135.781721 
L 59.121821 135.727607 
L 59.063194 135.672857 
L 59.005859 135.617485 
L 58.94983 135.561505 
L 58.895122 135.504931 
L 58.841748 135.447776 
L 58.789722 135.390057 
L 58.739056 135.331786 
L 58.689764 135.272979 
L 58.641858 135.213651 
L 58.59535 135.153816 
L 58.550252 135.09349 
L 58.506575 135.032688 
L 58.464329 134.971424 
L 58.423527 134.909715 
L 58.384177 134.847576 
L 58.346291 134.785023 
L 58.309876 134.722071 
L 58.274944 134.658736 
L 58.241501 134.595034 
L 58.209558 134.530982 
L 58.179121 134.466595 
L 58.150199 134.401889 
L 58.122799 134.336882 
L 58.096927 134.271588 
L 58.072591 134.206025 
L 58.049795 134.14021 
L 58.028547 134.074158 
L 58.008851 134.007886 
L 57.990713 133.941412 
L 57.974137 133.874751 
L 57.959126 133.80792 
L 57.945686 133.740938 
L 57.933818 133.673819 
L 57.923527 133.606581 
L 57.914815 133.539242 
L 57.907684 133.471817 
L 57.902136 133.404325 
L 57.898172 133.336781 
L 57.895793 133.269203 
L 57.895 133.201609 
L 57.895 133.201609 
L 57.895 133.201609 
L 57.895793 133.134014 
L 57.898172 133.066436 
L 57.902136 132.998893 
L 57.907684 132.9314 
L 57.914815 132.863976 
L 57.923527 132.796636 
L 57.933818 132.729399 
L 57.945686 132.66228 
L 57.959126 132.595297 
L 57.974137 132.528467 
L 57.990713 132.461806 
L 58.008851 132.395331 
L 58.028547 132.32906 
L 58.049795 132.263008 
L 58.072591 132.197192 
L 58.096927 132.131629 
L 58.122799 132.066336 
L 58.150199 132.001328 
L 58.179121 131.936623 
L 58.209558 131.872235 
L 58.241501 131.808183 
L 58.274944 131.744481 
L 58.309876 131.681147 
L 58.346291 131.618195 
L 58.384177 131.555641 
L 58.423527 131.493502 
L 58.464329 131.431793 
L 58.506575 131.37053 
L 58.550252 131.309727 
L 58.59535 131.249401 
L 58.641858 131.189566 
L 58.689764 131.130238 
L 58.739056 131.071431 
L 58.789722 131.013161 
L 58.841748 130.955441 
L 58.895122 130.898287 
L 58.94983 130.841713 
L 59.005859 130.785732 
L 59.063194 130.73036 
L 59.121821 130.67561 
L 59.181725 130.621496 
L 59.242891 130.568032 
L 59.305304 130.515231 
L 59.368948 130.463105 
L 59.433807 130.41167 
L 59.499865 130.360936 
L 59.567104 130.310918 
L 59.635509 130.261627 
L 59.705061 130.213077 
L 59.775744 130.165279 
L 59.84754 130.118245 
L 59.92043 130.071987 
L 59.994396 130.026518 
L 60.069419 129.981847 
L 60.145481 129.937987 
L 60.222563 129.894949 
L 60.300644 129.852743 
L 60.379707 129.811381 
L 60.459729 129.770872 
L 60.540692 129.731226 
L 60.622575 129.692454 
L 60.705357 129.654566 
L 60.789018 129.61757 
L 60.873537 129.581477 
L 60.958891 129.546295 
L 61.04506 129.512033 
L 61.132023 129.4787 
L 61.219756 129.446304 
L 61.308238 129.414854 
L 61.397447 129.384357 
L 61.487361 129.354821 
L 61.577956 129.326253 
L 61.66921 129.298661 
L 61.7611 129.272052 
L 61.853602 129.246432 
L 61.946694 129.221807 
L 62.040353 129.198185 
L 62.134553 129.17557 
L 62.229272 129.153968 
L 62.324487 129.133386 
L 62.420172 129.113828 
L 62.516304 129.095299 
L 62.612858 129.077804 
L 62.709811 129.061346 
L 62.807138 129.045932 
L 62.904814 129.031563 
L 63.002815 129.018244 
L 63.101116 129.005978 
L 63.199693 128.994768 
L 63.29852 128.984618 
L 63.397573 128.975529 
L 63.496827 128.967504 
L 63.596256 128.960545 
L 63.695836 128.954653 
L 63.795542 128.949831 
L 63.895349 128.946079 
L 63.995231 128.943399 
L 64.095163 128.94179 
L 64.195121 128.941254 
L 64.195121 128.941254 
L 57.895 128.941254 
L 57.895 137.461964 
z
" clip-path="url(#pe2a51177e8)" style="fill: #ffffff; stroke: #ffffff; stroke-linejoin: miter"/>
   </g>
   <g id="patch_21">
    <path d="M 574.324897 128.941254 
L 574.324897 128.941254 
L 574.424854 128.94179 
L 574.524786 128.943399 
L 574.624668 128.946079 
L 574.724475 128.949831 
L 574.824181 128.954653 
L 574.923761 128.960545 
L 575.023191 128.967504 
L 575.122444 128.975529 
L 575.221497 128.984618 
L 575.320324 128.994768 
L 575.418901 129.005978 
L 575.517202 129.018244 
L 575.615203 129.031563 
L 575.712879 129.045932 
L 575.810206 129.061346 
L 575.907159 129.077804 
L 576.003714 129.095299 
L 576.099846 129.113828 
L 576.195531 129.133386 
L 576.290745 129.153968 
L 576.385464 129.17557 
L 576.479665 129.198185 
L 576.573323 129.221807 
L 576.666415 129.246432 
L 576.758917 129.272052 
L 576.850807 129.298661 
L 576.942061 129.326253 
L 577.032656 129.354821 
L 577.12257 129.384357 
L 577.211779 129.414854 
L 577.300261 129.446304 
L 577.387995 129.4787 
L 577.474957 129.512033 
L 577.561126 129.546295 
L 577.646481 129.581477 
L 577.730999 129.61757 
L 577.81466 129.654566 
L 577.897442 129.692454 
L 577.979325 129.731226 
L 578.060288 129.770872 
L 578.140311 129.811381 
L 578.219373 129.852743 
L 578.297454 129.894949 
L 578.374536 129.937987 
L 578.450598 129.981847 
L 578.525622 130.026518 
L 578.599588 130.071987 
L 578.672478 130.118245 
L 578.744273 130.165279 
L 578.814956 130.213077 
L 578.884508 130.261627 
L 578.952913 130.310918 
L 579.020153 130.360936 
L 579.08621 130.41167 
L 579.151069 130.463105 
L 579.214713 130.515231 
L 579.277126 130.568032 
L 579.338292 130.621496 
L 579.398196 130.67561 
L 579.456823 130.73036 
L 579.514158 130.785732 
L 579.570187 130.841713 
L 579.624895 130.898287 
L 579.678269 130.955441 
L 579.730296 131.013161 
L 579.780961 131.071431 
L 579.830253 131.130238 
L 579.878159 131.189566 
L 579.924667 131.249401 
L 579.969765 131.309727 
L 580.013443 131.37053 
L 580.055688 131.431793 
L 580.09649 131.493502 
L 580.13584 131.555641 
L 580.173727 131.618195 
L 580.210141 131.681147 
L 580.245073 131.744481 
L 580.278516 131.808183 
L 580.310459 131.872235 
L 580.340896 131.936623 
L 580.369818 132.001328 
L 580.397218 132.066336 
L 580.42309 132.131629 
L 580.447427 132.197192 
L 580.470222 132.263008 
L 580.49147 132.32906 
L 580.511166 132.395331 
L 580.529304 132.461806 
L 580.545881 132.528467 
L 580.560891 132.595297 
L 580.574332 132.66228 
L 580.586199 132.729399 
L 580.59649 132.796636 
L 580.605202 132.863976 
L 580.612333 132.9314 
L 580.617881 132.998893 
L 580.621845 133.066436 
L 580.624224 133.134014 
L 580.625017 133.201609 
L 580.625017 133.201609 
L 580.625017 133.201609 
L 580.624224 133.269203 
L 580.621845 133.336781 
L 580.617881 133.404325 
L 580.612333 133.471817 
L 580.605202 133.539242 
L 580.59649 133.606581 
L 580.586199 133.673819 
L 580.574332 133.740938 
L 580.560891 133.80792 
L 580.545881 133.874751 
L 580.529304 133.941412 
L 580.511166 134.007886 
L 580.49147 134.074158 
L 580.470222 134.14021 
L 580.447427 134.206025 
L 580.42309 134.271588 
L 580.397218 134.336882 
L 580.369818 134.401889 
L 580.340896 134.466595 
L 580.310459 134.530982 
L 580.278516 134.595034 
L 580.245073 134.658736 
L 580.210141 134.722071 
L 580.173727 134.785023 
L 580.13584 134.847576 
L 580.09649 134.909715 
L 580.055688 134.971424 
L 580.013443 135.032688 
L 579.969765 135.09349 
L 579.924667 135.153816 
L 579.878159 135.213651 
L 579.830253 135.272979 
L 579.780961 135.331786 
L 579.730296 135.390057 
L 579.678269 135.447776 
L 579.624895 135.504931 
L 579.570187 135.561505 
L 579.514158 135.617485 
L 579.456823 135.672857 
L 579.398196 135.727607 
L 579.338292 135.781721 
L 579.277126 135.835185 
L 579.214713 135.887987 
L 579.151069 135.940112 
L 579.08621 135.991548 
L 579.020153 136.042281 
L 578.952913 136.0923 
L 578.884508 136.14159 
L 578.814956 136.190141 
L 578.744273 136.237939 
L 578.672478 136.284973 
L 578.599588 136.33123 
L 578.525622 136.3767 
L 578.450598 136.42137 
L 578.374536 136.46523 
L 578.297454 136.508268 
L 578.219373 136.550474 
L 578.140311 136.591837 
L 578.060288 136.632346 
L 577.979325 136.671991 
L 577.897442 136.710763 
L 577.81466 136.748652 
L 577.730999 136.785647 
L 577.646481 136.821741 
L 577.561126 136.856923 
L 577.474957 136.891184 
L 577.387995 136.924517 
L 577.300261 136.956913 
L 577.211779 136.988363 
L 577.12257 137.01886 
L 577.032656 137.048396 
L 576.942061 137.076964 
L 576.850807 137.104556 
L 576.758917 137.131165 
L 576.666415 137.156786 
L 576.573323 137.18141 
L 576.479665 137.205033 
L 576.385464 137.227648 
L 576.290745 137.249249 
L 576.195531 137.269831 
L 576.099846 137.289389 
L 576.003714 137.307919 
L 575.907159 137.325414 
L 575.810206 137.341871 
L 575.712879 137.357286 
L 575.615203 137.371655 
L 575.517202 137.384974 
L 575.418901 137.397239 
L 575.320324 137.408449 
L 575.221497 137.418599 
L 575.122444 137.427688 
L 575.023191 137.435713 
L 574.923761 137.442673 
L 574.824181 137.448564 
L 574.724475 137.453386 
L 574.624668 137.457138 
L 574.524786 137.459819 
L 574.424854 137.461427 
L 574.324897 137.461964 
L 574.324897 137.461964 
L 580.625017 137.461964 
L 580.625017 128.941254 
z
" clip-path="url(#pe2a51177e8)" style="fill: #ffffff; stroke: #ffffff; stroke-linejoin: miter"/>
   </g>
   <g id="patch_22">
    <path d="M 429.255504 128.941254 
L 435.555625 133.201609 
L 441.855746 128.941254 
z
" clip-path="url(#pe2a51177e8)" style="fill: #ffffff; stroke: #ffffff; stroke-linejoin: miter"/>
   </g>
   <g id="patch_23">
    <path d="M 441.855746 137.461964 
L 435.555625 133.201609 
L 429.255504 137.461964 
z
" clip-path="url(#pe2a51177e8)" style="fill: #ffffff; stroke: #ffffff; stroke-linejoin: miter"/>
   </g>
   <g id="patch_24">
    <path d="M 64.195121 121.272615 
L 64.195121 121.272615 
L 64.095163 121.272078 
L 63.995231 121.27047 
L 63.895349 121.267789 
L 63.795542 121.264037 
L 63.695836 121.259215 
L 63.596256 121.253323 
L 63.496827 121.246364 
L 63.397573 121.238339 
L 63.29852 121.22925 
L 63.199693 121.2191 
L 63.101116 121.20789 
L 63.002815 121.195624 
L 62.904814 121.182306 
L 62.807138 121.167937 
L 62.709811 121.152522 
L 62.612858 121.136065 
L 62.516304 121.118569 
L 62.420172 121.10004 
L 62.324487 121.080482 
L 62.229272 121.0599 
L 62.134553 121.038299 
L 62.040353 121.015684 
L 61.946694 120.992061 
L 61.853602 120.967437 
L 61.7611 120.941816 
L 61.66921 120.915207 
L 61.577956 120.887615 
L 61.487361 120.859047 
L 61.397447 120.829511 
L 61.308238 120.799014 
L 61.219756 120.767564 
L 61.132023 120.735168 
L 61.04506 120.701835 
L 60.958891 120.667574 
L 60.873537 120.632392 
L 60.789018 120.596298 
L 60.705357 120.559303 
L 60.622575 120.521414 
L 60.540692 120.482642 
L 60.459729 120.442997 
L 60.379707 120.402488 
L 60.300644 120.361125 
L 60.222563 120.318919 
L 60.145481 120.275881 
L 60.069419 120.232021 
L 59.994396 120.187351 
L 59.92043 120.141881 
L 59.84754 120.095624 
L 59.775744 120.04859 
L 59.705061 120.000792 
L 59.635509 119.952241 
L 59.567104 119.902951 
L 59.499865 119.852932 
L 59.433807 119.802199 
L 59.368948 119.750763 
L 59.305304 119.698638 
L 59.242891 119.645836 
L 59.181725 119.592372 
L 59.121821 119.538258 
L 59.063194 119.483508 
L 59.005859 119.428136 
L 58.94983 119.372156 
L 58.895122 119.315581 
L 58.841748 119.258427 
L 58.789722 119.200708 
L 58.739056 119.142437 
L 58.689764 119.08363 
L 58.641858 119.024302 
L 58.59535 118.964467 
L 58.550252 118.904141 
L 58.506575 118.843339 
L 58.464329 118.782075 
L 58.423527 118.720366 
L 58.384177 118.658227 
L 58.346291 118.595674 
L 58.309876 118.532722 
L 58.274944 118.469387 
L 58.241501 118.405685 
L 58.209558 118.341633 
L 58.179121 118.277246 
L 58.150199 118.21254 
L 58.122799 118.147533 
L 58.096927 118.082239 
L 58.072591 118.016676 
L 58.049795 117.950861 
L 58.028547 117.884809 
L 58.008851 117.818537 
L 57.990713 117.752063 
L 57.974137 117.685402 
L 57.959126 117.618571 
L 57.945686 117.551588 
L 57.933818 117.48447 
L 57.923527 117.417232 
L 57.914815 117.349893 
L 57.907684 117.282468 
L 57.902136 117.214975 
L 57.898172 117.147432 
L 57.895793 117.079854 
L 57.895 117.01226 
L 57.895 117.01226 
L 57.895 117.01226 
L 57.895793 116.944665 
L 57.898172 116.877087 
L 57.902136 116.809544 
L 57.907684 116.742051 
L 57.914815 116.674627 
L 57.923527 116.607287 
L 57.933818 116.54005 
L 57.945686 116.472931 
L 57.959126 116.405948 
L 57.974137 116.339118 
L 57.990713 116.272457 
L 58.008851 116.205982 
L 58.028547 116.13971 
L 58.049795 116.073659 
L 58.072591 116.007843 
L 58.096927 115.94228 
L 58.122799 115.876987 
L 58.150199 115.811979 
L 58.179121 115.747273 
L 58.209558 115.682886 
L 58.241501 115.618834 
L 58.274944 115.555132 
L 58.309876 115.491798 
L 58.346291 115.428846 
L 58.384177 115.366292 
L 58.423527 115.304153 
L 58.464329 115.242444 
L 58.506575 115.181181 
L 58.550252 115.120378 
L 58.59535 115.060052 
L 58.641858 115.000217 
L 58.689764 114.940889 
L 58.739056 114.882082 
L 58.789722 114.823812 
L 58.841748 114.766092 
L 58.895122 114.708938 
L 58.94983 114.652363 
L 59.005859 114.596383 
L 59.063194 114.541011 
L 59.121821 114.486261 
L 59.181725 114.432147 
L 59.242891 114.378683 
L 59.305304 114.325881 
L 59.368948 114.273756 
L 59.433807 114.22232 
L 59.499865 114.171587 
L 59.567104 114.121569 
L 59.635509 114.072278 
L 59.705061 114.023728 
L 59.775744 113.975929 
L 59.84754 113.928896 
L 59.92043 113.882638 
L 59.994396 113.837168 
L 60.069419 113.792498 
L 60.145481 113.748638 
L 60.222563 113.7056 
L 60.300644 113.663394 
L 60.379707 113.622032 
L 60.459729 113.581522 
L 60.540692 113.541877 
L 60.622575 113.503105 
L 60.705357 113.465216 
L 60.789018 113.428221 
L 60.873537 113.392128 
L 60.958891 113.356946 
L 61.04506 113.322684 
L 61.132023 113.289351 
L 61.219756 113.256955 
L 61.308238 113.225505 
L 61.397447 113.195008 
L 61.487361 113.165472 
L 61.577956 113.136904 
L 61.66921 113.109312 
L 61.7611 113.082703 
L 61.853602 113.057083 
L 61.946694 113.032458 
L 62.040353 113.008835 
L 62.134553 112.986221 
L 62.229272 112.964619 
L 62.324487 112.944037 
L 62.420172 112.924479 
L 62.516304 112.90595 
L 62.612858 112.888454 
L 62.709811 112.871997 
L 62.807138 112.856582 
L 62.904814 112.842214 
L 63.002815 112.828895 
L 63.101116 112.816629 
L 63.199693 112.805419 
L 63.29852 112.795269 
L 63.397573 112.78618 
L 63.496827 112.778155 
L 63.596256 112.771196 
L 63.695836 112.765304 
L 63.795542 112.760482 
L 63.895349 112.75673 
L 63.995231 112.754049 
L 64.095163 112.752441 
L 64.195121 112.751905 
L 64.195121 112.751905 
L 57.895 112.751905 
L 57.895 121.272615 
z
" clip-path="url(#pe2a51177e8)" style="fill: #ffffff; stroke: #ffffff; stroke-linejoin: miter"/>
   </g>
   <g id="patch_25">
    <path d="M 451.861335 112.751905 
L 451.861335 112.751905 
L 451.961292 112.752441 
L 452.061225 112.754049 
L 452.161107 112.75673 
L 452.260913 112.760482 
L 452.360619 112.765304 
L 452.460199 112.771196 
L 452.559629 112.778155 
L 452.658883 112.78618 
L 452.757936 112.795269 
L 452.856763 112.805419 
L 452.955339 112.816629 
L 453.053641 112.828895 
L 453.151642 112.842214 
L 453.249318 112.856582 
L 453.346645 112.871997 
L 453.443598 112.888454 
L 453.540152 112.90595 
L 453.636284 112.924479 
L 453.731969 112.944037 
L 453.827183 112.964619 
L 453.921903 112.986221 
L 454.016103 113.008835 
L 454.109761 113.032458 
L 454.202853 113.057083 
L 454.295356 113.082703 
L 454.387246 113.109312 
L 454.4785 113.136904 
L 454.569095 113.165472 
L 454.659008 113.195008 
L 454.748217 113.225505 
L 454.8367 113.256955 
L 454.924433 113.289351 
L 455.011395 113.322684 
L 455.097565 113.356946 
L 455.182919 113.392128 
L 455.267437 113.428221 
L 455.351098 113.465216 
L 455.433881 113.503105 
L 455.515763 113.541877 
L 455.596726 113.581522 
L 455.676749 113.622032 
L 455.755811 113.663394 
L 455.833893 113.7056 
L 455.910974 113.748638 
L 455.987037 113.792498 
L 456.06206 113.837168 
L 456.136026 113.882638 
L 456.208916 113.928896 
L 456.280711 113.975929 
L 456.351394 114.023728 
L 456.420947 114.072278 
L 456.489351 114.121569 
L 456.556591 114.171587 
L 456.622648 114.22232 
L 456.687507 114.273756 
L 456.751151 114.325881 
L 456.813564 114.378683 
L 456.874731 114.432147 
L 456.934635 114.486261 
L 456.993262 114.541011 
L 457.050597 114.596383 
L 457.106626 114.652363 
L 457.161334 114.708938 
L 457.214708 114.766092 
L 457.266734 114.823812 
L 457.3174 114.882082 
L 457.366692 114.940889 
L 457.414598 115.000217 
L 457.461106 115.060052 
L 457.506204 115.120378 
L 457.549881 115.181181 
L 457.592126 115.242444 
L 457.632929 115.304153 
L 457.672278 115.366292 
L 457.710165 115.428846 
L 457.746579 115.491798 
L 457.781512 115.555132 
L 457.814954 115.618834 
L 457.846898 115.682886 
L 457.877334 115.747273 
L 457.906257 115.811979 
L 457.933657 115.876987 
L 457.959529 115.94228 
L 457.983865 116.007843 
L 458.00666 116.073659 
L 458.027909 116.13971 
L 458.047604 116.205982 
L 458.065743 116.272457 
L 458.082319 116.339118 
L 458.09733 116.405948 
L 458.11077 116.472931 
L 458.122637 116.54005 
L 458.132928 116.607287 
L 458.14164 116.674627 
L 458.148771 116.742051 
L 458.15432 116.809544 
L 458.158284 116.877087 
L 458.160663 116.944665 
L 458.161456 117.01226 
L 458.161456 117.01226 
L 458.161456 117.01226 
L 458.160663 117.079854 
L 458.158284 117.147432 
L 458.15432 117.214975 
L 458.148771 117.282468 
L 458.14164 117.349893 
L 458.132928 117.417232 
L 458.122637 117.48447 
L 458.11077 117.551588 
L 458.09733 117.618571 
L 458.082319 117.685402 
L 458.065743 117.752063 
L 458.047604 117.818537 
L 458.027909 117.884809 
L 458.00666 117.950861 
L 457.983865 118.016676 
L 457.959529 118.082239 
L 457.933657 118.147533 
L 457.906257 118.21254 
L 457.877334 118.277246 
L 457.846898 118.341633 
L 457.814954 118.405685 
L 457.781512 118.469387 
L 457.746579 118.532722 
L 457.710165 118.595674 
L 457.672278 118.658227 
L 457.632929 118.720366 
L 457.592126 118.782075 
L 457.549881 118.843339 
L 457.506204 118.904141 
L 457.461106 118.964467 
L 457.414598 119.024302 
L 457.366692 119.08363 
L 457.3174 119.142437 
L 457.266734 119.200708 
L 457.214708 119.258427 
L 457.161334 119.315581 
L 457.106626 119.372156 
L 457.050597 119.428136 
L 456.993262 119.483508 
L 456.934635 119.538258 
L 456.874731 119.592372 
L 456.813564 119.645836 
L 456.751151 119.698638 
L 456.687507 119.750763 
L 456.622648 119.802199 
L 456.556591 119.852932 
L 456.489351 119.902951 
L 456.420947 119.952241 
L 456.351394 120.000792 
L 456.280711 120.04859 
L 456.208916 120.095624 
L 456.136026 120.141881 
L 456.06206 120.187351 
L 455.987037 120.232021 
L 455.910974 120.275881 
L 455.833893 120.318919 
L 455.755811 120.361125 
L 455.676749 120.402488 
L 455.596726 120.442997 
L 455.515763 120.482642 
L 455.433881 120.521414 
L 455.351098 120.559303 
L 455.267437 120.596298 
L 455.182919 120.632392 
L 455.097565 120.667574 
L 455.011395 120.701835 
L 454.924433 120.735168 
L 454.8367 120.767564 
L 454.748217 120.799014 
L 454.659008 120.829511 
L 454.569095 120.859047 
L 454.4785 120.887615 
L 454.387246 120.915207 
L 454.295356 120.941816 
L 454.202853 120.967437 
L 454.109761 120.992061 
L 454.016103 121.015684 
L 453.921903 121.038299 
L 453.827183 121.0599 
L 453.731969 121.080482 
L 453.636284 121.10004 
L 453.540152 121.118569 
L 453.443598 121.136065 
L 453.346645 121.152522 
L 453.249318 121.167937 
L 453.151642 121.182306 
L 453.053641 121.195624 
L 452.955339 121.20789 
L 452.856763 121.2191 
L 452.757936 121.22925 
L 452.658883 121.238339 
L 452.559629 121.246364 
L 452.460199 121.253323 
L 452.360619 121.259215 
L 452.260913 121.264037 
L 452.161107 121.267789 
L 452.061225 121.27047 
L 451.961292 121.272078 
L 451.861335 121.272615 
L 451.861335 121.272615 
L 458.161456 121.272615 
L 458.161456 112.751905 
z
" clip-path="url(#pe2a51177e8)" style="fill: #ffffff; stroke: #ffffff; stroke-linejoin: miter"/>
   </g>
   <g id="patch_26">
    <path d="M 383.840619 112.751905 
L 390.14074 117.01226 
L 396.440861 112.751905 
z
" clip-path="url(#pe2a51177e8)" style="fill: #ffffff; stroke: #ffffff; stroke-linejoin: miter"/>
   </g>
   <g id="patch_27">
    <path d="M 396.440861 121.272615 
L 390.14074 117.01226 
L 383.840619 121.272615 
z
" clip-path="url(#pe2a51177e8)" style="fill: #ffffff; stroke: #ffffff; stroke-linejoin: miter"/>
   </g>
   <g id="patch_28">
    <path d="M 64.195121 137.461964 
L 64.195121 137.461964 
L 64.095163 137.461427 
L 63.995231 137.459819 
L 63.895349 137.457138 
L 63.795542 137.453386 
L 63.695836 137.448564 
L 63.596256 137.442673 
L 63.496827 137.435713 
L 63.397573 137.427688 
L 63.29852 137.418599 
L 63.199693 137.408449 
L 63.101116 137.397239 
L 63.002815 137.384974 
L 62.904814 137.371655 
L 62.807138 137.357286 
L 62.709811 137.341871 
L 62.612858 137.325414 
L 62.516304 137.307919 
L 62.420172 137.289389 
L 62.324487 137.269831 
L 62.229272 137.249249 
L 62.134553 137.227648 
L 62.040353 137.205033 
L 61.946694 137.18141 
L 61.853602 137.156786 
L 61.7611 137.131165 
L 61.66921 137.104556 
L 61.577956 137.076964 
L 61.487361 137.048396 
L 61.397447 137.01886 
L 61.308238 136.988363 
L 61.219756 136.956913 
L 61.132023 136.924517 
L 61.04506 136.891184 
L 60.958891 136.856923 
L 60.873537 136.821741 
L 60.789018 136.785647 
L 60.705357 136.748652 
L 60.622575 136.710763 
L 60.540692 136.671991 
L 60.459729 136.632346 
L 60.379707 136.591837 
L 60.300644 136.550474 
L 60.222563 136.508268 
L 60.145481 136.46523 
L 60.069419 136.42137 
L 59.994396 136.3767 
L 59.92043 136.33123 
L 59.84754 136.284973 
L 59.775744 136.237939 
L 59.705061 136.190141 
L 59.635509 136.14159 
L 59.567104 136.0923 
L 59.499865 136.042281 
L 59.433807 135.991548 
L 59.368948 135.940112 
L 59.305304 135.887987 
L 59.242891 135.835185 
L 59.181725 135.781721 
L 59.121821 135.727607 
L 59.063194 135.672857 
L 59.005859 135.617485 
L 58.94983 135.561505 
L 58.895122 135.504931 
L 58.841748 135.447776 
L 58.789722 135.390057 
L 58.739056 135.331786 
L 58.689764 135.272979 
L 58.641858 135.213651 
L 58.59535 135.153816 
L 58.550252 135.09349 
L 58.506575 135.032688 
L 58.464329 134.971424 
L 58.423527 134.909715 
L 58.384177 134.847576 
L 58.346291 134.785023 
L 58.309876 134.722071 
L 58.274944 134.658736 
L 58.241501 134.595034 
L 58.209558 134.530982 
L 58.179121 134.466595 
L 58.150199 134.401889 
L 58.122799 134.336882 
L 58.096927 134.271588 
L 58.072591 134.206025 
L 58.049795 134.14021 
L 58.028547 134.074158 
L 58.008851 134.007886 
L 57.990713 133.941412 
L 57.974137 133.874751 
L 57.959126 133.80792 
L 57.945686 133.740938 
L 57.933818 133.673819 
L 57.923527 133.606581 
L 57.914815 133.539242 
L 57.907684 133.471817 
L 57.902136 133.404325 
L 57.898172 133.336781 
L 57.895793 133.269203 
L 57.895 133.201609 
L 57.895 133.201609 
L 57.895 133.201609 
L 57.895793 133.134014 
L 57.898172 133.066436 
L 57.902136 132.998893 
L 57.907684 132.9314 
L 57.914815 132.863976 
L 57.923527 132.796636 
L 57.933818 132.729399 
L 57.945686 132.66228 
L 57.959126 132.595297 
L 57.974137 132.528467 
L 57.990713 132.461806 
L 58.008851 132.395331 
L 58.028547 132.32906 
L 58.049795 132.263008 
L 58.072591 132.197192 
L 58.096927 132.131629 
L 58.122799 132.066336 
L 58.150199 132.001328 
L 58.179121 131.936623 
L 58.209558 131.872235 
L 58.241501 131.808183 
L 58.274944 131.744481 
L 58.309876 131.681147 
L 58.346291 131.618195 
L 58.384177 131.555641 
L 58.423527 131.493502 
L 58.464329 131.431793 
L 58.506575 131.37053 
L 58.550252 131.309727 
L 58.59535 131.249401 
L 58.641858 131.189566 
L 58.689764 131.130238 
L 58.739056 131.071431 
L 58.789722 131.013161 
L 58.841748 130.955441 
L 58.895122 130.898287 
L 58.94983 130.841713 
L 59.005859 130.785732 
L 59.063194 130.73036 
L 59.121821 130.67561 
L 59.181725 130.621496 
L 59.242891 130.568032 
L 59.305304 130.515231 
L 59.368948 130.463105 
L 59.433807 130.41167 
L 59.499865 130.360936 
L 59.567104 130.310918 
L 59.635509 130.261627 
L 59.705061 130.213077 
L 59.775744 130.165279 
L 59.84754 130.118245 
L 59.92043 130.071987 
L 59.994396 130.026518 
L 60.069419 129.981847 
L 60.145481 129.937987 
L 60.222563 129.894949 
L 60.300644 129.852743 
L 60.379707 129.811381 
L 60.459729 129.770872 
L 60.540692 129.731226 
L 60.622575 129.692454 
L 60.705357 129.654566 
L 60.789018 129.61757 
L 60.873537 129.581477 
L 60.958891 129.546295 
L 61.04506 129.512033 
L 61.132023 129.4787 
L 61.219756 129.446304 
L 61.308238 129.414854 
L 61.397447 129.384357 
L 61.487361 129.354821 
L 61.577956 129.326253 
L 61.66921 129.298661 
L 61.7611 129.272052 
L 61.853602 129.246432 
L 61.946694 129.221807 
L 62.040353 129.198185 
L 62.134553 129.17557 
L 62.229272 129.153968 
L 62.324487 129.133386 
L 62.420172 129.113828 
L 62.516304 129.095299 
L 62.612858 129.077804 
L 62.709811 129.061346 
L 62.807138 129.045932 
L 62.904814 129.031563 
L 63.002815 129.018244 
L 63.101116 129.005978 
L 63.199693 128.994768 
L 63.29852 128.984618 
L 63.397573 128.975529 
L 63.496827 128.967504 
L 63.596256 128.960545 
L 63.695836 128.954653 
L 63.795542 128.949831 
L 63.895349 128.946079 
L 63.995231 128.943399 
L 64.095163 128.94179 
L 64.195121 128.941254 
L 64.195121 128.941254 
L 429.255504 128.941254 
L 435.555625 133.201609 
L 441.855746 128.941254 
L 574.324897 128.941254 
L 574.324897 128.941254 
L 574.424854 128.94179 
L 574.524786 128.943399 
L 574.624668 128.946079 
L 574.724475 128.949831 
L 574.824181 128.954653 
L 574.923761 128.960545 
L 575.023191 128.967504 
L 575.122444 128.975529 
L 575.221497 128.984618 
L 575.320324 128.994768 
L 575.418901 129.005978 
L 575.517202 129.018244 
L 575.615203 129.031563 
L 575.712879 129.045932 
L 575.810206 129.061346 
L 575.907159 129.077804 
L 576.003714 129.095299 
L 576.099846 129.113828 
L 576.195531 129.133386 
L 576.290745 129.153968 
L 576.385464 129.17557 
L 576.479665 129.198185 
L 576.573323 129.221807 
L 576.666415 129.246432 
L 576.758917 129.272052 
L 576.850807 129.298661 
L 576.942061 129.326253 
L 577.032656 129.354821 
L 577.12257 129.384357 
L 577.211779 129.414854 
L 577.300261 129.446304 
L 577.387995 129.4787 
L 577.474957 129.512033 
L 577.561126 129.546295 
L 577.646481 129.581477 
L 577.730999 129.61757 
L 577.81466 129.654566 
L 577.897442 129.692454 
L 577.979325 129.731226 
L 578.060288 129.770872 
L 578.140311 129.811381 
L 578.219373 129.852743 
L 578.297454 129.894949 
L 578.374536 129.937987 
L 578.450598 129.981847 
L 578.525622 130.026518 
L 578.599588 130.071987 
L 578.672478 130.118245 
L 578.744273 130.165279 
L 578.814956 130.213077 
L 578.884508 130.261627 
L 578.952913 130.310918 
L 579.020153 130.360936 
L 579.08621 130.41167 
L 579.151069 130.463105 
L 579.214713 130.515231 
L 579.277126 130.568032 
L 579.338292 130.621496 
L 579.398196 130.67561 
L 579.456823 130.73036 
L 579.514158 130.785732 
L 579.570187 130.841713 
L 579.624895 130.898287 
L 579.678269 130.955441 
L 579.730296 131.013161 
L 579.780961 131.071431 
L 579.830253 131.130238 
L 579.878159 131.189566 
L 579.924667 131.249401 
L 579.969765 131.309727 
L 580.013443 131.37053 
L 580.055688 131.431793 
L 580.09649 131.493502 
L 580.13584 131.555641 
L 580.173727 131.618195 
L 580.210141 131.681147 
L 580.245073 131.744481 
L 580.278516 131.808183 
L 580.310459 131.872235 
L 580.340896 131.936623 
L 580.369818 132.001328 
L 580.397218 132.066336 
L 580.42309 132.131629 
L 580.447427 132.197192 
L 580.470222 132.263008 
L 580.49147 132.32906 
L 580.511166 132.395331 
L 580.529304 132.461806 
L 580.545881 132.528467 
L 580.560891 132.595297 
L 580.574332 132.66228 
L 580.586199 132.729399 
L 580.59649 132.796636 
L 580.605202 132.863976 
L 580.612333 132.9314 
L 580.617881 132.998893 
L 580.621845 133.066436 
L 580.624224 133.134014 
L 580.625017 133.201609 
L 580.625017 133.201609 
L 580.625017 133.201609 
L 580.624224 133.269203 
L 580.621845 133.336781 
L 580.617881 133.404325 
L 580.612333 133.471817 
L 580.605202 133.539242 
L 580.59649 133.606581 
L 580.586199 133.673819 
L 580.574332 133.740938 
L 580.560891 133.80792 
L 580.545881 133.874751 
L 580.529304 133.941412 
L 580.511166 134.007886 
L 580.49147 134.074158 
L 580.470222 134.14021 
L 580.447427 134.206025 
L 580.42309 134.271588 
L 580.397218 134.336882 
L 580.369818 134.401889 
L 580.340896 134.466595 
L 580.310459 134.530982 
L 580.278516 134.595034 
L 580.245073 134.658736 
L 580.210141 134.722071 
L 580.173727 134.785023 
L 580.13584 134.847576 
L 580.09649 134.909715 
L 580.055688 134.971424 
L 580.013443 135.032688 
L 579.969765 135.09349 
L 579.924667 135.153816 
L 579.878159 135.213651 
L 579.830253 135.272979 
L 579.780961 135.331786 
L 579.730296 135.390057 
L 579.678269 135.447776 
L 579.624895 135.504931 
L 579.570187 135.561505 
L 579.514158 135.617485 
L 579.456823 135.672857 
L 579.398196 135.727607 
L 579.338292 135.781721 
L 579.277126 135.835185 
L 579.214713 135.887987 
L 579.151069 135.940112 
L 579.08621 135.991548 
L 579.020153 136.042281 
L 578.952913 136.0923 
L 578.884508 136.14159 
L 578.814956 136.190141 
L 578.744273 136.237939 
L 578.672478 136.284973 
L 578.599588 136.33123 
L 578.525622 136.3767 
L 578.450598 136.42137 
L 578.374536 136.46523 
L 578.297454 136.508268 
L 578.219373 136.550474 
L 578.140311 136.591837 
L 578.060288 136.632346 
L 577.979325 136.671991 
L 577.897442 136.710763 
L 577.81466 136.748652 
L 577.730999 136.785647 
L 577.646481 136.821741 
L 577.561126 136.856923 
L 577.474957 136.891184 
L 577.387995 136.924517 
L 577.300261 136.956913 
L 577.211779 136.988363 
L 577.12257 137.01886 
L 577.032656 137.048396 
L 576.942061 137.076964 
L 576.850807 137.104556 
L 576.758917 137.131165 
L 576.666415 137.156786 
L 576.573323 137.18141 
L 576.479665 137.205033 
L 576.385464 137.227648 
L 576.290745 137.249249 
L 576.195531 137.269831 
L 576.099846 137.289389 
L 576.003714 137.307919 
L 575.907159 137.325414 
L 575.810206 137.341871 
L 575.712879 137.357286 
L 575.615203 137.371655 
L 575.517202 137.384974 
L 575.418901 137.397239 
L 575.320324 137.408449 
L 575.221497 137.418599 
L 575.122444 137.427688 
L 575.023191 137.435713 
L 574.923761 137.442673 
L 574.824181 137.448564 
L 574.724475 137.453386 
L 574.624668 137.457138 
L 574.524786 137.459819 
L 574.424854 137.461427 
L 574.324897 137.461964 
L 574.324897 137.461964 
L 441.855746 137.461964 
L 435.555625 133.201609 
L 429.255504 137.461964 
L 64.195121 137.461964 
z
" clip-path="url(#pe2a51177e8)" style="fill: none; stroke: #000000; stroke-linejoin: miter"/>
   </g>
   <g id="patch_29">
    <path d="M 64.195121 121.272615 
L 64.195121 121.272615 
L 64.095163 121.272078 
L 63.995231 121.27047 
L 63.895349 121.267789 
L 63.795542 121.264037 
L 63.695836 121.259215 
L 63.596256 121.253323 
L 63.496827 121.246364 
L 63.397573 121.238339 
L 63.29852 121.22925 
L 63.199693 121.2191 
L 63.101116 121.20789 
L 63.002815 121.195624 
L 62.904814 121.182306 
L 62.807138 121.167937 
L 62.709811 121.152522 
L 62.612858 121.136065 
L 62.516304 121.118569 
L 62.420172 121.10004 
L 62.324487 121.080482 
L 62.229272 121.0599 
L 62.134553 121.038299 
L 62.040353 121.015684 
L 61.946694 120.992061 
L 61.853602 120.967437 
L 61.7611 120.941816 
L 61.66921 120.915207 
L 61.577956 120.887615 
L 61.487361 120.859047 
L 61.397447 120.829511 
L 61.308238 120.799014 
L 61.219756 120.767564 
L 61.132023 120.735168 
L 61.04506 120.701835 
L 60.958891 120.667574 
L 60.873537 120.632392 
L 60.789018 120.596298 
L 60.705357 120.559303 
L 60.622575 120.521414 
L 60.540692 120.482642 
L 60.459729 120.442997 
L 60.379707 120.402488 
L 60.300644 120.361125 
L 60.222563 120.318919 
L 60.145481 120.275881 
L 60.069419 120.232021 
L 59.994396 120.187351 
L 59.92043 120.141881 
L 59.84754 120.095624 
L 59.775744 120.04859 
L 59.705061 120.000792 
L 59.635509 119.952241 
L 59.567104 119.902951 
L 59.499865 119.852932 
L 59.433807 119.802199 
L 59.368948 119.750763 
L 59.305304 119.698638 
L 59.242891 119.645836 
L 59.181725 119.592372 
L 59.121821 119.538258 
L 59.063194 119.483508 
L 59.005859 119.428136 
L 58.94983 119.372156 
L 58.895122 119.315581 
L 58.841748 119.258427 
L 58.789722 119.200708 
L 58.739056 119.142437 
L 58.689764 119.08363 
L 58.641858 119.024302 
L 58.59535 118.964467 
L 58.550252 118.904141 
L 58.506575 118.843339 
L 58.464329 118.782075 
L 58.423527 118.720366 
L 58.384177 118.658227 
L 58.346291 118.595674 
L 58.309876 118.532722 
L 58.274944 118.469387 
L 58.241501 118.405685 
L 58.209558 118.341633 
L 58.179121 118.277246 
L 58.150199 118.21254 
L 58.122799 118.147533 
L 58.096927 118.082239 
L 58.072591 118.016676 
L 58.049795 117.950861 
L 58.028547 117.884809 
L 58.008851 117.818537 
L 57.990713 117.752063 
L 57.974137 117.685402 
L 57.959126 117.618571 
L 57.945686 117.551588 
L 57.933818 117.48447 
L 57.923527 117.417232 
L 57.914815 117.349893 
L 57.907684 117.282468 
L 57.902136 117.214975 
L 57.898172 117.147432 
L 57.895793 117.079854 
L 57.895 117.01226 
L 57.895 117.01226 
L 57.895 117.01226 
L 57.895793 116.944665 
L 57.898172 116.877087 
L 57.902136 116.809544 
L 57.907684 116.742051 
L 57.914815 116.674627 
L 57.923527 116.607287 
L 57.933818 116.54005 
L 57.945686 116.472931 
L 57.959126 116.405948 
L 57.974137 116.339118 
L 57.990713 116.272457 
L 58.008851 116.205982 
L 58.028547 116.13971 
L 58.049795 116.073659 
L 58.072591 116.007843 
L 58.096927 115.94228 
L 58.122799 115.876987 
L 58.150199 115.811979 
L 58.179121 115.747273 
L 58.209558 115.682886 
L 58.241501 115.618834 
L 58.274944 115.555132 
L 58.309876 115.491798 
L 58.346291 115.428846 
L 58.384177 115.366292 
L 58.423527 115.304153 
L 58.464329 115.242444 
L 58.506575 115.181181 
L 58.550252 115.120378 
L 58.59535 115.060052 
L 58.641858 115.000217 
L 58.689764 114.940889 
L 58.739056 114.882082 
L 58.789722 114.823812 
L 58.841748 114.766092 
L 58.895122 114.708938 
L 58.94983 114.652363 
L 59.005859 114.596383 
L 59.063194 114.541011 
L 59.121821 114.486261 
L 59.181725 114.432147 
L 59.242891 114.378683 
L 59.305304 114.325881 
L 59.368948 114.273756 
L 59.433807 114.22232 
L 59.499865 114.171587 
L 59.567104 114.121569 
L 59.635509 114.072278 
L 59.705061 114.023728 
L 59.775744 113.975929 
L 59.84754 113.928896 
L 59.92043 113.882638 
L 59.994396 113.837168 
L 60.069419 113.792498 
L 60.145481 113.748638 
L 60.222563 113.7056 
L 60.300644 113.663394 
L 60.379707 113.622032 
L 60.459729 113.581522 
L 60.540692 113.541877 
L 60.622575 113.503105 
L 60.705357 113.465216 
L 60.789018 113.428221 
L 60.873537 113.392128 
L 60.958891 113.356946 
L 61.04506 113.322684 
L 61.132023 113.289351 
L 61.219756 113.256955 
L 61.308238 113.225505 
L 61.397447 113.195008 
L 61.487361 113.165472 
L 61.577956 113.136904 
L 61.66921 113.109312 
L 61.7611 113.082703 
L 61.853602 113.057083 
L 61.946694 113.032458 
L 62.040353 113.008835 
L 62.134553 112.986221 
L 62.229272 112.964619 
L 62.324487 112.944037 
L 62.420172 112.924479 
L 62.516304 112.90595 
L 62.612858 112.888454 
L 62.709811 112.871997 
L 62.807138 112.856582 
L 62.904814 112.842214 
L 63.002815 112.828895 
L 63.101116 112.816629 
L 63.199693 112.805419 
L 63.29852 112.795269 
L 63.397573 112.78618 
L 63.496827 112.778155 
L 63.596256 112.771196 
L 63.695836 112.765304 
L 63.795542 112.760482 
L 63.895349 112.75673 
L 63.995231 112.754049 
L 64.095163 112.752441 
L 64.195121 112.751905 
L 64.195121 112.751905 
L 383.840619 112.751905 
L 390.14074 117.01226 
L 396.440861 112.751905 
L 451.861335 112.751905 
L 451.861335 112.751905 
L 451.961292 112.752441 
L 452.061225 112.754049 
L 452.161107 112.75673 
L 452.260913 112.760482 
L 452.360619 112.765304 
L 452.460199 112.771196 
L 452.559629 112.778155 
L 452.658883 112.78618 
L 452.757936 112.795269 
L 452.856763 112.805419 
L 452.955339 112.816629 
L 453.053641 112.828895 
L 453.151642 112.842214 
L 453.249318 112.856582 
L 453.346645 112.871997 
L 453.443598 112.888454 
L 453.540152 112.90595 
L 453.636284 112.924479 
L 453.731969 112.944037 
L 453.827183 112.964619 
L 453.921903 112.986221 
L 454.016103 113.008835 
L 454.109761 113.032458 
L 454.202853 113.057083 
L 454.295356 113.082703 
L 454.387246 113.109312 
L 454.4785 113.136904 
L 454.569095 113.165472 
L 454.659008 113.195008 
L 454.748217 113.225505 
L 454.8367 113.256955 
L 454.924433 113.289351 
L 455.011395 113.322684 
L 455.097565 113.356946 
L 455.182919 113.392128 
L 455.267437 113.428221 
L 455.351098 113.465216 
L 455.433881 113.503105 
L 455.515763 113.541877 
L 455.596726 113.581522 
L 455.676749 113.622032 
L 455.755811 113.663394 
L 455.833893 113.7056 
L 455.910974 113.748638 
L 455.987037 113.792498 
L 456.06206 113.837168 
L 456.136026 113.882638 
L 456.208916 113.928896 
L 456.280711 113.975929 
L 456.351394 114.023728 
L 456.420947 114.072278 
L 456.489351 114.121569 
L 456.556591 114.171587 
L 456.622648 114.22232 
L 456.687507 114.273756 
L 456.751151 114.325881 
L 456.813564 114.378683 
L 456.874731 114.432147 
L 456.934635 114.486261 
L 456.993262 114.541011 
L 457.050597 114.596383 
L 457.106626 114.652363 
L 457.161334 114.708938 
L 457.214708 114.766092 
L 457.266734 114.823812 
L 457.3174 114.882082 
L 457.366692 114.940889 
L 457.414598 115.000217 
L 457.461106 115.060052 
L 457.506204 115.120378 
L 457.549881 115.181181 
L 457.592126 115.242444 
L 457.632929 115.304153 
L 457.672278 115.366292 
L 457.710165 115.428846 
L 457.746579 115.491798 
L 457.781512 115.555132 
L 457.814954 115.618834 
L 457.846898 115.682886 
L 457.877334 115.747273 
L 457.906257 115.811979 
L 457.933657 115.876987 
L 457.959529 115.94228 
L 457.983865 116.007843 
L 458.00666 116.073659 
L 458.027909 116.13971 
L 458.047604 116.205982 
L 458.065743 116.272457 
L 458.082319 116.339118 
L 458.09733 116.405948 
L 458.11077 116.472931 
L 458.122637 116.54005 
L 458.132928 116.607287 
L 458.14164 116.674627 
L 458.148771 116.742051 
L 458.15432 116.809544 
L 458.158284 116.877087 
L 458.160663 116.944665 
L 458.161456 117.01226 
L 458.161456 117.01226 
L 458.161456 117.01226 
L 458.160663 117.079854 
L 458.158284 117.147432 
L 458.15432 117.214975 
L 458.148771 117.282468 
L 458.14164 117.349893 
L 458.132928 117.417232 
L 458.122637 117.48447 
L 458.11077 117.551588 
L 458.09733 117.618571 
L 458.082319 117.685402 
L 458.065743 117.752063 
L 458.047604 117.818537 
L 458.027909 117.884809 
L 458.00666 117.950861 
L 457.983865 118.016676 
L 457.959529 118.082239 
L 457.933657 118.147533 
L 457.906257 118.21254 
L 457.877334 118.277246 
L 457.846898 118.341633 
L 457.814954 118.405685 
L 457.781512 118.469387 
L 457.746579 118.532722 
L 457.710165 118.595674 
L 457.672278 118.658227 
L 457.632929 118.720366 
L 457.592126 118.782075 
L 457.549881 118.843339 
L 457.506204 118.904141 
L 457.461106 118.964467 
L 457.414598 119.024302 
L 457.366692 119.08363 
L 457.3174 119.142437 
L 457.266734 119.200708 
L 457.214708 119.258427 
L 457.161334 119.315581 
L 457.106626 119.372156 
L 457.050597 119.428136 
L 456.993262 119.483508 
L 456.934635 119.538258 
L 456.874731 119.592372 
L 456.813564 119.645836 
L 456.751151 119.698638 
L 456.687507 119.750763 
L 456.622648 119.802199 
L 456.556591 119.852932 
L 456.489351 119.902951 
L 456.420947 119.952241 
L 456.351394 120.000792 
L 456.280711 120.04859 
L 456.208916 120.095624 
L 456.136026 120.141881 
L 456.06206 120.187351 
L 455.987037 120.232021 
L 455.910974 120.275881 
L 455.833893 120.318919 
L 455.755811 120.361125 
L 455.676749 120.402488 
L 455.596726 120.442997 
L 455.515763 120.482642 
L 455.433881 120.521414 
L 455.351098 120.559303 
L 455.267437 120.596298 
L 455.182919 120.632392 
L 455.097565 120.667574 
L 455.011395 120.701835 
L 454.924433 120.735168 
L 454.8367 120.767564 
L 454.748217 120.799014 
L 454.659008 120.829511 
L 454.569095 120.859047 
L 454.4785 120.887615 
L 454.387246 120.915207 
L 454.295356 120.941816 
L 454.202853 120.967437 
L 454.109761 120.992061 
L 454.016103 121.015684 
L 453.921903 121.038299 
L 453.827183 121.0599 
L 453.731969 121.080482 
L 453.636284 121.10004 
L 453.540152 121.118569 
L 453.443598 121.136065 
L 453.346645 121.152522 
L 453.249318 121.167937 
L 453.151642 121.182306 
L 453.053641 121.195624 
L 452.955339 121.20789 
L 452.856763 121.2191 
L 452.757936 121.22925 
L 452.658883 121.238339 
L 452.559629 121.246364 
L 452.460199 121.253323 
L 452.360619 121.259215 
L 452.260913 121.264037 
L 452.161107 121.267789 
L 452.061225 121.27047 
L 451.961292 121.272078 
L 451.861335 121.272615 
L 451.861335 121.272615 
L 396.440861 121.272615 
L 390.14074 117.01226 
L 383.840619 121.272615 
L 64.195121 121.272615 
z
" clip-path="url(#pe2a51177e8)" style="fill: none; stroke: #000000; stroke-linejoin: miter"/>
   </g>
  </g>
 </g>
 <defs>
  <clipPath id="pe2a51177e8">
   <rect x="57.226069" y="28.396875" width="669.6" height="110.88"/>
  </clipPath>
 </defs>
</svg>
